<svg height="423pt" viewBox="-68 0 423 423.25164" width="423pt" xmlns="http://www.w3.org/2000/svg"><path d="m259.539062 334.507812c0-45.246093-51.957031-81.921874-116.054687-81.921874-64.09375 0-116.050781 36.675781-116.050781 81.921874 0 45.242188 51.957031 81.917969 116.050781 81.917969 64.097656 0 116.054687-36.675781 116.054687-81.917969zm0 0" fill="#55a6ff"/><path d="m259.539062 334.507812h6.828126c.003906-12.628906-3.652344-24.667968-10.09375-35.398437-9.671876-16.113281-25.464844-29.386719-44.964844-38.695313-19.511719-9.300781-42.808594-14.652343-67.824219-14.652343-33.347656.011719-63.652344 9.492187-85.996094 25.238281-11.167969 7.882812-20.351562 17.367188-26.792969 28.109375-6.4375 10.730469-10.097656 22.769531-10.089843 35.398437-.007813 12.625 3.652343 24.664063 10.09375 35.394532 9.671875 16.113281 25.464843 29.386718 44.960937 38.695312 19.515625 9.300782 42.8125 14.652344 67.824219 14.652344 33.351563-.011719 63.65625-9.492188 86-25.238281 11.164063-7.886719 20.351563-17.367188 26.792969-28.109375 6.4375-10.730469 10.097656-22.769532 10.089844-35.394532h-13.65625c-.003907 9.992188-2.839844 19.507813-8.148438 28.375-7.945312 13.285157-21.582031 25.03125-39.128906 33.390626-17.53125 8.367187-38.890625 13.328124-61.949219 13.328124-30.742187.011719-58.464844-8.847656-78.121094-22.746093-9.839843-6.941407-17.652343-15.113281-22.953125-23.972657-5.308594-8.867187-8.144531-18.382812-8.152344-28.375.007813-9.996093 2.84375-19.511718 8.152344-28.378906 7.941406-13.285156 21.582032-25.03125 39.128906-33.390625 17.527344-8.363281 38.886719-13.328125 61.945313-13.328125 30.746094-.011718 58.464844 8.847656 78.125 22.746094 9.839844 6.941406 17.648437 15.113281 22.953125 23.972656 5.308594 8.867188 8.144531 18.382813 8.148438 28.378906zm0 0" fill="#54596e"/><path d="m92.285156 395.945312c-5.652344 0-10.238281-4.585937-10.238281-10.238281v-23.894531h20.480469v23.894531c0 5.65625-4.585938 10.238281-10.242188 10.238281zm0 0" fill="#fff"/><path d="m194.6875 395.945312c-5.652344 0-10.242188-4.585937-10.242188-10.238281v-23.894531h20.480469v23.894531c0 5.65625-4.585937 10.238281-10.238281 10.238281zm0 0" fill="#fff"/><path d="m143.484375 34.132812c-75.40625 0-136.53125 61.125-136.53125 136.535157v170.664062l54.613281-13.652343c0 22.621093 36.679688 40.960937 81.917969 40.960937 45.242187 0 81.921875-18.339844 81.921875-40.960937l54.613281 13.652343v-170.664062c0-75.40625-61.125-136.535157-136.535156-136.535157zm0 0" fill="#a1b7ff"/><path d="m143.484375 34.132812v-6.824218c-79.175781 0-143.355469 64.175781-143.359375 143.359375v170.664062c0 2.097657.972656 4.089844 2.625 5.378907 1.65625 1.292968 3.824219 1.75 5.859375 1.246093l54.613281-13.65625-1.65625-6.621093h-6.828125c-.011719 7.550781 3.125 14.558593 8.054688 20.351562 7.4375 8.726562 18.835937 15.363281 32.707031 20.082031 13.886719 4.683594 30.328125 7.351563 47.988281 7.351563 23.550781-.015625 44.917969-4.710938 60.976563-12.714844 8.027344-4.023438 14.769531-8.882812 19.714844-14.714844 4.929687-5.796875 8.066406-12.804687 8.054687-20.351562h-6.828125l-1.652344 6.621094 54.613282 13.652343c2.03125.507813 4.203124.046875 5.855468-1.242187 1.648438-1.289063 2.625-3.285156 2.625-5.382813v-170.664062c-.003906-79.183594-64.183594-143.359375-143.363281-143.359375v13.652344c35.839844.003906 68.222656 14.507812 91.71875 37.988281 23.484375 23.496093 37.984375 55.878906 37.988281 91.71875v161.921875l-46.128906-11.535156c-2.035156-.507813-4.207031-.046876-5.859375 1.246093-1.652344 1.289063-2.625 3.28125-2.625 5.378907-.011719 3.761718-1.460937 7.523437-4.820313 11.535156-5 5.972656-14.378906 11.84375-26.65625 15.960937-12.265624 4.148438-27.34375 6.644531-43.617187 6.640625-21.6875.015625-41.28125-4.460937-54.871094-11.277344-6.796875-3.390624-12.054687-7.355468-15.398437-11.324218-3.359375-4.007813-4.808594-7.773438-4.824219-11.53125 0-2.097656-.972656-4.09375-2.621094-5.382813-1.652343-1.289062-3.824219-1.75-5.859375-1.242187l-46.132812 11.53125v-161.921875c.003906-35.839844 14.507812-68.226563 37.992187-91.71875 23.492188-23.484375 55.875-37.984375 91.714844-37.988281zm0 0" fill="#54596e"/><path d="m143.484375 197.972656c-29.710937 0-54.917969-9.503906-64.300781-22.757812-2.515625 7.128906-3.964844 14.765625-3.964844 22.757812 0 37.703125 30.566406 68.265625 68.265625 68.265625 37.703125 0 68.269531-30.5625 68.269531-68.265625 0-7.992187-1.449218-15.628906-3.96875-22.757812-9.378906 13.253906-34.585937 22.757812-64.300781 22.757812zm0 0" fill="#fff"/><path d="m143.484375 197.972656v-6.824218c-14.125.003906-27.140625-2.28125-37.457031-6.007813-10.34375-3.6875-17.851563-8.941406-21.269532-13.871094-1.472656-2.078125-3.988281-3.167969-6.511718-2.816406-2.523438.351563-4.648438 2.082031-5.496094 4.488281-2.757812 7.792969-4.359375 16.210938-4.359375 25.03125.007813 41.476563 33.621094 75.089844 75.09375 75.09375 41.476563-.003906 75.089844-33.617187 75.09375-75.09375.003906-8.820312-1.597656-17.238281-4.355469-25.03125-.851562-2.40625-2.972656-4.136718-5.496094-4.488281-2.527343-.351563-5.042968.738281-6.511718 2.816406-3.414063 4.929688-10.925782 10.183594-21.269532 13.871094-10.320312 3.726563-23.332031 6.007813-37.460937 6.007813v13.652343c15.589844-.007812 30.035156-2.472656 42.089844-6.8125 12.035156-4.378906 21.820312-10.503906 27.785156-18.824219l-5.574219-3.945312-6.433594 2.273438c2.28125 6.460937 3.574219 13.316406 3.574219 20.484374-.003906 16.984376-6.867187 32.300782-17.996093 43.441407-11.140626 11.128906-26.457032 17.992187-43.445313 17.996093-16.984375-.003906-32.300781-6.867187-43.441406-17.996093-11.128907-11.140625-17.992188-26.457031-17.996094-43.445313 0-7.167968 1.292969-14.023437 3.574219-20.480468l-6.4375-2.277344-5.570313 3.945312c5.964844 8.324219 15.75 14.449219 27.78125 18.824219 12.058594 4.339844 26.503907 6.808594 42.089844 6.8125zm0 0" fill="#54596e"/><path d="m129.886719 197.902344c-2.175781 2.863281-3.46875 6.4375-3.46875 10.3125 0 9.421875 7.640625 17.066406 17.066406 17.066406s17.066406-7.644531 17.066406-17.066406c0-3.757813-1.210937-7.230469-3.265625-10.046875" fill="#54596e"/><path d="m124.445312 193.773438c-3.035156 3.996093-4.855468 9.035156-4.851562 14.441406.003906 13.195312 10.691406 23.886718 23.890625 23.890625 13.199219-.003907 23.890625-10.695313 23.894531-23.890625.003906-5.234375-1.703125-10.132813-4.574218-14.066406-2.222657-3.046876-6.492188-3.71875-9.539063-1.5-3.046875 2.222656-3.714844 6.492187-1.496094 9.539062 1.234375 1.703125 1.953125 3.75 1.957031 6.027344-.007812 5.652344-4.585937 10.226562-10.238281 10.238281-5.65625-.011719-10.230469-4.585937-10.242187-10.238281.003906-2.347656.769531-4.453125 2.082031-6.1875 2.277344-3.007813 1.6875-7.289063-1.316406-9.566406-3.003907-2.277344-7.285157-1.691407-9.566407 1.3125zm0 0" fill="#54596e"/><g fill="#ffb8f2"><path d="m54.738281 276.480469c0 5.65625-4.582031 10.238281-10.238281 10.238281s-10.242188-4.582031-10.242188-10.238281 4.585938-10.242188 10.242188-10.242188 10.238281 4.585938 10.238281 10.242188zm0 0"/><path d="m47.914062 310.613281c0 5.65625-4.585937 10.238281-10.242187 10.238281s-10.238281-4.582031-10.238281-10.238281 4.582031-10.238281 10.238281-10.238281 10.242187 4.582031 10.242187 10.238281zm0 0"/><path d="m75.21875 296.960938c0 5.65625-4.585938 10.238281-10.238281 10.238281-5.65625 0-10.242188-4.582031-10.242188-10.238281s4.585938-10.242188 10.242188-10.242188c5.652343 0 10.238281 4.585938 10.238281 10.242188zm0 0"/><path d="m252.710938 276.480469c0 5.65625-4.582032 10.238281-10.238282 10.238281s-10.238281-4.582031-10.238281-10.238281 4.582031-10.242188 10.238281-10.242188 10.238282 4.585938 10.238282 10.242188zm0 0"/><path d="m259.539062 310.613281c0 5.65625-4.585937 10.238281-10.238281 10.238281-5.65625 0-10.242187-4.582031-10.242187-10.238281s4.585937-10.238281 10.242187-10.238281c5.652344 0 10.238281 4.582031 10.238281 10.238281zm0 0"/><path d="m232.234375 296.960938c0 5.65625-4.585937 10.238281-10.242187 10.238281s-10.238282-4.582031-10.238282-10.238281 4.582032-10.242188 10.238282-10.242188 10.242187 4.585938 10.242187 10.242188zm0 0"/></g><path d="m225.40625 146.773438c0-32.046876-36.675781-58.027344-81.921875-58.027344-45.242187 0-81.917969 25.980468-81.917969 58.027344 0 32.046874 36.675782 58.027343 81.917969 58.027343 45.246094 0 81.921875-25.980469 81.921875-58.027343zm0 0" fill="#55a6ff"/><path d="m225.40625 146.773438h6.828125c.003906-9.324219-2.695313-18.214844-7.40625-26.085938-7.078125-11.828125-18.542969-21.453125-32.59375-28.191406-14.070313-6.726563-30.804687-10.574219-48.75-10.574219-23.925781.011719-45.703125 6.820313-61.871094 18.25-8.074219 5.722656-14.761719 12.628906-19.46875 20.515625-4.710937 7.871094-7.414062 16.761719-7.40625 26.085938-.007812 9.324218 2.695313 18.214843 7.40625 26.085937 7.078125 11.828125 18.542969 21.453125 32.59375 28.1875 14.066407 6.726563 30.800781 10.574219 48.746094 10.578125 23.929687-.015625 45.703125-6.820312 61.871094-18.25 8.078125-5.722656 14.761719-12.628906 19.472656-20.515625 4.710937-7.871094 7.410156-16.761719 7.402344-26.085937h-13.652344c-.003906 6.699218-1.890625 13.074218-5.472656 19.085937-5.355469 9-14.671875 17.09375-26.765625 22.871094-12.082032 5.785156-26.871094 9.246093-42.855469 9.242187-21.3125.015625-40.496094-6.167968-53.980469-15.738281-6.746094-4.78125-12.058594-10.375-15.640625-16.378906-3.582031-6.007813-5.464843-12.386719-5.472656-19.082031.007813-6.703126 1.890625-13.078126 5.472656-19.089844 5.359375-9 14.671875-17.09375 26.769531-22.871094 12.082032-5.785156 26.867188-9.246094 42.851563-9.242188 21.3125-.015624 40.496094 6.167969 53.980469 15.738282 6.746094 4.78125 12.058594 10.375 15.640625 16.378906 3.582031 6.007812 5.46875 12.386719 5.472656 19.085938zm0 0" fill="#54596e"/><path d="m222.40625 24.355469c-17.921875-5.839844-43.335938 22.847656-56.765625 64.074219-13.425781 41.222656-9.78125 79.375 8.140625 85.214843 17.921875 5.835938 43.335938-22.851562 56.765625-64.074219 13.425781-41.226562 9.785156-79.378906-8.140625-85.214843zm0 0" fill="#a1b7ff"/><path d="m222.414062 24.339844 2.113282-6.492188c-2.257813-.738281-4.609375-1.09375-6.949219-1.089844-6.164063.015626-12.03125 2.339844-17.515625 5.972657-8.230469 5.488281-15.925781 14.082031-22.933594 24.929687-6.984375 10.855469-13.207031 24-17.972656 38.640625-5.664062 17.394531-8.433594 34.28125-8.441406 48.929688.015625 10.6875 1.449218 20.191406 4.644531 28.03125 1.609375 3.914062 3.683594 7.429687 6.382813 10.359375 2.6875 2.925781 6.058593 5.246094 9.925781 6.503906 2.269531.738281 4.621093 1.085938 6.953125 1.085938 6.164062-.015626 12.027344-2.34375 17.515625-5.972657 8.230469-5.492187 15.925781-14.085937 22.929687-24.933593 6.984375-10.851563 13.207032-23.996094 17.976563-38.632813 5.664062-17.394531 8.429687-34.285156 8.4375-48.933594-.011719-10.691406-1.445313-20.195312-4.644531-28.03125-1.609376-3.914062-3.683594-7.433593-6.382813-10.363281-2.683594-2.925781-6.0625-5.246094-9.929687-6.496094l-2.109376 6.492188-2.113281 6.492187c1.445313.476563 2.761719 1.3125 4.117188 2.769531 2.019531 2.164063 3.972656 5.839844 5.308593 10.84375 1.351563 4.988282 2.105469 11.230469 2.101563 18.292969.007813 12.921875-2.5 28.558594-7.765625 44.707031-5.894531 18.117188-14.234375 33.679688-22.855469 44.355469-4.296875 5.339844-8.664062 9.441407-12.621093 12.058594-3.972657 2.644531-7.421876 3.714844-9.964844 3.699219-.988282 0-1.871094-.140625-2.726563-.417969-1.441406-.476563-2.757812-1.3125-4.113281-2.773437-2.019531-2.164063-3.972656-5.839844-5.3125-10.84375-1.347656-4.988282-2.101562-11.230469-2.097656-18.289063-.007813-12.921875 2.5-28.558594 7.765625-44.703125 5.890625-18.125 14.230469-33.6875 22.855469-44.363281 4.296874-5.339844 8.664062-9.441407 12.621093-12.058594 3.972657-2.644531 7.421875-3.714844 9.96875-3.699219.976563.003906 1.855469.144532 2.71875.421875zm0 0" fill="#54596e"/><path d="m121.316406 88.410156c-13.425781-41.222656-38.839844-69.910156-56.765625-64.074218-17.921875 5.839843-21.566406 43.992187-8.136719 85.214843 13.425782 41.226563 38.84375 69.914063 56.765626 64.074219 17.921874-5.835938 21.566406-43.988281 8.136718-85.214844zm0 0" fill="#a1b7ff"/><path d="m64.558594 24.339844 2.117187 6.492187c.859375-.28125 1.738281-.421875 2.71875-.421875 2.542969-.019531 5.992188 1.054688 9.964844 3.699219 5.953125 3.921875 12.753906 11.207031 19 20.945313 6.269531 9.730468 12.050781 21.878906 16.476563 35.472656 5.265624 16.144531 7.769531 31.78125 7.765624 44.703125.011719 9.414062-1.355468 17.375-3.625 22.847656-1.121093 2.738281-2.445312 4.839844-3.789062 6.289063-1.355469 1.460937-2.667969 2.296874-4.121094 2.773437-.847656.277344-1.726562.417969-2.714844.417969-2.546874.015625-5.996093-1.054688-9.96875-3.699219-5.953124-3.921875-12.753906-11.207031-19-20.945313-6.269531-9.730468-12.050781-21.878906-16.472656-35.46875-5.269531-16.148437-7.773437-31.785156-7.769531-44.707031-.015625-9.414062 1.355469-17.375 3.621094-22.847656 1.125-2.738281 2.449219-4.835937 3.789062-6.289063 1.355469-1.457031 2.667969-2.292968 4.117188-2.769531l-2.109375-6.492187-2.113282-6.492188c-3.867187 1.25-7.242187 3.570313-9.929687 6.496094-4.046875 4.410156-6.699219 10.078125-8.457031 16.542969-1.742188 6.480469-2.566406 13.832031-2.570313 21.851562.007813 14.648438 2.777344 31.535157 8.441407 48.9375 6.367187 19.515625 15.28125 36.367188 25.203124 48.695313 4.976563 6.160156 10.207032 11.207031 15.703126 14.867187 5.484374 3.628907 11.351562 5.957031 17.515624 5.972657 2.332032 0 4.683594-.347657 6.945313-1.085938 3.875-1.257812 7.25-3.578125 9.933594-6.503906 4.042969-4.410156 6.699219-10.078125 8.453125-16.542969 1.742187-6.480469 2.566406-13.832031 2.570312-21.847656-.007812-14.648438-2.773437-31.535157-8.4375-48.933594-6.367187-19.519531-15.28125-36.375-25.207031-48.699219-4.976563-6.164062-10.207031-11.210937-15.703125-14.867187-5.484375-3.632813-11.347656-5.957031-17.511719-5.972657-2.339843-.003906-4.695312.351563-6.953125 1.089844zm0 0" fill="#54596e"/><path d="m177.621094 85.332031c0-43.355469-15.285156-78.503906-34.136719-78.503906s-34.132813 35.148437-34.132813 78.503906c0 43.359375 15.28125 78.507813 34.132813 78.507813s34.136719-35.148438 34.136719-78.507813zm0 0" fill="#a1b7ff"/><path d="m143.484375 6.828125v-6.828125c-6.917969-.0078125-13.136719 3.285156-18.046875 8.101562-7.414062 7.285157-12.875 18.15625-16.808594 31.414063-3.890625 13.257813-6.101562 28.953125-6.101562 45.816406.015625 22.492188 3.90625 42.875 10.5625 58.234375 3.351562 7.683594 7.386718 14.148438 12.347656 18.996094 4.910156 4.816406 11.128906 8.109375 18.046875 8.101562 6.921875.007813 13.136719-3.285156 18.046875-8.101562 7.417969-7.285156 12.875-18.15625 16.808594-31.410156 3.890625-13.261719 6.101562-28.957032 6.105468-45.820313-.019531-22.492187-3.90625-42.875-10.5625-58.234375-3.351562-7.679687-7.386718-14.144531-12.351562-18.996094-4.910156-4.816406-11.125-8.1093745-18.046875-8.101562v13.652344c2.507813.007812 5.273437 1.105468 8.527344 4.238281 4.835937 4.632813 9.796875 13.667969 13.226562 25.472656 3.472657 11.800781 5.558594 26.316407 5.554688 41.96875.015625 20.867188-3.734375 39.734375-9.429688 52.792969-2.828125 6.523438-6.148437 11.554688-9.351562 14.652344-3.253907 3.128906-6.019531 4.230468-8.527344 4.234375-2.503906-.007813-5.269531-1.105469-8.523437-4.234375-4.835938-4.632813-9.800782-13.671875-13.226563-25.472656-3.472656-11.800782-5.558594-26.316407-5.554687-41.972657-.019532-20.867187 3.734374-39.734375 9.429687-52.789062 2.828125-6.527344 6.148437-11.558594 9.351563-14.65625 3.253906-3.128907 6.019531-4.226563 8.523437-4.234375zm0 0" fill="#54596e"/></svg>