<svg height="415pt" viewBox="-7 0 415 415.3503" width="415pt" xmlns="http://www.w3.org/2000/svg"><path d="m201.03125 19.40625-79.355469 17.007812-65.636719 48.082032-40.558593 70.832031-8.476563 81.347656 25.0625 77.792969 54.289063 60.789062 74.113281 33.269532h81.121094l74.113281-33.269532 54.285156-60.789062 25.066407-77.792969-8.480469-81.347656-40.558594-70.832031-65.632813-48.082032z" fill="#f4a14e"/><path d="m201.027344 19.40625-1.429688-6.675781-79.351562 17.003906c-.933594.199219-1.835938.605469-2.601563 1.171875l-65.636719 48.074219c-.769531.5625-1.417968 1.289062-1.890624 2.117187l-40.558594 70.839844c-.476563.824219-.765625 1.734375-.867188 2.683594l-8.480468 81.347656c-.097657.949219 0 1.894531.292968 2.804688l25.066406 77.789062c.292969.90625.769532 1.742188 1.40625 2.453125l54.289063 60.785156c.632813.710938 1.425781 1.289063 2.296875 1.679688l74.113281 33.269531c.871094.390625 1.839844.601562 2.792969.601562h81.121094c.953125 0 1.925781-.210937 2.796875-.601562l74.113281-33.269531c.871094-.390625 1.660156-.96875 2.292969-1.679688l54.289062-60.785156c.632813-.710937 1.113281-1.546875 1.40625-2.453125l25.066407-77.792969c.289062-.90625.390624-1.851562.289062-2.800781l-8.480469-81.347656c-.097656-.953125-.390625-1.859375-.863281-2.6875l-40.5625-70.835938c-.472656-.828125-1.121094-1.554687-1.890625-2.117187l-65.628906-48.074219c-.769531-.566406-1.671875-.972656-2.605469-1.171875l-79.351562-17.003906c-.933594-.203125-1.929688-.203125-2.863282 0l1.429688 6.675781-1.429688 6.675781 77.925782 16.699219 63.289062 46.359375 39.121094 68.328125 8.183594 78.480469-24.183594 75.046875-52.355469 58.628906-71.449219 32.070312h-78.199218l-71.449219-32.070312-52.355469-58.628906-24.183594-75.046875 8.179688-78.480469 39.125-68.324219 63.285156-46.363281 77.929688-16.699219-1.433594-6.675781-1.429688 6.675781zm0 0" fill="#54596e"/><path d="m367.597656 6.828125c-15.582031 41.191406-47.148437 69.746094-79.488281 76.078125 6.046875 26.71875 21.539063 48.027344 44.542969 56.613281.84375.320313 1.726562.492188 2.578125.769531 12.132812-12.667968 22.433593-28.71875 29.40625-47.394531 11.359375-30.425781 11.613281-61.386719 2.960937-86.066406zm0 0" fill="#fff"/><path d="m367.597656 6.828125-6.386718-2.414063c-14.832032 39.371094-45.050782 66.152344-74.410157 71.789063-1.816406.355469-3.398437 1.425781-4.410156 2.976563-1.011719 1.546874-1.347656 3.425781-.9375 5.230468 3.214844 14.199219 8.964844 27.125 17.160156 37.765625 8.183594 10.636719 18.875 18.976563 31.648438 23.738281 1.539062.554688 2.527343.738282 2.851562.863282 2.484375.8125 5.238281.117187 7.046875-1.769532 12.789063-13.351562 23.574219-30.191406 30.871094-49.730468 6.417969-17.191406 9.460938-34.585938 9.464844-51.101563 0-14.050781-2.207032-27.472656-6.457032-39.609375-.949218-2.703125-3.492187-4.5312498-6.359374-4.566406-2.867188-.0351562-5.453126 1.730469-6.46875 4.410156l6.386718 2.417969-6.445312 2.257813c3.703125 10.550781 5.691406 22.46875 5.691406 35.09375 0 14.835937-2.746094 30.636718-8.601562 46.324218-6.652344 17.816406-16.464844 33.082032-27.945313 45.0625l4.933594 4.722656 2.113281-6.492187c-1.378906-.429687-2.15625-.59375-2.304688-.671875-10.226562-3.824219-18.785156-10.4375-25.609374-19.28125-6.8125-8.835938-11.832032-19.921875-14.664063-32.445312l-6.65625 1.507812 1.308594 6.699219c35.320312-7.027344 68.234375-37.355469 84.5625-80.363281l-6.382813-2.414063-6.445312 2.257813zm0 0" fill="#54596e"/><path d="m201.03125 114.980469c-49.015625 0-88.75 39.726562-88.75 88.746093 0 49.015626 39.734375 88.742188 88.75 88.742188 49.007812 0 88.742188-39.726562 88.742188-88.742188 0-49.015624-39.734376-88.746093-88.742188-88.746093" fill="#d49354"/><path d="m34.761719 6.828125c15.585937 41.191406 47.152343 69.746094 79.492187 76.078125-6.046875 26.71875-21.539062 48.027344-44.539062 56.613281-.855469.320313-1.726563.492188-2.582032.769531-12.136718-12.667968-22.433593-28.71875-29.40625-47.394531-11.359374-30.425781-11.609374-61.386719-2.964843-86.066406zm0 0" fill="#fff"/><path d="m34.761719 6.828125-6.382813 2.414063c16.332032 43.007812 49.246094 73.335937 84.566406 80.363281l1.3125-6.699219-6.660156-1.507812c-2.828125 12.523437-7.847656 23.609374-14.660156 32.445312-6.824219 8.84375-15.382812 15.457031-25.609375 19.28125-.164063.082031-.933594.246094-2.308594.671875l2.117188 6.492187 4.929687-4.722656c-11.484375-11.980468-21.292968-27.25-27.941406-45.0625-5.859375-15.691406-8.605469-31.492187-8.605469-46.328125 0-12.625 1.988281-24.542969 5.683594-35.089843l-6.441406-2.257813-6.382813 2.414063 6.382813-2.414063-6.441407-2.257813c-4.253906 12.128907-6.453124 25.554688-6.453124 39.601563 0 16.519531 3.046874 33.910156 9.464843 51.105469 7.296875 19.539062 18.074219 36.378906 30.875 49.734375 1.804688 1.886719 4.558594 2.578125 7.042969 1.765625.332031-.125 1.3125-.3125 2.839844-.855469 12.785156-4.769531 23.472656-13.105469 31.660156-23.742187 8.195312-10.644532 13.949219-23.570313 17.160156-37.765626.410156-1.808593.074219-3.6875-.9375-5.234374-1.011718-1.550782-2.59375-2.617188-4.410156-2.972657-29.355469-5.640625-59.578125-32.421875-74.414062-71.792969-1.015626-2.679687-3.605469-4.445312-6.472657-4.41015575-2.863281.03515625-5.410156 1.86328175-6.355469 4.56640575zm0 0" fill="#54596e"/><path d="m276.121094 190.070312c0 41.472657-33.621094 75.09375-75.09375 75.09375s-75.089844-33.621093-75.089844-75.09375c0-41.472656 33.617188-75.089843 75.089844-75.089843s75.09375 33.617187 75.09375 75.089843zm0 0" fill="#fff"/><g fill="#54596e"><path d="m276.121094 190.070312h6.828125c-.003907-45.246093-36.675781-81.914062-81.921875-81.917968-45.242188.003906-81.914063 36.671875-81.917969 81.917968.003906 45.246094 36.675781 81.917969 81.917969 81.921876 45.246094-.003907 81.917968-36.675782 81.921875-81.921876h-13.652344c-.003906 18.875-7.632813 35.894532-19.996094 48.273438-12.375 12.363281-29.398437 19.988281-48.273437 19.996094-18.871094-.007813-35.894532-7.632813-48.269532-19.996094-12.363281-12.378906-19.992187-29.402344-19.996093-48.273438.003906-18.871093 7.632812-35.894531 19.996093-48.269531 12.375-12.363281 29.398438-19.992187 48.269532-19.996093 18.875.003906 35.898437 7.632812 48.273437 19.996093 12.363281 12.375 19.992188 29.398438 19.996094 48.269531zm0 0"/><path d="m201.027344 173.003906c0 9.425782-7.640625 17.066406-17.066406 17.066406-9.425782 0-17.066407-7.640624-17.066407-17.066406 0-9.425781 7.640625-17.066406 17.066407-17.066406 9.425781 0 17.066406 7.640625 17.066406 17.066406zm0 0"/><path d="m201.027344 173.003906h6.828125c-.003907-13.195312-10.695313-23.886718-23.894531-23.890625-13.199219.003907-23.886719 10.695313-23.890626 23.890625.003907 13.199219 10.691407 23.890625 23.890626 23.894532 13.199218-.003907 23.890624-10.695313 23.894531-23.894532h-13.652344c-.011719 5.652344-4.589844 10.230469-10.242187 10.242188-5.652344-.011719-10.226563-4.589844-10.238282-10.242188.011719-5.652344 4.585938-10.226562 10.238282-10.242187 5.652343.015625 10.230468 4.589843 10.242187 10.242187zm0 0"/><path d="m269.296875 326.605469c0 18.851562-15.285156 34.132812-34.132813 34.132812-18.851562 0-34.136718-15.28125-34.136718-34.132812 0-18.851563 15.285156-34.132813 34.136718-34.132813 18.847657 0 34.132813 15.28125 34.132813 34.132813zm0 0"/><path d="m269.296875 326.605469h6.824219c-.003906-22.625-18.332032-40.957031-40.957032-40.960938-22.628906.003907-40.957031 18.335938-40.960937 40.960938.003906 22.625 18.332031 40.953125 40.960937 40.957031 22.625-.003906 40.953126-18.332031 40.957032-40.957031h-13.652344c-.003906 7.5625-3.046875 14.34375-7.996094 19.308593-4.964844 4.949219-11.746094 7.992188-19.308594 7.996094-7.566406-.003906-14.347656-3.042968-19.3125-7.996094-4.949218-4.964843-7.992187-11.75-7.996093-19.308593.003906-7.5625 3.046875-14.347657 7.996093-19.308594 4.964844-4.953125 11.746094-7.996094 19.3125-8 7.5625.003906 14.34375 3.046875 19.308594 8 4.949219 4.960937 7.992188 11.746094 7.996094 19.308594zm0 0"/></g><path d="m241.988281 326.605469-13.652343 13.652343-13.652344-13.652343v-20.480469l27.304687-6.828125zm0 0" fill="#fff"/></svg>