<svg height="432pt" viewBox="-40 0 432 432.57398" width="432pt" xmlns="http://www.w3.org/2000/svg"><path d="m134.210938 410 26.785156-73.792969-24.753906-8.984375 4.136718-4.144531-33.785156-33.785156-55.515625 55.511719c-9.328125 9.332031-9.328125 24.457031 0 33.789062 9.332031 9.332031 24.457031 9.335938 33.789063 0l15.558593-15.550781-11.132812 30.65625c-4.496094 12.40625 1.902343 26.109375 14.3125 30.613281 12.402343 4.496094 26.101562-1.90625 30.605469-14.3125" fill="#55a6ff"/><path d="m134.210938 410 6.421874 2.328125 26.785157-73.792969c1.28125-3.542968-.542969-7.460937-4.089844-8.742187l-24.753906-8.992188-2.332031 6.421875 4.828124 4.828125 4.136719-4.144531c1.269531-1.273438 2-3.027344 2-4.828125 0-1.792969-.730469-3.554687-2-4.824219l-33.785156-33.789062c-2.671875-2.664063-6.992187-2.664063-9.660156 0l-55.507813 55.515625c-5.988281 5.972656-9.007812 13.878906-9.003906 21.71875-.007812 7.835937 3.015625 15.738281 8.996094 21.722656 5.980468 5.980469 13.878906 9 21.71875 8.996094 7.84375.007812 15.746094-3.007813 21.730468-8.992188l15.558594-15.554687-4.828125-4.828125-6.421875-2.335938-11.121094 30.667969c-1.253906 3.4375-1.851562 6.988281-1.851562 10.46875-.007812 12.566406 7.761719 24.335938 20.242188 28.886719 3.453124 1.25 7 1.84375 10.484374 1.84375 12.566407.007812 24.332032-7.761719 28.875-20.234375l-6.421874-2.339844-6.414063-2.328125c-2.511719 6.941406-9.078125 11.246094-16.042969 11.253906-1.933594-.007812-3.882812-.328125-5.820312-1.03125-6.949219-2.511719-11.246094-9.078125-11.253906-16.050781 0-1.921875.332031-3.875 1.035156-5.8125l11.121094-30.664062c1.09375-3-.050782-6.367188-2.746094-8.085938-2.699219-1.714844-6.234375-1.328125-8.492188.929688l-15.558594 15.558593c-3.351562 3.34375-7.679687 4.988281-12.074218 4.996094-4.386719-.007813-8.710938-1.652344-12.066406-4.996094-3.339844-3.347656-4.988282-7.679687-4.992188-12.066406.003906-4.394531 1.652344-8.714844 5-12.066406l50.6875-50.6875 28.960938 28.960937 4.824218-4.824218-4.824218-4.828126-4.136719 4.136719c-1.644531 1.644531-2.34375 4.039063-1.839844 6.308594.503906 2.273437 2.148437 4.144531 4.335937 4.9375l18.339844 6.660156-24.457031 67.375z" fill="#54596e"/><path d="m227.882812 410-26.789062-73.792969 24.753906-8.984375-4.136718-4.144531 33.792968-33.785156 55.515625 55.511719c9.324219 9.332031 9.324219 24.457031 0 33.789062-9.332031 9.332031-24.464843 9.335938-33.792969 0l-15.558593-15.550781 11.132812 30.65625c4.503907 12.40625-1.90625 26.109375-14.3125 30.613281-12.402343 4.496094-26.101562-1.90625-30.605469-14.3125" fill="#55a6ff"/><path d="m227.882812 410 6.410157-2.328125-24.453125-67.375 18.339844-6.660156c2.1875-.792969 3.832031-2.664063 4.335937-4.9375.503906-2.269531-.195313-4.664063-1.839844-6.308594l-4.136719-4.136719-4.828124 4.824219 4.828124 4.828125 28.964844-28.960938 50.683594 50.6875c3.347656 3.347657 4.996094 7.671876 5 12.066407-.007812 4.386719-1.652344 8.714843-5 12.066406-3.34375 3.339844-7.671875 4.988281-12.054688 4.992187-4.402343-.003906-8.730468-1.652343-12.082031-4.992187l-15.554687-15.558594c-2.257813-2.257812-5.796875-2.644531-8.492188-.929687-2.691406 1.71875-3.839844 5.085937-2.75 8.085937l11.128906 30.664063c.703126 1.933594 1.027344 3.882812 1.027344 5.8125-.007812 6.96875-4.304687 13.53125-11.253906 16.046875-1.929688.703125-3.886719 1.027343-5.820312 1.035156-6.964844-.007813-13.53125-4.3125-16.042969-11.257813l-6.410157 2.335938-6.421874 2.335938c4.542968 12.472656 16.3125 20.242187 28.875 20.234374 3.488281 0 7.035156-.59375 10.480468-1.84375 12.484375-4.550781 20.257813-16.316406 20.25-28.882812 0-3.484375-.601562-7.035156-1.851562-10.480469l-11.125-30.660156-6.421875 2.335937-4.824219 4.828126 15.558594 15.550781c5.988281 5.988281 13.886718 9 21.730468 8.996093 7.835938.007813 15.734376-3.011718 21.707032-8.996093 5.988281-5.984375 9.007812-13.886719 9.003906-21.722657.007812-7.839843-3.015625-15.746093-8.996094-21.71875l-55.515625-55.515624c-2.667969-2.664063-6.988281-2.664063-9.652343 0l-33.792969 33.789062c-1.269531 1.269531-2 3.03125-2 4.824219 0 1.800781.730469 3.558593 2 4.828125l4.136719 4.144531 4.828124-4.828125-2.332031-6.421875-24.753906 8.992187c-3.546875 1.28125-5.375 5.199219-4.089844 8.742188l26.785157 73.792969z" fill="#54596e"/><path d="m343.292969 203.726562c0-90.488281-73.359375-163.835937-163.839844-163.835937-90.488281 0-163.84375 73.347656-163.84375 163.835937 0 90.488282 73.355469 163.839844 163.84375 163.839844 90.480469 0 163.839844-73.351562 163.839844-163.839844" fill="#55a6ff"/><path d="m343.292969 203.726562h6.824219c-.007813-94.261718-76.410157-170.664062-170.664063-170.664062-94.265625 0-170.664063 76.402344-170.671875 170.664062.007812 94.257813 76.410156 170.660157 170.671875 170.664063 94.257813-.003906 170.65625-76.40625 170.664063-170.664063h-13.652344c-.007813 43.375-17.566406 82.585938-45.988282 111.023438-28.433593 28.421875-67.648437 45.980469-111.023437 45.988281-43.382813-.007812-82.589844-17.566406-111.027344-45.988281-28.425781-28.4375-45.984375-67.648438-45.992187-111.023438.007812-43.382812 17.566406-82.589843 45.992187-111.027343 28.4375-28.425781 67.644531-45.984375 111.027344-45.992188 43.375.007813 82.589844 17.566407 111.023437 45.992188 28.421876 28.4375 45.980469 67.644531 45.988282 111.027343z" fill="#54596e"/><path d="m336.460938 202.8125c-20.160157 67.640625-82.816407 116.96875-157.007813 116.96875-74.195313 0-136.851563-49.328125-157.015625-116.96875 0 .304688-.003906.609375-.003906.914062.007812 43.375 17.566406 82.585938 45.992187 111.023438 28.4375 28.421875 67.644531 45.980469 111.027344 45.988281 43.375-.007812 82.589844-17.566406 111.023437-45.988281 28.421876-28.4375 45.980469-67.648438 45.988282-111.023438h6.828125-6.828125c-.003906-.304687-.003906-.609374-.003906-.914062" fill="#5597e2"/><path d="m17.363281 179.832031c-1.144531 7.800781-1.753906 15.777344-1.753906 23.894531 0 90.488282 73.355469 163.839844 163.84375 163.839844 90.480469 0 163.839844-73.351562 163.839844-163.839844h-6.828125c-.007813 43.375-17.566406 82.585938-45.988282 111.023438-28.433593 28.421875-67.648437 45.980469-111.023437 45.988281-43.382813-.007812-82.589844-17.566406-111.027344-45.988281-28.425781-28.4375-45.984375-67.648438-45.992187-111.023438 0-.304687.003906-.609374.003906-.914062-2.222656-7.453125-3.925781-15.125-5.074219-22.980469m324.171875 0c-1.148437 7.855469-2.855468 15.527344-5.074218 22.980469v.914062h6.828124c.003907-8.117187-.609374-16.089843-1.753906-23.894531" fill="#54596e"/><path d="m138.488281 190.070312c0 18.851563-15.28125 34.136719-34.132812 34.136719-18.851563 0-34.132813-15.285156-34.132813-34.136719 0-18.851562 15.28125-34.132812 34.132813-34.132812 18.851562 0 34.132812 15.28125 34.132812 34.132812zm0 0" fill="#fff"/><path d="m138.488281 190.070312h6.828125c-.003906-22.625-18.335937-40.953124-40.960937-40.957031-22.621094.003907-40.953125 18.332031-40.960938 40.957031.007813 22.625 18.339844 40.957032 40.960938 40.960938 22.625-.003906 40.957031-18.335938 40.960937-40.960938h-13.652344c-.003906 7.5625-3.046874 14.347657-8 19.308594-4.964843 4.953125-11.746093 7.996094-19.308593 8-7.5625-.003906-14.34375-3.046875-19.308594-8-4.949219-4.960937-7.992187-11.746094-7.996094-19.308594.003907-7.5625 3.046875-14.34375 7.996094-19.308593 4.964844-4.949219 11.75-7.992188 19.308594-8 7.5625.007812 14.34375 3.046875 19.308593 8 4.953126 4.964843 7.996094 11.746093 8 19.308593zm0 0" fill="#54596e"/><path d="m138.488281 190.070312c0-18.851562-15.28125-34.132812-34.132812-34.132812-18.847657 0-34.132813 15.28125-34.132813 34.132812zm0 0" fill="#54596e"/><path d="m118.007812 190.070312c0 7.542969-6.109374 13.65625-13.652343 13.65625-7.539063 0-13.652344-6.113281-13.652344-13.65625 0-7.539062 6.113281-13.652343 13.652344-13.652343 7.542969 0 13.652343 6.113281 13.652343 13.652343zm0 0" fill="#54596e"/><path d="m295.503906 190.070312c0 18.851563-15.28125 34.136719-34.132812 34.136719-18.851563 0-34.136719-15.285156-34.136719-34.136719 0-18.851562 15.285156-34.132812 34.136719-34.132812 18.851562 0 34.132812 15.28125 34.132812 34.132812zm0 0" fill="#fff"/><path d="m295.503906 190.070312h6.824219c-.003906-22.625-18.335937-40.953124-40.957031-40.957031-22.625.003907-40.957032 18.332031-40.960938 40.957031.003906 22.625 18.335938 40.957032 40.960938 40.960938 22.621094-.003906 40.953125-18.335938 40.957031-40.960938h-13.652344c-.003906 7.5625-3.046875 14.347657-8 19.308594-4.960937 4.953125-11.746093 7.996094-19.304687 8-7.5625-.003906-14.347656-3.046875-19.308594-8-4.953125-4.960937-7.996094-11.746094-8-19.308594.003906-7.5625 3.046875-14.34375 8-19.308593 4.960938-4.949219 11.746094-7.992188 19.308594-8 7.558594.007812 14.34375 3.046875 19.304687 8 4.953125 4.964843 7.996094 11.746093 8 19.308593zm0 0" fill="#54596e"/><path d="m295.503906 190.070312c0-18.851562-15.285156-34.132812-34.132812-34.132812-18.851563 0-34.136719 15.28125-34.136719 34.132812zm0 0" fill="#54596e"/><path d="m275.023438 190.070312c0 7.542969-6.113282 13.65625-13.652344 13.65625-7.542969 0-13.65625-6.113281-13.65625-13.65625 0-7.539062 6.113281-13.652343 13.65625-13.652343 7.539062 0 13.652344 6.113281 13.652344 13.652343zm0 0" fill="#54596e"/><path d="m213.582031 128.632812c0 18.851563-15.28125 34.132813-34.132812 34.132813-18.851563 0-34.132813-15.28125-34.132813-34.132813 0-18.851562 15.28125-34.132812 34.132813-34.132812 18.851562 0 34.132812 15.28125 34.132812 34.132812zm0 0" fill="#fff"/><g fill="#54596e"><path d="m213.582031 128.632812h6.828125c-.003906-22.625-18.335937-40.957031-40.960937-40.960937-22.625.003906-40.953125 18.335937-40.960938 40.960937.007813 22.621094 18.335938 40.953126 40.960938 40.957032 22.625-.003906 40.957031-18.335938 40.960937-40.957032h-13.652344c-.003906 7.5625-3.046874 14.34375-8 19.308594-4.964843 4.949219-11.746093 7.992188-19.308593 7.996094-7.5625-.003906-14.34375-3.046875-19.308594-7.996094-4.953125-4.964844-7.996094-11.75-7.996094-19.308594 0-7.566406 3.042969-14.347656 7.996094-19.308593 4.964844-4.953125 11.75-7.996094 19.308594-8 7.5625.003906 14.34375 3.046875 19.308593 8 4.953126 4.960937 7.996094 11.746093 8 19.308593zm0 0"/><path d="m213.582031 128.632812c0-18.851562-15.28125-34.132812-34.132812-34.132812-18.851563 0-34.132813 15.28125-34.132813 34.132812zm0 0"/><path d="m193.101562 128.632812c0 7.539063-6.113281 13.652344-13.652343 13.652344-7.539063 0-13.652344-6.113281-13.652344-13.652344 0-7.542968 6.113281-13.652343 13.652344-13.652343 7.539062 0 13.652343 6.109375 13.652343 13.652343zm0 0"/><path d="m90.703125 258.339844c0 30.160156 39.734375 54.613281 88.746094 54.613281 49.015625 0 88.746093-24.453125 88.746093-54.613281zm0 0"/><path d="m90.703125 258.339844h-6.828125c-.007812 9.058594 3.023438 17.652344 8.175781 25.121094 7.75 11.234374 20.085938 20.183593 35.160157 26.46875 15.085937 6.265624 33.007812 9.84375 52.238281 9.847656 25.644531-.015625 48.949219-6.335938 66.332031-17.007813 8.683594-5.351562 15.910156-11.816406 21.066406-19.308593 5.152344-7.46875 8.183594-16.0625 8.175782-25.121094 0-1.800782-.730469-3.558594-2-4.828125-1.273438-1.269531-3.03125-2-4.828126-2h-177.492187c-1.796875 0-3.558594.726562-4.828125 2-1.269531 1.269531-2 3.027343-2 4.828125h6.828125v6.824218h177.492187v-6.824218h-6.824218c-.011719 6.019531-1.945313 11.792968-5.773438 17.386718-5.722656 8.371094-15.894531 16.101563-29.148437 21.59375-13.238281 5.507813-29.472657 8.808594-47 8.804688-23.371094.015625-44.4375-5.890625-59.175781-14.984375-7.375-4.535156-13.144532-9.835937-16.96875-15.414063-3.832032-5.59375-5.765626-11.367187-5.773438-17.386718h-6.828125v6.824218zm0 0"/></g><path d="m152.144531 292.472656 14.179688-24.5625h-28.359375zm0 0" fill="#9af43b"/><path d="m124.835938 292.472656 14.179687-24.5625h-28.359375zm0 0" fill="#9af43b"/><path d="m206.757812 292.472656 14.179688-24.5625h-28.359375zm0 0" fill="#9af43b"/><path d="m179.449219 292.472656 14.179687-24.5625h-28.359375zm0 0" fill="#9af43b"/><path d="m339.195312 6.828125c-15.589843 41.191406-47.15625 69.746094-79.492187 76.078125 6.046875 26.71875 21.539063 48.027344 44.542969 56.613281.847656.320313 1.722656.492188 2.578125.769531 12.136719-12.667968 22.429687-28.71875 29.40625-47.394531 11.359375-30.425781 11.613281-61.386719 2.964843-86.066406zm0 0" fill="#fff"/><path d="m339.195312 6.828125-6.386718-2.414063c-14.835938 39.371094-45.0625 66.152344-74.417969 71.789063-1.816406.355469-3.398437 1.425781-4.40625 2.976563-1.011719 1.546874-1.347656 3.425781-.941406 5.230468 3.214843 14.199219 8.96875 27.125 17.164062 37.765625 8.183594 10.636719 18.871094 18.976563 31.644531 23.738281 1.539063.550782 2.519532.734376 2.859376.863282 2.484374.808594 5.234374.117187 7.039062-1.769532 12.792969-13.351562 23.574219-30.191406 30.871094-49.730468 6.417968-17.195313 9.464844-34.585938 9.464844-51.105469 0-14.050781-2.203126-27.476563-6.453126-39.605469-.949218-2.703125-3.492187-4.5312498-6.359374-4.566406-2.867188-.0351562-5.453126 1.730469-6.46875 4.410156l6.390624 2.417969-6.445312 2.257813c3.699219 10.542968 5.6875 22.464843 5.6875 35.089843 0 14.835938-2.746094 30.636719-8.601562 46.328125-6.65625 17.8125-16.460938 33.082032-27.941407 45.0625l4.929688 4.722656 2.109375-6.496093c-1.375-.425781-2.140625-.589844-2.308594-.671875-10.21875-3.824219-18.777344-10.433594-25.601562-19.277344-6.8125-8.835938-11.832032-19.925781-14.660157-32.449219l-6.660156 1.507813 1.3125 6.699218c35.316406-7.023437 68.226563-37.355468 84.5625-80.359374l-6.382813-2.414063-6.445312 2.257813zm0 0" fill="#54596e"/><path d="m13.1875 6.828125c15.582031 41.191406 47.148438 69.746094 79.488281 76.078125-6.050781 26.71875-21.542969 48.027344-44.539062 56.613281-.851563.320313-1.730469.492188-2.585938.769531-12.132812-12.667968-22.429687-28.71875-29.402343-47.394531-11.359376-30.425781-11.613282-61.386719-2.960938-86.066406zm0 0" fill="#fff"/><path d="m13.1875 6.828125-6.386719 2.414063c16.332031 43.007812 49.246094 73.335937 84.5625 80.363281l1.3125-6.699219-6.65625-1.507812c-2.832031 12.519531-7.851562 23.609374-14.664062 32.445312-6.824219 8.84375-15.382813 15.457031-25.605469 19.28125-.160156.078125-.929688.246094-2.304688.671875l2.109376 6.492187 4.929687-4.722656c-11.476563-11.980468-21.289063-27.25-27.9375-45.0625-5.859375-15.6875-8.605469-31.488281-8.601563-46.328125-.003906-12.621093 1.984376-24.542969 5.683594-35.085937l-6.441406-2.261719-6.386719 2.414063 6.386719-2.414063-6.445312-2.257813c-4.25 12.128907-6.453126 25.554688-6.457032 39.605469 0 16.515625 3.046875 33.910157 9.46875 51.101563 7.296875 19.539062 18.078125 36.378906 30.867188 49.734375 1.808594 1.882812 4.554687 2.578125 7.039062 1.769531.339844-.128906 1.320313-.3125 2.859375-.863281 12.777344-4.765625 23.464844-13.101563 31.648438-23.738281 8.195312-10.644532 13.949219-23.566407 17.164062-37.765626.410157-1.808593.074219-3.6875-.9375-5.234374-1.011719-1.550782-2.59375-2.617188-4.40625-2.972657-29.363281-5.640625-59.582031-32.421875-74.417969-71.792969-1.015624-2.679687-3.605468-4.445312-6.46875-4.41015575-2.867187.03515625-5.410156 1.86328175-6.359374 4.56640575zm0 0" fill="#54596e"/></svg>