<svg height="409pt" viewBox="-7 0 409 409.6" width="409pt" xmlns="http://www.w3.org/2000/svg"><path d="m218.75 85.332031h-34.132812c0-24.464843-19.90625-44.371093-44.371094-44.371093v-34.132813c43.289062 0 78.503906 35.21875 78.503906 78.503906zm0 0" fill="#bfad88"/><path d="m218.75 85.332031v-6.824219h-34.132812v6.824219h6.828124c-.015624-28.25-22.949218-51.1875-51.199218-51.199219v6.828126h6.824218v-34.132813h-6.824218v6.824219c19.773437.003906 37.65625 8.027344 50.65625 21.019531 12.996094 13.003906 21.019531 30.886719 21.023437 50.660156h6.824219v-6.824219 6.824219h6.828125c-.011719-47.070312-38.261719-85.3203122-85.332031-85.332031-1.796875 0-3.558594.726562-4.828125 2-1.269531 1.269531-2 3.027344-2 4.828125v34.132813c0 1.820312.710937 3.535156 2 4.824218 1.289062 1.292969 3.003906 2 4.828125 2 10.363281.003906 19.710937 4.199219 26.535156 11.011719 6.8125 6.824219 11.007812 16.171875 11.011719 26.535156 0 1.824219.707031 3.539063 2 4.828125 1.289062 1.289063 3.003906 2 4.824219 2h34.132812c1.824219 0 3.539062-.710937 4.828125-2 1.289063-1.289062 2-3.003906 2-4.828125zm0 0" fill="#54596e"/><path d="m389.421875 245.757812c0-90.488281-85.582031-163.839843-191.148437-163.839843-105.566407 0-191.148438 87.007812-191.148438 177.492187 0 90.488282 85.582031 143.359375 191.148438 143.359375 105.566406 0 191.148437-66.527343 191.148437-157.011719" fill="#f4a14e"/><path d="m389.421875 245.757812h6.824219c.007812-47.445312-22.484375-90.304687-58.367188-121.03125-35.898437-30.757812-85.238281-49.628906-139.605468-49.636718-54.683594.007812-104.117188 22.519531-139.878907 56.710937-35.753906 34.183594-58.074219 80.179688-58.09375 127.609375-.007812 23.699219 5.628907 45.171875 15.859375 63.855469 15.339844 28.042969 40.828125 49.660156 72.378906 64.203125 31.578126 14.546875 69.289063 22.121094 109.734376 22.128906 54.207031-.007812 103.484374-17.058594 139.453124-46.089844 35.945313-28.980468 58.546876-70.292968 58.519532-117.75h-13.652344c-.027344 43.035157-20.21875 80.230469-53.453125 107.128907-33.21875 26.851562-79.515625 43.0625-130.867187 43.0625-51.660157.015625-98.125-13-131.214844-36.488281-16.558594-11.753907-29.800782-26.074219-38.921875-42.753907-9.121094-16.683593-14.175781-35.746093-14.183594-57.296875-.027344-43.054687 20.445313-85.800781 53.871094-117.742187 33.425781-31.9375 79.566406-52.929688 130.449219-52.921875 51.199218-.007813 97.429687 17.808594 130.71875 46.339844 33.296874 28.578124 53.59375 67.636718 53.601562 110.671874z" fill="#54596e"/><path d="m382.21875 255.757812c-22.6875 67.171876-96.445312 112.882813-183.945312 112.882813-87.621094 0-161.460938-36.425781-184.035157-100.546875 1.179688 18.027344 6.023438 34.203125 13.898438 48.613281 9.121093 16.675781 22.363281 31 38.921875 42.753907 33.074218 23.476562 79.503906 36.488281 131.132812 36.488281h.082032c51.351562 0 97.648437-16.210938 130.867187-43.0625 30.632813-24.792969 50.183594-58.328125 53.078125-97.128907" fill="#d49354"/><g fill="#54596e"><path d="m8.167969 242.148438c-.683594 5.722656-1.042969 11.484374-1.042969 17.261718 0 90.488282 85.582031 143.359375 191.148438 143.359375 105.566406 0 191.148437-66.527343 191.148437-157.011719h-4.246094c-.863281 3.386719-1.847656 6.714844-2.957031 10-2.894531 38.796876-22.445312 72.335938-53.078125 97.128907-33.21875 26.851562-79.515625 43.0625-130.867187 43.0625-.027344 0-.054688 0-.082032 0-51.628906 0-98.058594-13.011719-131.132812-36.492188-16.558594-11.753906-29.800782-26.074219-38.921875-42.753906-7.875-14.40625-12.722657-30.585937-13.898438-48.609375-2.890625-8.199219-4.9375-16.855469-6.070312-25.945312m380.210937-13.496094c-.710937 5.824218-1.785156 11.535156-3.203125 17.105468h4.246094c0-5.773437-.359375-11.484374-1.042969-17.105468"/><path d="m68.566406 228.691406c8 54.949219 63.488282 97.527344 130.871094 97.527344 67.386719 0 122.875-42.578125 130.878906-97.527344h-20.894531l-21.71875 27.308594-30.929687-27.308594-26.871094 27.308594-31.628906-23.894531-30.207032 27.308593-22.476562-30.722656-27.617188 27.308594-23.195312-27.308594zm0 0"/><path d="m68.566406 228.691406-6.757812.984375c4.296875 29.488281 21.300781 55.417969 45.824218 73.839844 24.539063 18.441406 56.671876 29.523437 91.804688 29.527344 35.136719-.003907 67.273438-11.085938 91.808594-29.527344 24.523437-18.421875 41.527344-44.351563 45.824218-73.839844.285157-1.957031-.300781-3.957031-1.59375-5.449219-1.292968-1.496093-3.1875-2.359374-5.160156-2.359374h-20.894531c-2.074219 0-4.050781.953124-5.34375 2.578124l-17.246094 21.679688-25.542969-22.550781c-2.71875-2.398438-6.839843-2.253907-9.382812.332031l-22.667969 23.03125-26.851562-20.28125c-2.613281-1.976562-6.261719-1.8125-8.691407.386719l-24.589843 22.226562-18.003907-24.609375c-1.167968-1.59375-2.996093-2.617187-4.96875-2.773437-1.96875-.160157-3.9375.558593-5.339843 1.949219l-22.382813 22.128906-18.429687-21.691406c-1.292969-1.527344-3.203125-2.40625-5.203125-2.40625h-26.210938c-1.976562 0-3.871094.863281-5.164062 2.359374-1.292969 1.492188-1.878906 3.492188-1.59375 5.449219l6.757812-.984375v6.828125h23.054688l21.148437 24.898438c1.230469 1.449219 3.007813 2.316406 4.90625 2.402343 1.898438.082032 3.746094-.632812 5.097657-1.964843l21.980468-21.738281 17.800782 24.328124c1.136718 1.550782 2.898437 2.5625 4.816406 2.757813 1.917968.199219 3.84375-.4375 5.273437-1.726563l26.019531-23.519531 27.125 20.492188c2.726563 2.058593 6.582032 1.773437 8.980469-.660157l22.332031-22.699218 26.082032 23.027344c1.40625 1.238281 3.25 1.847656 5.117187 1.683593 1.871094-.167969 3.578125-1.085937 4.746094-2.554687l19.671875-24.726563h17.597656v-6.828125l-6.753906-.984375c-3.707031 25.460938-18.445312 48.292969-40.515625 64.894531-22.054687 16.585938-51.351563 26.789063-83.605469 26.789063-32.25 0-61.546875-10.207031-83.601562-26.789063-22.070313-16.601562-36.808594-39.433593-40.515625-64.894531l-6.757813.984375v6.828125zm0 0"/><path d="m191.445312 81.921875v320.851563c0 3.769531 3.054688 6.828124 6.828126 6.828124 3.769531 0 6.824218-3.058593 6.824218-6.828124v-320.851563c0-3.773437-3.054687-6.828125-6.824218-6.828125-3.773438 0-6.828126 3.054688-6.828126 6.828125"/><path d="m277.367188 391.085938c22.910156-36.394532 36.933593-88.015626 36.960937-145.324219-.042969-63.175781-17.035156-119.4375-44.285156-156.003907-2.257813-3.023437-6.535157-3.640624-9.554688-1.386718-3.023437 2.257812-3.640625 6.535156-1.382812 9.558594 24.941406 33.289062 41.609375 87.136718 41.566406 147.832031.027344 55.058593-13.65625 104.488281-34.855469 138.042969-2.007812 3.1875-1.054687 7.402343 2.136719 9.414062 3.1875 2.011719 7.402344 1.058594 9.414063-2.132812zm0 0"/><path d="m126.320312 90.003906c-27.140624 36.574219-44.058593 92.722656-44.101562 155.757813.027344 57.308593 14.050781 108.929687 36.960938 145.320312 2.011718 3.1875 6.226562 4.144531 9.414062 2.132813 3.191406-2.007813 4.144531-6.222656 2.136719-9.414063-21.199219-33.550781-34.882813-82.980469-34.859375-138.039062-.042969-60.558594 16.554687-114.300781 41.402344-147.609375 2.246093-3.023438 1.621093-7.300782-1.40625-9.550782-3.023438-2.25-7.300782-1.621093-9.546876 1.402344zm0 0"/></g><path d="m175.363281 198.597656-36.375-44.988281c-2.082031-2.574219-6.097656-2.257813-7.757812.609375l-20.769531 35.976562c-1.65625 2.867188.082031 6.503907 3.351562 7.019532l57.148438 9.007812c4.269531.675782 7.121093-4.265625 4.402343-7.625zm0 0" fill="#ff927d"/><path d="m175.363281 198.597656 5.308594-4.296875-36.375-44.984375c-2.277344-2.839844-5.707031-4.308594-8.972656-4.289062-3.839844-.035156-7.851563 2.007812-10.007813 5.785156l.003906-.007812-20.769531 35.976562c-1.039062 1.789062-1.558593 3.8125-1.550781 5.761719.003906 2.730469.957031 5.304687 2.648438 7.363281 1.679687 2.054688 4.207031 3.597656 7.089843 4.046875l.011719.003906 57.148438 9.007813h.011718c.636719.101562 1.253906.144531 1.835938.144531 3.3125.015625 6.339844-1.464844 8.320312-3.59375 2.003906-2.128906 3.179688-4.921875 3.191406-7.984375.015626-2.480469-.867187-5.140625-2.59375-7.246094l.011719.015625-5.3125 4.296875-5.292969 4.304688 1.683594-1.371094h-2.152344l.46875 1.371094 1.683594-1.371094h-2.152344 2.011719l-1.472656-1.390625-.539063 1.390625h2.011719l-1.472656-1.390625 1.605469 1.515625v-2.199219l-1.605469.683594 1.605469 1.515625v-2.199219 1.757813l.269531-1.734375-.269531-.023438v1.757813l.269531-1.738282h.007813l-57.148438-9.007812.015625.003906-.335937 2.085938 1.628906-1.339844-1.292969-.746094-.332031 2.085938 1.625-1.339844-1.601563 1.320312h2.074219l-.472656-1.320312-1.601563 1.320312h2.074219-2.128906l1.847656 1.070313.28125-1.070313h-2.128906l1.847656 1.070313 20.773438-35.980469.003906-.007812-1.824219-1.050782v2.105469c.636719.035157 1.460937-.402343 1.824219-1.054687l-1.824219-1.050782v2.105469-2.109375l-1.648437 1.332032 1.648437.777343v-2.109375l-1.648437 1.332032 36.378906 44.988281.011718.015625zm0 0" fill="#54596e"/><path d="m220.117188 198.597656 36.378906-44.988281c2.082031-2.574219 6.097656-2.257813 7.75.609375l20.777344 35.976562c1.652343 2.867188-.082032 6.503907-3.355469 7.019532l-57.148438 9.007812c-4.269531.675782-7.121093-4.265625-4.402343-7.625zm0 0" fill="#ff927d"/><path d="m220.117188 198.597656 5.304687 4.289063 36.378906-44.984375-1.644531-1.332032v2.109376l1.648438-.777344-1.648438-1.332032v2.109376-2.113282l-1.828125 1.050782c.359375.65625 1.191406 1.097656 1.828125 1.0625v-2.113282l-1.828125 1.050782.007813.015624 20.773437 35.976563 1.84375-1.070313-2.125.003907.28125 1.066406 1.84375-1.070313-2.125.003907h2.074219l-1.601563-1.324219-.472656 1.324219h2.078125l-1.605469-1.324219 1.621094 1.335938-.335937-2.082032-1.285157.746094 1.621094 1.335938-.335937-2.082032h.019531l-57.148438 9.007813h.007813l.273437 1.742187v-1.761718l-.273437.019531.273437 1.742187v-1.761718 2.199218l1.601563-1.515625-1.601563-.683593v2.199218l1.601563-1.515625-1.472656 1.390625h2.011718l-.539062-1.390625-1.472656 1.390625h2.011718-2.144531l1.683594 1.367188.460937-1.367188h-2.144531l1.683594 1.367188.007812-.011719-5.308593-4.292969-5.300782-4.304687c-1.722656 2.097656-2.609375 4.753906-2.589844 7.238281.011719 3.0625 1.1875 5.855469 3.1875 7.984375 1.980469 2.132813 5.007813 3.609375 8.324219 3.59375.582031.003906 1.199219-.039063 1.835938-.140625h.007812l57.148438-9.011719h.019531c2.878906-.453125 5.402344-1.996093 7.085938-4.050781 1.691406-2.058594 2.644531-4.632812 2.648437-7.363281.003906-1.945313-.511719-3.964844-1.550781-5.761719l-20.773438-35.976562.007813.015624c-2.15625-3.78125-6.167969-5.824218-10.007813-5.792968-3.265625-.019532-6.695312 1.453125-8.976562 4.292968l-36.375 44.984376.007812-.011719zm0 0" fill="#54596e"/></svg>