<svg height="436pt" viewBox="-37 0 436 436.90667" width="436pt" xmlns="http://www.w3.org/2000/svg"><path d="m184.773438 389.117188c-75.40625 0-136.535157-61.125-136.535157-136.53125v-136.53125h273.070313v136.53125c0 75.40625-61.125 136.53125-136.535156 136.53125" fill="#55a6ff"/><path d="m184.773438 389.117188v-6.820313c-35.839844-.007813-68.226563-14.511719-91.714844-37.996094-23.484375-23.488281-37.988282-55.875-37.988282-91.714843v-129.710938h259.410157v129.710938c-.007813 35.839843-14.503907 68.226562-37.988281 91.714843-23.5 23.484375-55.878907 37.988281-91.722657 37.996094v13.648437c79.179688-.003906 143.359375-64.183593 143.359375-143.359374v-136.53125c0-1.796876-.722656-3.5625-1.996094-4.828126-1.269531-1.269531-3.027343-2-4.824218-2h-273.070313c-1.796875 0-3.554687.722657-4.828125 2-1.269531 1.265626-2 3.03125-2 4.828126v136.53125c.007813 79.175781 64.179688 143.355468 143.363282 143.359374z" fill="#54596e"/><path d="m20.933594 47.785156h320.851562v68.269532h-320.851562zm0 0" fill="#999"/><path d="m341.785156 116.054688v-6.828126h-314.023437v-54.617187h307.199219v61.445313h6.824218v-6.828126 6.828126h6.828125v-68.269532c0-1.796875-.730469-3.554687-2-4.828125-1.269531-1.269531-3.03125-1.996093-4.828125-1.996093h-320.851562c-1.796875 0-3.558594.726562-4.828125 1.996093-1.269531 1.273438-2 3.03125-2 4.828125v68.269532c0 1.820312.710937 3.535156 2 4.824218 1.292969 1.292969 3.003906 2 4.828125 2h320.851562c1.824219 0 3.539063-.707031 4.828125-2 1.289063-1.289062 2-3.003906 2-4.824218zm0 0" fill="#54596e"/><path d="m314.480469 122.875h-259.410157v27.308594h259.410157z" fill="#5597e2"/><g fill="#54596e"><path d="m314.480469 122.875h-266.242188v27.308594h6.832031v-27.308594h259.410157v27.308594z"/><path d="m.453125 75.09375h13.652344v13.652344h-13.652344zm0 0"/><path d="m55.066406 75.09375h13.652344v13.652344h-13.652344zm0 0"/><path d="m89.199219 75.09375h13.652343v13.652344h-13.652343zm0 0"/><path d="m123.332031 75.09375h13.65625v13.652344h-13.65625zm0 0"/><path d="m157.464844 75.09375h13.65625v13.652344h-13.65625zm0 0"/><path d="m191.601562 75.09375h13.652344v13.652344h-13.652344zm0 0"/><path d="m225.734375 75.09375h13.652344v13.652344h-13.652344zm0 0"/><path d="m259.867188 75.09375h13.652343v13.652344h-13.652343zm0 0"/><path d="m294 75.09375h13.652344v13.652344h-13.652344zm0 0"/><path d="m348.613281 75.09375h13.652344v13.652344h-13.652344zm0 0"/></g><path d="m321.308594 47.785156h-273.070313c0-22.621094 18.339844-40.957031 40.960938-40.957031h191.148437c22.621094 0 40.960938 18.335937 40.960938 40.957031zm0 0" fill="#55a6ff"/><path d="m321.308594 47.785156v-6.824218h-273.070313v6.824218h6.828125c.003906-9.445312 3.8125-17.9375 9.996094-24.136718 6.199219-6.1875 14.691406-9.992188 24.136719-9.996094h191.148437c9.445313.003906 17.9375 3.808594 24.132813 9.996094 6.191406 6.199218 9.996093 14.6875 10 24.136718h6.828125v-6.824218 6.824218h6.824218c-.003906-26.394531-21.390624-47.78124975-47.785156-47.785156h-191.148437c-26.394531.00390625-47.78125 21.390625-47.785157 47.785156 0 1.824219.710938 3.539063 2 4.828125 1.289063 1.289063 3.003907 2 4.824219 2h273.070313c1.820312 0 3.535156-.710937 4.824218-2 1.289063-1.289062 2-3.003906 2-4.828125zm0 0" fill="#54596e"/><path d="m102.851562 177.492188c0 7.542968-6.109374 13.65625-13.652343 13.65625-7.539063 0-13.652344-6.113282-13.652344-13.65625 0-7.539063 6.113281-13.652344 13.652344-13.652344 7.542969 0 13.652343 6.113281 13.652343 13.652344zm0 0" fill="#54596e"/><path d="m294 177.492188c0 7.542968-6.113281 13.65625-13.652344 13.65625-7.542968 0-13.65625-6.113282-13.65625-13.65625 0-7.539063 6.113282-13.652344 13.65625-13.652344 7.539063 0 13.652344 6.113281 13.652344 13.652344zm0 0" fill="#54596e"/><path d="m275.472656 217.78125c8.910156-.03125 14.457032 15.546875 10.289063 28.46875-19.171875 59.460938-57.25 99.976562-101.09375 99.976562-43.667969 0-81.613281-40.183593-100.859375-99.238281-4.203125-12.886719 1.3125-28.5 10.21875-28.535156zm0 0" fill="#54596e"/><path d="m275.472656 217.78125 1.191406 6.722656-1.167968-6.5625v6.664063c.804687-.011719 1.164062-.109375 1.167968-.105469l-1.167968-6.5625v6.664062l.71875.308594c.667968.441406 1.859375 1.875 2.707031 4.09375.871094 2.199219 1.429687 5.078125 1.425781 8.046875 0 2.394531-.355468 4.84375-1.082031 7.105469-9.3125 28.910156-23.203125 52.992188-39.648437 69.570312-16.492188 16.609376-35.203126 25.65625-54.949219 25.667969-19.667969-.011719-38.304688-8.984375-54.75-25.460937-16.398438-16.453125-30.273438-40.351563-39.621094-69.066406-.738281-2.261719-1.097656-4.730469-1.097656-7.148438-.023438-3.949219 1.019531-7.742188 2.347656-9.984375.648437-1.128906 1.335937-1.839844 1.777344-2.152344l.722656-.308593 181.449219-.671876 1.167968-.105468-1.191406-6.714844-.027344-6.824219-181.445312.667969c-3.25-.003906-6.308594 1.171875-8.667969 2.894531-3.570312 2.613281-5.859375 6.230469-7.429687 10.191407-1.550782 3.980468-2.351563 8.414062-2.355469 13.011718 0 3.746094.542969 7.605469 1.769531 11.378906 9.902344 30.34375 24.621094 56.0625 42.925782 74.46875 18.257812 18.375 40.429687 29.492188 64.425781 29.480469 24.097656.007813 46.347656-11.199219 64.648437-29.710937 18.351563-18.542969 33.082032-44.445313 42.945313-74.992188 1.203125-3.753906 1.738281-7.582031 1.738281-11.296875-.023438-6.144531-1.402344-11.980469-4.199219-16.851562-1.414062-2.429688-3.222656-4.644531-5.609375-6.371094-2.363281-1.722656-5.433594-2.886719-8.691406-2.875-.824219.007813-1.214844.117187-1.222656.109375l1.195312 6.71875-.027344-6.824219zm0 0" fill="#54596e"/><path d="m225.734375 225.28125h-122.882813v163.839844c0 11.308594 9.171876 20.480468 20.480469 20.480468 5.273438 0 10.023438-2.046874 13.65625-5.316406v5.316406c0 11.308594 9.167969 20.476563 20.476563 20.476563h13.65625c11.308594 0 20.480468-9.167969 20.480468-20.476563v-5.316406c3.628907 3.269532 8.382813 5.316406 13.652344 5.316406 11.308594 0 20.480469-9.171874 20.480469-20.480468v-18.96875c3.628906 3.269531 8.382813 5.3125 13.652344 5.3125 11.308593 0 20.480469-9.167969 20.480469-20.476563v-129.707031zm0 0" fill="#a1b7ff"/><path d="m225.734375 225.28125v-6.828125h-122.882813c-1.796874 0-3.554687.726563-4.824218 2-1.269532 1.269531-2 3.027344-2 4.828125v163.839844c.003906 15.082031 12.222656 27.300781 27.304687 27.304687 7.0625.007813 13.464844-2.769531 18.222657-7.070312l-4.566407-5.070313h-6.828125v5.316406c.003906 15.082032 12.222656 27.300782 27.304688 27.304688h13.65625c15.082031-.003906 27.300781-12.222656 27.304687-27.304688v-5.316406h-6.824219l-4.570312 5.074219c4.757812 4.300781 11.160156 7.074219 18.222656 7.066406 15.082032-.003906 27.300782-12.21875 27.304688-27.304687v-18.96875h-6.824219l-4.570313 5.074218c4.757813 4.300782 11.160157 7.074219 18.222657 7.070313 15.082031-.003906 27.300781-12.222656 27.304687-27.308594v-129.703125c0-1.800781-.726562-3.558594-2-4.828125-1.269531-1.273437-3.027344-2.003906-4.824218-2.003906h-34.132813v13.652344h27.304687v122.882812c-.011718 7.535157-6.117187 13.636719-13.652343 13.652344-3.476563-.007813-6.585938-1.324219-9.085938-3.5625-2.003906-1.804687-4.878906-2.261719-7.34375-1.164063-2.464843 1.097657-4.050781 3.539063-4.050781 6.238282v18.96875c-.011719 7.535156-6.117188 13.636718-13.652344 13.652344-3.480468-.007813-6.585937-1.324219-9.085937-3.5625-2.007813-1.804688-4.878907-2.261719-7.34375-1.164063-2.464844 1.097656-4.050781 3.539063-4.050781 6.238281v5.316406c-.015626 7.535157-6.117188 13.636719-13.652344 13.652344h-13.65625c-7.535156-.015625-13.636719-6.117187-13.652344-13.652344v-5.316406c0-2.699218-1.585938-5.140625-4.050781-6.234375-2.460938-1.101562-5.339844-.644531-7.34375 1.164063-2.5 2.234375-5.605469 3.554687-9.082031 3.558594-7.539063-.015626-13.640626-6.117188-13.652344-13.652344v-157.015625h27.304687l6.828125.003906 40.957032-.003906 6.828124.003906h34.132813zm0 0" fill="#54596e"/><path d="m218.90625 327.679688v54.613281c0 3.769531 3.058594 6.828125 6.828125 6.828125s6.824219-3.058594 6.824219-6.828125v-54.613281c0-3.769532-3.054688-6.828126-6.824219-6.828126s-6.828125 3.058594-6.828125 6.828126" fill="#54596e"/><path d="m130.160156 361.8125v47.789062c0 3.769532 3.054688 6.824219 6.828125 6.824219 3.769531 0 6.824219-3.054687 6.824219-6.824219v-47.789062c0-3.769531-3.054688-6.824219-6.824219-6.824219-3.773437 0-6.828125 3.054688-6.828125 6.824219" fill="#54596e"/><path d="m130.160156 273.066406v34.132813c0 3.769531 3.054688 6.828125 6.828125 6.828125 3.769531 0 6.824219-3.058594 6.824219-6.828125v-34.132813c0-3.769531-3.054688-6.828125-6.824219-6.828125-3.773437 0-6.828125 3.058594-6.828125 6.828125" fill="#54596e"/></svg>