<svg height="436pt" viewBox="0 -6 436.90667 436" width="436pt" xmlns="http://www.w3.org/2000/svg"><path d="m218.449219 396.398438c-101.796875 0-184.316407 6.117187-184.316407 13.65625 0 7.542968 82.519532 13.652343 184.316407 13.652343 101.800781 0 184.324219-6.109375 184.324219-13.652343 0-7.539063-82.523438-13.65625-184.324219-13.65625" fill="#eeeef0"/><path d="m218.453125 7.28125c-54.480469 0-101.859375 30.394531-126.117187 75.148438v-.007813l-44.550782 81.871094h27.308594v183.425781c0 34.425781 27.90625 62.335938 62.332031 62.335938h20.019531c14.839844 0 26.875-12.035157 26.875-26.875v-20.914063h68.265626v20.914063c0 14.839843 12.035156 26.875 26.875 26.875h20.019531c34.425781 0 62.332031-27.910157 62.332031-62.335938v-197.078125c0-79.175781-64.183594-143.359375-143.359375-143.359375zm0 0" fill="#a1b7ff"/><path d="m218.453125 7.28125v-6.828125c-57.066406.003906-106.722656 31.847656-132.121094 78.726563l6.003907 3.25h6.824218v-.007813c0-3.113281-2.125-5.847656-5.140625-6.617187-3.019531-.769532-6.191406.617187-7.679687 3.351562l-44.546875 81.875c-1.15625 2.121094-1.109375 4.671875.125 6.75s3.453125 3.339844 5.867187 3.339844h20.480469v176.597656c.003906 38.195312 30.960937 69.15625 69.160156 69.160156h20.019531c18.613282-.003906 33.695313-15.085937 33.699219-33.699218v-14.089844h54.613281v14.089844c.003907 18.613281 15.085938 33.695312 33.699219 33.699218h20.019531c38.199219-.003906 69.15625-30.964844 69.160157-69.160156v-197.078125c-.003907-82.953125-67.242188-150.183594-150.1875-150.1875v13.652344c37.722656.007812 71.8125 15.273437 96.542969 39.992187 24.722656 24.726563 39.992187 58.816406 39.996093 96.542969v197.078125c-.003906 15.347656-6.203125 29.183594-16.257812 39.25-10.066407 10.054688-23.902344 16.253906-39.25 16.257812h-20.019531c-11.066407-.023437-20.027344-8.980468-20.046876-20.046874v-20.914063c0-1.796875-.730468-3.554687-2-4.828125-1.269531-1.269531-3.03125-1.996094-4.828124-1.996094h-68.265626c-1.796874 0-3.558593.726563-4.828124 1.996094-1.273438 1.273438-2 3.03125-2 4.828125v20.914063c-.019532 11.066406-8.980469 20.023437-20.046876 20.046874h-20.019531c-15.347656-.003906-29.183593-6.203124-39.25-16.257812-10.054687-10.066406-16.253906-23.902344-16.253906-39.25v-183.425781c0-1.796875-.730469-3.554688-2-4.828125-1.273437-1.269532-3.03125-2-4.828125-2h-15.820312l39.054687-71.78125-5.992187-3.261719h-6.828126v.011719c0 3.132812 2.109376 5.847656 5.148438 6.617187s6.1875-.613281 7.679688-3.367187c23.121093-42.632813 68.222656-71.582032 120.117187-71.578125zm0 0" fill="#54596e"/><path d="m163.839844 369.09375h109.226562c3.769532 0 6.828125-3.058594 6.828125-6.828125s-3.058593-6.824219-6.828125-6.824219h-109.226562c-3.769532 0-6.828125 3.054688-6.828125 6.824219s3.058593 6.828125 6.828125 6.828125" fill="#54596e"/><path d="m150.1875 143.8125c0 7.542969-6.113281 13.652344-13.652344 13.652344-7.542968 0-13.65625-6.109375-13.65625-13.652344 0-7.539062 6.113282-13.652344 13.65625-13.652344 7.539063 0 13.652344 6.113282 13.652344 13.652344zm0 0" fill="#54596e"/><path d="m314.027344 143.8125c0 7.542969-6.113282 13.652344-13.652344 13.652344-7.542969 0-13.65625-6.109375-13.65625-13.652344 0-7.539062 6.113281-13.652344 13.65625-13.652344 7.539062 0 13.652344 6.113282 13.652344 13.652344zm0 0" fill="#54596e"/><path d="m150.1875 205.253906h34.132812v3.414063c0 9.421875-7.640624 17.066406-17.066406 17.066406-9.425781 0-17.066406-7.644531-17.066406-17.066406zm0 0" fill="#fff"/><path d="m252.585938 205.253906h34.132812v3.414063c0 9.421875-7.640625 17.066406-17.066406 17.066406-9.425782 0-17.066406-7.644531-17.066406-17.066406zm0 0" fill="#fff"/><path d="m314.027344 239.386719c0-20.480469-42.785156-61.441407-95.574219-61.441407-52.785156 0-95.574219 40.960938-95.574219 61.441407s42.789063 61.441406 95.574219 61.441406c52.789063 0 95.574219-40.960937 95.574219-61.441406zm0 0" fill="#54596e"/><g fill="#fff"><path d="m158.453125 267.757812 5.386719-21.542968-21.132813 6.992187c3.757813 4.828125 9.148438 9.859375 15.746094 14.550781zm0 0"/><path d="m182.019531 280.265625-4.527343-13.574219-13.730469 4.578125c5.472656 3.390625 11.597656 6.460938 18.257812 8.996094zm0 0"/><path d="m253.144531 280.910156-14.210937-14.21875v18.25c4.933594-1.039062 9.6875-2.394531 14.210937-4.03125zm0 0"/><path d="m266.238281 259.867188v15.324218c4.082031-2.117187 7.882813-4.402344 11.355469-6.8125zm0 0"/><path d="m286.71875 253.039062 1.640625 6.554688c2.8125-2.726562 5.171875-5.4375 7.046875-8.078125zm0 0"/><path d="m197.972656 280.347656-6.214844 3.105469c3.835938 1.050781 7.789063 1.914063 11.855469 2.53125zm0 0"/><path d="m227.941406 286.671875-9.488281-6.324219-3.339844 6.683594c1.113281.039062 2.214844.140625 3.339844.140625 3.214844 0 6.367187-.199219 9.488281-.5zm0 0"/><path d="m279.660156 211.015625-5.386718 21.542969 21.132812-6.992188c-3.757812-4.824218-9.144531-9.859375-15.746094-14.550781zm0 0"/><path d="m256.09375 198.511719 4.527344 13.566406 13.730468-4.574219c-5.476562-3.390625-11.597656-6.457031-18.257812-8.992187zm0 0"/><path d="m184.96875 197.863281 14.210938 14.214844v-18.246094c-4.9375 1.039063-9.6875 2.394531-14.210938 4.03125zm0 0"/><path d="m171.875 218.90625v-15.324219c-4.082031 2.117188-7.882812 4.402344-11.355469 6.8125zm0 0"/><path d="m151.394531 225.734375-1.640625-6.554687c-2.8125 2.726562-5.171875 5.4375-7.046875 8.078124zm0 0"/><path d="m240.140625 198.425781 6.214844-3.105469c-3.839844-1.054687-7.789063-1.914062-11.855469-2.53125zm0 0"/><path d="m210.175781 192.101562 9.484375 6.324219 3.339844-6.683593c-1.117188-.035157-2.210938-.140626-3.339844-.140626-3.214844 0-6.367187.199219-9.484375.5zm0 0"/></g><path d="m75.09375 191.601562h-40.960938c-15.078124 0-27.304687 12.222657-27.304687 27.304688s12.226563 27.308594 27.304687 27.308594h40.960938zm0 0" fill="#55a6ff"/><path d="m75.09375 191.601562v-6.828124h-40.960938c-18.851562.003906-34.12890575 15.277343-34.132812 34.132812.00390625 18.855469 15.28125 34.128906 34.132812 34.132812h40.960938c1.824219 0 3.535156-.710937 4.824219-2 1.292969-1.289062 2.003906-3 2.003906-4.824218v-54.613282c0-1.800781-.730469-3.558593-2.003906-4.828124-1.269531-1.273438-3.027344-2-4.824219-2v6.828124h-6.828125v47.785157h-34.132813c-11.304687-.023438-20.460937-9.171875-20.480468-20.480469.019531-11.308594 9.175781-20.460938 20.480468-20.480469h40.960938v-6.824219h-6.828125zm0 0" fill="#54596e"/><path d="m361.8125 191.601562h40.960938c15.078124 0 27.304687 12.222657 27.304687 27.304688s-12.226563 27.308594-27.304687 27.308594h-40.960938zm0 0" fill="#55a6ff"/><path d="m361.8125 191.601562v6.824219h40.960938c11.304687.023438 20.460937 9.171875 20.480468 20.484375-.019531 11.304688-9.175781 20.457032-20.480468 20.476563h-34.132813v-47.785157h-6.828125v6.824219-6.824219h-6.824219v54.613282c0 1.820312.707031 3.535156 2 4.824218 1.289063 1.289063 3.003907 2 4.824219 2h40.960938c18.851562-.003906 34.128906-15.277343 34.132812-34.132812-.003906-18.855469-15.28125-34.128906-34.132812-34.132812h-40.960938c-1.796875 0-3.554688.726562-4.828125 2-1.269531 1.269531-1.996094 3.03125-1.996094 4.828124zm0 0" fill="#54596e"/><path d="m95.574219 157.464844h-20.480469c-3.769531 0-6.828125 3.058594-6.828125 6.828125s3.058594 6.828125 6.828125 6.828125h20.480469c3.769531 0 6.824219-3.058594 6.824219-6.828125s-3.054688-6.828125-6.824219-6.828125" fill="#54596e"/></svg>