<svg height="409pt" viewBox="-22 0 409 409.59317" width="409pt" xmlns="http://www.w3.org/2000/svg"><path d="m212.984375 222.253906-114.527344 91.773438-82.835937-133.238282c-17.503906-30.308593-7.113282-69.070312 23.199218-86.574218l20.285157-11.71875c30.308593-17.488282 69.070312-7.113282 86.574219 23.203125z" fill="#ff927d"/><path d="m212.984375 222.253906-4.265625-5.328125-108.527344 86.957031-78.769531-126.699218-5.800781 3.605468 5.917968-3.410156c-5.15625-8.925781-7.585937-18.632812-7.597656-28.226562.011719-19.5625 10.144532-38.5625 28.289063-49.03125l20.285156-11.707032c8.921875-5.15625 18.621094-7.597656 28.210937-7.597656 19.566407.015625 38.566407 10.132813 49.050782 28.289063l67.285156 116.574219 5.921875-3.425782-4.265625-5.328125 4.265625 5.328125 5.902344-3.410156-67.285157-116.558594c-13.003906-22.515625-36.621093-35.128906-60.871093-35.113281-11.902344-.015625-24.015625 3.046875-35.035157 9.421875l-20.285156 11.703125c-22.515625 12.988281-35.128906 36.609375-35.113281 60.855469 0 11.917968 3.042969 24.011718 9.410156 35.050781l.117188.195313 82.835937 133.234374c1.023438 1.65625 2.714844 2.78125 4.644532 3.125 1.929687.324219 3.898437-.1875 5.417968-1.40625l114.527344-91.769531c2.636719-2.113281 3.332031-5.8125 1.640625-8.738281z" fill="#54596e"/><path d="m84.800781 348.160156h259.414063v54.613282h-259.414063zm0 0" fill="#dfdfdf"/><path d="m344.210938 402.769531v-6.824219h-252.574219v-40.964843h245.753906v47.789062h6.820313v-6.824219 6.824219h6.839843v-54.613281c0-1.796875-.738281-3.554688-2.007812-4.828125-1.273438-1.273437-3.03125-1.996094-4.828125-1.996094h-259.414063c-1.796875 0-3.558593.722657-4.828125 1.996094-1.261718 1.273437-1.996094 3.03125-1.996094 4.828125v54.613281c0 1.824219.707032 3.539063 2.007813 4.828125 1.285156 1.300782 2.992187 1.996094 4.816406 1.996094h259.414063c1.824218 0 3.542968-.695312 4.828125-1.996094 1.285156-1.289062 2.007812-3.003906 2.007812-4.828125z" fill="#54596e"/><path d="m357.871094 113.253906c0-58.769531-47.65625-106.429687-106.441406-106.429687h-73.847657c-58.785156 0-106.429687 47.660156-106.429687 106.429687v30.097656h.339844c-.105469 2.285157-.339844 4.53125-.339844 6.839844l4.867187 94.433594c1.300781 25.316406 14.289063 50.679688 11.664063 75.886719l-2.886719 27.644531h259.414063l-.890626-8.542969c-3.949218-37.921875 8.710938-76.089843 10.667969-114.167969l3.882813-75.253906c0-2.308594-.234375-4.554687-.339844-6.839844h.339844z" fill="#ff927d"/><path d="m357.871094 113.253906h6.824218c0-62.550781-50.703124-113.253906-113.265624-113.253906h-73.847657c-62.550781 0-113.253906 50.703125-113.253906 113.253906v30.097656c0 1.828126.710937 3.542969 1.996094 4.832032 1.285156 1.300781 3.003906 1.992187 4.828125 1.992187h.339844v-6.824219l-6.820313-.3125c-.078125 2.007813-.34375 4.371094-.34375 7.148438v.34375l4.867187 94.445312c.65625 12.457032 3.820313 24.359376 6.640626 35.800782 2.859374 11.457031 5.378906 22.425781 5.367187 32.800781 0 2.089844-.09375 4.164063-.316406 6.222656l-2.875 27.644531c-.195313 1.917969.433593 3.847657 1.71875 5.292969 1.285156 1.429688 3.148437 2.242188 5.066406 2.242188h259.414063c1.929687 0 3.777343-.816407 5.078124-2.242188 1.285157-1.445312 1.914063-3.375 1.71875-5.292969l-.894531-8.539062c-.496093-4.800781-.722656-9.644531-.722656-14.5-.078125-31.582031 9.59375-64.546875 11.417969-98.621094l3.871094-75.253906.011718-.339844c0-2.78125-.261718-5.144531-.355468-7.152344l-6.808594.316407v6.824219h.339844c1.824218 0 3.53125-.695313 4.828124-1.996094 1.285157-1.285156 1.996094-3.003906 1.996094-4.828125v-30.101563h-13.640625v30.097656h6.820313v-6.820312h-.339844c-1.875 0-3.648438.761719-4.945312 2.113281-1.285157 1.351563-1.96875 3.164063-1.875 5.039063.117187 2.546875.339843 4.667968.339843 6.503906h6.824219l-6.824219-.351562-3.871093 75.253906c-1.574219 31.894531-11.363282 65.054687-11.441407 99.316406 0 5.273438.25 10.589844.800781 15.914062l.105469 1.011719h-244.261719l2.085938-20.117187c.273438-2.570313.394531-5.117188.394531-7.636719-.015625-12.542969-2.914062-24.535156-5.773437-36.097656-2.875-11.546875-5.722656-22.65625-6.257813-33.195313l-4.867187-94.449218-6.8125.351562h6.824218c0-1.835938.210938-3.957031.34375-6.503906.078126-1.878906-.59375-3.6875-1.890624-5.039063-1.289063-1.351562-3.058594-2.113281-4.9375-2.113281h-.339844v6.820312h6.824218v-30.097656c0-27.519531 11.136719-52.378906 29.167969-70.425781 18.054688-18.042969 42.90625-29.167969 70.433594-29.183594h73.847656c27.53125.015625 52.394531 11.140625 70.4375 29.183594s29.167969 42.90625 29.183594 70.425781z" fill="#54596e"/><path d="m255.46875 402.769531h-81.917969v-95.566406c0-22.621094 18.332031-40.964844 40.953125-40.964844 22.625 0 40.964844 18.34375 40.964844 40.964844z" fill="#dfdfdf"/><g fill="#54596e"><path d="m255.46875 402.769531v-6.824219h-75.09375v-88.742187c0-9.445313 3.804688-17.9375 10-24.140625 6.195312-6.179688 14.683594-9.988281 24.128906-10 9.449219.011719 17.9375 3.820312 24.144532 10 6.179687 6.207031 9.988281 14.695312 10 24.140625v95.566406h6.820312v-6.824219 6.824219h6.824219v-95.566406c0-26.398437-21.386719-47.785156-47.789063-47.785156-26.386718 0-47.773437 21.386719-47.785156 47.785156v95.566406c0 1.824219.71875 3.539063 2.003906 4.828125 1.285156 1.300782 3.007813 1.996094 4.828125 1.996094h81.917969c1.828125 0 3.53125-.695312 4.828125-1.996094 1.285156-1.289062 1.996094-3.003906 1.996094-4.828125z"/><path d="m234.988281 307.203125c0-11.308594-9.171875-20.484375-20.484375-20.484375-11.308594 0-20.480468 9.175781-20.480468 20.484375s9.171874 20.46875 20.480468 20.46875c11.3125 0 20.484375-9.160156 20.484375-20.46875"/><path d="m234.988281 361.816406c0-11.308594-9.171875-20.484375-20.484375-20.484375-11.308594 0-20.480468 9.175781-20.480468 20.484375s9.171874 20.484375 20.480468 20.484375c11.3125 0 20.484375-9.175781 20.484375-20.484375"/><path d="m153.070312 119.464844c0 5.65625-4.585937 10.242187-10.242187 10.242187s-10.238281-4.585937-10.238281-10.242187c0-5.652344 4.582031-10.238282 10.238281-10.238282s10.242187 4.585938 10.242187 10.238282zm0 0"/><path d="m296.429688 119.464844c0 5.65625-4.585938 10.242187-10.242188 10.242187-5.652344 0-10.238281-4.585937-10.238281-10.242187 0-5.652344 4.585937-10.238282 10.238281-10.238282 5.65625 0 10.242188 4.585938 10.242188 10.238282zm0 0"/><path d="m179.230469 201.761719 7.96875-11.960938 7.976562 11.960938c1.265625 1.894531 3.394531 3.035156 5.679688 3.035156 2.28125 0 4.410156-1.140625 5.679687-3.035156l7.96875-11.960938 7.976563 11.960938c1.265625 1.894531 3.398437 3.035156 5.679687 3.035156s4.410156-1.140625 5.679688-3.035156l7.96875-11.960938 7.976562 11.960938c2.089844 3.136719 6.328125 3.980469 9.464844 1.890625 3.136719-2.09375 3.984375-6.328125 1.894531-9.464844l-13.65625-20.484375c-1.265625-1.898437-3.394531-3.035156-5.679687-3.035156-2.28125 0-4.410156 1.136719-5.679688 3.035156l-7.96875 11.957031-7.976562-11.957031c-1.265625-1.898437-3.394532-3.035156-5.679688-3.035156-2.28125 0-4.410156 1.136719-5.679687 3.035156l-7.96875 11.957031-7.976563-11.957031c-1.265625-1.898437-3.398437-3.035156-5.679687-3.035156s-4.414063 1.136719-5.679688 3.035156l-13.652343 20.480469c-2.09375 3.136718-1.246094 7.375 1.890624 9.46875 3.136719 2.09375 7.375 1.246094 9.472657-1.886719zm0 0"/><path d="m130.933594 109.019531 27.304687 6.828125c3.660157.914063 7.367188-1.308594 8.28125-4.96875.914063-3.65625-1.308593-7.359375-4.96875-8.277344l-27.304687-6.824218c-3.65625-.917969-7.363282 1.304687-8.277344 4.964844-.917969 3.65625 1.308594 7.363281 4.964844 8.277343"/><path d="m294.773438 95.777344-27.308594 6.824218c-3.65625.914063-5.878906 4.621094-4.964844 8.277344.914062 3.664063 4.621094 5.882813 8.28125 4.96875l27.304688-6.828125c3.65625-.914062 5.882812-4.621093 4.964843-8.277343-.914062-3.660157-4.621093-5.882813-8.277343-4.964844"/></g><path d="m171.320312 286.71875h-80.015624c1.972656 8.6875 3.546874 17.625 3.558593 26.859375 0 2.523437-.117187 5.070313-.394531 7.640625l-2.085938 20.113281h74.335938v-34.128906c0-7.328125 1.652344-14.273437 4.601562-20.484375m167.597657 0h-81.222657c2.949219 6.210938 4.597657 13.15625 4.597657 20.484375v34.128906h74.347656l-.101563-1.007812c-.554687-5.328125-.800781-10.644531-.800781-15.917969.027344-12.714844 1.394531-25.28125 3.179688-37.6875" fill="#e68a7b"/><path d="m91.304688 286.71875h-7.046876c2.625 11.289062 4.59375 22.558594 3.425782 33.792969l-2.886719 27.644531h81.921875v-6.824219h-74.335938l2.085938-20.113281c.273438-2.570312.394531-5.117188.394531-7.640625-.011719-9.234375-1.585937-18.171875-3.558593-26.859375m254.523437 0h-6.910156c-1.785157 12.410156-3.152344 24.972656-3.183594 37.6875 0 5.273438.25 10.589844.800781 15.917969l.105469 1.007812h-74.347656v6.824219h81.917969l-.894532-8.542969c-1.820312-17.585937-.074218-35.230469 2.511719-52.894531" fill="#54596e"/><path d="m214.503906 327.671875c-11.308594 0-20.480468-9.160156-20.480468-20.46875s9.171874-20.484375 20.480468-20.484375c11.3125 0 20.484375 9.175781 20.484375 20.484375s-9.171875 20.46875-20.484375 20.46875m27.316406-40.953125h-54.621093c-4.289063 5.714844-6.820313 12.78125-6.820313 20.484375v40.953125h18.867188c3.75-4.1875 9.199218-6.824219 15.257812-6.824219 6.0625 0 11.511719 2.636719 15.265625 6.824219h18.878907v-40.953125c-.011719-7.703125-2.542969-14.769531-6.828126-20.484375" fill="#cacbce"/><path d="m187.199219 286.71875h-15.878907c-2.949218 6.210938-4.601562 13.15625-4.605468 20.484375v40.953125h13.660156v-40.953125c0-7.703125 2.53125-14.769531 6.824219-20.484375m70.496093 0h-15.875c4.285157 5.714844 6.816407 12.78125 6.828126 20.484375v40.953125h13.644531v-40.953125c0-7.328125-1.648438-14.273437-4.597657-20.484375" fill="#54596e"/><path d="m214.503906 286.71875c-11.308594 0-20.480468 9.175781-20.480468 20.484375s9.171874 20.46875 20.480468 20.46875c11.3125 0 20.484375-9.160156 20.484375-20.46875s-9.171875-20.484375-20.484375-20.484375" fill="#54596e"/><path d="m214.503906 341.332031c-6.058594 0-11.511718 2.636719-15.257812 6.824219h30.523437c-3.753906-4.1875-9.203125-6.824219-15.265625-6.824219" fill="#54596e"/></svg>