<svg height="423pt" viewBox="-14 0 423 423.25291" width="423pt" xmlns="http://www.w3.org/2000/svg"><path d="m191.273438 170.667969h-75.09375l-75.09375-157.011719 75.09375-6.828125zm0 0" fill="#ff927d"/><path d="m191.273438 170.667969v-6.828125h-70.792969l-69.003907-144.28125 60.507813-5.496094 73.082031 159.449219 6.207032-2.84375v-6.828125 6.828125l6.207031-2.847657-75.09375-163.839843c-1.203125-2.625-3.949219-4.214844-6.824219-3.9531252l-75.09375 6.8281252c-2.230469.199219-4.210938 1.480469-5.316406 3.421875-1.105469 1.945312-1.191406 4.300781-.222656 6.320312l75.09375 157.015625c1.132812 2.371094 3.523437 3.878907 6.15625 3.878907h75.09375c2.324218 0 4.488281-1.179688 5.746093-3.136719 1.257813-1.957031 1.429688-4.417969.460938-6.53125zm0 0" fill="#54596e"/><path d="m225.40625 170.667969h75.09375l75.09375-157.011719-75.09375-6.828125zm0 0" fill="#ff927d"/><path d="m225.40625 170.667969v6.824219h75.09375c2.632812 0 5.023438-1.507813 6.160156-3.878907l75.09375-157.011719c.960938-2.023437.878906-4.378906-.226562-6.320312-1.101563-1.945312-3.085938-3.222656-5.316406-3.425781l-75.089844-6.824219c-2.878906-.265625-5.621094 1.324219-6.824219 3.953125l-75.09375 163.839844c-.972656 2.113281-.796875 4.574219.460937 6.53125 1.253907 1.957031 3.417969 3.136719 5.742188 3.136719v-6.824219l6.207031 2.84375 73.078125-159.453125 60.511719 5.503906-69.003906 144.273438-70.792969.003906v6.828125l6.207031 2.84375zm0 0" fill="#54596e"/><path d="m68.394531 259.414062v13.652344l.339844 13.65625c3.582031 72.210938 63.09375 129.707032 136.191406 129.707032 73.101563 0 132.609375-57.496094 136.191407-129.707032l.34375-13.65625v-13.652344zm0 0" fill="#ffd578"/><path d="m68.394531 259.414062h-6.828125v13.824219l.34375 13.652344.007813.167969c3.761719 75.824218 66.242187 136.1875 143.007812 136.195312 76.765625-.007812 139.25-60.367187 143.007813-136.195312l.007812-.167969.34375-13.652344v-13.824219c0-1.800781-.726562-3.554687-2-4.828124-1.269531-1.269532-3.027344-1.996094-4.824218-1.996094h-273.066407c-1.796875 0-3.558593.726562-4.828125 1.996094-1.269531 1.273437-2 3.027343-2 4.828124h6.828125v6.824219h266.238281v6.746094l-.339843 13.566406 6.824219.171875-6.820313-.339844c-3.398437 68.601563-59.9375 123.226563-129.371094 123.21875-69.433593.007813-125.96875-54.617187-129.371093-123.21875l-6.820313.339844 6.828125-.171875-.34375-13.566406v-13.566406h-6.824219v6.820312zm0 0" fill="#54596e"/><path d="m341.460938 259.414062c0 75.40625-61.128907 136.535157-136.535157 136.535157s-136.53125-61.128907-136.53125-136.535157 61.125-136.53125 136.53125-136.53125 136.535157 61.125 136.535157 136.53125zm0 0" fill="#ffd578"/><path d="m341.460938 259.414062h6.824218c-.003906-79.179687-64.179687-143.355468-143.359375-143.359374-79.179687.003906-143.355469 64.179687-143.359375 143.359374.003906 79.179688 64.179688 143.355469 143.359375 143.355469 79.179688 0 143.355469-64.175781 143.359375-143.355469h-13.652344c-.003906 35.835938-14.507812 68.222657-37.988281 91.71875-23.496093 23.480469-55.878906 37.984376-91.71875 37.988282-35.839843-.007813-68.222656-14.511719-91.714843-37.988282-23.484376-23.496093-37.988282-55.878906-37.992188-91.71875.003906-35.839843 14.507812-68.226562 37.992188-91.71875 23.492187-23.480468 55.875-37.984374 91.714843-37.988281 35.839844.007813 68.222657 14.507813 91.71875 37.988281 23.480469 23.496094 37.984375 55.878907 37.988281 91.71875zm0 0" fill="#54596e"/><path d="m307.328125 259.414062c0 56.554688-45.847656 102.402344-102.402344 102.402344-56.554687 0-102.398437-45.847656-102.398437-102.402344 0-56.554687 45.84375-102.398437 102.398437-102.398437 56.554688 0 102.402344 45.84375 102.402344 102.398437zm0 0" fill="#fff35f"/><path d="m164.8125 305.4375c8.980469 9.75 23.648438 15.355469 40.113281 15.414062 16.304688-.054687 30.839844-5.554687 39.847657-15.125 2.5625-2.765624 2.402343-7.085937-.359376-9.648437-2.761718-2.5625-7.082031-2.402344-9.644531.359375-5.4375 5.972656-16.707031 10.820312-29.839843 10.765625-13.269532.054687-24.632813-4.898437-30.011719-10.945313-2.539063-2.796874-6.855469-3-9.644531-.460937-2.792969 2.535156-2.996094 6.851563-.460938 9.644531zm0 0" fill="#54596e"/><path d="m157.140625 232.109375c0 7.539063-6.113281 13.652344-13.652344 13.652344-7.542969 0-13.65625-6.113281-13.65625-13.652344 0-7.542969 6.113281-13.65625 13.65625-13.65625 7.539063 0 13.652344 6.113281 13.652344 13.65625zm0 0" fill="#54596e"/><path d="m280.019531 232.109375c0 7.539063-6.113281 13.652344-13.652343 13.652344-7.542969 0-13.652344-6.113281-13.652344-13.652344 0-7.542969 6.109375-13.65625 13.652344-13.65625 7.539062 0 13.652343 6.113281 13.652343 13.65625zm0 0" fill="#54596e"/><path d="m280.019531 273.066406c0 7.542969-6.113281 13.65625-13.652343 13.65625-7.542969 0-13.652344-6.113281-13.652344-13.65625 0-7.539062 6.109375-13.652344 13.652344-13.652344 7.539062 0 13.652343 6.113282 13.652343 13.652344zm0 0" fill="#ff927d"/><path d="m157.140625 273.066406c0 7.542969-6.113281 13.65625-13.652344 13.65625-7.542969 0-13.65625-6.113281-13.65625-13.65625 0-7.539062 6.113281-13.652344 13.65625-13.652344 7.539063 0 13.652344 6.113282 13.652344 13.652344zm0 0" fill="#ff927d"/><g fill="#ffd578"><path d="m13.78125 136.535156v27.304688c0 3.769531 3.054688 6.828125 6.824219 6.828125s6.828125-3.058594 6.828125-6.828125v-27.304688c0-3.773437-3.058594-6.828125-6.828125-6.828125s-6.824219 3.054688-6.824219 6.828125"/><path d="m6.953125 157.015625h27.308594c3.769531 0 6.824219-3.058594 6.824219-6.828125 0-3.773438-3.054688-6.828125-6.824219-6.828125h-27.308594c-3.769531 0-6.828125 3.054687-6.828125 6.828125 0 3.769531 3.058594 6.828125 6.828125 6.828125"/><path d="m368.765625 157.015625v27.304687c0 3.769532 3.058594 6.828126 6.828125 6.828126s6.824219-3.058594 6.824219-6.828126v-27.304687c0-3.773437-3.054688-6.828125-6.824219-6.828125s-6.828125 3.054688-6.828125 6.828125"/><path d="m361.941406 177.496094h27.304688c3.769531 0 6.828125-3.058594 6.828125-6.828125 0-3.773438-3.058594-6.828125-6.828125-6.828125h-27.304688c-3.773437 0-6.828125 3.054687-6.828125 6.828125 0 3.769531 3.054688 6.828125 6.828125 6.828125"/><path d="m47.914062 361.816406v27.304688c0 3.769531 3.054688 6.828125 6.824219 6.828125 3.773438 0 6.828125-3.058594 6.828125-6.828125v-27.304688c0-3.773437-3.054687-6.828125-6.828125-6.828125-3.769531 0-6.824219 3.054688-6.824219 6.828125"/><path d="m41.085938 382.292969h27.308593c3.769531 0 6.824219-3.054688 6.824219-6.824219 0-3.773438-3.054688-6.828125-6.824219-6.828125h-27.308593c-3.769532 0-6.824219 3.054687-6.824219 6.828125 0 3.769531 3.054687 6.824219 6.824219 6.824219"/></g></svg>