<svg height="423pt" viewBox="0 -3 423.25333 423" width="423pt" xmlns="http://www.w3.org/2000/svg"><path d="m414.851562 251.175781c-.851562-85.851562-71.128906-154.75-156.984374-153.898437-85.839844.851562-154.75 71.128906-153.898438 156.96875.851562 85.855468 71.140625 154.769531 156.984375 153.902344 85.839844-.851563 154.75-71.132813 153.898437-156.972657" fill="#adf2a2"/><path d="m414.851562 251.175781 6.828126-.074219c-.890626-89.070312-73.347657-160.664062-162.234376-160.664062-.492187 0-1.085937-.015625-1.796874.011719l.21875 6.828125-.0625-6.828125c-89.066407.878906-160.660157 73.351562-160.660157 162.226562v1.652344c.890625 89.066406 73.363281 160.648437 162.234375 160.648437h1.640625c89.066407-.890624 160.660157-73.351562 160.671875-162.238281l-.011718-1.625-6.828126.0625-6.824218.050781.011718 1.511719c0 81.386719-65.582031 147.78125-147.148437 148.582031l.0625 6.828126v-6.828126l-1.570313.015626c-81.390624 0-147.773437-65.582032-148.585937-147.152344v-1.507813c-.011719-81.390625 65.570313-147.773437 147.152344-148.585937h.140625l1.355468-.011719c81.390626 0 147.78125 65.59375 148.582032 147.164063z" fill="#54596e"/><path d="m407.984375 256.777344c-18.921875 63.667968-77.542969 110.386718-147.429687 111.082031-.515626.003906-1.039063.007813-1.554688.007813-69.210938 0-128.003906-45.332032-148.046875-108.125 3.695313 78.964843 68.894531 141.59375 148.425781 141.59375l1.511719-.015626c80.214844-.789062 144.964844-65.011718 147.09375-144.542968" fill="#a0db9a"/><path d="m413.304688 231.035156c-1.050782 8.820313-2.851563 17.429688-5.320313 25.742188-2.128906 79.535156-66.878906 143.753906-147.09375 144.542968l-1.511719.011719c-79.53125 0-144.730468-62.625-148.425781-141.59375-2.636719-8.269531-4.605469-16.835937-5.835937-25.648437-.785157 6.605468-1.210938 13.332031-1.148438 20.15625.847656 85.320312 70.273438 153.914062 155.386719 153.914062.535156 0 1.066406-.003906 1.597656-.011718 85.84375-.851563 154.753906-71.132813 153.902344-156.972657-.066407-6.839843-.621094-13.550781-1.550781-20.140625" fill="#54596e"/><path d="m278.992188 308.605469c-9.824219-12.144531-27.570313-27.09375-47.671876-26.890625-19.898437.191406-37.199218 15.324218-46.847656 27.464844zm0 0" fill="#54596e"/><path d="m278.992188 308.605469 5.308593-4.296875c-5.28125-6.515625-12.554687-13.695313-21.433593-19.417969-8.863282-5.703125-19.453126-10-31.148438-10.011719l-.914062.023438.515624 6.8125-.066406-6.828125c-11.699218.125-22.210937 4.574219-30.976562 10.390625-8.785156 5.847656-15.945313 13.117187-21.148438 19.652344-1.640625 2.0625-1.945312 4.867187-.792968 7.234374 1.152343 2.371094 3.546874 3.851563 6.179687 3.839844l94.519531-.574218c2.632813-.015626 5-1.523438 6.128906-3.902344 1.128907-2.378906.792969-5.171875-.863281-7.21875l-5.308593 4.296875-.039063-6.824219-94.519531.570312.039062 6.828126 5.347656 4.246093c4.441407-5.601562 10.753907-11.96875 18.007813-16.773437 7.273437-4.832032 15.355469-8.050782 23.558594-8.117188l.449219-.015625-.296876-3.945312.023438 3.953125.273438-.011719-.296876-3.941406.023438 3.953125h.160156c8.238282-.011719 16.40625 3.105468 23.757813 7.839844 7.332031 4.710937 13.730469 10.980468 18.207031 16.53125l5.304688-4.292969-.039063-6.824219zm0 0" fill="#54596e"/><path d="m190.867188 226.140625c-.078126-7.539063-6.25-13.589844-13.789063-13.515625s-13.59375 6.25-13.515625 13.789062c.074219 7.539063 6.246094 13.589844 13.789062 13.515626 7.539063-.074219 13.589844-6.25 13.515626-13.789063zm0 0" fill="#54596e"/><path d="m293.300781 225.140625c-.074219-7.539063-6.246093-13.59375-13.789062-13.519531-7.539063.074218-13.59375 6.246094-13.519531 13.789062.074218 7.539063 6.246093 13.59375 13.789062 13.519532 7.539062-.074219 13.59375-6.246094 13.519531-13.789063zm0 0" fill="#54596e"/><path d="m354.988281 123.007812h27.304688v286.71875h-27.304688zm0 0" fill="#bfad88"/><path d="m382.292969 409.726562v-6.828124h-20.480469v-273.066407h13.652344v279.894531h6.828125v-6.828124 6.828124h6.828125v-286.71875c0-1.800781-.730469-3.558593-2-4.832031-1.269532-1.269531-3.03125-1.996093-4.828125-1.996093h-27.304688c-1.796875 0-3.558593.726562-4.828125 1.996093-1.269531 1.273438-2 3.03125-2 4.832031v286.71875c0 1.796876.730469 3.554688 2 4.828126 1.269532 1.269531 3.027344 2 4.828125 2h27.304688c1.796875 0 3.554687-.730469 4.828125-2 1.269531-1.273438 1.996094-3.03125 1.996094-4.828126zm0 0" fill="#54596e"/><path d="m40.960938 123.007812h27.304687v286.71875h-27.304687zm0 0" fill="#bfad88"/><path d="m68.265625 409.726562v-6.828124h-20.480469v-273.066407h13.65625v279.894531h6.824219v-6.828124 6.828124h6.828125v-286.71875c0-1.800781-.730469-3.558593-2-4.832031-1.269531-1.269531-3.03125-1.996093-4.828125-1.996093h-27.304687c-1.796876 0-3.558594.726562-4.828126 1.996093-1.269531 1.273438-2 3.03125-2 4.832031v286.71875c0 1.796876.730469 3.554688 2 4.828126 1.269532 1.269531 3.03125 2 4.828126 2h27.304687c1.796875 0 3.554687-.730469 4.828125-2 1.269531-1.273438 2-3.03125 2-4.828126zm0 0" fill="#54596e"/><path d="m6.828125 6.953125h409.597656v116.054687h-409.597656zm0 0" fill="#ff927d"/><path d="m416.425781 123.007812v-6.828124h-402.773437v-102.40625h395.949218v109.234374h6.824219v-6.828124 6.828124h6.828125v-116.054687c0-1.800781-.730468-3.554687-2-4.828125-1.269531-1.269531-3.03125-2-4.828125-2h-409.597656c-1.796875 0-3.558594.730469-4.828125 2-1.269531 1.273438-2 3.027344-2 4.828125v116.054687c0 1.820313.710938 3.535157 2 4.824219 1.289062 1.292969 3.003906 1.996094 4.828125 1.996094h409.597656c1.824219 0 3.535157-.703125 4.828125-1.996094 1.289063-1.289062 2-3.003906 2-4.824219zm0 0" fill="#54596e"/><path d="m293.546875 20.605469h-40.960937c-1.796876 0-3.554688.726562-4.828126 1.996093-1.269531 1.273438-1.996093 3.03125-1.996093 4.832032v40.960937c0 1.820313.707031 3.535157 2 4.824219 1.289062 1.292969 3.003906 1.996094 4.824219 1.996094h40.960937v20.480468l-40.960937.003907c-3.769532 0-6.824219 3.054687-6.824219 6.828125 0 3.769531 3.054687 6.824218 6.824219 6.824218h47.789062c1.820312 0 3.535156-.707031 4.824219-2 1.289062-1.289062 2-3.003906 2-4.824218v-34.132813c0-1.800781-.726563-3.558593-1.996094-4.832031-1.273437-1.269531-3.03125-1.996094-4.828125-1.996094h-40.960938v-27.3125l34.132813.003906c3.769531 0 6.824219-3.058593 6.824219-6.824218 0-3.769532-3.054688-6.824219-6.824219-6.824219zm0 0" fill="#54596e"/><path d="m157.011719 102.527344v-58.613282l36.136719 36.132813c1.949218 1.949219 4.886718 2.535156 7.4375 1.480469 2.550781-1.058594 4.214843-3.546875 4.214843-6.308594v-47.785156c0-1.800782-.730469-3.558594-2-4.832032-1.269531-1.269531-3.03125-1.996093-4.828125-1.996093s-3.554687.726562-4.828125 1.996093c-1.269531 1.273438-1.996093 3.03125-1.996093 4.832032v75.09375c0 3.769531 3.054687 6.824218 6.824218 6.824218 3.769532 0 6.828125-3.054687 6.828125-6.824218v-75.09375c0-1.800782-.730469-3.558594-2-4.832032-1.269531-1.269531-3.03125-1.996093-4.828125-1.996093s-3.554687.726562-4.828125 1.996093c-1.269531 1.273438-1.996093 3.03125-1.996093 4.832032v31.304687l-36.136719-36.136719c-1.953125-1.953124-4.890625-2.535156-7.441407-1.472656-2.546874 1.054688-4.210937 3.542969-4.210937 6.304688v75.09375c0 3.769531 3.058594 6.824218 6.828125 6.824218s6.824219-3.054687 6.824219-6.824218zm0 0" fill="#54596e"/><path d="m249.171875 348.285156c-9.425781 0-17.066406-7.640625-17.066406-17.066406v-30.71875h34.132812v30.71875c0 9.425781-7.636719 17.066406-17.066406 17.066406zm0 0" fill="#ff927d"/><g fill="#54596e"><path d="m116.054688 27.433594v75.09375c0 3.769531 3.054687 6.824218 6.824218 6.824218 3.769532 0 6.828125-3.054687 6.828125-6.824218v-75.09375c0-3.773438-3.058593-6.828125-6.828125-6.828125-3.769531 0-6.824218 3.054687-6.824218 6.828125"/><path d="m218.453125 27.433594v75.09375c0 3.769531 3.058594 6.824218 6.828125 6.824218s6.824219-3.054687 6.824219-6.824218v-75.09375c0-3.773438-3.054688-6.828125-6.824219-6.828125s-6.828125 3.054687-6.828125 6.828125"/><path d="m54.613281 102.527344v-68.273438l40.960938.003906c3.765625 0 6.824219-3.058593 6.824219-6.824218 0-3.769532-3.058594-6.824219-6.824219-6.824219l-47.789063-.003906c-1.796875 0-3.554687.726562-4.828125 1.996093-1.269531 1.273438-1.996093 3.03125-1.996093 4.832032v75.09375c0 3.769531 3.054687 6.824218 6.824218 6.824218 3.773438 0 6.828125-3.054687 6.828125-6.824218zm0 0"/><path d="m95.574219 61.566406h-47.789063c-3.769531 0-6.824218 3.054688-6.824218 6.828125 0 3.769531 3.054687 6.824219 6.824218 6.824219h47.789063c3.769531 0 6.824219-3.054688 6.824219-6.824219 0-3.773437-3.054688-6.828125-6.824219-6.828125"/><path d="m334.507812 102.527344v-75.09375c0-3.773438-3.058593-6.828125-6.828124-6.828125-3.769532 0-6.828126 3.054687-6.828126 6.828125v75.09375c0 3.769531 3.058594 6.824218 6.828126 6.824218 3.769531 0 6.828124-3.054687 6.828124-6.824218"/><path d="m382.292969 102.527344v-75.09375c0-3.773438-3.054688-6.828125-6.828125-6.828125-3.769532 0-6.824219 3.054687-6.824219 6.828125v75.09375c0 3.769531 3.054687 6.824218 6.824219 6.824218 3.773437 0 6.828125-3.054687 6.828125-6.824218"/><path d="m375.464844 61.566406h-47.785156c-3.769532 0-6.828126 3.054688-6.828126 6.828125 0 3.769531 3.058594 6.824219 6.828126 6.824219h47.785156c3.773437 0 6.828125-3.054688 6.828125-6.824219 0-3.773437-3.054688-6.828125-6.828125-6.828125"/></g></svg>