<svg height="389pt" viewBox="-13 0 389 389.11488" width="389pt" xmlns="http://www.w3.org/2000/svg"><path d="m316.902344 382.285156h-257.109375c-7.304688 0-13.421875-5.519531-14.15625-12.769531l-24.957031-258.3125c-1.601563-15.667969 10.683593-29.28125 26.441406-29.28125h282.453125c15.757812 0 28.054687 13.617187 26.457031 29.28125l-24.972656 258.3125c-.734375 7.25-6.851563 12.769531-14.15625 12.769531" fill="#54596e"/><path d="m316.902344 382.285156v-6.820312h-257.109375c-3.792969.007812-6.984375-2.882813-7.367188-6.648438l.011719.027344-24.972656-258.300781v-.023438c-.074219-.695312-.101563-1.386719-.101563-2.066406 0-5.367187 2.167969-10.273437 5.742188-13.886719 3.589843-3.601562 8.480469-5.816406 14.015625-5.816406h282.457031c5.535156 0 10.425781 2.214844 14.015625 5.816406 3.574219 3.613282 5.753906 8.519532 5.753906 13.886719 0 .667969-.039062 1.355469-.117187 2.066406v.023438l-24.957031 258.300781v-.027344c-.371094 3.765625-3.574219 6.65625-7.367188 6.648438v13.648437c10.8125 0 19.847656-8.167969 20.957031-18.917969v-.039062l24.957031-258.296875v.039063c.117188-1.164063.179688-2.308594.179688-3.445313-.011719-18.222656-14.789062-33.34375-33.421875-33.359375h-282.457031c-18.636719.015625-33.410156 15.125-33.410156 33.359375 0 1.152344.050781 2.285156.167968 3.449219v-.039063l24.957032 258.296875.011718.039063c1.097656 10.75 10.144532 18.914062 20.945313 18.914062h257.109375z" fill="#54596e"/><path d="m303.25 382.285156h-257.109375c-7.304687 0-13.421875-5.519531-14.160156-12.769531l-24.953125-258.3125c-1.601563-15.667969 10.683594-29.28125 26.441406-29.28125h282.453125c15.757813 0 28.054687 13.617187 26.457031 29.28125l-24.972656 258.3125c-.738281 7.25-6.851562 12.769531-14.15625 12.769531" fill="#f4a14e"/><g fill="#54596e"><path d="m303.25 382.285156v-6.820312h-257.109375c-3.796875.007812-6.984375-2.882813-7.371094-6.648438l.015625.027344-24.972656-258.300781v-.023438c-.074219-.695312-.101562-1.386719-.101562-2.066406 0-5.367187 2.167968-10.273437 5.742187-13.886719 3.589844-3.601562 8.480469-5.816406 14.015625-5.816406h282.457031c5.535157 0 10.425781 2.214844 14.011719 5.816406 3.574219 3.613282 5.757812 8.519532 5.757812 13.886719 0 .667969-.039062 1.355469-.117187 2.066406v.023438l-24.957031 258.300781v-.027344c-.375 3.765625-3.574219 6.65625-7.367188 6.648438v13.648437c10.8125 0 19.847656-8.167969 20.957032-18.917969v-.039062l24.957031-258.296875v.039063c.113281-1.164063.179687-2.308594.179687-3.445313-.015625-18.222656-14.789062-33.34375-33.421875-33.359375h-282.457031c-18.636719.015625-33.4101562 15.125-33.4101562 33.359375 0 1.152344.0507812 2.285156.1679682 3.449219v-.039063l24.953126 258.296875.015624.039063c1.097657 10.75 10.140626 18.914062 20.945313 18.914062h257.109375z"/><path d="m114.101562 278.128906c8.980469 9.75 23.648438 15.359375 40.117188 15.414063 16.300781-.050781 30.839844-5.554688 39.84375-15.125 2.566406-2.765625 2.40625-7.082031-.359375-9.648438-2.761719-2.5625-7.078125-2.402343-9.644531.363281-5.433594 5.96875-16.703125 10.816407-29.839844 10.761719-13.265625.058594-24.632812-4.894531-30.011719-10.945312-2.535156-2.792969-6.855469-2.996094-9.644531-.460938-2.789062 2.535157-2.996094 6.851563-.457031 9.644531zm0 0"/><path d="m106.429688 204.800781c0 7.539063-6.113282 13.652344-13.652344 13.652344-7.539063 0-13.652344-6.113281-13.652344-13.652344 0-7.542969 6.113281-13.652343 13.652344-13.652343 7.539062 0 13.652344 6.109374 13.652344 13.652343zm0 0"/><path d="m229.3125 204.800781c0 7.539063-6.113281 13.652344-13.65625 13.652344-7.539062 0-13.652344-6.113281-13.652344-13.652344 0-7.542969 6.113282-13.652343 13.652344-13.652343 7.542969 0 13.65625 6.109374 13.65625 13.652343zm0 0"/></g><path d="m249.789062 245.761719c0 7.539062-6.109374 13.652343-13.652343 13.652343-7.539063 0-13.652344-6.113281-13.652344-13.652343 0-7.542969 6.113281-13.65625 13.652344-13.65625 7.542969 0 13.652343 6.113281 13.652343 13.65625zm0 0" fill="#ff927d"/><path d="m85.949219 245.761719c0 7.539062-6.113281 13.652343-13.652344 13.652343s-13.652344-6.113281-13.652344-13.652343c0-7.542969 6.113281-13.65625 13.652344-13.65625s13.652344 6.113281 13.652344 13.65625zm0 0" fill="#ff927d"/><path d="m315.253906 320.851562h-281.109375l4.640625 47.992188-.015625-.027344c.386719 3.761719 3.5625 6.648438 7.34375 6.648438h.027344 257.109375c3.792969.007812 6.992188-2.882813 7.367188-6.648438v.027344z" fill="#e49a51"/><path d="m322.375 320.851562h-7.121094l-4.636718 47.992188v-.027344c-.375 3.765625-3.574219 6.65625-7.367188 6.648438h-257.109375c-.011719 0-.019531 0-.027344 0-3.785156 0-6.957031-2.886719-7.34375-6.648438l.015625.027344-4.640625-47.992188h-7.128906l4.96875 48.664063c.734375 7.25 6.851563 12.769531 14.15625 12.769531h257.109375c7.304688 0 13.421875-5.519531 14.15625-12.769531z" fill="#54596e"/><path d="m242.964844 88.746094c0 45.242187-36.679688 81.921875-81.921875 81.921875-45.242188 0-81.917969-36.679688-81.917969-81.921875 0-45.242188 36.675781-81.917969 81.917969-81.917969 45.242187 0 81.921875 36.675781 81.921875 81.917969zm0 0" fill="#61c5a8"/><path d="m242.964844 88.746094h6.824218c-.003906-49.011719-39.726562-88.74218775-88.746093-88.746094-49.015625.00390625-88.742188 39.734375-88.746094 88.746094.003906 49.011718 39.730469 88.742187 88.746094 88.742187 49.019531 0 88.742187-39.730469 88.746093-88.742187h-13.652343c-.003907 20.753906-8.394531 39.484375-21.992188 53.097656-13.613281 13.597656-32.34375 21.988281-53.101562 21.996094-20.757813-.007813-39.488281-8.398438-53.097657-21.996094-13.601562-13.613281-21.992187-32.34375-21.996093-53.097656.003906-20.757813 8.394531-39.488282 21.996093-53.097656 13.609376-13.601563 32.339844-21.992188 53.097657-22 20.757812.007812 39.488281 8.398437 53.101562 22 13.597657 13.613281 21.988281 32.339843 21.992188 53.097656zm0 0" fill="#54596e"/><path d="m154.21875 341.332031v34.132813c0 3.773437 3.054688 6.828125 6.824219 6.828125s6.828125-3.054688 6.828125-6.828125v-34.132813c0-3.773437-3.058594-6.824219-6.828125-6.824219s-6.824219 3.050782-6.824219 6.824219" fill="#54596e"/><path d="m115.253906 52.613281 40.960938 40.960938c2.667968 2.664062 6.988281 2.664062 9.65625 0 2.664062-2.667969 2.664062-6.992188 0-9.65625l-40.960938-40.960938c-2.664062-2.664062-6.988281-2.664062-9.65625 0-2.664062 2.664063-2.664062 6.992188 0 9.65625" fill="#54596e"/></svg>