<svg height="409pt" viewBox="0 -41 409.6 409" width="409pt" xmlns="http://www.w3.org/2000/svg"><path d="m375.464844 150.488281h-116.050782v-27.308593h116.050782c7.542968 0 13.65625 6.113281 13.65625 13.652343 0 7.542969-6.113282 13.65625-13.65625 13.65625zm0 0" fill="#ffd578"/><path d="m375.464844 150.488281v-6.828125h-109.226563v-13.660156l109.226563.003906c3.769531.007813 6.820312 3.0625 6.828125 6.828125-.007813 3.765625-3.058594 6.816407-6.828125 6.828125v13.648438c11.316406-.003906 20.476562-9.160156 20.480468-20.476563-.003906-11.316406-9.164062-20.476562-20.480468-20.480469h-116.050782c-1.796874 0-3.558593.730469-4.828124 2-1.269532 1.273438-2 3.027344-2 4.828126v27.308593c0 1.820313.710937 3.535157 2 4.824219 1.292968 1.289062 3.003906 1.996094 4.828124 1.996094h116.050782zm0 0" fill="#54596e"/><path d="m68.269531 198.273438c-4.210937 0-8.292969-1.953126-10.925781-5.460938l-40.960938-54.613281c-4.519531-6.03125-3.300781-14.59375 2.730469-19.113281 6.042969-4.53125 14.597657-3.292969 19.117188 2.730468l34.886719 46.511719 65.578124-23.847656c7.078126-2.578125 14.917969 1.074219 17.496094 8.167969 2.578125 7.085937-1.078125 14.917968-8.164062 17.5l-75.09375 27.304687c-1.527344.554687-3.105469.820313-4.664063.820313zm0 0" fill="#ffd578"/><path d="m68.269531 198.273438v-6.828126c-2.105469-.003906-4.152343-.976562-5.46875-2.734374l-40.957031-54.609376c-.929688-1.246093-1.359375-2.648437-1.363281-4.089843.011719-2.105469.933593-4.121094 2.722656-5.457031l.011719-.011719c1.25-.9375 2.644531-1.363281 4.078125-1.371094 2.105469.011719 4.125.933594 5.476562 2.734375l34.886719 46.515625c1.804688 2.40625 4.964844 3.34375 7.792969 2.316406l65.578125-23.84375.011718-.003906c.789063-.292969 1.5625-.417969 2.320313-.421875 2.785156.011719 5.410156 1.714844 6.414063 4.503906.285156.792969.414062 1.566406.414062 2.332032-.007812 2.777343-1.714844 5.414062-4.507812 6.429687l.011718-.003906-75.089844 27.304687h.003907c-.769531.277344-1.554688.40625-2.335938.410156v13.652344c2.339844.003906 4.707031-.402344 6.988281-1.226562l.007813-.003906 75.09375-27.308594.011719-.003906c8.300781-3.046876 13.476562-10.875 13.46875-19.25 0-2.328126-.402344-4.703126-1.234375-6.996094-3.03125-8.324219-10.878907-13.5-19.246094-13.488282-2.34375-.003906-4.722656.410157-7.011719 1.246094l.011719-.003906-60.820313 22.117188-31.847656-42.460938c-4.011718-5.355469-10.195312-8.207031-16.398437-8.195312-4.265625-.007813-8.617188 1.347656-12.28125 4.101562l.015625-.007812c-5.363282 4.007812-8.210938 10.191406-8.199219 16.394531-.007813 4.261719 1.339844 8.613281 4.09375 12.28125l40.960937 54.613281c3.953126 5.257812 10.074219 8.191406 16.386719 8.1875zm0 0" fill="#54596e"/><path d="m278.925781 253.320312-106.910156 23.738282-30.792969-121.738282c-2.054687-10.453124 4.746094-20.59375 15.199219-22.648437l82.71875-16.285156c10.453125-2.054688 20.59375 4.746093 22.648437 15.199219zm0 0" fill="#8065c4"/><path d="m278.925781 253.320312-1.476562-6.667968-100.441407 22.300781-29.167968-115.308594-6.617188 1.675781 6.699219-1.316406c-.160156-.824218-.238281-1.640625-.238281-2.429687 0-5.816407 4.117187-11.058594 10.050781-12.203125h.007813l82.71875-16.285156.011718-.003907c.816406-.164062 1.621094-.238281 2.410156-.242187 5.8125.003906 11.050782 4.113281 12.210938 10.0625l6.695312-1.316406-6.757812.953124 17.136719 121.730469 6.757812-.949219-1.476562-6.667968 1.476562 6.667968 6.761719-.953124-17.136719-121.734376-.0625-.367187c-2.460937-12.457031-13.355469-21.082031-25.605469-21.078125-1.675781-.003906-3.375.164062-5.074218.5l.015625-.003906-82.71875 16.289062h.007812c-12.457031 2.453125-21.082031 13.34375-21.082031 25.597656 0 1.675782.164062 3.367188.496094 5.0625l.078125.359376 30.792969 121.742187c.90625 3.570313 4.5 5.785156 8.097656 4.988281l106.914062-23.738281c3.476563-.773437 5.777344-4.089844 5.277344-7.617187zm0 0" fill="#54596e"/><path d="m232.105469 54.914062c0 26.390626-21.394531 47.785157-47.785157 47.785157-26.390624 0-47.785156-21.394531-47.785156-47.785157 0-26.390624 21.394532-47.789062 47.785156-47.789062 26.390626 0 47.785157 21.398438 47.785157 47.789062zm0 0" fill="#ffd578"/><path d="m232.105469 54.914062h6.828125c-.003906-30.167968-24.449219-54.609374-54.613282-54.613281-30.164062.003907-54.609374 24.445313-54.613281 54.613281.003907 30.164063 24.449219 54.605469 54.613281 54.609376 30.164063-.003907 54.609376-24.445313 54.613282-54.609376h-13.652344c-.003906 11.332032-4.574219 21.527344-11.996094 28.964844-7.4375 7.417969-17.632812 11.988282-28.964844 11.996094-11.335937-.007812-21.53125-4.578125-28.964843-11.996094-7.421875-7.4375-11.992188-17.632812-11.996094-28.964844.003906-11.339843 4.574219-21.535156 11.996094-28.96875 7.433593-7.417968 17.628906-11.988281 28.964843-11.996093 11.332032.007812 21.527344 4.578125 28.964844 11.996093 7.421875 7.433594 11.992188 17.628907 11.996094 28.96875zm0 0" fill="#54596e"/><path d="m409.601562 259.714844c-22.621093 0-40.960937-18.339844-40.960937-40.960938 0 22.621094-18.339844 40.960938-40.960937 40.960938-22.621094 0-40.960938-18.339844-40.960938-40.960938 0 22.621094-18.339844 40.960938-40.957031 40.960938-22.621094 0-40.960938-18.339844-40.960938-40.960938 0 22.621094-18.339843 40.960938-40.960937 40.960938s-40.960938-18.339844-40.960938-40.960938c0 22.621094-18.339844 40.960938-40.957031 40.960938-22.621094 0-40.960937-18.339844-40.960937-40.960938 0 22.621094-18.339844 40.960938-40.960938 40.960938v68.265625h409.601562zm0 0" fill="#55a6ff"/><path d="m409.601562 252.886719c-9.449218-.007813-17.9375-3.8125-24.136718-10-6.1875-6.199219-9.996094-14.6875-10-24.132813h-13.652344c-.003906 9.441406-3.808594 17.933594-9.996094 24.132813-6.199218 6.1875-14.691406 9.992187-24.136718 10-9.445313-.007813-17.9375-3.8125-24.136719-10-6.1875-6.199219-9.992188-14.6875-9.996094-24.132813h-13.652344c-.003906 9.441406-3.808593 17.933594-10 24.132813-6.199219 6.1875-14.6875 9.992187-24.132812 10-9.449219-.007813-17.9375-3.8125-24.136719-10-6.1875-6.199219-9.996094-14.6875-10-24.132813h-13.652344c-.003906 9.441406-3.808594 17.933594-9.996094 24.132813-6.199218 6.1875-14.691406 9.992187-24.136718 10-9.445313-.007813-17.9375-3.8125-24.136719-10-6.1875-6.199219-9.992187-14.6875-9.996094-24.132813h-13.652343c-.003907 9.441406-3.8125 17.933594-10 24.132813-6.199219 6.1875-14.6875 9.992187-24.132813 10-9.449219-.007813-17.9375-3.8125-24.136719-10-6.1875-6.199219-9.996094-14.691407-10-24.132813h-13.652344c-.003906 9.441406-3.808593 17.933594-9.996093 24.132813-6.199219 6.1875-14.691407 9.992187-24.136719 10v13.652343c26.394531-.007812 47.78125-21.390624 47.785156-47.785156h-13.652344c.003907 26.394532 21.394532 47.777344 47.789063 47.78125 26.390625-.003906 47.78125-21.386718 47.785156-47.78125h-13.652343c.003906 26.394532 21.390624 47.777344 47.785156 47.78125 26.394531-.003906 47.78125-21.386718 47.785156-47.78125h-13.652344c.003906 26.394532 21.394532 47.777344 47.789063 47.78125 26.390625-.003906 47.78125-21.386718 47.785156-47.78125h-13.652344c.003907 26.394532 21.390625 47.777344 47.785157 47.78125 26.394531-.003906 47.78125-21.386718 47.785156-47.78125h-13.652344c.007812 26.394532 21.394531 47.777344 47.789062 47.78125zm0 0" fill="#54596e"/><path d="m81.921875 58.328125c0 20.734375-16.8125 37.546875-37.546875 37.546875-20.738281 0-37.546875-16.8125-37.546875-37.546875 0-20.738281 16.808594-37.546875 37.546875-37.546875 20.734375 0 37.546875 16.808594 37.546875 37.546875zm0 0" fill="#ffb8f2"/><path d="m81.921875 58.328125h6.824219c-.003906-24.507813-19.863282-44.371094-44.371094-44.375-24.511719.003906-44.37109375 19.867187-44.375 44.375.00390625 24.5 19.863281 44.363281 44.375 44.367187 24.507812-.003906 44.367188-19.867187 44.371094-44.367187h-13.652344c-.003906 8.496094-3.425781 16.136719-8.996094 21.71875-5.582031 5.570313-13.21875 8.996094-21.722656 9-8.507812-.007813-16.144531-3.429687-21.722656-9-5.570313-5.582031-8.996094-13.222656-9-21.71875.003906-8.503906 3.429687-16.144531 9-21.726563 5.578125-5.570312 13.214844-8.992187 21.722656-9 8.503906.007813 16.140625 3.433594 21.722656 9 5.570313 5.582032 8.992188 13.222657 8.996094 21.726563zm0 0" fill="#54596e"/></svg>