<svg height="423.25333pt" viewBox="0 0 423.25333 423.25333" width="423.25333pt" xmlns="http://www.w3.org/2000/svg"><path d="m416.425781 150.1875c0 79.175781-64.183593 143.359375-143.359375 143.359375-79.175781 0-143.359375-64.183594-143.359375-143.359375s64.183594-143.359375 143.359375-143.359375c79.175782 0 143.359375 64.183594 143.359375 143.359375zm0 0" fill="#fff35f"/><path d="m416.425781 150.1875h6.828125c-.003906-82.949219-67.238281-150.18359375-150.1875-150.1875-82.949218.00390625-150.179687 67.238281-150.1875 150.1875.007813 82.941406 67.238282 150.179688 150.1875 150.183594 82.949219-.003906 150.183594-67.242188 150.1875-150.183594h-13.652344c-.003906 37.71875-15.273437 71.808594-39.992187 96.539062-24.726563 24.71875-58.820313 39.988282-96.542969 39.992188-37.722656-.003906-71.816406-15.273438-96.542968-39.992188-24.71875-24.730468-39.988282-58.820312-39.988282-96.539062 0-37.726562 15.269532-71.816406 39.988282-96.542969 24.726562-24.71875 58.816406-39.988281 96.542968-39.996093 37.722656.007812 71.816406 15.273437 96.542969 39.996093 24.71875 24.730469 39.988281 58.816407 39.992187 96.542969zm0 0" fill="#54596e"/><path d="m232.953125 168.902344c8.980469 9.75 23.648437 15.359375 40.113281 15.414062 16.304688-.050781 30.839844-5.554687 39.847656-15.125 2.5625-2.765625 2.402344-7.082031-.359374-9.648437-2.765626-2.5625-7.082032-2.402344-9.648438.363281-5.433594 5.96875-16.703125 10.816406-29.839844 10.761719-13.265625.058593-24.632812-4.894531-30.011718-10.945313-2.535157-2.792968-6.855469-2.996094-9.644532-.460937-2.792968 2.535156-2.996094 6.851562-.460937 9.644531v-.003906zm0 0" fill="#54596e"/><path d="m225.28125 95.574219c0 7.539062-6.113281 13.652343-13.65625 13.652343-7.539062 0-13.652344-6.113281-13.652344-13.652343 0-7.542969 6.113282-13.652344 13.652344-13.652344 7.542969 0 13.65625 6.109375 13.65625 13.652344zm0 0" fill="#54596e"/><path d="m348.160156 95.574219c0 7.539062-6.113281 13.652343-13.652344 13.652343-7.542968 0-13.65625-6.113281-13.65625-13.652343 0-7.542969 6.113282-13.652344 13.65625-13.652344 7.539063 0 13.652344 6.109375 13.652344 13.652344zm0 0" fill="#54596e"/><path d="m361.8125 136.535156c0 7.539063-6.113281 13.652344-13.652344 13.652344-7.539062 0-13.652344-6.113281-13.652344-13.652344 0-7.542968 6.113282-13.65625 13.652344-13.65625 7.539063 0 13.652344 6.113282 13.652344 13.65625zm0 0" fill="#ff927d"/><path d="m204.800781 136.535156c0 7.539063-6.113281 13.652344-13.652343 13.652344-7.542969 0-13.65625-6.113281-13.65625-13.652344 0-7.542968 6.113281-13.65625 13.65625-13.65625 7.539062 0 13.652343 6.113282 13.652343 13.65625zm0 0" fill="#ff927d"/><path d="m6.828125 197.972656h354.984375v218.453125h-354.984375zm0 0" fill="#61c5a8"/><g fill="#54596e"><path d="m361.8125 416.425781v-6.824219h-348.160156v-204.808593h341.335937v211.632812h6.824219v-6.824219 6.824219h6.828125v-218.453125c0-1.800781-.730469-3.554687-2-4.828125-1.273437-1.269531-3.03125-1.996093-4.828125-1.996093h-354.984375c-1.796875 0-3.558594.726562-4.828125 1.996093-1.269531 1.273438-2 3.027344-2 4.828125v218.453125c0 1.824219.710938 3.535157 2 4.828125 1.289062 1.289063 3.003906 1.996094 4.828125 1.996094h354.984375c1.824219 0 3.535156-.707031 4.828125-1.996094 1.289063-1.292968 2-3.003906 2-4.828125zm0 0"/><path d="m191.148438 416.425781v-218.453125c0-3.773437-3.058594-6.824218-6.828126-6.824218-3.769531 0-6.828124 3.050781-6.828124 6.824218v218.453125c0 3.769531 3.058593 6.828125 6.828124 6.828125 3.769532 0 6.828126-3.058594 6.828126-6.828125"/><path d="m211.625 307.199219h6.828125c-.003906-18.855469-15.28125-34.128907-34.132813-34.132813-18.855468.003906-34.128906 15.277344-34.132812 34.132813.003906 18.855469 15.277344 34.128906 34.132812 34.128906 18.851563 0 34.128907-15.273437 34.132813-34.128906h-13.652344c-.019531 11.304687-9.175781 20.457031-20.480469 20.480469-11.308593-.023438-20.460937-9.175782-20.480468-20.480469.019531-11.304688 9.171875-20.457031 20.480468-20.484375 11.304688.027344 20.460938 9.179687 20.480469 20.484375zm0 0"/><path d="m293.546875 361.8125v6.824219h68.265625c1.824219 0 3.535156-.707031 4.828125-1.996094 1.289063-1.292969 2-3.003906 2-4.828125v-102.398438c0-1.800781-.730469-3.558593-2-4.832031-1.273437-1.269531-3.03125-1.996093-4.828125-1.996093h-68.265625c-1.796875 0-3.558594.726562-4.828125 1.996093-1.269531 1.273438-2 3.03125-2 4.832031v102.398438c0 1.824219.710938 3.535156 2 4.828125 1.292969 1.289063 3.003906 1.996094 4.828125 1.996094v-6.824219h6.828125v-95.578125h54.613281v88.75l-61.441406.003906v6.824219h6.828125zm0 0"/><path d="m6.828125 361.8125v6.824219h68.265625c1.824219 0 3.535156-.707031 4.824219-1.996094 1.292969-1.292969 2.003906-3.003906 2.003906-4.828125v-102.398438c0-1.800781-.730469-3.558593-2.003906-4.832031-1.269531-1.269531-3.027344-1.996093-4.824219-1.996093h-68.265625c-1.796875 0-3.558594.726562-4.828125 1.996093-1.269531 1.273438-2 3.03125-2 4.832031v102.398438c0 1.824219.710938 3.535156 2 4.828125 1.289062 1.289063 3.003906 1.996094 4.828125 1.996094v-6.824219h6.824219v-95.578125h54.613281v88.75l-61.4375.003906v6.824219h6.824219zm0 0"/></g></svg>