<svg height="423pt" viewBox="0 -3 423.25333 423" width="423pt" xmlns="http://www.w3.org/2000/svg"><path d="m414.847656 251.175781c-.851562-85.851562-71.128906-154.75-156.96875-153.898437-85.855468.851562-154.753906 71.128906-153.902344 156.96875.851563 85.855468 71.128907 154.769531 156.972657 153.902344 85.855469-.851563 154.765625-71.132813 153.898437-156.972657" fill="#9af43b"/><path d="m414.847656 251.175781 6.828125-.074219c-.890625-89.070312-73.351562-160.664062-162.222656-160.664062-.503906 0-1.097656-.015625-1.792969.011719l.21875 6.828125-.078125-6.828125c-89.066406.878906-160.660156 73.351562-160.660156 162.226562l.011719 1.652344c.890625 89.066406 73.351562 160.648437 162.222656 160.648437h1.652344c89.066406-.890624 160.660156-73.351562 160.660156-162.238281l-.011719-1.625-6.828125.0625-6.828125.050781.015625 1.511719c0 81.386719-65.582031 147.78125-147.152344 148.582031l.066407 6.828126v-6.828126l-1.574219.015626c-81.375 0-147.769531-65.582032-148.570312-147.152344l-.011719-1.507813c0-81.390625 65.578125-147.773437 147.148437-148.585937h.140625l1.371094-.011719c81.375 0 147.769531 65.59375 148.570313 147.164063z" fill="#54596e"/><path d="m407.980469 256.808594c-18.941407 63.648437-77.554688 110.355468-147.429688 111.050781-.515625.003906-1.039062.007813-1.554687.007813-69.199219 0-127.976563-45.308594-148.03125-108.085938 3.703125 78.949219 68.90625 141.550781 148.410156 141.550781l1.511719-.015625c80.203125-.785156 144.949219-64.988281 147.09375-144.507812" fill="#90dd43"/><path d="m413.3125 231.035156c-1.054688 8.835938-2.855469 17.449219-5.332031 25.777344-2.144531 79.519531-66.890625 143.722656-147.09375 144.507812l-1.511719.015626c-79.503906 0-144.707031-62.605469-148.410156-141.550782-2.644532-8.285156-4.617188-16.867187-5.847656-25.691406-.789063 6.605469-1.214844 13.328125-1.136719 20.15625.84375 85.320312 70.261719 153.910156 155.371093 153.910156.53125 0 1.0625-.003906 1.597657-.011718 85.855469-.847657 154.765625-71.128907 153.902343-156.96875-.066406-6.84375-.621093-13.554688-1.539062-20.144532" fill="#54596e"/><path d="m172.039062 273.714844c11.089844 13.710937 31.121094 30.578125 53.808594 30.351562 22.453125-.21875 41.980469-17.292968 52.859375-30.992187zm0 0" fill="#54596e"/><path d="m172.039062 273.714844-5.308593 4.289062c5.910156 7.296875 14.0625 15.339844 23.984375 21.734375 9.90625 6.363281 21.703125 11.136719 34.679687 11.148438l.003907-.011719.515624.015625c12.972657-.140625 24.683594-5.082031 34.480469-11.582031 9.8125-6.523438 17.835938-14.671875 23.65625-21.992188 1.636719-2.0625 1.949219-4.863281.792969-7.234375-1.152344-2.367187-3.546875-3.851562-6.179688-3.835937l-106.667968.640625c-2.609375.015625-5.007813 1.539062-6.125 3.902343-1.121094 2.363282-.785156 5.179688.859375 7.214844l5.308593-4.289062.042969 6.824218 106.667969-.640624-.042969-6.824219-5.347656-4.246094c-5.058594 6.378906-12.234375 13.617187-20.519531 19.109375-8.300782 5.515625-17.582032 9.222656-27.0625 9.304688l.066406 6.824218.449219-6.8125-.710938-.019531-.1875.003906c-9.527343.007813-18.898437-3.582031-27.292969-8.984375-8.375-5.375-15.648437-12.511718-20.753906-18.835937l-5.308594 4.296875.042969 6.824218zm0 0" fill="#54596e"/><path d="m190.867188 226.140625c-.078126-7.539063-6.25-13.589844-13.789063-13.515625s-13.59375 6.25-13.515625 13.789062c.074219 7.539063 6.246094 13.589844 13.789062 13.515626 7.539063-.074219 13.589844-6.25 13.515626-13.789063zm0 0" fill="#54596e"/><path d="m293.300781 225.140625c-.074219-7.539063-6.246093-13.59375-13.789062-13.519531-7.539063.074218-13.59375 6.246094-13.519531 13.789062.074218 7.539063 6.246093 13.59375 13.789062 13.519532 7.539062-.074219 13.59375-6.246094 13.519531-13.789063zm0 0" fill="#54596e"/><path d="m320.878906 252.175781c-.074218-7.539062-6.246094-13.59375-13.789062-13.519531-7.539063.074219-13.589844 6.246094-13.519532 13.785156.074219 7.542969 6.25 13.59375 13.789063 13.519532 7.539063-.074219 13.59375-6.246094 13.519531-13.785157zm0 0" fill="#ff927d"/><path d="m163.832031 253.714844c-.074219-7.539063-6.246093-13.589844-13.789062-13.515625-7.539063.078125-13.589844 6.25-13.515625 13.789062.078125 7.539063 6.25 13.589844 13.789062 13.515625 7.539063-.074218 13.59375-6.25 13.515625-13.789062zm0 0" fill="#ff927d"/><path d="m354.988281 123.007812h27.304688v286.71875h-27.304688zm0 0" fill="#bfad88"/><path d="m382.292969 409.726562v-6.828124h-20.480469v-273.066407h13.652344v279.894531h6.828125v-6.828124 6.828124h6.828125v-286.71875c0-1.800781-.730469-3.558593-2-4.832031-1.269532-1.269531-3.03125-1.996093-4.828125-1.996093h-27.304688c-1.796875 0-3.558593.726562-4.828125 1.996093-1.269531 1.273438-2 3.03125-2 4.832031v286.71875c0 1.796876.730469 3.554688 2 4.828126 1.269532 1.269531 3.027344 2 4.828125 2h27.304688c1.796875 0 3.554687-.730469 4.828125-2 1.269531-1.273438 1.996094-3.03125 1.996094-4.828126zm0 0" fill="#54596e"/><path d="m40.960938 123.007812h27.304687v286.71875h-27.304687zm0 0" fill="#bfad88"/><path d="m68.265625 409.726562v-6.828124h-20.480469v-273.066407h13.65625v279.894531h6.824219v-6.828124 6.828124h6.828125v-286.71875c0-1.800781-.730469-3.558593-2-4.832031-1.269531-1.269531-3.03125-1.996093-4.828125-1.996093h-27.304687c-1.796876 0-3.558594.726562-4.828126 1.996093-1.269531 1.273438-2 3.03125-2 4.832031v286.71875c0 1.796876.730469 3.554688 2 4.828126 1.269532 1.269531 3.03125 2 4.828126 2h27.304687c1.796875 0 3.554687-.730469 4.828125-2 1.269531-1.273438 2-3.03125 2-4.828126zm0 0" fill="#54596e"/><path d="m6.828125 6.953125h409.597656v116.054687h-409.597656zm0 0" fill="#ffb8f2"/><g fill="#54596e"><path d="m416.425781 123.007812v-6.828124h-402.773437v-102.40625h395.949218v109.234374h6.824219v-6.828124 6.828124h6.828125v-116.054687c0-1.800781-.730468-3.554687-2-4.828125-1.269531-1.269531-3.03125-2-4.828125-2h-409.597656c-1.796875 0-3.558594.730469-4.828125 2-1.269531 1.273438-2 3.027344-2 4.828125v116.054687c0 1.820313.710938 3.535157 2 4.824219 1.289062 1.292969 3.003906 1.996094 4.828125 1.996094h409.597656c1.824219 0 3.535157-.703125 4.828125-1.996094 1.289063-1.289062 2-3.003906 2-4.824219zm0 0"/><path d="m88.746094 20.605469h-40.960938c-1.796875 0-3.554687.726562-4.828125 1.996093-1.269531 1.273438-1.996093 3.03125-1.996093 4.832032v40.960937c0 1.820313.710937 3.535157 2 4.824219 1.289062 1.292969 3.003906 1.996094 4.824218 1.996094h40.960938v20.480468l-40.960938.003907c-3.769531 0-6.824218 3.054687-6.824218 6.828125 0 3.769531 3.054687 6.824218 6.824218 6.824218h47.789063c1.820312 0 3.535156-.707031 4.824219-2 1.292968-1.289062 2-3.003906 2-4.824218v-34.132813c0-1.800781-.726563-3.558593-1.996094-4.832031-1.273438-1.269531-3.03125-1.996094-4.828125-1.996094h-40.960938v-27.3125l34.132813.003906c3.769531 0 6.824218-3.058593 6.824218-6.824218 0-3.769532-3.054687-6.824219-6.824218-6.824219zm0 0"/><path d="m109.226562 34.261719h54.613282c3.769531 0 6.828125-3.058594 6.828125-6.828125 0-3.773438-3.058594-6.828125-6.828125-6.828125h-54.613282c-3.769531 0-6.828124 3.054687-6.828124 6.828125 0 3.769531 3.058593 6.828125 6.828124 6.828125"/><path d="m143.359375 102.527344v-68.265625c0-3.773438-3.054687-6.828125-6.824219-6.828125-3.773437 0-6.828125 3.054687-6.828125 6.828125v68.265625c0 3.769531 3.054688 6.824218 6.828125 6.824218 3.769532 0 6.824219-3.054687 6.824219-6.824218"/><path d="m327.679688 34.261719h54.613281c3.769531 0 6.828125-3.058594 6.828125-6.828125 0-3.773438-3.058594-6.828125-6.828125-6.828125h-54.613281c-3.769532 0-6.828126 3.054687-6.828126 6.828125 0 3.769531 3.058594 6.828125 6.828126 6.828125"/><path d="m361.8125 102.527344v-68.265625c0-3.773438-3.054688-6.828125-6.824219-6.828125-3.773437 0-6.828125 3.054687-6.828125 6.828125v68.265625c0 3.769531 3.054688 6.824218 6.828125 6.824218 3.769531 0 6.824219-3.054687 6.824219-6.824218"/><path d="m191.148438 102.527344v-68.273438h34.132812v68.273438c0 3.769531 3.054688 6.824218 6.824219 6.824218s6.828125-3.054687 6.828125-6.824218v-75.09375c0-1.800782-.730469-3.558594-2-4.832032-1.269532-1.269531-3.03125-1.996093-4.828125-1.996093h-47.785157c-1.796874 0-3.558593.726562-4.828124 1.996093-1.269532 1.273438-2 3.03125-2 4.832032v75.09375c0 3.769531 3.058593 6.824218 6.828124 6.824218 3.769532 0 6.828126-3.054687 6.828126-6.824218zm0 0"/><path d="m232.105469 61.566406h-47.785157c-3.769531 0-6.828124 3.054688-6.828124 6.828125 0 3.769531 3.058593 6.824219 6.828124 6.824219h47.785157c3.769531 0 6.828125-3.054688 6.828125-6.824219 0-3.773437-3.058594-6.828125-6.828125-6.828125"/><path d="m266.238281 102.527344v-68.273438h34.136719v34.140625c0 3.769531 3.054688 6.824219 6.824219 6.824219s6.828125-3.054688 6.828125-6.824219v-40.960937c0-1.800782-.730469-3.558594-2-4.832032-1.269532-1.269531-3.03125-1.996093-4.828125-1.996093h-47.785157c-1.796874 0-3.558593.726562-4.828124 1.996093-1.269532 1.273438-2 3.03125-2 4.832032v75.09375c0 3.769531 3.058593 6.824218 6.828124 6.824218 3.769532 0 6.824219-3.054687 6.824219-6.824218zm0 0"/><path d="m307.199219 61.566406h-47.785157c-3.769531 0-6.828124 3.054688-6.828124 6.828125 0 3.769531 3.058593 6.824219 6.828124 6.824219h47.785157c3.769531 0 6.828125-3.054688 6.828125-6.824219 0-3.773437-3.058594-6.828125-6.828125-6.828125"/><path d="m310.988281 96.84375-40.960937-27.308594c-3.136719-2.089844-7.375-1.242187-9.46875 1.894532-2.089844 3.140624-1.242188 7.375 1.894531 9.46875l40.960937 27.308593c3.136719 2.089844 7.375 1.242188 9.464844-1.894531 2.09375-3.140625 1.246094-7.375-1.890625-9.46875"/></g></svg>