<?xml version="1.0" encoding="iso-8859-1"?>
<!-- Generator: Adobe Illustrator 19.0.0, SVG Export Plug-In . SVG Version: 6.00 Build 0)  -->
<svg version="1.1" id="Layer_1" xmlns="http://www.w3.org/2000/svg" xmlns:xlink="http://www.w3.org/1999/xlink" x="0px" y="0px"
	 viewBox="0 0 511.997 511.997" style="enable-background:new 0 0 511.997 511.997;" xml:space="preserve">
<g>
	<path style="fill:#8D663D;" d="M261.148,428.804l-8.311,27.703c-2.823,9.406,2.516,19.319,11.922,22.141
		c9.405,2.823,19.318-2.517,22.141-11.922l8.613-28.713v-9.209L261.148,428.804L261.148,428.804z"/>
	<path style="fill:#8D663D;" d="M323.214,438.905v46.42c0,9.82,7.961,17.782,17.782,17.782c9.82,0,17.782-7.961,17.782-17.782
		v-63.037h-35.563V438.905z"/>
	<path style="fill:#8D663D;" d="M399.199,380.694l44.436,88.874c3.115,6.232,9.395,9.833,15.918,9.833
		c2.672,0,5.385-0.605,7.938-1.881c8.784-4.392,12.344-15.073,7.952-23.857l-54.105-108.211h-22.139V380.694z"/>
</g>
<g>
	<path style="fill:#B69362;" d="M252.838,456.507c-2.416,8.052,1.159,16.46,8.136,20.489c3.785-2.187,6.787-5.752,8.142-10.271
		l2.27-7.566l-17.904-4.797L252.838,456.507z"/>
	<path style="fill:#B69362;" d="M323.214,485.325c0,6.577,3.58,12.306,8.888,15.382c5.308-3.076,8.888-8.805,8.888-15.382v-23.74
		c-5.936,2.048-11.872,3.507-17.778,4.36v19.38H323.214z"/>
	<path style="fill:#B69362;" d="M412.435,407.167l31.201,62.401c1.616,3.232,4.086,5.748,6.996,7.43
		c8.093-4.664,11.258-14.87,7.027-23.334l-32.049-64.097c-3.935,5.702-7.984,11.162-12.141,16.337
		C413.127,406.33,412.779,406.744,412.435,407.167z"/>
</g>
<path style="fill:#E7E4CD;" d="M407.067,26.088l-57.252-15.341L239.36,422.966L454.895,259.81
	C485.421,145.887,464.03,41.35,407.067,26.088z"/>
<path style="fill:#C1BDAB;" d="M294.588,216.857l-55.226,206.109l57.252,15.341c56.962,15.263,127.755-64.572,158.282-178.496
	L294.588,216.857z"/>
<path style="fill:#AB5034;" d="M397.642,244.469c30.525-113.924,9.134-218.46-47.828-233.723S222.059,75.319,191.532,189.243
	s-9.134,218.46,47.828,233.723C296.322,438.228,367.117,358.393,397.642,244.469z"/>
<path style="fill:#E7E4CD;" d="M257.769,354.263c-37.975-10.175-52.235-79.866-31.885-155.815S293.431,69.276,331.405,79.451
	s52.235,79.866,31.885,155.815C342.94,311.215,295.744,364.438,257.769,354.263z"/>
<path style="fill:#AB5034;" d="M328.94,226.061c10.175-37.975,3.044-72.82-15.943-77.908s-42.585,21.524-52.761,59.499
	c-10.175,37.975-3.044,72.82,15.943,77.907C295.166,290.647,318.764,264.035,328.94,226.061z"/>
<path style="opacity:0.2;fill:#493023;enable-background:new    ;" d="M349.814,10.747L239.36,422.966
	c56.962,15.263,127.756-64.572,158.282-178.496S406.776,26.01,349.814,10.747z"/>
<path style="fill:#E7E4CD;" d="M94.732,196.353l21.939,7.128c4.853,1.577,10.17-0.129,13.2-4.233l17.048-23.286l-15.034-16.785
	l-14.889,7.017l-24.002,11.715L94.732,196.353z"/>
<polygon style="fill:#D5D2BD;" points="86.931,156.425 64.511,170.739 64.667,186.585 94.732,196.353 116.996,166.193 
	101.82,149.409 "/>
<path style="fill:#E7E4CD;" d="M56.582,146.657L44.228,163.61c-4.748,6.514-1.75,15.765,5.917,18.256l14.523,4.719l22.264-30.16
	L71.7,139.669L56.582,146.657z"/>
<path style="opacity:0.2;fill:#47423F;enable-background:new    ;" d="M131.885,159.177l-14.889,7.017l-15.175-16.785l-14.889,7.017
	l-15.231-16.756l-15.119,6.988L44.228,163.61c-4.748,6.514-1.75,15.765,5.917,18.256l14.523,4.719l30.064,9.768l21.939,7.128
	c4.853,1.577,10.17-0.129,13.2-4.233l17.048-23.286L131.885,159.177z"/>
<path style="fill:#D5D2BD;" d="M116.79,128.708l-11.697,8.848l11.981,28.638l29.845,9.768v-28.941
	c-0.039-5.102-3.338-9.608-8.191-11.185L116.79,128.708z"/>
<polygon style="fill:#E7E4CD;" points="117.074,166.193 116.79,128.708 86.726,118.939 76.194,133.543 87.01,156.425 "/>
<path style="fill:#D5D2BD;" d="M86.726,118.939l-14.547-4.726c-7.659-2.488-15.596,3.221-15.596,11.275v21.17l30.428,9.768
	L86.726,118.939z"/>
<path d="M483.396,449.687l-42.261-84.523c-2.195-4.391-7.536-6.171-11.928-3.976c-4.392,2.197-6.173,7.536-3.976,11.929
	l42.261,84.523c2.192,4.384,0.408,9.735-3.978,11.929c-1.251,0.625-2.582,0.942-3.959,0.942c-3.396,0-6.449-1.885-7.966-4.92
	l-42.028-84.055c22.949-32.533,41.738-73.952,53.924-119.423c15.114-56.407,18.316-112.498,9.015-157.943
	c-9.738-47.591-32.159-78.37-63.131-86.669l-57.252-15.34c-28.678-7.684-61.169,5.265-91.482,36.464
	c-28.664,29.502-53.637,73.442-70.317,123.725c-1.546,4.661,0.979,9.692,5.639,11.237c4.664,1.553,9.692-0.978,11.238-5.639
	c15.853-47.789,39.36-89.316,66.193-116.932c25.625-26.371,51.949-37.619,74.127-31.681c24.126,6.465,41.994,32.411,50.312,73.058
	c8.757,42.793,5.642,95.986-8.771,149.776c-14.413,53.792-38.311,101.415-67.292,134.095
	c-27.526,31.043-55.972,44.574-80.101,38.114c-21.933-5.877-39.011-28.407-48.085-63.437c-9.497-36.66-9.407-83.678,0.255-132.393
	c0.955-4.816-2.175-9.495-6.992-10.45c-4.821-0.958-9.495,2.175-10.451,6.991c-10.171,51.285-10.179,101.115-0.025,140.311
	c10.751,41.501,32.307,68.545,60.697,76.152l12.94,3.467l-5.679,18.93c-4.226,14.087,3.796,28.985,17.882,33.213
	c2.536,0.761,5.125,1.138,7.699,1.138c4.354,0,8.668-1.079,12.61-3.201c6.273-3.379,10.855-8.996,12.902-15.82l2.562-8.538
	c1.411-4.704-1.258-9.659-5.96-11.071c-4.701-1.408-9.659,1.259-11.071,5.96l-2.562,8.538c-0.683,2.274-2.21,4.147-4.301,5.273
	c-2.091,1.126-4.493,1.372-6.769,0.688c-4.696-1.408-7.37-6.375-5.962-11.071l5.831-19.435l27.128,7.269
	c5.471,1.466,11.06,2.192,16.734,2.192c1.089,0,2.182-0.037,3.277-0.09v36.329c0,14.707,11.965,26.673,26.673,26.673
	c14.708,0,26.673-11.966,26.673-26.673v-38.231c0-4.911-3.981-8.891-8.891-8.891s-8.891,3.98-8.891,8.891v38.231
	c0,4.903-3.988,8.891-8.891,8.891s-8.891-3.988-8.891-8.891v-39.453c20.064-6.005,40.616-20.368,60.215-42.47
	c1.763-1.988,3.505-4.033,5.231-6.122l38.132,76.263c4.549,9.097,13.695,14.748,23.87,14.748c4.105,0,8.226-0.976,11.915-2.821
	C484.623,478.894,489.974,462.842,483.396,449.687z M379.015,391.605c-19.05,21.483-38.54,34.571-56.735,38.458
	c-0.52,0.055-1.024,0.16-1.514,0.3c-7.56,1.408-14.887,1.22-21.851-0.645l-12.773-3.422c16.422-7.408,32.99-20.263,48.927-38.234
	c30.777-34.706,56.049-84.884,71.164-141.29s18.316-112.498,9.016-157.943c-4.816-23.535-12.738-42.95-23.257-57.576l12.776,3.424
	c24.127,6.465,41.996,32.411,50.313,73.059c8.757,42.793,5.642,95.986-8.771,149.776c-12.134,45.285-30.992,86.197-53.944,117.505
	c-0.2,0.242-0.384,0.493-0.557,0.753C387.668,381.366,383.401,386.659,379.015,391.605z"/>
<path d="M220.957,219.414c-4.865-0.76-9.397,2.571-10.147,7.424c-10.865,70.125,7.5,126.056,44.658,136.011
	c3.908,1.048,7.894,1.565,11.936,1.565c18.491-0.001,38.112-10.846,56.387-31.456c20.818-23.475,37.894-57.353,48.088-95.393
	c21.936-81.866,5.169-155.091-38.173-166.705c-19.593-5.248-41.663,3.039-62.136,23.344c-18.864,18.708-35.617,46.826-47.174,79.175
	c-1.653,4.623,0.758,9.711,5.382,11.364c4.622,1.65,9.711-0.758,11.364-5.381c10.681-29.898,25.934-55.657,42.95-72.533
	c15.796-15.664,31.781-22.344,45.013-18.794c14.727,3.946,26.175,20.872,31.406,46.437c5.748,28.087,3.686,63.065-5.806,98.489
	c-9.492,35.426-25.194,66.749-44.216,88.198c-17.313,19.524-35.688,28.459-50.417,24.513
	c-27.192-7.286-40.815-57.205-31.688-116.113C229.133,224.708,225.809,220.165,220.957,219.414z"/>
<path d="M255.705,231.196c-0.03,0-0.059,0-0.09,0c-4.869,0-8.841,3.924-8.888,8.803c-0.29,29.272,9.859,49.516,27.151,54.149
	c2.367,0.634,4.76,0.942,7.164,0.942c22.461,0,45.821-26.926,56.485-66.728c5.272-19.675,6.368-39.339,3.087-55.371
	c-3.72-18.178-12.712-30.049-25.316-33.425c-19.875-5.324-41.947,12.175-56.226,44.587c-1.98,4.493,0.058,9.741,4.552,11.721
	c4.493,1.981,9.741-0.057,11.72-4.552c11.275-25.593,26.631-36.918,35.351-34.581c5.677,1.521,10.232,8.744,12.498,19.816
	c2.738,13.38,1.728,30.145-2.843,47.202c-0.279,1.042-0.569,2.071-0.869,3.089c-0.1,0.34-0.206,0.673-0.308,1.011
	c-0.204,0.672-0.407,1.345-0.618,2.007c-0.128,0.399-0.262,0.791-0.392,1.187c-0.194,0.59-0.389,1.181-0.59,1.763
	c-0.143,0.414-0.292,0.819-0.437,1.228c-0.198,0.552-0.395,1.105-0.597,1.648c-0.155,0.415-0.314,0.823-0.472,1.233
	c-0.203,0.526-0.405,1.05-0.613,1.568c-0.164,0.408-0.331,0.812-0.498,1.215c-0.21,0.506-0.42,1.01-0.633,1.508
	c-0.172,0.4-0.346,0.795-0.52,1.189c-0.216,0.49-0.434,0.974-0.654,1.455c-0.178,0.388-0.357,0.773-0.538,1.155
	c-0.224,0.473-0.449,0.942-0.677,1.407c-0.183,0.375-0.366,0.747-0.552,1.115c-0.231,0.46-0.466,0.914-0.701,1.366
	c-0.187,0.358-0.373,0.717-0.562,1.069c-0.241,0.449-0.484,0.891-0.728,1.331c-0.187,0.339-0.375,0.679-0.564,1.012
	c-0.253,0.443-0.507,0.876-0.762,1.309c-0.186,0.315-0.371,0.634-0.558,0.944c-0.27,0.446-0.543,0.881-0.816,1.315
	c-0.175,0.281-0.351,0.565-0.528,0.842c-0.299,0.466-0.601,0.918-0.903,1.369c-0.155,0.231-0.308,0.469-0.464,0.698
	c-0.394,0.576-0.789,1.137-1.188,1.689c-0.065,0.091-0.13,0.187-0.196,0.277c-0.466,0.643-0.935,1.267-1.406,1.875
	c-0.122,0.158-0.245,0.306-0.367,0.461c-0.347,0.442-0.695,0.881-1.043,1.304c-0.173,0.21-0.346,0.408-0.519,0.612
	c-0.3,0.354-0.6,0.709-0.9,1.049c-0.191,0.217-0.383,0.423-0.575,0.634c-0.283,0.312-0.567,0.624-0.85,0.922
	c-0.2,0.212-0.402,0.414-0.603,0.62c-0.275,0.281-0.549,0.561-0.824,0.829c-0.206,0.202-0.413,0.395-0.619,0.59
	c-0.269,0.254-0.538,0.506-0.806,0.748c-0.21,0.189-0.418,0.371-0.628,0.554c-0.266,0.23-0.53,0.456-0.794,0.674
	c-0.209,0.173-0.417,0.341-0.626,0.506c-0.263,0.209-0.526,0.411-0.788,0.608c-0.209,0.156-0.417,0.309-0.625,0.459
	c-0.26,0.186-0.519,0.364-0.778,0.537c-0.207,0.139-0.414,0.277-0.62,0.409c-0.26,0.165-0.517,0.32-0.774,0.472
	c-0.202,0.12-0.404,0.241-0.606,0.353c-0.26,0.145-0.517,0.276-0.774,0.408c-0.196,0.1-0.392,0.204-0.588,0.296
	c-0.26,0.123-0.517,0.231-0.773,0.34c-0.189,0.081-0.378,0.166-0.565,0.239c-0.266,0.103-0.529,0.19-0.791,0.277
	c-0.173,0.058-0.349,0.124-0.519,0.175c-0.295,0.088-0.586,0.155-0.875,0.223c-0.135,0.032-0.273,0.073-0.407,0.101
	c-0.417,0.085-0.83,0.148-1.236,0.191c-0.133,0.013-0.262,0.012-0.395,0.021c-0.273,0.019-0.545,0.039-0.813,0.038
	c-0.306-0.001-0.605-0.028-0.903-0.056c-0.113-0.011-0.23-0.009-0.341-0.024c-0.408-0.052-0.807-0.129-1.197-0.235
	c-8.42-2.256-14.166-17.388-13.973-36.797C264.556,235.264,260.615,231.245,255.705,231.196z"/>
<path d="M296.364,216.084l-140.381-46.325l-0.238-31.349c-0.038-4.888-4.01-8.823-8.89-8.823c-0.023,0-0.046,0-0.069,0
	c-4.91,0.037-8.86,4.048-8.823,8.958l0.192,25.332l-12.239-4.039l-0.237-31.196c-0.038-4.888-4.01-8.823-8.89-8.823
	c-0.023,0-0.046,0-0.069,0c-4.91,0.037-8.86,4.048-8.823,8.958l0.191,25.179l-12.239-4.039l-0.236-31.042
	c-0.037-4.888-4.01-8.823-8.89-8.823c-0.023,0-0.046,0-0.069,0c-4.91,0.037-8.861,4.048-8.823,8.958l0.19,25.025l-12.473-4.116
	V109.17c0-4.911-3.981-8.891-8.891-8.891s-8.891,3.98-8.891,8.891v34.591L27.494,171.58c-2.892,3.969-2.02,9.53,1.949,12.422
	c1.58,1.152,3.412,1.706,5.229,1.706c2.744,0,5.453-1.267,7.192-3.656l18.346-25.174l12.393,4.09L57.59,181.305
	c-2.916,3.95-2.077,9.517,1.873,12.433c1.589,1.172,3.439,1.739,5.273,1.739c2.725,0,5.416-1.251,7.16-3.612l18.479-25.033
	l12.202,4.027l-14.922,20.214c-2.916,3.95-2.077,9.517,1.873,12.433c1.59,1.172,3.439,1.738,5.274,1.738
	c2.725,0,5.416-1.249,7.16-3.611l18.389-24.91l12.201,4.026l-14.831,20.091c-2.916,3.95-2.077,9.517,1.873,12.433
	c1.59,1.172,3.439,1.738,5.274,1.738c2.725,0,5.416-1.249,7.16-3.611l18.297-24.786l140.466,46.353
	c0.925,0.306,1.864,0.45,2.788,0.45c3.732,0,7.208-2.369,8.442-6.106C303.559,222.65,301.027,217.623,296.364,216.084z"/>
<g>
</g>
<g>
</g>
<g>
</g>
<g>
</g>
<g>
</g>
<g>
</g>
<g>
</g>
<g>
</g>
<g>
</g>
<g>
</g>
<g>
</g>
<g>
</g>
<g>
</g>
<g>
</g>
<g>
</g>
</svg>
