<svg height="425pt" viewBox="0 -42 425.49248 425" width="425pt" xmlns="http://www.w3.org/2000/svg"><path d="m311.734375 7.074219h-54.613281c0 26.390625-21.394532 47.785156-47.789063 47.785156s-47.785156-21.394531-47.785156-47.785156h-47.789063l-86.058593 89.570312 46.03125 46.027344 41.703125-41.699219 3.675781 206.472656h187.273437l3.707032-208.199218 43.429687 43.425781 46.03125-46.027344zm0 0" fill="#55a6ff"/><path d="m311.734375 7.074219v-6.828125h-54.613281c-1.796875 0-3.558594.726562-4.828125 1.996094-1.269531 1.273437-2 3.03125-2 4.832031-.003907 11.332031-4.574219 21.527343-11.996094 28.960937-7.433594 7.421875-17.628906 11.992188-28.964844 11.996094-11.332031-.003906-21.527343-4.574219-28.964843-11.996094-7.421876-7.429687-11.992188-17.628906-11.996094-28.960937 0-1.800781-.726563-3.558594-2-4.832031-1.269532-1.269532-3.027344-1.996094-4.824219-1.996094h-47.789063c-1.847656 0-3.640624.757812-4.921874 2.097656l-86.058594 89.574219c-2.570313 2.671875-2.527344 6.929687.09375 9.554687l46.03125 46.027344c1.292968 1.289062 3.003906 1.996094 4.828125 1.996094s3.539062-.707032 4.824219-1.996094l30.339843-30.335938 3.390625 190.402344c.066406 3.726563 3.097656 6.703125 6.824219 6.703125h187.273437c3.726563 0 6.761719-2.976562 6.824219-6.703125l3.421875-192.125 32.0625 32.058594c1.289063 1.289062 3.003906 1.996094 4.824219 1.996094 1.824219 0 3.539063-.707032 4.828125-1.996094l46.03125-46.027344c2.648438-2.652344 2.671875-6.929687.046875-9.605468l-87.816406-89.574219c-1.277344-1.300781-3.050781-2.046875-4.875-2.046875v6.828125l-4.875 4.777343 83.085937 84.742188-36.425781 36.417969-38.601563-38.59375c-1.9375-1.941407-4.84375-2.527344-7.382812-1.5-2.539062 1.023437-4.21875 3.464843-4.269531 6.207031l-3.585938 201.492188h-173.859375l-3.558594-199.769532c-.046874-2.738281-1.726562-5.183594-4.265624-6.207031-2.542969-1.027344-5.449219-.4375-7.386719 1.5l-36.875 36.871094-36.46875-36.464844 79.40625-82.652344h44.878906v-6.820312h-6.828125c.003906 30.164062 24.449219 54.605469 54.613281 54.609375 30.167969-.003906 54.609375-24.445313 54.613281-54.609375h-6.824218v6.824219h54.613281v-6.824219l-4.875 4.777343zm0 0" fill="#54596e"/><path d="m113.757812 307.445312h197.976563v27.308594h-197.976563zm0 0" fill="#fff35f"/><path d="m311.734375 334.753906v-7.078125h-190.902344v-13.160156h183.824219v20.238281h7.078125v-7.078125 7.078125h7.074219v-27.308594c0-1.863281-.757813-3.683593-2.074219-5.003906-1.316406-1.316406-3.140625-2.074218-5.003906-2.074218h-197.972657c-1.863281 0-3.683593.757812-5.003906 2.074218-1.316406 1.320313-2.070312 3.140625-2.070312 5.003906v27.308594c0 1.886719.734375 3.664063 2.074218 5.003906 1.335938 1.332032 3.113282 2.070313 5 2.070313h197.976563c1.886719 0 3.664063-.738281 5-2.070313 1.335937-1.335937 2.074219-3.113281 2.074219-5.003906zm0 0" fill="#54596e"/><path d="m6.824219 107.179688 19.308593-19.308594 51.199219 51.199218-19.308593 19.308594zm0 0" fill="#fff35f"/><path d="m58.027344 158.378906 4.824218-4.828125-46.371093-46.375 9.652343-9.652343 41.542969 41.542968-14.476562 14.484375 4.828125 4.828125 4.824218-4.828125-4.824218 4.828125 4.824218 4.828125 19.308594-19.308593c1.273438-1.273438 2-3.027344 2-4.824219 0-1.800781-.726562-3.5625-2-4.832031l-51.199218-51.199219c-2.667969-2.664063-6.988282-2.664063-9.65625 0l-19.304688 19.304687c-1.269531 1.269532-2 3.03125-2 4.832032 0 1.796874.730469 3.554687 2 4.824218l51.199219 51.203125c1.292969 1.285157 3.003906 1.996094 4.828125 1.996094 1.824218 0 3.539062-.710937 4.824218-1.996094zm0 0" fill="#54596e"/><path d="m348.15625 139.074219 51.199219-51.199219 19.304687 19.304688-51.199218 51.199218zm0 0" fill="#fff35f"/><g fill="#54596e"><path d="m367.464844 158.378906 4.828125 4.828125 51.199219-51.203125c1.273437-1.269531 2-3.027344 2-4.824218 0-1.800782-.726563-3.5625-2-4.832032l-19.304688-19.304687c-2.667969-2.664063-6.988281-2.664063-9.65625 0l-51.199219 51.199219c-1.273437 1.269531-2 3.03125-2 4.832031 0 1.796875.726563 3.550781 2 4.824219l19.304688 19.308593c1.292969 1.285157 3.003906 1.996094 4.828125 1.996094 1.824218 0 3.539062-.710937 4.824218-1.996094l-4.824218-4.828125 4.828125-4.828125-14.476563-14.480469 41.542969-41.542968 9.652344 9.648437-46.371094 46.375 4.824219 4.828125 4.828125-4.828125zm0 0"/><path d="m182.707031 175.976562c8.175781 9.75 21.519531 15.355469 36.503907 15.414063 14.832031-.050781 28.054687-5.558594 36.25-15.132813 2.332031-2.757812 2.1875-7.078124-.324219-9.640624-2.515625-2.566407-6.441407-2.40625-8.777344.363281-4.945313 5.964843-15.199219 10.8125-27.148437 10.757812-12.070313.054688-22.414063-4.890625-27.308594-10.945312-2.308594-2.792969-6.234375-3-8.773438-.460938-2.539062 2.539063-2.726562 6.855469-.421875 9.644531zm0 0"/><path d="m182.027344 129.953125c0 7.539063-6.113282 13.652344-13.65625 13.652344-7.539063 0-13.652344-6.113281-13.652344-13.652344s6.113281-13.652344 13.652344-13.652344c7.542968 0 13.65625 6.113281 13.65625 13.652344zm0 0"/><path d="m284.425781 129.953125c0 7.539063-6.113281 13.652344-13.652343 13.652344-7.542969 0-13.652344-6.113281-13.652344-13.652344s6.109375-13.652344 13.652344-13.652344c7.539062 0 13.652343 6.113281 13.652343 13.652344zm0 0"/></g></svg>