<svg height="416pt" viewBox="0 -50 416.45543 416" width="416pt" xmlns="http://www.w3.org/2000/svg"><path d="m399.96875 315.855469-215.625-35.015625 3.277344-20.214844 225.007812 36.535156c4 .652344 5.222656 5.8125 1.933594 8.179688zm0 0" fill="#54596e"/><path d="m81.925781 83.105469v33.175781c30.160157 0 54.613281-24.453125 54.613281-54.613281h-33.175781c-11.839843-.003907-21.4375 9.597656-21.4375 21.4375zm0 0" fill="#ffd578"/><path d="m81.925781 83.105469h-6.828125v33.175781c0 1.824219.710938 3.535156 2 4.828125 1.289063 1.289063 3.003906 1.996094 4.828125 1.996094 33.933594-.003907 61.433594-27.503907 61.4375-61.4375 0-1.800781-.726562-3.558594-1.996093-4.832031-1.273438-1.269532-3.03125-1.996094-4.828126-1.996094h-33.175781c-15.613281.003906-28.261719 12.652344-28.265625 28.265625h13.652344c.015625-8.066407 6.546875-14.597657 14.613281-14.613281h33.175781v-6.824219h-6.828124c0 13.210937-5.335938 25.117187-13.996094 33.785156-8.671875 8.660156-20.574219 13.996094-33.789063 14v6.828125h6.828125v-33.175781zm0 0" fill="#54596e"/><path d="m81.925781 83.105469c0-11.839844 9.597657-21.4375 21.4375-21.4375h33.175781c0-30.160157-24.453124-54.613281-54.613281-54.613281-30.160156 0-54.613281 24.453124-54.613281 54.613281 0 30.160156 24.453125 54.613281 54.613281 54.613281zm0 0" fill="#ff927d"/><path d="m81.925781 83.105469h6.824219c.015625-8.066407 6.546875-14.597657 14.613281-14.613281h33.175781c1.824219 0 3.535157-.707032 4.828126-1.996094 1.289062-1.292969 2-3.003906 2-4.828125-.007813-33.9375-27.507813-61.4375-61.441407-61.441407-33.933593.003907-61.433593 27.503907-61.441406 61.441407.007813 33.933593 27.507813 61.433593 61.441406 61.4375 1.824219 0 3.535157-.707031 4.828125-1.996094 1.289063-1.292969 2-3.003906 2-4.828125v-33.175781h-13.65625v33.175781h6.828125v-6.828125c-13.21875-.003906-25.121093-5.339844-33.792969-14-8.65625-8.667969-13.992187-20.574219-13.996093-33.785156.003906-13.214844 5.335937-25.121094 13.996093-33.789063 8.671876-8.660156 20.574219-13.996094 33.792969-14 13.214844.003906 25.117188 5.339844 33.785157 14 8.660156 8.667969 13.996093 20.574219 14 33.789063h6.828124v-6.828125h-33.175781c-15.613281.003906-28.261719 12.652344-28.265625 28.265625zm0 0" fill="#54596e"/><path d="m211.628906 110.414062v33.171876c30.160156 0 54.613282-24.453126 54.613282-54.613282h-33.171876c-11.839843 0-21.441406 9.601563-21.441406 21.441406zm0 0" fill="#ffd578"/><path d="m211.628906 110.414062h-6.824218v33.171876c0 1.824218.710937 3.539062 2 4.828124 1.289062 1.289063 3.003906 1.996094 4.824218 1.996094 33.933594-.003906 61.4375-27.503906 61.441406-61.4375 0-1.796875-.726562-3.554687-2-4.828125-1.269531-1.269531-3.027343-1.996093-4.824218-1.996093h-33.175782c-15.613281.003906-28.261718 12.648437-28.265624 28.265624h13.652343c.015625-8.066406 6.546875-14.601562 14.613281-14.617187h33.175782v-6.824219h-6.828125c-.003907 13.214844-5.335938 25.117188-13.996094 33.789063-8.671875 8.660156-20.574219 13.992187-33.789063 14v6.824219h6.828126v-33.171876zm0 0" fill="#54596e"/><path d="m211.628906 110.414062c0-11.839843 9.601563-21.441406 21.441406-21.441406h33.171876c0-30.160156-24.453126-54.613281-54.613282-54.613281s-54.613281 24.453125-54.613281 54.613281 24.453125 54.613282 54.613281 54.613282zm0 0" fill="#ff927d"/><path d="m211.628906 110.414062h6.828125c.015625-8.066406 6.546875-14.601562 14.613281-14.617187h33.175782c1.824218 0 3.535156-.707031 4.824218-1.996094 1.292969-1.289062 2.003907-3.003906 2.003907-4.828125-.007813-33.933594-27.507813-61.433594-61.441407-61.4375-33.933593.003906-61.433593 27.503906-61.441406 61.4375.007813 33.933594 27.507813 61.433594 61.441406 61.4375 1.824219 0 3.535157-.707031 4.824219-1.996094 1.292969-1.289062 2.003907-3.003906 2.003907-4.828124v-33.171876h-13.65625v33.171876h6.824218v-6.824219c-13.214844-.007813-25.117187-5.339844-33.789062-14-8.65625-8.671875-13.992188-20.574219-13.996094-33.789063.003906-13.214844 5.335938-25.117187 13.996094-33.789062 8.671875-8.660156 20.574218-13.992188 33.789062-14 13.21875.007812 25.121094 5.339844 33.789063 14 8.660156 8.671875 13.996093 20.574218 14 33.789062h6.824219v-6.824218h-33.171876c-15.613281.003906-28.261718 12.648437-28.265624 28.265624zm0 0" fill="#54596e"/><path d="m6.832031 95.800781 245.757813 47.785157 54.613281-27.304688 96.167969 118.425781c13.839844 15.574219.8125 39.960938-19.824219 37.113281l-376.714844-59.96875" fill="#8065c4"/><path d="m5.527344 102.5 245.757812 47.785156c1.492188.292969 3 .082032 4.355469-.597656l49.714844-24.855469 92.714843 114.175781.195313.230469c2.867187 3.257813 3.984375 6.703125 4.007813 10.207031.011718 3.996094-1.632813 8.046876-4.40625 10.984376-2.789063 2.9375-6.484376 4.769531-11.039063 4.785156-.773437-.003906-1.566406-.050782-2.378906-.160156l-.90625 6.765624 1.070312-6.742187-376.710937-59.96875c-3.722656-.59375-7.222656 1.945313-7.8164065 5.667969-.5937495 3.726562 1.9453125 7.222656 5.6718745 7.820312l376.710938 59.960938.167969.023437c1.421875.195313 2.824219.285157 4.191406.28125 8.457031.015625 15.902344-3.632812 20.992187-9.085937 5.113282-5.453125 8.097657-12.699219 8.105469-20.332032.023438-6.644531-2.375-13.589843-7.453125-19.273437l-5.105468 4.535156 5.300781-4.304687-96.167969-118.429688c-2.015625-2.484375-5.492188-3.230468-8.351562-1.800781l-52.53125 26.265625-243.484376-47.339844c-3.703124-.71875-7.289062 1.695313-8.007812 5.398438-.71875 3.699218 1.699219 7.289062 5.402344 8.007812zm0 0" fill="#54596e"/><path d="m166.871094 256.199219-160.039063-25.984375v20.746094l147.378907 23.929687 14.59375-10.503906c3.285156-2.375 2.066406-7.535157-1.933594-8.1875zm0 0" fill="#54596e"/><path d="m330.484375 144.953125c-9.976563 7.472656-16.457031 19.347656-16.457031 32.765625 0 22.621094 18.339844 40.960938 40.960937 40.960938 10.375 0 19.828125-3.894532 27.042969-10.253907zm0 0" fill="#55a6ff"/><path d="m330.484375 144.953125-4.097656-5.464844c-11.601563 8.683594-19.1875 22.578125-19.183594 38.230469.003906 26.394531 21.390625 47.78125 47.785156 47.785156 12.097657.003906 23.171875-4.558594 31.554688-11.957031 2.75-2.429687 3.097656-6.582031.785156-9.425781l-51.546875-63.472656c-2.3125-2.847657-6.457031-3.359376-9.394531-1.160157l4.097656 5.464844-5.300781 4.300781 51.546875 63.472656 5.300781-4.300781-4.519531-5.125c-6.042969 5.320313-13.875 8.546875-22.523438 8.550781-9.445312-.003906-17.9375-3.8125-24.136719-10-6.1875-6.199218-9.992187-14.6875-9.996093-24.132812 0-11.191406 5.378906-21.039062 13.71875-27.304688l-4.089844-5.460937-5.300781 4.300781zm0 0" fill="#54596e"/></svg>