<svg height="436pt" viewBox="0 -3 436.91012 436" width="436pt" xmlns="http://www.w3.org/2000/svg"><path d="m88.101562 181.367188c3.753907 0 7.375-2.074219 9.167969-5.660157 2.527344-5.058593.480469-11.207031-4.582031-13.738281l-37.476562-18.742188-25.863282-64.648437c-2.097656-5.25-8.070312-7.8125-13.304687-5.707031-5.253907 2.101562-7.804688 8.0625-5.707031 13.308594l27.304687 68.265624c.933594 2.332032 2.6875 4.238282 4.929687 5.359376l40.960938 20.480468c1.472656.734375 3.03125 1.082032 4.570312 1.082032zm0 0" fill="#f4a14e"/><path d="m88.101562 181.367188v6.824218c6.246094.007813 12.28125-3.457031 15.273438-9.433594 1.21875-2.4375 1.804688-5.0625 1.804688-7.625.007812-6.25-3.464844-12.285156-9.4375-15.273437l-35.15625-17.578125-24.898438-62.238281c-2.679688-6.667969-9.070312-10.742188-15.851562-10.734375-2.109376-.003906-4.28125.390625-6.363282 1.242187l.039063-.015625c-6.671875 2.671875-10.746094 9.070313-10.738281 15.84375 0 2.113282.398437 4.273438 1.222656 6.335938l27.308594 68.265625c1.550781 3.882812 4.472656 7.0625 8.210937 8.929687l40.960937 20.480469c2.4375 1.21875 5.0625 1.804687 7.625 1.800781v-13.652344l-1.527343-.363281-40.953125-20.476562c-.738282-.371094-1.328125-1.003907-1.640625-1.789063l-27.304688-68.265625-.25-1.265625c.007813-1.347656.808594-2.640625 2.148438-3.167968l.039062-.015626 1.226563-.238281c1.339844.007813 2.648437.820313 3.171875 2.15625l25.859375 64.648438c.617187 1.542969 1.800781 2.824219 3.285156 3.570312l37.480469 18.738281c1.203125.597657 1.878906 1.796876 1.886719 3.0625l-.363282 1.527344c-.585937 1.191406-1.796875 1.875-3.058594 1.882813zm0 0" fill="#54596e"/><path d="m351.582031 181.367188c-3.75 0-7.371093-2.074219-9.164062-5.660157-2.527344-5.058593-.480469-11.207031 4.578125-13.738281l37.480468-18.742188 25.859376-64.644531c2.101562-5.253906 8.074218-7.8125 13.308593-5.707031 5.253907 2.097656 7.804688 8.058594 5.707031 13.304688l-27.308593 68.269531c-.933594 2.332031-2.683594 4.238281-4.925781 5.359375l-40.960938 20.480468c-1.472656.730469-3.035156 1.078126-4.574219 1.078126zm0 0" fill="#f4a14e"/><path d="m351.582031 181.367188v-6.828126c-1.257812-.007812-2.46875-.6875-3.058593-1.882812l-.363282-1.523438c.011719-1.269531.6875-2.464843 1.886719-3.058593l37.484375-18.742188c1.488281-.746093 2.667969-2.027343 3.285156-3.570312l25.859375-64.644531c.523438-1.34375 1.835938-2.152344 3.171875-2.160157l1.230469.242188.035156.011719c1.339844.527343 2.136719 1.816406 2.144531 3.167968l-.25 1.277344-27.304687 68.253906c-.3125.785156-.898437 1.417969-1.640625 1.789063l-40.960938 20.480469-1.519531.359374v13.652344c2.5625.003906 5.1875-.582031 7.613281-1.796875l40.972657-20.484375c3.742187-1.871094 6.660156-5.046875 8.214843-8.929687l27.304688-68.265625c.824219-2.0625 1.222656-4.21875 1.222656-6.335938.007813-6.773437-4.0625-13.171875-10.734375-15.84375l.035157.011719c-2.082032-.84375-4.253907-1.242187-6.363282-1.238281-6.777344-.007813-13.171875 4.066406-15.847656 10.738281l-24.894531 62.230469-35.160157 17.582031c-5.976562 2.988281-9.445312 9.027344-9.4375 15.273437 0 2.566407.585938 5.191407 1.800782 7.621094 2.996094 5.980469 9.03125 9.445313 15.273437 9.4375zm0 0" fill="#54596e"/><path d="m421.75 179.054688c-4.582031-3.296876-10.988281-2.234376-14.28125 2.367187l-20.058594 29.300781-15.351562 3.476563v-23.210938c0-31.710937-7.921875-61.953125-22.109375-88.554687-23.644531-44.328125-64.699219-78.53125-115.484375-92.523438-12.714844-3.503906-26.128906-3.503906-38.839844 0-81.269531 22.382813-137.59375 96.515625-137.59375 181.078125v22.578125l-12.574219-2.84375-20.066406-29.300781c-3.292969-4.601563-9.703125-5.664063-14.28125-2.367187-4.597656 3.292968-5.660156 9.691406-2.367187 14.28125l22.328124 32.472656c1.464844 2.042968 3.625 3.476562 6.066407 4.027344l20.894531 4.730468v1.394532c0 66.070312 48.011719 120.75 110.910156 131.191406l5.140625 56.554687h20.480469l4.96875-54.613281h31.027344l4.964844 54.613281h20.480468l5.140625-56.554687c62.898438-10.441406 110.914063-65.121094 110.914063-131.191406v-.765626l23.664062-5.359374c2.449219-.554688 4.601563-1.988282 6.066406-4.03125l22.328126-32.46875c3.292968-4.589844 2.230468-10.984376-2.367188-14.28125zm0 0" fill="#f4a14e"/><g fill="#54596e"><path d="m421.75 179.054688 3.988281-5.539063c-2.988281-2.15625-6.496093-3.210937-9.929687-3.203125-5.292969-.011719-10.566406 2.488281-13.890625 7.140625l-.082031.113281-18.546876 27.085938-4.40625 1v-14.664063c0-32.847656-8.210937-64.203125-22.910156-91.765625-24.5-45.933594-67.058594-81.390625-119.699218-95.894531-6.949219-1.914063-14.089844-2.875-21.230469-2.875-7.144531 0-14.285157.960937-21.238281 2.875-84.238282 23.207031-142.601563 100.039063-142.601563 187.664063v14.035156l-1.625-.371094-18.554687-27.089844-.082032-.113281c-3.324218-4.648437-8.589844-7.152344-13.890625-7.140625-3.425781-.007812-6.949219 1.042969-9.941406 3.214844l.027344-.019532c-4.644531 3.320313-7.1484378 8.585938-7.136719 13.882813-.00390625 3.429687 1.050781 6.9375 3.191406 9.921875l5.550782-3.972656-5.625 3.867187 22.328124 32.46875.078126.113281c2.4375 3.394532 6.027343 5.785157 10.101562 6.707032l20.898438 4.730468 1.507812-6.65625h-6.828125v1.394532c.011719 69.453125 50.460937 126.945312 116.621094 137.925781l1.117187-6.734375-6.796875.617188 5.140625 56.554687c.316406 3.507813 3.277344 6.210937 6.796875 6.210937h20.480469c3.523438 0 6.480469-2.703124 6.796875-6.210937l4.402344-48.40625h18.558593l4.402344 48.40625c.316406 3.507813 3.277344 6.210937 6.800782 6.210937h20.476562c3.523438 0 6.480469-2.703124 6.800781-6.210937l5.140625-56.554687-6.800781-.617188 1.121094 6.734375c66.160156-10.980469 116.609375-68.472656 116.621093-137.925781v-.765625h-6.828124l1.507812 6.65625 23.664062-5.359375c4.085938-.921875 7.675782-3.316406 10.105469-6.707032l.078125-.113281 22.328125-32.46875-5.625-3.867187 5.550781 3.972656c2.144532-2.988281 3.195313-6.496094 3.191407-9.921875.011719-5.296875-2.492188-10.566406-7.136719-13.886719l.019531.011719-3.988281 5.539063-3.972656 5.554687c.941406.671875 1.417968 1.691406 1.425781 2.78125-.003906.695313-.195313 1.351563-.636719 1.972656l-.078125.105469-22.324219 32.46875 5.625 3.871094-5.546874-3.980469c-.503907.695313-1.21875 1.167969-2.027344 1.351563l-23.667969 5.359374c-3.117187.707032-5.320313 3.464844-5.320313 6.660157v.765625c.015626 62.683594-45.566406 114.554687-105.203124 124.457031-3.070313.507813-5.398438 3.015625-5.679688 6.113281l-4.578125 50.347656h-8.011719l-4.402344-48.402343c-.316406-3.507813-3.273437-6.207031-6.796874-6.207031h-31.027344c-3.523438 0-6.480469 2.699218-6.796875 6.207031l-4.402344 48.40625h-8.011719l-4.574218-50.347657c-.28125-3.101562-2.609376-5.609374-5.683594-6.117187-59.636719-9.902344-105.214844-61.769531-105.203125-124.457031v-1.394532c0-3.195312-2.203125-5.953124-5.320313-6.65625l-20.894531-4.730468c-.800781-.179688-1.53125-.664063-2.027344-1.351563l-5.546875 3.980469 5.628906-3.871094-22.328124-32.46875-.070313-.105468c-.449219-.632813-.636719-1.28125-.640625-1.976563.007812-1.085937.480469-2.105469 1.429688-2.78125l.027343-.023437c.601563-.429688 1.238281-.617188 1.9375-.625 1.082031.011718 2.113281.488281 2.789063 1.433593l5.550781-3.96875-5.628906 3.855469 20.066406 29.300781c.96875 1.417969 2.449219 2.421875 4.125 2.800781l12.570313 2.847657c2.023437.457031 4.148437-.03125 5.769531-1.324219 1.621093-1.292969 2.5625-3.265625 2.5625-5.335938v-22.578124c0-81.503907 54.289062-152.9375 132.578125-174.496094 5.765625-1.59375 11.683594-2.382813 17.609375-2.382813 5.917969 0 11.839843.792969 17.601562 2.382813 48.9375 13.476562 88.484375 46.425781 111.28125 89.152344 13.671875 25.636718 21.300781 54.769531 21.300781 85.34375v23.210937c0 2.070313.945313 4.039063 2.566407 5.332031 1.617187 1.292969 3.746093 1.78125 5.765625 1.320313l15.355468-3.472657c1.671876-.382812 3.15625-1.386718 4.125-2.804687l20.058594-29.300781-5.632812-3.855469 5.554687 3.96875c.671875-.941406 1.695313-1.417969 2.785157-1.429687.691406.007812 1.339843.199218 1.949218.632812l.019532.015625zm0 0"/><path d="m167.257812 184.78125c0 7.539062-6.113281 13.652344-13.65625 13.652344-7.539062 0-13.652343-6.113282-13.652343-13.652344 0-7.542969 6.113281-13.65625 13.652343-13.65625 7.542969 0 13.65625 6.113281 13.65625 13.65625zm0 0"/><path d="m290.136719 184.78125c0 7.539062-6.113281 13.652344-13.652344 13.652344-7.542969 0-13.652344-6.113282-13.652344-13.652344 0-7.542969 6.109375-13.65625 13.652344-13.65625 7.539063 0 13.652344 6.113281 13.652344 13.65625zm0 0"/><path d="m133.125 239.394531c0 45.242188 36.679688 81.917969 81.917969 81.917969 45.242187 0 81.921875-36.675781 81.921875-81.917969zm0 0"/><path d="m133.125 239.394531h-6.828125c.003906 49.015625 39.734375 88.742188 88.746094 88.742188 49.015625 0 88.742187-39.726563 88.746093-88.742188 0-1.800781-.726562-3.558593-1.996093-4.828125-1.273438-1.269531-3.03125-2-4.828125-2h-163.839844c-1.796875 0-3.554688.726563-4.828125 2-1.269531 1.269532-2 3.027344-2 4.828125h6.828125v6.824219h163.839844v-6.824219h-6.828125c-.003907 20.753907-8.394531 39.484375-21.996094 53.097657-13.609375 13.597656-32.339844 21.988281-53.097656 21.996093-20.757813-.007812-39.488281-8.398437-53.097657-21.996093-13.601562-13.613282-21.992187-32.34375-21.996093-53.097657h-6.824219v6.824219zm0 0"/></g><path d="m160.429688 102.859375c0 7.542969-6.113282 13.652344-13.652344 13.652344-7.542969 0-13.652344-6.109375-13.652344-13.652344 0-7.539063 6.109375-13.652344 13.652344-13.652344 7.539062 0 13.652344 6.113281 13.652344 13.652344zm0 0" fill="#fff35f"/><path d="m242.351562 68.726562c0 7.539063-6.113281 13.652344-13.65625 13.652344-7.539062 0-13.652343-6.113281-13.652343-13.652344 0-7.539062 6.113281-13.652343 13.652343-13.652343 7.542969 0 13.65625 6.113281 13.65625 13.652343zm0 0" fill="#fff35f"/><path d="m303.789062 116.511719c0 11.3125-9.167968 20.480469-20.480468 20.480469-11.308594 0-20.476563-9.167969-20.476563-20.480469 0-11.308594 9.167969-20.476563 20.476563-20.476563 11.3125 0 20.480468 9.167969 20.480468 20.476563zm0 0" fill="#fff35f"/><path d="m228.695312 133.582031c0 9.421875-7.640624 17.066407-17.066406 17.066407-9.425781 0-17.066406-7.644532-17.066406-17.066407 0-9.425781 7.640625-17.070312 17.066406-17.070312 9.425782 0 17.066406 7.644531 17.066406 17.070312zm0 0" fill="#fff35f"/><path d="m197.976562 280.355469h-13.652343c-5.652344 0-10.242188-4.585938-10.242188-10.242188v-23.894531h34.132813v23.894531c0 5.65625-4.585938 10.242188-10.238282 10.242188zm0 0" fill="#fff"/><path d="m245.761719 280.355469h-13.652344c-5.652344 0-10.238281-4.585938-10.238281-10.242188v-23.894531h34.132812v23.894531c0 5.65625-4.589844 10.242188-10.242187 10.242188zm0 0" fill="#fff"/></svg>