<svg height="431pt" viewBox="0 0 431 431.88445" width="431pt" xmlns="http://www.w3.org/2000/svg"><path d="m320.28125 91.644531-89.300781 43.308594 14.835937 5.082031c9.699219 3.328125 18.410156 9.027344 25.351563 16.578125l14.273437 50.625zm0 0" fill="#fff"/><path d="m320.28125 91.644531-2.980469-6.144531-89.296875 43.308594c-2.488281 1.203125-4.003906 3.800781-3.835937 6.554687.167969 2.757813 1.988281 5.148438 4.597656 6.042969l14.832031 5.085938c8.625 2.957031 16.371094 8.023437 22.542969 14.738281l5.027344-4.617188-6.570313 1.851563 14.273438 50.625c.820312 2.917968 3.476562 4.945312 6.507812 4.972656 3.03125.03125 5.722656-1.953125 6.597656-4.855469l34.839844-115.597656c.78125-2.601563-.039062-5.398437-2.109375-7.164063-2.066406-1.761718-4.960937-2.132812-7.40625-.945312l2.980469 6.144531-6.535156-1.96875-28.085938 93.179688-7.921875-28.09375c-.292969-1.039063-.8125-1.972657-1.542969-2.765625-7.710937-8.390625-17.390624-14.71875-28.164062-18.417969l-14.835938-5.082031-2.214843 6.457031 2.980469 6.144531 89.300781-43.308594-2.980469-6.144531-6.535156-1.96875zm0 0" fill="#54596e"/><path d="m368.941406 71.386719c-52.800781-58.277344-136.613281-76.535157-210.519531-46.730469l-9.007813-17.828125-37.378906 57.121094 68.160156 3.808593-9.417968-18.648437c62.800781-24.304687 133.371094-8.570313 177.925781 40.609375 32.011719 35.332031 48.925781 81.113281 47.621094 128.90625-2.714844 98.773438-87.214844 179.125-188.375 179.125h-36.839844c-7.539063 0-13.652344 6.113281-13.652344 13.65625 0 7.539062 6.113281 13.652344 13.652344 13.652344h36.839844c115.804687 0 212.554687-92.273438 215.667969-205.6875 1.503906-54.859375-17.914063-107.410156-54.675782-147.984375zm0 0" fill="#f99"/><path d="m368.941406 71.386719 5.058594-4.585938c-37.308594-41.183593-89.574219-63.09375-143.257812-63.085937-25.097657-.003906-50.519532 4.78125-74.875 14.609375l2.554687 6.332031 6.09375-3.078125-9.007813-17.828125c-1.101562-2.179688-3.277343-3.601562-5.710937-3.7382812-2.4375-.1367188-4.757813 1.0351562-6.09375 3.0781252l-37.382813 57.125c-1.335937 2.039062-1.480468 4.636718-.378906 6.8125 1.097656 2.179687 3.277344 3.601562 5.710938 3.738281l68.164062 3.808594c2.433594.132812 4.757813-1.035157 6.089844-3.078125 1.335938-2.042969 1.484375-4.640625.382812-6.816406l-9.421874-18.648438-6.09375 3.078125 2.464843 6.363281c18.773438-7.265625 38.25-10.796875 57.464844-10.796875 42.472656.007813 83.597656 17.238281 112.941406 49.625 29.726563 32.820313 45.914063 74.914063 45.921875 119.171875 0 1.648438-.023437 3.304688-.070312 4.96875-2.535156 94.886719-84.03125 172.519532-181.546875 172.480469h-36.839844c-11.3125.003906-20.476563 9.164063-20.480469 20.480469.003906 11.3125 9.167969 20.476562 20.480469 20.480468h36.839844c119.464843-.039062 219.203125-95.046874 222.488281-212.328124.058594-2.042969.085938-4.085938.085938-6.121094.003906-54.375-19.960938-106.289063-56.523438-146.636719l-5.058594 4.589844-5.058594 4.585937c34.300782 37.863282 52.980469 86.429688 52.988282 137.46875 0 1.910156-.027344 3.828125-.078125 5.746094-2.941407 109.546875-96.695313 199.085938-208.84375 199.046875h-36.839844c-3.765625-.007813-6.820313-3.0625-6.828125-6.828125.007812-3.765625 3.0625-6.816406 6.828125-6.828125h36.839844c104.800781-.035156 192.308593-83.109375 195.195312-185.765625.050781-1.785156.074219-3.5625.074219-5.335938.003906-47.59375-17.464844-93.039062-49.457031-128.339843-32.011719-35.339844-76.90625-54.121094-123.058594-54.109375-20.886719-.003906-42.042969 3.839844-62.394531 11.714844-1.792969.695312-3.214844 2.121093-3.90625 3.917968-.691406 1.800782-.589844 3.804688.277344 5.527344l4.089843 8.09375-44.550781-2.488281 24.433594-37.335938 3.675781 7.277344c1.597656 3.160156 5.359375 4.578125 8.648437 3.253906 22.722657-9.171875 46.398438-13.617187 69.765626-13.621093 49.988281.007812 98.488281 20.363281 133.136718 58.605468zm0 0" fill="#54596e"/><path d="m26.183594 91.644531 89.296875 43.308594-14.832031 5.082031c-9.699219 3.328125-18.417969 9.027344-25.351563 16.578125l-14.273437 50.625zm0 0" fill="#fff"/><path d="m26.183594 91.644531-2.980469 6.140625 89.300781 43.308594 2.976563-6.140625-2.210938-6.460937-14.832031 5.085937c-10.777344 3.695313-20.464844 10.023437-28.171875 18.417969-.730469.792968-1.246094 1.722656-1.542969 2.761718l-7.917968 28.097657-28.085938-93.183594-6.535156 1.972656-2.980469 6.140625 2.980469-6.140625-6.539063 1.964844 34.839844 115.597656c.875 2.902344 3.566406 4.882813 6.597656 4.855469s5.6875-2.054688 6.507813-4.972656l14.273437-50.625-6.570312-1.851563 5.027343 4.617188c6.160157-6.714844 13.914063-11.777344 22.539063-14.738281l14.835937-5.085938c2.609376-.894531 4.429688-3.285156 4.597657-6.042969.167969-2.753906-1.351563-5.351562-3.835938-6.554687l-89.296875-43.308594c-2.445312-1.1875-5.339844-.816406-7.40625.945312-2.070312 1.765626-2.894531 4.5625-2.109375 7.164063zm0 0" fill="#54596e"/><path d="m334.949219 261.21875c0 90.488281-73.355469 163.839844-163.839844 163.839844-90.488281 0-163.839844-73.351563-163.839844-163.839844 0-90.484375 73.351563-163.839844 163.839844-163.839844 90.484375 0 163.839844 73.355469 163.839844 163.839844zm0 0" fill="#f99"/><g fill="#54596e"><path d="m334.949219 261.21875h6.828125c-.003906-94.257812-76.410156-170.664062-170.667969-170.664062s-170.664063 76.40625-170.667969 170.664062c.003906 94.257812 76.410156 170.664062 170.667969 170.664062s170.660156-76.40625 170.667969-170.664062h-13.65625c-.003906 43.378906-17.5625 82.589844-45.988282 111.027344-28.433593 28.421875-67.644531 45.980468-111.023437 45.988281-43.378906-.007813-82.589844-17.566406-111.027344-45.988281-28.421875-28.4375-45.984375-67.648438-45.988281-111.027344.003906-43.378906 17.566406-82.589844 45.988281-111.027344 28.4375-28.421875 67.648438-45.980468 111.027344-45.988281 43.378906.007813 82.589844 17.566406 111.023437 45.988281 28.425782 28.4375 45.984376 67.644532 45.988282 111.027344zm0 0"/><path d="m56.476562 274.871094c-11.273437-.023438-18.300781 11.691406-13.027343 21.40625 24.257812 44.707031 72.4375 75.171875 127.917969 75.171875 55.246093 0 103.261718-30.210938 127.613281-74.617188 5.3125-9.691406-1.667969-21.433593-12.933594-21.453125l-93.261719 9.304688c-14.253906 1.421875-28.605468 1.390625-42.84375-.089844zm0 0"/><path d="m56.476562 274.871094.929688-6.761719c-.011719.003906-.328125-.0625-.96875-.066406-6.15625-.015625-11.695312 2.523437-15.507812 6.449219-3.828126 3.921874-6.089844 9.21875-6.09375 14.867187-.007813 3.40625.847656 6.929687 2.609374 10.171875 25.441407 46.886719 75.90625 78.738281 133.921876 78.742188 57.769531-.003907 108.0625-31.59375 133.597656-78.160157 1.796875-3.265625 2.660156-6.8125 2.65625-10.246093-.007813-5.636719-2.257813-10.929688-6.078125-14.851563-3.804688-3.925781-9.332031-6.472656-15.484375-6.464844l-.6875.035157-93.261719 9.304687c-6.753906.671875-13.53125 1.007813-20.308594 1.011719-7.0625-.003906-14.121093-.367188-21.15625-1.101563l-93.464843-9.71875-.703126 6.789063.929688-6.761719-.929688 6.761719-.707031 6.792968 93.464844 9.71875c7.503906.777344 15.035156 1.167969 22.570313 1.167969 7.226562 0 14.457031-.355469 21.660156-1.074219l93.261718-9.304687-.679687-6.792969-.007813 6.824219c2.476563.023437 4.320313.933594 5.730469 2.351563 1.394531 1.421874 2.203125 3.367187 2.195313 5.316406-.003906 1.195312-.277344 2.40625-.972656 3.679687-23.167969 42.242188-68.902344 71.074219-121.625 71.070313-52.941407.007812-98.835938-29.066406-121.917969-71.597656-.6875-1.273438-.957031-2.472657-.960938-3.664063-.003906-1.949219.804688-3.894531 2.203125-5.320313 1.414063-1.417968 3.265625-2.324218 5.75-2.34375v-6.558593l-.898437 6.5c0-.007813.28125.054687.898437.058593v-6.558593l-.898437 6.5.226562.027343zm0 0"/><path d="m246.203125 220.257812c0 7.542969-6.113281 13.65625-13.652344 13.65625-7.542969 0-13.65625-6.113281-13.65625-13.65625 0-7.539062 6.113281-13.652343 13.65625-13.652343 7.539063 0 13.652344 6.113281 13.652344 13.652343zm0 0"/><path d="m123.320312 220.257812c0 7.542969-6.109374 13.65625-13.652343 13.65625-7.539063 0-13.652344-6.113281-13.652344-13.65625 0-7.539062 6.113281-13.652343 13.652344-13.652343 7.542969 0 13.652343 6.113281 13.652343 13.652343zm0 0"/><path d="m55.054688 192.953125c.007812 11.3125 9.167968 20.472656 20.480468 20.476563h184.320313c11.3125-.003907 20.476562-9.164063 20.480469-20.476563 0-3.773437-3.058594-6.828125-6.828126-6.828125-3.769531 0-6.824218 3.054688-6.824218 6.828125-.007813 3.765625-3.0625 6.816406-6.828125 6.828125h-184.320313c-3.765625-.011719-6.820312-3.0625-6.828125-6.828125 0-3.773437-3.054687-6.828125-6.824219-6.828125-3.769531 0-6.828124 3.054688-6.828124 6.828125zm0 0"/></g><path d="m249.828125 321.894531 13.707031-27.132812c1.441406-2.859375-.632812-6.234375-3.832031-6.234375h-27.421875c-3.199219 0-5.277344 3.378906-3.832031 6.234375l13.707031 27.132812c1.585938 3.144531 6.078125 3.144531 7.671875 0zm0 0" fill="#fff"/><path d="m99.640625 321.894531 13.707031-27.132812c1.441406-2.859375-.632812-6.234375-3.832031-6.234375h-27.417969c-3.203125 0-5.28125 3.378906-3.835937 6.234375l13.707031 27.132812c1.585938 3.144531 6.078125 3.144531 7.671875 0zm0 0" fill="#fff"/></svg>