<svg height="436pt" viewBox="-17 0 436 436.90667" width="436pt" xmlns="http://www.w3.org/2000/svg"><path d="m396.402344 225.28125-20.203125-23.082031c-4.640625-11.363281-9.925781-22.707031-15.738281-33.902344l22.285156-4.457031-36.40625-20.800782c-6.664063-11.136718-13.738282-21.96875-21.074219-32.363281l-10.785156-28.753906-16.050781-6.019531c-34.800782-41.074219-70.835938-69.074219-93.175782-69.074219-54.613281 0-191.144531 167.277344-191.144531 284.160156 0 68.542969 29.457031 102.152344 75.089844 118.25v20.839844h232.109375v-20.835937c45.632812-16.101563 75.09375-49.710938 75.09375-118.253907 0-18.554687-3.460938-38.378906-9.46875-58.601562zm0 0" fill="#fff"/><path d="m396.402344 225.28125 5.136718-4.5-20.199218-23.082031-5.140625 4.5 6.320312-2.585938c-4.726562-11.570312-10.097656-23.09375-16-34.460937l-6.058593 3.144531 1.335937 6.695313 22.289063-4.457032c2.789062-.558594 4.945312-2.792968 5.398437-5.597656.457031-2.8125-.882813-5.613281-3.351563-7.023438l-36.40625-20.800781-3.386718 5.925781 5.859375-3.503906c-6.757813-11.292968-13.925781-22.261718-21.351563-32.792968l-5.578125 3.9375 6.390625-2.398438-10.785156-28.753906c-.695312-1.851563-2.144531-3.304688-3.996094-3.996094l-16.054687-6.019531-2.394531 6.390625 5.207031-4.410156c-17.664063-20.84375-35.652344-38.425782-52.367188-50.988282-8.363281-6.277344-16.40625-11.3125-24.058593-14.851562-7.65625-3.527344-14.9375-5.6328128-21.957032-5.652344-8.578125.0351562-17.550781 3.125-27.117187 8.222656-16.699219 8.976563-35.339844 24.476563-54.3125 44.347656-28.410157 29.8125-57.371094 69.476563-79.386719 111.609376-21.976562 42.15625-37.113281 86.714843-37.15625 126.808593-.011719 35.210938 7.597656 62.273438 21.636719 82.664063 14.023437 20.398437 34.25 33.667968 58.007812 42.023437l2.273438-6.433593h-6.824219v20.835937c0 1.824219.710938 3.539063 2 4.828125s3.003906 2 4.824219 2h232.109375c1.820312 0 3.535156-.707031 4.824218-2 1.292969-1.289062 2-3 2-4.824219v-20.839843h-6.824218l2.269531 6.433593c23.757813-8.355469 43.988281-21.625 58.011719-42.023437 14.042968-20.386719 21.648437-47.453125 21.636718-82.664063-.003906-19.40625-3.601562-39.84375-9.75-60.550781l-6.542968 1.945312 4.097656 5.460938 9.46875-7.105469c1.519531-1.140625 2.492188-2.859375 2.691406-4.75.199219-1.890625-.402344-3.773437-1.652344-5.207031l-5.136718 4.5-4.097656-5.460938-9.46875 7.101563c-2.292969 1.71875-3.261719 4.65625-2.445313 7.40625 5.867187 19.738281 9.1875 38.953125 9.183594 56.660156-.011719 33.328125-7.136719 57.339844-19.230469 74.917969-12.117188 17.566406-29.433594 29.152344-51.308594 36.894531-2.722656.960938-4.554687 3.550781-4.554687 6.4375v14.015625h-218.453125v-14.011718c0-2.886719-1.832032-5.480469-4.554688-6.4375-21.875-7.742188-39.195312-19.328126-51.308594-36.894532-12.097656-17.582031-19.21875-41.59375-19.230468-74.921875-.019532-27.894531 8.222656-59.5 21.644531-91.039062 20.097656-47.324219 51.769531-94.472657 83.269531-129.464844 15.734375-17.5 31.445313-31.964844 45.433594-41.882813 6.988281-4.957031 13.542969-8.773437 19.34375-11.277343 5.796875-2.523438 10.820312-3.683594 14.628906-3.671875 4.152344-.019532 9.753906 1.378906 16.222656 4.386718 19.542969 8.957032 46.097657 31.921876 71.742188 62.273438.75.882812 1.730469 1.574219 2.8125 1.980469l13.148438 4.929687 9.695312 25.851563.8125 1.535156c7.238281 10.257813 14.21875 20.949219 20.792969 31.933594.59375.988281 1.46875 1.84375 2.472656 2.421875l20.574219 11.753906-4.40625.882812c-2.101563.421876-3.886719 1.808594-4.816406 3.742188-.925782 1.933594-.890626 4.195312.097656 6.097656 5.726562 11.023438 10.925781 22.179688 15.480468 33.335938.285157.699218.683594 1.34375 1.179688 1.914062l20.203125 23.082032 5.136719-4.492188-4.097656-5.460938zm0 0" fill="#54596e"/><path d="m259.867188 225.28125h-109.226563c-15.078125 0-27.304687 12.226562-27.304687 27.304688v6.828124c0 15.078126 12.226562 27.304688 27.304687 27.304688h20.480469l-6.828125 20.480469h81.921875l-6.828125-20.480469h20.480469c15.082031 0 27.308593-12.226562 27.308593-27.304688v-6.828124c0-15.078126-12.226562-27.304688-27.308593-27.304688zm0 0" fill="#bfad88"/><path d="m75.546875 150.1875-61.4375 40.960938s6.824219 6.824218 47.785156-6.828126l-54.613281 54.613282h34.132812" fill="#fff"/><path d="m71.761719 144.503906-61.441407 40.960938c-1.703124 1.136718-2.804687 2.96875-3.007812 5.007812-.199219 2.039063.519531 4.050782 1.96875 5.503906.804688.8125 2.234375 1.796876 4.371094 2.5 2.148437.714844 5.007812 1.203126 8.988281 1.203126 7.957031-.015626 20.492187-1.925782 41.410156-8.882813l-2.15625-6.476563-4.828125-4.828124-54.613281 54.613281c-1.953125 1.953125-2.5351562 4.890625-1.480469 7.4375 1.058594 2.554687 3.546875 4.21875 6.308594 4.21875h34.132812c3.769532 0 6.824219-3.058594 6.824219-6.828125 0-3.769532-3.054687-6.824219-6.824219-6.824219l-17.652343-.003906 42.960937-42.960938c2.242188-2.242187 2.648438-5.714843.980469-8.414062-1.671875-2.703125-4.957031-3.890625-7.964844-2.886719-20.042969 6.691406-31.402343 8.199219-37.097656 8.183594-2.847656 0-4.257813-.363282-4.667969-.503906l-.140625-.050782-1.625 3.574219 2.726563-2.726563-1.101563-.847656-1.625 3.574219 2.726563-2.726563-4.824219 4.828126 3.785156 5.679687 61.441407-40.960937c3.136718-2.09375 3.984374-6.332032 1.890624-9.46875-2.089843-3.136719-6.328124-3.980469-9.464843-1.894532zm0 0" fill="#54596e"/><path d="m382.746094 314.027344 13.65625 54.613281-47.789063-20.480469" fill="#fff"/><g fill="#54596e"><path d="m376.125 315.683594 10.316406 41.261718-35.136718-15.058593c-3.46875-1.484375-7.480469.117187-8.964844 3.585937-1.484375 3.464844.121094 7.480469 3.585937 8.964844l47.789063 20.476562c2.378906 1.023438 5.140625.605469 7.113281-1.074218 1.972656-1.679688 2.828125-4.339844 2.195313-6.855469l-13.652344-54.613281c-.914063-3.660156-4.621094-5.882813-8.277344-4.964844-3.660156.914062-5.882812 4.621094-4.96875 8.277344zm0 0"/><path d="m167.707031 249.171875c9.425781 0 17.066407-7.640625 17.066407-17.066406h-34.132813c0 9.425781 7.640625 17.066406 17.066406 17.066406zm0 0"/><path d="m259.867188 218.453125h-109.226563c-18.851563.003906-34.128906 15.277344-34.132813 34.132813v6.828124c.003907 18.851563 15.28125 34.128907 34.132813 34.132813h11.007813l-3.832032 11.492187c-.691406 2.078126-.34375 4.371094.941406 6.152344 1.277344 1.777344 3.34375 2.832032 5.535157 2.832032h81.921875c2.1875 0 4.257812-1.054688 5.539062-2.832032 1.277344-1.78125 1.628906-4.078125.9375-6.152344l-3.832031-11.496093 11.007813.003906c18.855468-.003906 34.128906-15.277344 34.132812-34.132813v-6.824218c-.003906-18.855469-15.277344-34.132813-34.132812-34.136719zm20.480468 40.960937c-.019531 11.304688-9.171875 20.457032-20.480468 20.480469h-20.480469c-2.191407 0-4.253907 1.054688-5.539063 2.832031-1.28125 1.777344-1.628906 4.070313-.9375 6.152344l3.832032 11.488282-62.976563.007812 3.832031-11.496094c.691406-2.078125.34375-4.371094-.9375-6.148437-1.28125-1.777344-3.347656-2.832031-5.539062-2.832031h-20.480469c-11.304687-.023438-20.460937-9.175782-20.480469-20.480469v-6.828125c.019532-11.304688 9.175782-20.460938 20.480469-20.480469l109.226563-.003906c11.308593.023437 20.460937 9.175781 20.480468 20.484375zm0 0"/><path d="m242.800781 249.171875c9.425781 0 17.066407-7.640625 17.066407-17.066406h-34.132813c0 9.425781 7.640625 17.066406 17.066406 17.066406zm0 0"/><path d="m198.425781 279.894531c0-7.542969-3.054687-13.65625-6.824219-13.65625-3.769531 0-6.828124 6.113281-6.828124 13.65625 0 7.539063 3.058593 13.652344 6.828124 13.652344 3.769532 0 6.824219-6.113281 6.824219-13.652344zm0 0"/><path d="m225.734375 279.894531c0-7.542969-3.054687-13.65625-6.828125-13.65625-3.769531 0-6.824219 6.113281-6.824219 13.65625 0 7.539063 3.054688 13.652344 6.824219 13.652344 3.773438 0 6.828125-6.113281 6.828125-13.652344zm0 0"/></g></svg>