<svg height="422pt" viewBox="0 -3 422.38808 422" width="422pt" xmlns="http://www.w3.org/2000/svg"><path d="m94.707031 409.792969v-95.570313c-44.480469 0-81.320312 38.351563-87.753906 82.082032-1.039063 7.082031 4.316406 13.488281 11.472656 13.488281zm0 0" fill="#a1b7ff"/><path d="m94.707031 409.792969h6.828125v-95.570313c0-1.800781-.730468-3.558594-2-4.832031-1.269531-1.269531-3.03125-1.996094-4.828125-1.996094-24.242187 0-46.253906 10.464844-62.890625 26.558594-16.652344 16.117187-28.152344 37.917969-31.613281 61.355469-.1367188.921875-.203125 1.84375-.203125 2.753906 0 4.992188 1.984375 9.625 5.273438 13.003906 3.273437 3.386719 7.980468 5.5625 13.152343 5.550782h76.285157c1.820312 0 3.535156-.707032 4.824218-2 1.292969-1.289063 2-3.003907 2-4.824219h-6.828125v-6.828125h-76.28125c-1.386719-.007813-2.476562-.527344-3.363281-1.417969-.875-.898437-1.410156-2.132813-1.410156-3.484375l.058594-.765625c2.96875-20.292969 13.101562-39.535156 27.59375-53.527344 14.511718-14.011719 33.164062-22.722656 53.402343-22.722656v-6.824219h-6.824219v95.570313h6.824219v-6.824219zm0 0" fill="#54596e"/><path d="m415.433594 396.304688c-5.097656-34.667969-29.335938-65.875-61.3125-77.351563v-90.066406c0-77.289063-62.65625-139.945313-139.945313-139.945313h-6.828125c-77.289062 0-139.945312 62.65625-139.945312 139.945313v147.554687c0 18.417969 14.933594 33.351563 33.351562 33.351563h303.207032c7.160156 0 12.511718-6.402344 11.472656-13.488281zm0 0" fill="#a1b7ff"/><path d="m415.433594 396.304688 6.75-.992188c-5.523438-37.121094-31.117188-70.257812-65.757813-82.789062l-2.304687 6.429687h6.824218v-90.066406c-.003906-81.0625-65.710937-146.769531-146.773437-146.773438h-6.824219c-81.066406.003907-146.769531 65.710938-146.773437 146.773438v147.554687c.003906 22.191406 17.988281 40.175782 40.179687 40.179688h303.207032c5.167968.011718 9.878906-2.164063 13.152343-5.546875 3.289063-3.378907 5.273438-8.011719 5.273438-13.003907 0-.914062-.066407-1.835937-.199219-2.757812l-13.507812 1.984375.054687.769531c0 1.355469-.535156 2.585938-1.40625 3.484375-.886719.890625-1.976563 1.40625-3.363281 1.417969h-303.210938c-7.347656-.007812-13.933594-2.960938-18.753906-7.773438-4.8125-4.820312-7.769531-11.410156-7.773438-18.753906v-147.554687c.003907-36.78125 14.890626-70.015625 38.992188-94.128907 24.113281-24.101562 57.347656-38.988281 94.128906-38.992187l6.828125.003906c36.78125.003907 70.015625 14.886719 94.128907 38.988281 24.097656 24.113282 38.988281 57.351563 38.988281 94.132813v90.0625c0 2.882813 1.804687 5.445313 4.519531 6.425781 29.316406 10.425782 52.195312 39.707032 56.863281 71.917969zm0 0" fill="#54596e"/><g fill="#fff35f"><path d="m217.589844.195312-47.789063 68.265626h34.132813l-6.824219 54.613281 47.785156-75.09375h-34.132812z"/><path d="m395.867188 81.941406-82.539063 11.441406 23.230469 25.011719-44.664063 32.160157 87.542969-16.085938-23.230469-25.011719z"/><path d="m32.480469 81.941406 82.542969 11.441406-23.230469 25.011719 44.660156 32.160157-87.542969-16.085938 23.230469-25.011719z"/></g><path d="m244.894531 321.046875c0 18.851563-15.28125 34.132813-34.132812 34.132813-18.851563 0-34.132813-15.28125-34.132813-34.132813s15.28125-34.132813 34.132813-34.132813c18.851562 0 34.132812 15.28125 34.132812 34.132813zm0 0" fill="#54596e"/><path d="m244.894531 321.046875h6.828125c-.007812-22.625-18.335937-40.957031-40.960937-40.960937-22.625.003906-40.957031 18.335937-40.960938 40.960937.003907 22.625 18.335938 40.957031 40.960938 40.957031s40.953125-18.332031 40.960937-40.957031h-13.65625c0 7.5625-3.042968 14.34375-7.996094 19.308594-4.964843 4.949219-11.75 7.992187-19.308593 8-7.5625-.007813-14.34375-3.046875-19.308594-8-4.953125-4.964844-7.996094-11.746094-8-19.308594.003906-7.5625 3.046875-14.347656 8-19.308594 4.964844-4.953125 11.746094-7.996093 19.308594-8 7.558593.003907 14.34375 3.046875 19.308593 8 4.953126 4.960938 7.996094 11.746094 7.996094 19.308594zm0 0" fill="#54596e"/><path d="m313.160156 222.0625c0 24.503906-19.867187 44.371094-44.371094 44.371094-24.507812 0-44.375-19.867188-44.375-44.371094 0-24.507812 19.867188-44.375 44.375-44.375 24.503907 0 44.371094 19.867188 44.371094 44.375zm0 0" fill="#8065c4"/><path d="m292.679688 222.0625h6.828124c-.003906-16.972656-13.75-30.71875-30.71875-30.722656-16.96875.003906-30.71875 13.75-30.722656 30.722656.003906 16.964844 13.753906 30.714844 30.722656 30.714844s30.714844-13.75 30.71875-30.714844h-13.652343c-.019531 9.421875-7.644531 17.046875-17.066407 17.066406-9.425781-.019531-17.050781-7.644531-17.066406-17.066406.015625-9.425781 7.640625-17.050781 17.066406-17.070312 9.421876.019531 17.046876 7.644531 17.066407 17.070312zm0 0" fill="#fff"/><path d="m197.109375 222.0625c0 24.503906-19.867187 44.371094-44.375 44.371094s-44.371094-19.867188-44.371094-44.371094c0-24.507812 19.863281-44.375 44.371094-44.375s44.375 19.867188 44.375 44.375zm0 0" fill="#8065c4"/><path d="m176.628906 222.0625h6.824219c0-16.972656-13.75-30.71875-30.71875-30.722656-16.96875.003906-30.714844 13.75-30.71875 30.722656.003906 16.964844 13.75 30.714844 30.71875 30.714844s30.71875-13.75 30.71875-30.714844h-13.652344c-.015625 9.421875-7.640625 17.046875-17.066406 17.066406-9.425781-.019531-17.050781-7.644531-17.066406-17.066406.015625-9.425781 7.640625-17.050781 17.066406-17.070312 9.425781.019531 17.050781 7.644531 17.066406 17.070312zm0 0" fill="#fff"/><path d="m360.949219 368.835938v-68.269532c0-3.769531-3.058594-6.824218-6.828125-6.824218-3.769532 0-6.828125 3.054687-6.828125 6.824218v68.269532c0 3.769531 3.058593 6.824218 6.828125 6.824218 3.769531 0 6.828125-3.054687 6.828125-6.824218" fill="#54596e"/></svg>