<svg height="436pt" viewBox="0 -28 436.91407 436" width="436pt" xmlns="http://www.w3.org/2000/svg"><path d="m13.65625 355.445312s20.480469 0 61.441406 13.652344c40.957032 13.65625 66.960938 0 94.917969-6.824218 27.960937-6.828126 48.441406-20.480469 68.921875-13.652344 20.480469 6.824218 44.511719 12.230468 75.09375 0 34.132812-13.65625 40.957031 13.652344 81.917969 13.652344 13.652343 0 27.308593-12.226563 27.308593-27.308594l6.824219-225.476563c0-22.511719-18.25-40.761719-40.757812-40.761719-19.839844 0-36.796875 14.28125-40.167969 33.835938l-18.988281 110.140625c-5.640625 32.703125-30.371094 58.824219-62.722657 66.238281l-260.617187 76.503906" fill="#55a6ff"/><path d="m13.65625 362.269531v-1.070312l-.011719 1.074219.011719-.003907v-1.070312l-.011719 1.074219c.503907.007812 20.238281.285156 59.292969 13.300781 13.355469 4.457031 25.414062 6.195312 36.453125 6.191406 24.621094-.046875 43.742187-8.417969 62.242187-12.859375h.003907c11.828125-2.894531 22.15625-6.878906 31.335937-10 9.183594-3.148438 17.160156-5.347656 24.175782-5.324219 3.332031.003907 6.460937.457031 9.621093 1.511719l.007813.003906c11.886718 3.957032 25.441406 7.632813 40.972656 7.632813 11.851562.007812 24.804688-2.164063 38.8125-7.769531l.003906-.003907c6.199219-2.472656 11.007813-3.332031 15.15625-3.335937 4.15625.007812 7.78125.855468 11.722656 2.308594 5.882813 2.152343 12.34375 5.855468 20.699219 9.167968 8.347657 3.304688 18.609375 6.019532 31.804688 6.003906 8.886719-.027343 17.230469-3.871093 23.515625-9.914062 6.269531-6.039062 10.609375-14.574219 10.617187-24.21875h-6.824219l6.820313.207031 6.828125-225.480469.003906-.207031c-.003906-26.28125-21.304687-47.582031-47.585937-47.585937-23.164063.003906-42.960938 16.675781-46.894531 39.503906l-18.992188 110.140625c-5.171875 29.992187-27.851562 53.941406-57.515625 60.742187l-.398437.105469-260.617188 76.5c-3.617188 1.0625-5.691406 4.855469-4.628906 8.472657 1.0625 3.617187 4.855468 5.691406 8.476562 4.632812l260.617188-76.511719-1.925782-6.546875 1.523438 6.652344c35.035156-8.03125 61.816406-36.3125 67.921875-71.730469l18.992187-110.144531c2.804688-16.273438 16.921876-28.167969 33.4375-28.167969 9.394532.003907 17.832032 3.789063 23.996094 9.941407 6.148438 6.160156 9.933594 14.601562 9.9375 23.996093h6.828125l-6.824219-.207031-6.828124 225.476562v.207032c.007812 5.4375-2.476563 10.554687-6.449219 14.398437-3.953125 3.839844-9.265625 6.113281-14.03125 6.082031-15.164063-.042968-24.664063-3.875-33.820313-8.101562-4.570312-2.117188-9.023437-4.390625-13.945312-6.222656-4.910156-1.824219-10.347656-3.164063-16.460938-3.15625-6.117187-.003906-12.777344 1.324218-20.230468 4.316406v-.003906c-12.46875 4.980468-23.539063 6.792968-33.742188 6.796875-13.355469 0-25.316406-3.15625-36.65625-6.933594l.007812.003906c-4.660156-1.5625-9.355468-2.21875-13.953124-2.21875-9.773438.027344-19.050782 2.824219-28.582032 6.054688-9.535156 3.253906-19.382812 7.027343-30.171875 9.65625h.003907c-20.078126 4.96875-37.667969 12.519531-59.011719 12.476562-9.617188-.007812-20.085938-1.480469-32.132813-5.492187-41.605468-13.871094-62.839844-14.007813-63.601562-14.003906-3.769532 0-6.824219 3.054687-6.824219 6.828124 0 3.769532 3.058594 6.828126 6.828125 6.824219zm0 0" fill="#54596e"/><path d="m168.023438 324.941406 139.179687-44.589844c1.988281-22.375.929687-35.382812-.121094-60.429687-2.933593-69.777344-59.988281-127.242187-129.75-130.558594-78.433593-3.726562-143.195312 58.761719-143.195312 136.375l.007812 1.515625c.75 68.558594 68.039063 116.804688 133.878907 97.6875zm0 0" fill="#8065c4"/><g fill="#54596e"><path d="m168.023438 324.941406 2.082031 6.503906 139.179687-44.589843c2.609375-.839844 4.476563-3.167969 4.71875-5.898438.832032-9.375 1.144532-17.230469 1.144532-24.929687-.003907-11.054688-.632813-21.703125-1.25-36.390625-3.136719-73.375-62.878907-133.546875-136.246094-137.089844h.003906c-2.339844-.109375-4.667969-.167969-6.988281-.167969-79.179688.003906-143.355469 64.179688-143.359375 143.363282v.03125l.007812 1.515624v.042969c.328125 31.054688 13.542969 58.335938 33.9375 77.683594 20.386719 19.363281 47.984375 30.960937 77.328125 30.964844 10.328125.003906 20.863281-1.441407 31.339844-4.476563l.183594-.058594-2.082031-6.503906-1.898438-6.558594c-9.238281 2.679688-18.484375 3.941407-27.542969 3.945313-25.714843.003906-50.019531-10.203125-67.925781-27.214844-17.902344-17.03125-29.378906-40.699219-29.6875-67.933593v.042968l-.003906-1.515625v.03125c0-35.839843 14.503906-68.222656 37.988281-91.71875 23.496094-23.480469 55.875-37.984375 91.714844-37.988281 2.101562 0 4.210937.050781 6.335937.152344h.003906c66.15625 3.089844 120.523438 57.84375 123.253907 124.027344.625 14.8125 1.234375 25.3125 1.234375 35.816406 0 7.332031-.292969 14.707031-1.09375 23.71875l6.800781.605468-2.082031-6.503906-139.179688 44.589844 2.082032 6.503906-1.898438-6.558594zm0 0"/><path d="m393.605469.871094c-.496094.199218-8.703125 3.195312-17.214844 10.808594-4.242187 3.808593-8.5625 8.816406-11.832031 15.234374-3.269532 6.40625-5.4375 14.226563-5.429688 23.285157-.003906 7.652343 1.523438 16.164062 5.007813 25.53125 1.3125 3.535156 5.242187 5.335937 8.777343 4.019531 3.535157-1.3125 5.332032-5.242188 4.019532-8.777344-2.996094-8.070312-4.148438-14.933594-4.148438-20.773437.007813-6.917969 1.589844-12.453125 3.941406-17.089844 3.515626-6.933594 8.953126-11.871094 13.589844-15.039063 2.3125-1.582031 4.398438-2.714843 5.859375-3.429687.734375-.355469 1.308594-.609375 1.679688-.765625l.390625-.160156.070312-.027344-.796875-2.105469.773438 2.113281.023437-.007812-.792968-2.105469.769531 2.113281c3.542969-1.292968 5.363281-5.214843 4.070312-8.753906-1.296875-3.539062-5.214843-5.359375-8.757812-4.070312zm0 0"/><path d="m428.429688 14.316406c-.328126.097656-11.53125 2.863282-23.238282 9.34375-5.851562 3.261719-11.875 7.457032-16.699218 13.0625-4.804688 5.558594-8.40625 12.855469-8.386719 21.371094-.003907 4.234375.875 8.660156 2.679687 13.164062 1.398438 3.5 5.367188 5.203126 8.871094 3.804688 3.5-1.398438 5.203125-5.367188 3.808594-8.867188-1.234375-3.09375-1.703125-5.742187-1.703125-8.101562.019531-4.667969 1.8125-8.605469 5.097656-12.484375 4.886719-5.777344 13.203125-10.570313 20.289063-13.605469 3.53125-1.527344 6.746093-2.660156 9.039062-3.394531 1.144531-.367187 2.066406-.636719 2.683594-.8125l.6875-.1875.183594-.046875c3.65625-.914062 5.882812-4.621094 4.964843-8.28125-.914062-3.65625-4.621093-5.878906-8.277343-4.964844zm0 0"/><path d="m382.296875 136.992188c-.011719-5.152344-1.527344-9.9375-4.363281-13.75-2.78125-3.769532-7.316406-6.734376-12.703125-6.730469-5.386719-.003907-9.921875 2.960937-12.703125 6.730469-2.839844 3.808593-4.351563 8.597656-4.363282 13.75 0 3.769531 3.054688 6.828124 6.824219 6.828124 3.773438 0 6.828125-3.058593 6.828125-6.828124-.011718-2.386719.765625-4.429688 1.632813-5.558594.925781-1.171875 1.511719-1.265625 1.78125-1.269532.265625.003907.855469.097657 1.78125 1.269532.863281 1.128906 1.644531 3.171875 1.632812 5.558594 0 3.769531 3.054688 6.828124 6.824219 6.828124s6.828125-3.058593 6.828125-6.828124zm0 0"/><path d="m423.257812 136.992188c-.011718-5.152344-1.527343-9.9375-4.363281-13.75-2.785156-3.769532-7.316406-6.734376-12.703125-6.730469-5.390625-.003907-9.921875 2.960937-12.703125 6.730469-2.839843 3.808593-4.351562 8.597656-4.363281 13.75 0 3.769531 3.054688 6.828124 6.824219 6.828124s6.828125-3.058593 6.828125-6.828124c-.011719-2.386719.765625-4.429688 1.632812-5.558594.921875-1.171875 1.511719-1.265625 1.78125-1.269532.265625.003907.855469.097657 1.777344 1.269532.867188 1.128906 1.648438 3.171875 1.632812 5.558594 0 3.769531 3.058594 6.828124 6.828126 6.828124 3.769531 0 6.828124-3.058593 6.828124-6.828124zm0 0"/><path d="m363.222656 170.886719c1.777344 4.441406 5.117188 7.902343 9.125 10.246093 4.023438 2.351563 8.800782 3.644532 13.894532 3.648438 4.984374-.003906 9.671874-1.246094 13.644531-3.503906 3.957031-2.257813 7.273437-5.574219 9.148437-9.847656 1.503906-3.457032-.078125-7.480469-3.535156-8.988282-3.457031-1.503906-7.476562.078125-8.984375 3.535156-.46875 1.101563-1.578125 2.410157-3.386719 3.4375-1.789062 1.023438-4.199218 1.71875-6.890625 1.714844-2.742187.003906-5.199219-.722656-7-1.78125-1.820312-1.058594-2.902343-2.398437-3.335937-3.515625-1.394532-3.5-5.363282-5.210937-8.867188-3.8125-3.503906 1.394531-5.210937 5.363281-3.8125 8.867188zm0 0"/><path d="m204.894531 184.222656c-3.648437-1.253906-7.394531-1.855468-11.070312-1.851562-14.195313-.007813-27.425781 8.910156-32.289063 23.074218l-.015625.039063-.140625.425781-.019531.050782c-1.070313 3.265624-1.578125 6.601562-1.578125 9.882812.039062 12.613281 7.339844 24.078125 18.414062 30.292969h.003907c7.871093 4.398437 16.96875 6.910156 26.601562 6.90625 3.449219 0 6.957031-.320313 10.5-.980469v-.003906c21.59375-4.085938 38.820313-21.167969 43.054688-42.738282.714843-3.675781 1.058593-7.320312 1.058593-10.890624-.003906-30.167969-24.445312-54.609376-54.613281-54.613282h-6.824219c-27.980468.007813-53.425781 9.707032-72.023437 25.636719-18.589844 15.898437-30.386719 38.285156-30.378906 63.113281.003906 11.019532 1.523437 21.753906 5.148437 31.730469 5.394532 14.96875 15.765625 28.128906 31.828125 37.078125 16.054688 8.984375 37.492188 13.921875 65.503907 13.925781 6.597656 0 13.566406-.273437 20.917968-.835937 3.761719-.289063 6.574219-3.566406 6.289063-7.328125-.289063-3.757813-3.566407-6.574219-7.328125-6.285157-7.039063.535157-13.660156.800782-19.878906.800782-17.613282 0-31.988282-2.09375-43.535157-5.707032-17.335937-5.460937-28.277343-14.109374-35.273437-24.8125-6.96875-10.714843-10.015625-23.898437-10.019532-38.566406.007813-20.421875 9.605469-38.996094 25.609376-52.746094 15.992187-13.714843 38.328124-22.355468 63.136718-22.351562l6.828125.003906c11.332031.003906 21.527344 4.574219 28.960938 11.992188 7.425781 7.433594 11.996093 17.628906 12 28.964844 0 2.695312-.261719 5.460937-.808594 8.285156-3.054687 15.933594-16.199219 28.976562-32.167969 31.925781l.003906-.003906c-2.722656.511719-5.386718.75-7.988281.753906-7.261719-.003906-14.035156-1.878906-19.945312-5.175781h.003906c-7.058594-3.925782-11.460937-11.234375-11.421875-18.375 0-1.875.285156-3.753906.898438-5.632813l-.015626.046875.144532-.425781-.015625.039063c2.902343-8.507813 10.871093-13.84375 19.375-13.851563 2.191406.003906 4.421875.355469 6.640625 1.117187 3.5625 1.222657 7.449218-.675781 8.671875-4.242187 1.222656-3.558594-.675781-7.441406-4.242188-8.667969zm0 0"/></g><path d="m119.152344 119.21875c-21.246094 9.542969-38.871094 25.652344-50.3125 45.761719-1.863282 3.277343-.71875 7.445312 2.558594 9.308593 3.277343 1.863282 7.445312.71875 9.308593-2.558593 10.007813-17.597657 25.460938-31.71875 44.039063-40.058594 3.441406-1.542969 4.976562-5.585937 3.429687-9.023437-1.542969-3.4375-5.582031-4.972657-9.023437-3.429688zm0 0" fill="#fff35f"/></svg>