<svg height="413pt" viewBox="-26 0 413 413.41952" width="413pt" xmlns="http://www.w3.org/2000/svg"><path d="m329.777344 406.59375h-297.324219c-14.035156 0-25.417969-11.378906-25.417969-25.414062v-171.378907c0-93.433593 62.453125-175.335937 152.550782-200.070312h.003906c14.089844-3.867188 28.964844-3.867188 43.054687 0h.003907c56.308593 15.460937 101.824218 53.25 128.039062 102.230469 15.726562 29.386718 24.507812 62.804687 24.507812 97.839843v171.378907c0 14.035156-11.378906 25.414062-25.417968 25.414062zm0 0" fill="#d8d8d8"/><path d="m329.777344 406.59375v-6.824219h-297.324219c-10.261719-.023437-18.570313-8.328125-18.589844-18.589843v-171.378907c0-90.355469 60.398438-169.570312 147.53125-193.488281l-1.808593-6.582031v6.828125h.003906c.640625 0 1.191406-.078125 1.808594-.246094 6.453124-1.773438 13.085937-2.660156 19.71875-2.660156 6.632812 0 13.265624.886718 19.714843 2.660156.617188.167969 1.171875.246094 1.8125.246094v-6.828125l-1.804687 6.582031c54.460937 14.953125 98.464844 51.492188 123.828125 98.867188 15.210937 28.425781 23.699219 60.730468 23.703125 94.621093v171.378907c-.019532 10.261718-8.328125 18.566406-18.59375 18.589843v13.648438c17.8125 0 32.242187-14.429688 32.246094-32.238281v-171.378907c0-36.179687-9.074219-70.710937-25.320313-101.0625-27.070313-50.585937-74.089844-89.628906-132.25-105.589843-.617187-.171876-1.167969-.246094-1.808594-.246094v6.828125l1.808594-6.582031c-7.640625-2.101563-15.488281-3.148438-23.339844-3.148438-7.847656 0-15.695312 1.046875-23.332031 3.148438l1.804688 6.582031v-6.828125h-.003907c-.636719 0-1.191406.074218-1.804687.246094-93.0625 25.546874-157.566406 110.144531-157.566406 206.652343v171.378907c.003906 17.808593 14.433593 32.238281 32.242187 32.238281h297.328125v-6.824219zm0 0" fill="#54596e"/><path d="m129.917969 246.167969c0 28.277343 22.921875 51.199219 51.199219 51.199219 28.273437 0 51.199218-22.921876 51.199218-51.199219" fill="#ff927d"/><g fill="#54596e"><path d="m123.089844 246.167969c.003906 32.046875 25.976562 58.019531 58.027344 58.023437 32.046874-.003906 58.019531-25.976562 58.027343-58.023437 0-3.773438-3.058593-6.828125-6.828125-6.828125-3.769531 0-6.828125 3.054687-6.828125 6.828125 0 12.273437-4.953125 23.324219-12.996093 31.375-8.050782 8.042969-19.101563 12.992187-31.375 13-12.273438-.007813-23.324219-4.957031-31.378907-13-8.039062-8.050781-12.992187-19.101563-12.996093-31.375 0-3.773438-3.054688-6.828125-6.824219-6.828125-3.773438 0-6.828125 3.054687-6.828125 6.828125zm0 0"/><path d="m325.117188 270.929688c-14.707032-10.816407-35.445313-19.417969-60.285157-25.496094-24.832031-6.054688-53.761719-9.503906-84.679687-9.503906-29.949219 0-58.035156 3.238281-82.339844 8.945312-24.304688 5.726562-44.824219 13.855469-59.796875 24.054688-3.113281 2.125-3.914063 6.371093-1.785156 9.488281 2.125 3.113281 6.371093 3.914062 9.484375 1.789062 12.914062-8.84375 32.085937-16.617187 55.222656-22.039062 23.140625-5.441407 50.257812-8.589844 79.214844-8.585938 29.894531-.003906 57.824218 3.355469 81.445312 9.121094 23.613282 5.738281 42.929688 13.976563 55.414063 23.21875 3.035156 2.238281 7.308593 1.589844 9.546875-1.441406 2.234375-3.035157 1.589844-7.3125-1.441406-9.550781zm0 0"/><path d="m177.703125 266.648438c0 5.65625-4.585937 10.238281-10.238281 10.238281-5.65625 0-10.242188-4.582031-10.242188-10.238281s4.585938-10.242188 10.242188-10.242188c5.652344 0 10.238281 4.585938 10.238281 10.242188zm0 0"/><path d="m41.167969 27.710938.011719.003906c.449218 0 6.753906.238281 13.492187 4.207031 6.726563 4.003906 14.101563 11.492187 17.285156 27.183594l6.691407-1.339844c-3.535157-17.941406-12.859376-27.539063-21.316407-32.179687-8.445312-4.675782-15.816406-4.6875-16.164062-4.695313zm0 0"/><path d="m281.390625 4.5625c-.039063.03125-6.117187 4.867188-12.460937 10.703125-3.171876 2.921875-6.410157 6.082031-9.03125 9.089844-1.3125 1.503906-2.46875 2.964843-3.410157 4.398437-.929687 1.445313-1.679687 2.8125-2.042969 4.449219l6.679688 1.414063c.03125-.226563.382812-1.089844 1.074219-2.125 2.421875-3.742188 8.398437-9.621094 13.636719-14.273438 2.625-2.34375 5.085937-4.433594 6.886718-5.929688 1.796875-1.496093 2.917969-2.386718 2.921875-2.386718zm0 0"/><path d="m300.574219 65.878906.003906-.28125c.027344-1.554687.347656-9.257812 2.929687-17.929687 2.582032-8.707031 7.402344-18.210938 16.035157-23.941407l-3.785157-5.679687c-11.269531 7.546875-16.644531 19.617187-19.328124 29.570313-2.679688 9.988281-2.679688 18.070312-2.683594 18.257812zm0 0"/><path d="m317.457031 90.839844c.347657-.222656 9.699219-6.253906 16.898438-20.640625l-6.105469-3.050781c-3.234375 6.464843-6.925781 10.996093-9.78125 13.894531-1.421875 1.449219-2.636719 2.488281-3.472656 3.148437l-.949219.714844-.222656.152344-.042969.027344.46875.714843-.460938-.71875-.007812.003907.46875.714843-.460938-.71875zm0 0"/><path d="m122.914062 26.632812c-.085937-.230468-1.4375-4.316406-4.882812-8.589843-3.394531-4.246094-9.261719-8.808594-17.703125-8.789063-2.785156-.003906-5.804687.484375-9.042969 1.570313l2.167969 6.472656c2.613281-.875 4.886719-1.214844 6.875-1.21875 5.890625.019531 9.695313 2.984375 12.394531 6.261719 1.316406 1.625 2.273438 3.292968 2.882813 4.53125.304687.617187.523437 1.125.660156 1.464844l.144531.378906.027344.078125zm0 0"/><path d="m34.703125 63.375v.003906c.179687.375 2.675781 5.8125 2.671875 14.648438 0 4.714844-.703125 10.402344-2.859375 16.875l6.476563 2.160156c2.398437-7.191406 3.210937-13.636719 3.210937-19.035156-.003906-10.804688-3.230469-17.371094-3.394531-17.707032zm0 0"/><path d="m65.011719 66.382812c-.148438-.164062-3.617188-3.980468-9.796875-7.832031-6.171875-3.839843-15.113282-7.730469-26.074219-7.734375-8.210937-.007812-17.488281 2.21875-27.277344 8.105469l3.515625 5.851563c8.832032-5.292969 16.773438-7.125 23.761719-7.132813 9.304687-.003906 17.03125 3.324219 22.464844 6.710937 2.710937 1.683594 4.835937 3.378907 6.265625 4.628907.710937.628906 1.25 1.144531 1.601562 1.492187l.386719.390625.09375.101563zm0 0"/><path d="m266.449219 39.867188c-.027344.78125.359375 2.175781 1.464843 3.347656 1.664063 1.777344 4.449219 3.300781 10.175782 4.582031 5.746094 1.261719 14.554687 2.207031 28.476562 2.207031 9.28125 0 20.824219-.425781 35.226563-1.476562l-.496094-6.804688c-14.269531 1.039063-25.660156 1.457032-34.726563 1.457032-18.136718.015624-27.039062-1.703126-30.945312-3.15625-1.957031-.710938-2.609375-1.332032-2.664062-1.402344l-.246094.222656.28125-.175781-.035156-.046875-.246094.222656.28125-.175781-1.902344 1.199219h2.183594l-.285156-1.199219-1.902344 1.199219h2.1875zm0 0"/><path d="m82.183594 120.722656 6.824218 54.613282c.429688 3.410156 3.335938 5.976562 6.773438 5.976562h5.90625l-24.800781 29.761719c-1.167969 1.402343-1.730469 3.242187-1.550781 5.058593.183593 1.816407 1.105468 3.503907 2.527343 4.644532l34.136719 27.308594c2.941406 2.355468 7.238281 1.878906 9.59375-1.066407 2.355469-2.945312 1.878906-7.238281-1.066406-9.59375l-28.695313-22.960937 29.675781-35.605469c1.699219-2.039063 2.0625-4.863281.9375-7.269531-1.128906-2.402344-3.527343-3.929688-6.183593-3.929688h-14.453125l-6.078125-48.632812c-.46875-3.742188-3.882813-6.394532-7.621094-5.929688-3.742187.46875-6.394531 3.882813-5.925781 7.625zm0 0"/><path d="m293.757812 406.59375h-225.28125v-34.132812c0-18.851563 15.28125-34.132813 34.132813-34.132813h157.015625c18.847656 0 34.132812 15.28125 34.132812 34.132813zm0 0"/><path d="m293.757812 406.59375v-6.824219h-218.453124v-27.308593c0-7.5625 3.042968-14.347657 7.996093-19.308594 4.964844-4.953125 11.75-7.996094 19.308594-8h157.015625c7.558594.003906 14.34375 3.046875 19.304688 8 4.953124 4.960937 7.996093 11.746094 8 19.308594v34.132812h6.828124v-6.824219 6.824219h6.824219v-34.132812c-.003906-22.625-18.335937-40.957032-40.957031-40.960938h-157.015625c-22.625.003906-40.953125 18.335938-40.960937 40.960938v34.132812c0 1.824219.710937 3.535156 2 4.828125 1.292968 1.289063 3.003906 1.996094 4.828124 1.996094h225.28125c1.820313 0 3.535157-.707031 4.824219-1.996094 1.292969-1.292969 2-3.003906 2-4.828125zm0 0"/></g><path d="m119.675781 375.875 17.738281-30.71875h-35.476562zm0 0" fill="#fff"/><path d="m242.554688 375.875 17.738281-30.71875h-35.472657zm0 0" fill="#fff"/><path d="m201.597656 375.875 17.734375-30.71875h-35.472656zm0 0" fill="#fff"/><path d="m160.636719 375.875 17.738281-30.71875h-35.476562zm0 0" fill="#fff"/><path d="m133.328125 372.460938 17.738281 27.308593h-35.472656zm0 0" fill="#fff"/><path d="m99.195312 372.460938 17.738282 27.308593h-35.472656zm0 0" fill="#fff"/><path d="m263.035156 372.460938 17.738282 27.308593h-35.472657zm0 0" fill="#fff"/><path d="m228.902344 372.460938 17.738281 27.308593h-35.476563zm0 0" fill="#fff"/><path d="m170.875 154.007812 40.960938-34.132812v-54.613281l40.960937 6.828125 20.480469-27.308594" fill="#d8d8d8"/><path d="m175.246094 159.25 40.960937-34.132812c1.554688-1.296876 2.457031-3.21875 2.457031-5.242188v-46.558594l33.007813 5.503906c2.515625.417969 5.058594-.601562 6.585937-2.636718l20.480469-27.308594c2.261719-3.015625 1.648438-7.292969-1.367187-9.558594-3.015625-2.257812-7.292969-1.648437-9.554688 1.367188l-17.992187 23.984375-36.867188-6.144531c-1.972656-.328126-4.007812.234374-5.535156 1.527343-1.523437 1.292969-2.414063 3.207031-2.414063 5.210938v51.417969l-38.503906 32.082031c-2.894531 2.414062-3.285156 6.722656-.871094 9.617187 2.414063 2.894532 6.714844 3.285156 9.613282.871094zm0 0" fill="#54596e"/></svg>