<svg height="436.90667pt" viewBox="0 0 436.90667 436.90667" width="436.90667pt" xmlns="http://www.w3.org/2000/svg"><path d="m268.433594 68.265625h-99.960938c-11.328125 0-21.8125 6-27.554687 15.761719l-49.460938 84.082031c-5.882812 10.003906-5.882812 22.417969 0 32.421875l49.460938 84.082031c5.742187 9.765625 16.226562 15.761719 27.554687 15.761719h99.960938c11.328125 0 21.8125-6 27.554687-15.761719l49.460938-84.082031c5.886719-10.003906 5.886719-22.417969 0-32.421875l-49.460938-84.082031c-5.742187-9.761719-16.226562-15.761719-27.554687-15.761719zm0 0" fill="#aaa"/><path d="m268.433594 68.265625v-6.824219h-99.960938c-13.746094 0-26.46875 7.277344-33.441406 19.125l-49.457031 84.082032c-3.570313 6.066406-5.359375 12.871093-5.359375 19.667968s1.789062 13.605469 5.359375 19.671875l49.460937 84.082031c6.96875 11.851563 19.691406 19.128907 33.441406 19.128907h99.957032c13.75 0 26.472656-7.277344 33.441406-19.128907l49.460938-84.082031c3.570312-6.066406 5.355468-12.875 5.355468-19.671875s-1.785156-13.605468-5.359375-19.671875l-49.457031-84.078125c-6.972656-11.847656-19.691406-19.125-33.441406-19.125v13.648438c8.910156 0 17.15625 4.71875 21.671875 12.398437l49.460937 84.082031c2.316406 3.933594 3.472656 8.335938 3.472656 12.746094 0 4.414063-1.15625 8.816406-3.472656 12.753906l-49.460937 84.082032c-4.515625 7.679687-12.761719 12.398437-21.671875 12.398437h-99.960938c-8.910156 0-17.15625-4.71875-21.671875-12.398437l-49.460937-84.082032c-2.3125-3.941406-3.46875-8.34375-3.472656-12.753906 0-4.410156 1.15625-8.808594 3.472656-12.746094l49.460937-84.082031c4.515625-7.679687 12.761719-12.398437 21.671875-12.398437h99.960938zm0 0" fill="#54596e"/><path d="m109.226562 184.320312s-37.546874 0-54.613281 0c-26.394531 0-47.785156-21.394531-47.785156-47.785156v-23.894531c0-13.195313 10.695313-23.894531 23.890625-23.894531s23.894531 10.699218 23.894531 23.894531v17.066406h68.265625" fill="#d8d8d8"/><path d="m109.226562 177.492188s-37.546874 0-54.613281 0c-11.332031-.003907-21.53125-4.574219-28.964843-11.996094-7.421876-7.433594-11.992188-17.628906-11.996094-28.960938v-23.894531c.019531-9.425781 7.644531-17.050781 17.066406-17.070313 9.425781.019532 17.050781 7.644532 17.066406 17.070313v17.066406c0 1.824219.710938 3.535157 2 4.824219 1.292969 1.292969 3.003906 2 4.828125 2h68.265625c3.769532 0 6.824219-3.054688 6.824219-6.824219s-3.054687-6.824219-6.824219-6.824219l-61.4375-.003906v-10.238281c-.003906-16.96875-13.753906-30.71875-30.722656-30.71875s-30.71484375 13.75-30.71875 30.71875v23.894531c.00390625 30.160156 24.445312 54.605469 54.613281 54.609375h54.613281c3.769532 0 6.824219-3.054687 6.824219-6.824219 0-3.769531-3.054687-6.824218-6.824219-6.828124zm0 0" fill="#54596e"/><path d="m327.679688 184.320312h54.613281c26.394531 0 47.785156-21.394531 47.785156-47.785156v-23.894531c0-13.195313-10.695313-23.894531-23.890625-23.894531s-23.894531 10.699218-23.894531 23.894531v17.066406h-68.265625" fill="#d8d8d8"/><path d="m327.679688 191.144531h20.90625 33.707031c30.164062-.003906 54.609375-24.449219 54.613281-54.609375v-23.894531c-.003906-16.96875-13.75-30.71875-30.71875-30.71875s-30.71875 13.75-30.722656 30.71875v10.238281h-61.4375c-3.769532 0-6.828125 3.054688-6.828125 6.828125 0 3.769531 3.058593 6.828125 6.828125 6.828125l68.265625-.003906c1.824219 0 3.535156-.707031 4.828125-2 1.289062-1.289062 2-3 2-4.824219v-17.066406c.015625-9.425781 7.640625-17.050781 17.066406-17.070313 9.421875.019532 17.046875 7.644532 17.066406 17.070313v23.894531c-.003906 11.332032-4.574218 21.527344-11.996094 28.960938-7.433593 7.421875-17.628906 11.992187-28.964843 11.996094-8.53125 0-22.1875 0-33.707031 0-11.519532 0-20.886719 0-20.90625 0-3.769532 0-6.828126 3.054687-6.828126 6.828124 0 3.769532 3.058594 6.828126 6.828126 6.824219zm0 0" fill="#54596e"/><path d="m218.453125 92.160156c27.433594 0 51.949219-6.949218 68.226563-17.855468-.425782-37.335938-30.789063-67.476563-68.226563-67.476563s-67.800781 30.140625-68.226563 67.476563c16.28125 10.90625 40.792969 17.855468 68.226563 17.855468zm0 0" fill="#f4a14e"/><path d="m218.453125 92.160156v6.824219c28.59375-.035156 54.222656-7.132813 72.027344-19.011719 1.914062-1.28125 3.050781-3.441406 3.023437-5.746094-.46875-41.070312-33.863281-74.22265575-75.050781-74.226562-41.1875.00390625-74.582031 33.15625-75.050781 74.226562-.027344 2.304688 1.109375 4.464844 3.023437 5.746094 17.804688 11.878906 43.4375 18.976563 72.027344 19.011719v-13.652344c-26.277344.035157-49.667969-6.761719-64.425781-16.699219l-3.800782 5.671876 6.828126.078124c.378906-33.601562 27.710937-60.734374 61.398437-60.730468 33.6875-.003906 61.019531 27.128906 61.402344 60.730468l6.828125-.078124-3.800782-5.671876c-14.761718 9.9375-38.152343 16.734376-64.429687 16.699219zm0 0" fill="#54596e"/><path d="m228.71875 294.445312-47.785156 27.304688c-2.378906 1.359375-3.71875 4.027344-3.390625 6.75.328125 2.71875 2.265625 4.988281 4.898437 5.742188l29.324219 8.375-30.136719 12.917968c-2.652344 1.136719-4.304687 3.824219-4.125 6.707032.183594 2.882812 2.164063 5.339843 4.9375 6.132812l29.324219 8.375-30.136719 12.917969c-2.515625 1.082031-4.136718 3.539062-4.136718 6.277343 0 2.738282 1.621093 5.195313 4.136718 6.273438l43.652344 18.707031v2.324219l-40.960938.003906c-3.769531 0-6.828124 3.054688-6.828124 6.824219 0 3.773437 3.058593 6.828125 6.828124 6.828125h47.785157c1.824219 0 3.539062-.710938 4.828125-2 1.289062-1.289062 2-3.003906 2-4.828125v-13.652344c0-2.738281-1.621094-5.195312-4.136719-6.273437l-33.148437-14.207032 33.148437-14.203124c2.652344-1.140626 4.304687-3.828126 4.121094-6.710938-.179688-2.878906-2.160157-5.339844-4.9375-6.128906l-29.320313-8.378906 30.136719-12.917969c2.652344-1.136719 4.304687-3.824219 4.121094-6.707031-.179688-2.878907-2.160157-5.339844-4.9375-6.128907l-32.203125-9.203125 33.714844-19.265625c3.273437-1.875 4.410156-6.042969 2.539062-9.316406-1.867188-3.273437-6.039062-4.410156-9.3125-2.539063zm0 0" fill="#54596e"/><path d="m240.898438 90.5c3.058593-12.128906 4.863281-26.835938 4.863281-42.714844 0-13.296875-1.269531-25.761718-3.476563-36.59375-7.425781-2.777344-15.433594-4.363281-23.832031-4.363281s-16.40625 1.585937-23.832031 4.363281c-2.203125 10.832032-3.472656 23.296875-3.472656 36.59375 0 15.878906 1.800781 30.585938 4.859374 42.714844 7.183594 1.046875 14.675782 1.660156 22.445313 1.660156s15.261719-.613281 22.445313-1.660156zm0 0" fill="#55a6ff"/><path d="m240.898438 90.5 6.621093 1.667969c3.214844-12.777344 5.0625-27.984375 5.066407-44.382813 0-13.730468-1.304688-26.625-3.609376-37.957031-.46875-2.304687-2.097656-4.210937-4.300781-5.03125-8.132812-3.042969-16.960937-4.796875-26.222656-4.796875s-18.089844 1.753906-26.222656 4.796875c-2.203125.820313-3.832031 2.730469-4.300781 5.03125-2.304688 11.332031-3.609376 24.226563-3.609376 37.957031.003907 16.398438 1.851563 31.605469 5.066407 44.382813.675781 2.675781 2.902343 4.6875 5.636719 5.085937 7.476562 1.089844 15.300781 1.734375 23.429687 1.730469 8.128906.003906 15.953125-.640625 23.429687-1.730469 2.734376-.398437 4.960938-2.410156 5.636719-5.085937l-6.621093-1.667969-.984376-6.757812c-6.886718 1.003906-14.050781 1.589843-21.460937 1.589843s-14.574219-.585937-21.460937-1.589843l-.988282 6.757812 6.621094-1.667969c-2.894531-11.484375-4.65625-25.6875-4.652344-41.046875 0-12.859375 1.234375-24.902344 3.335938-35.234375l-6.6875-1.359375 2.386718 6.390625c6.722657-2.507812 13.914063-3.929687 21.445313-3.929687 7.535156 0 14.722656 1.421875 21.445313 3.929687l2.386718-6.390625-6.6875 1.359375c2.101563 10.335938 3.335938 22.375 3.335938 35.234375.003906 15.359375-1.757813 29.5625-4.652344 41.046875l6.617188 1.667969-.984376-6.757812zm0 0" fill="#54596e"/><path d="m266.238281 163.839844c0 26.390625-21.394531 47.785156-47.785156 47.785156s-47.785156-21.394531-47.785156-47.785156 21.394531-47.785156 47.785156-47.785156 47.785156 21.394531 47.785156 47.785156zm0 0" fill="#fff"/><path d="m266.238281 163.839844h6.828125c-.003906-30.164063-24.445312-54.609375-54.613281-54.613282-30.167969.003907-54.609375 24.449219-54.613281 54.613282.003906 30.164062 24.445312 54.609375 54.613281 54.613281 30.164063-.003906 54.609375-24.449219 54.613281-54.613281h-13.652344c-.003906 11.332031-4.574218 21.527344-11.996093 28.960937-7.433594 7.425781-17.628907 11.992188-28.964844 12-11.332031-.007812-21.53125-4.578125-28.964844-12-7.421875-7.429687-11.992187-17.628906-11.996093-28.960937.003906-11.332032 4.574218-21.53125 11.996093-28.964844 7.433594-7.421875 17.632813-11.992188 28.964844-11.996094 11.335937.003906 21.53125 4.574219 28.964844 11.996094 7.421875 7.433594 11.992187 17.632812 11.996093 28.964844zm0 0" fill="#54596e"/><path d="m211.625 143.359375v40.960937c0 3.769532 3.058594 6.828126 6.828125 6.828126s6.828125-3.058594 6.828125-6.828126v-40.960937c0-3.769531-3.058594-6.824219-6.828125-6.824219s-6.828125 3.054688-6.828125 6.824219" fill="#54596e"/><path d="m211.625 259.414062c0 7.539063-6.109375 13.652344-13.652344 13.652344-7.539062 0-13.652344-6.113281-13.652344-13.652344 0-7.542968 6.113282-13.652343 13.652344-13.652343 7.542969 0 13.652344 6.109375 13.652344 13.652343zm0 0" fill="#9af43b"/><path d="m252.585938 259.414062c0 7.539063-6.113282 13.652344-13.652344 13.652344-7.539063 0-13.652344-6.113281-13.652344-13.652344 0-7.542968 6.113281-13.652343 13.652344-13.652343 7.539062 0 13.652344 6.109375 13.652344 13.652343zm0 0" fill="#ff927d"/></svg>