<svg height="423pt" viewBox="0 -37 423.25924 423" width="423pt" xmlns="http://www.w3.org/2000/svg"><path d="m416.429688 225.410156c0-62.210937-91.695313-150.183594-204.800782-150.183594-113.105468 0-204.796875 87.972657-204.796875 150.183594 0 62.207032 91.691407 75.09375 204.796875 75.09375 113.105469 0 204.800782-12.886718 204.800782-75.09375" fill="#61c5a8"/><path d="m416.429688 225.410156h6.828124c-.023437-17.242187-6.265624-35.480468-17.09375-53.265625-16.277343-26.65625-43.023437-52.433593-76.632812-71.722656-33.609375-19.277344-74.148438-32.019531-117.902344-32.027344-58.351562.019531-110.933594 22.632813-149.089844 53.269531-19.085937 15.339844-34.59375 32.699219-45.441406 50.480469-10.828125 17.785157-17.0742185 36.019531-17.097656 53.265625-.0742188 17.246094 6.632812 31.902344 18.195312 42.898438 8.644532 8.296875 19.820313 14.726562 32.917969 19.839844 39.300781 15.230468 96.5625 19.132812 160.515625 19.179687 56.835938-.027344 108.429688-3.164063 146.757813-14.496094 19.15625-5.707031 35.136719-13.46875 46.679687-24.523437 11.558594-10.996094 18.265625-25.652344 18.191406-42.898438h-13.65625c-.074218 13.859375-4.832031 24.144532-13.996093 33.054688-6.898438 6.636718-16.480469 12.3125-28.417969 16.960937-35.839844 14.042969-92.269531 18.304688-155.558594 18.25-56.265625.023438-107.078125-3.28125-142.871094-13.933593-17.902343-5.300782-31.917968-12.417969-41.109374-21.277344-9.160157-8.914063-13.914063-19.195313-13.988282-33.054688-.027344-13.863281 5.1875-29.945312 15.089844-46.160156 14.816406-24.324219 40.011719-48.792969 71.773438-66.992188 31.761718-18.214843 70.027343-30.210937 111.109374-30.210937 54.753907-.019531 104.566407 21.359375 140.539063 50.261719 17.972656 14.433594 32.457031 30.726562 42.335937 46.941406 9.902344 16.214844 15.121094 32.296875 15.097657 46.160156z" fill="#54596e"/><path d="m409.179688 218.316406c-23.753907 39.089844-103.199219 48.050782-197.550782 48.050782-94.347656 0-173.792968-8.960938-197.550781-48.042969-.28125 2.414062-.421875 4.78125-.417969 7.085937.074219 13.859375 4.828125 24.144532 13.988282 33.054688 9.191406 8.855468 23.207031 15.976562 41.109374 21.277344 35.667969 10.617187 86.246094 13.933593 142.285157 13.933593h.585937 1.144532c62.820312 0 118.792968-4.292969 154.414062-18.25 11.9375-4.648437 21.519531-10.324219 28.417969-16.960937 9.164062-8.914063 13.921875-19.195313 13.996093-33.054688h6.828126-6.828126c.003907-2.304687-.136718-4.671875-.421874-7.09375" fill="#5eaf9c"/><g fill="#54596e"><path d="m9.167969 207.417969c-1.539063 6.160156-2.339844 12.1875-2.339844 17.992187 0 62.207032 91.695313 75.09375 204.800781 75.09375 113.105469 0 204.800782-12.886718 204.800782-75.09375h-6.828126c-.074218 13.859375-4.832031 24.144532-13.996093 33.054688-6.898438 6.636718-16.480469 12.3125-28.417969 16.960937-35.621094 13.957031-91.59375 18.25-154.414062 18.25-.382813 0-.761719 0-1.144532 0-.191406 0-.394531 0-.585937 0-56.039063 0-106.617188-3.316406-142.285157-13.933593-17.902343-5.300782-31.917968-12.417969-41.109374-21.277344-9.160157-8.914063-13.914063-19.195313-13.988282-33.054688-.003906-2.304687.136719-4.671875.417969-7.085937-2.066406-3.402344-3.714844-7.03125-4.910156-10.90625m404.917969 0c-1.195313 3.871093-2.839844 7.5-4.90625 10.898437.28125 2.421875.425781 4.789063.421874 7.09375h6.828126c0-5.804687-.796876-11.832031-2.34375-17.992187"/><path d="m81.921875 232.234375c0 7.542969-6.113281 13.65625-13.652344 13.65625-7.542969 0-13.65625-6.113281-13.65625-13.65625 0-7.539063 6.113281-13.652344 13.65625-13.652344 7.539063 0 13.652344 6.113281 13.652344 13.652344zm0 0"/><path d="m368.640625 232.234375c0 7.542969-6.113281 13.65625-13.652344 13.65625-7.539062 0-13.652343-6.113281-13.652343-13.65625 0-7.539063 6.113281-13.652344 13.652343-13.652344 7.539063 0 13.652344 6.113281 13.652344 13.652344zm0 0"/><path d="m94.875 178.136719c16.132812 51.242187 62.3125 88.234375 116.753906 88.234375 54.625 0 100.925782-37.242188 116.914063-88.75l-76.765625-8.964844c-26.671875-3.113281-53.617188-3.050781-80.273438.183594zm0 0"/><path d="m33.164062 337.949219-17.839843-29.726563 27.335937-29.328125c2.570313-2.757812 2.417969-7.078125-.339844-9.648437-2.757812-2.570313-7.074218-2.414063-9.644531.34375l-30.839843 33.085937c-2.078126 2.230469-2.429688 5.546875-.859376 8.164063l20.480469 34.132812c1.9375 3.234375 6.132813 4.28125 9.367188 2.34375 3.230469-1.941406 4.277343-6.132812 2.339843-9.367187zm0 0"/><path d="m86.75 336.636719-31.335938-31.339844 5.789063-21.347656c.984375-3.640625-1.164063-7.390625-4.804687-8.375-3.636719-.988281-7.386719 1.164062-8.371094 4.800781l-6.828125 25.167969c-.636719 2.351562.039062 4.886719 1.761719 6.613281l34.132812 34.132812c2.664062 2.667969 6.988281 2.667969 9.65625 0 2.664062-2.667968 2.664062-6.988281 0-9.652343zm0 0"/><path d="m401.800781 344.972656 20.480469-34.132812c1.570312-2.617188 1.222656-5.933594-.859375-8.164063l-30.839844-33.089843c-2.570312-2.757813-6.890625-2.910157-9.648437-.339844-2.757813 2.574218-2.910156 6.890625-.335938 9.652344l27.335938 29.324218-17.835938 29.726563c-1.941406 3.230469-.894531 7.425781 2.339844 9.367187 3.230469 1.9375 7.425781.890625 9.363281-2.34375zm0 0"/><path d="m346.160156 346.289062 34.136719-34.132812c1.722656-1.726562 2.398437-4.261719 1.757813-6.613281l-6.824219-25.167969c-.988281-3.640625-4.738281-5.789062-8.378907-4.800781-3.636718.988281-5.785156 4.738281-4.800781 8.378906l5.792969 21.34375-31.335938 31.339844c-2.667968 2.664062-2.667968 6.988281-.003906 9.652343 2.667969 2.667969 6.992188 2.667969 9.65625 0zm0 0"/></g><path d="m195 211.757812h-16.675781c-4.5 0-8.421875-3.0625-9.511719-7.425781l-4.96875-19.882812 40.957031-6.828125v24.332031c0 5.414063-4.386719 9.804687-9.800781 9.804687zm0 0" fill="#fff"/><path d="m228.257812 211.757812h16.675782c4.496094 0 8.421875-3.0625 9.511718-7.425781l4.96875-19.882812-40.957031-6.828125v24.332031c0 5.414063 4.386719 9.804687 9.800781 9.804687zm0 0" fill="#fff"/><path d="m170.667969 235.796875c0 9.347656 18.339843 16.917969 40.960937 16.917969 22.625 0 40.960938-7.574219 40.960938-16.917969 0-2.34375-1.160156-4.574219-3.242188-6.605469l-14.566406-2.113281c-15.308594-2.226563-30.996094-2.226563-46.304688 0l-14.5625 2.113281c-2.089843 2.03125-3.246093 4.261719-3.246093 6.605469zm0 0" fill="#ffb8f2"/><path d="m218.457031 41.089844v-34.132813c0-3.773437-3.058593-6.828125-6.828125-6.828125-3.769531 0-6.828125 3.054688-6.828125 6.828125v34.132813c0 3.769531 3.058594 6.828125 6.828125 6.828125 3.769532 0 6.828125-3.058594 6.828125-6.828125" fill="#ff80c3"/><path d="m182.320312 43.089844-27.304687-27.308594c-2.667969-2.664062-6.988281-2.664062-9.65625 0-2.664063 2.667969-2.664063 6.988281 0 9.65625l27.308594 27.304688c2.664062 2.667968 6.988281 2.667968 9.652343 0 2.667969-2.667969 2.667969-6.988282 0-9.652344" fill="#ff80c3"/><path d="m250.589844 52.742188 27.304687-27.304688c2.667969-2.667969 2.667969-6.988281 0-9.65625-2.664062-2.664062-6.988281-2.664062-9.652343 0l-27.308594 27.308594c-2.664063 2.664062-2.664063 6.988281 0 9.652344 2.667968 2.664062 6.988281 2.664062 9.65625 0" fill="#ff80c3"/></svg>