<svg height="416pt" viewBox="-1 0 416 416.42667" width="416pt" xmlns="http://www.w3.org/2000/svg"><path d="m77.761719 368.640625h-16.109375c-11.304688 0-20.480469-9.167969-20.480469-20.480469s9.175781-20.480468 20.480469-20.480468h16.109375c21.226562 0 38.503906-17.28125 38.503906-38.511719v-36.582031c0-11.3125 9.175781-20.480469 20.480469-20.480469 11.308594 0 20.480468 9.167969 20.480468 20.480469v36.582031c0 43.820312-35.652343 79.472656-79.464843 79.472656zm0 0" fill="#ffb8f2"/><path d="m77.761719 368.640625v-6.828125h-16.109375c-7.535156-.015625-13.640625-6.113281-13.652344-13.652344.011719-7.539062 6.117188-13.640625 13.652344-13.65625h16.109375c25.011719-.011718 45.316406-20.320312 45.332031-45.335937v-36.582031c.011719-7.539063 6.117188-13.640626 13.652344-13.65625 7.535156.015624 13.640625 6.117187 13.652344 13.65625v36.582031c0 20.039062-8.132813 38.160156-21.304688 51.339843-13.175781 13.171876-31.296875 21.300782-51.335938 21.304688v13.652344c47.597657-.011719 86.28125-38.695313 86.292969-86.296875v-36.582031c-.003906-15.089844-12.226562-27.300782-27.304687-27.304688-15.078125.003906-27.300782 12.214844-27.308594 27.304688v36.582031c-.003906 8.746093-3.539062 16.628906-9.292969 22.390625-5.765625 5.753906-13.644531 9.292968-22.386719 9.292968h-16.105468c-15.078125.003907-27.300782 12.21875-27.304688 27.308594.003906 15.085938 12.226563 27.300782 27.304688 27.304688h16.109375zm0 0" fill="#54596e"/><path d="m211.839844 409.601562c-11.304688 0-20.480469-9.167968-20.480469-20.480468v-136.535156c0-11.3125 9.175781-20.480469 20.480469-20.480469 11.308594 0 20.480468 9.167969 20.480468 20.480469v136.535156c0 11.3125-9.171874 20.480468-20.480468 20.480468zm0 0" fill="#ffb8f2"/><path d="m211.839844 409.601562v-6.828124c-7.535156-.015626-13.640625-6.113282-13.652344-13.652344v-136.535156c.011719-7.539063 6.117188-13.640626 13.652344-13.65625 7.535156.015624 13.640625 6.117187 13.652344 13.65625v136.535156c-.011719 7.539062-6.117188 13.636718-13.652344 13.652344v13.652343c15.078125-.003906 27.300781-12.21875 27.308594-27.304687v-136.53125c-.007813-15.089844-12.230469-27.304688-27.308594-27.308594-15.078125.003906-27.300782 12.21875-27.304688 27.308594v136.53125c.003906 15.085937 12.226563 27.300781 27.304688 27.304687zm0 0" fill="#54596e"/><path d="m326.5 245.761719h-229.320312c-8.3125 0-15.046876-6.734375-15.046876-15.046875v-94.179688c0-71.636718 58.074219-129.707031 129.707032-129.707031 71.632812 0 129.707031 58.070313 129.707031 129.707031v94.179688c0 8.3125-6.734375 15.046875-15.046875 15.046875zm0 0" fill="#ffb8f2"/><path d="m326.5 245.761719v-6.828125h-229.320312c-4.542969-.007813-8.210938-3.679688-8.222657-8.21875v-94.179688c.003907-33.957031 13.746094-64.632812 35.992188-86.890625 22.261719-22.25 52.9375-35.988281 86.890625-35.992187 33.953125.007812 64.628906 13.746094 86.886718 35.992187 22.25 22.257813 35.988282 52.933594 35.992188 86.890625v94.179688c-.007812 4.539062-3.675781 8.210937-8.21875 8.21875v13.652344c12.085938 0 21.871094-9.789063 21.875-21.867188v-94.183594c-.003906-75.410156-61.128906-136.53124975-136.535156-136.535156-75.40625.00390625-136.53125 61.125-136.53125 136.535156v94.179688c0 12.082031 9.789062 21.867187 21.871094 21.871094h229.320312zm0 0" fill="#54596e"/><path d="m307.414062 211.625v111.675781c0 21.234375 17.277344 38.511719 38.503907 38.511719h16.109375c11.304687 0 20.480468 9.167969 20.480468 20.480469s-9.175781 20.480469-20.480468 20.480469h-16.109375c-43.8125 0-79.464844-35.652344-79.464844-79.472657v-84.367187" fill="#ffb8f2"/><path d="m300.585938 211.625v111.675781c.015624 25.015625 20.320312 45.324219 45.332031 45.335938h16.109375c7.535156.015625 13.640625 6.117187 13.652344 13.65625-.011719 7.539062-6.117188 13.636719-13.652344 13.652343h-16.109375c-20.035157-.003906-38.15625-8.132812-51.335938-21.304687-13.167969-13.179687-21.300781-31.300781-21.304687-51.339844v-84.367187c0-3.773438-3.054688-6.828125-6.824219-6.828125-3.773437 0-6.828125 3.054687-6.828125 6.828125v84.367187c.011719 47.605469 38.695312 86.289063 86.292969 86.296875h16.109375c15.078125-.003906 27.300781-12.21875 27.304687-27.304687-.003906-15.089844-12.226562-27.304688-27.304687-27.304688h-16.109375c-8.742188-.003906-16.621094-3.542969-22.386719-9.296875-5.75-5.761718-9.289062-13.644531-9.292969-22.390625v-111.675781c0-3.769531-3.054687-6.824219-6.828125-6.824219-3.765625 0-6.824218 3.054688-6.824218 6.824219zm0 0" fill="#54596e"/><path d="m109.441406 204.800781h-81.921875c-11.3125 0-20.480469 9.167969-20.480469 20.480469 0 11.308594 9.167969 20.480469 20.480469 20.480469h81.921875" fill="#ffb8f2"/><path d="m109.441406 197.972656h-81.921875c-15.085937.003906-27.304687 12.222656-27.304687 27.308594 0 15.082031 12.21875 27.300781 27.304687 27.304688h81.921875c3.765625 0 6.824219-3.058594 6.824219-6.824219 0-3.773438-3.058594-6.828125-6.824219-6.828125h-81.921875c-7.539062-.015625-13.640625-6.117188-13.652343-13.652344.011718-7.539062 6.113281-13.640625 13.652343-13.65625h81.921875c3.765625 0 6.824219-3.058594 6.824219-6.824219 0-3.769531-3.058594-6.824219-6.824219-6.828125zm0 0" fill="#54596e"/><path d="m392.746094 42.667969c0 6.597656-5.347656 11.945312-11.945313 11.945312-6.597656 0-11.949219-5.347656-11.949219-11.945312 0-6.597657 5.351563-11.949219 11.949219-11.949219 6.597657 0 11.945313 5.351562 11.945313 11.949219zm0 0" fill="#d8d8d8"/><path d="m413.226562 83.625c0 6.601562-5.347656 11.949219-11.945312 11.949219s-11.949219-5.347657-11.949219-11.949219c0-6.597656 5.351563-11.945312 11.949219-11.945312s11.945312 5.347656 11.945312 11.945312zm0 0" fill="#d8d8d8"/><path d="m389.332031 172.375c0 8.480469-6.875 15.359375-15.359375 15.359375-8.480468 0-15.359375-6.878906-15.359375-15.359375 0-8.484375 6.878907-15.363281 15.359375-15.363281 8.484375 0 15.359375 6.878906 15.359375 15.363281zm0 0" fill="#d8d8d8"/><path d="m65.066406 143.359375c0 5.65625-4.585937 10.242187-10.238281 10.242187-5.65625 0-10.242187-4.585937-10.242187-10.242187s4.585937-10.238281 10.242187-10.238281c5.652344 0 10.238281 4.582031 10.238281 10.238281zm0 0" fill="#d8d8d8"/><path d="m129.921875 167.253906c0 5.65625-4.585937 10.238282-10.242187 10.238282s-10.238282-4.582032-10.238282-10.238282 4.582032-10.242187 10.238282-10.242187 10.242187 4.585937 10.242187 10.242187zm0 0" fill="#fff"/><path d="m259.625 47.785156c0 7.542969-6.109375 13.65625-13.652344 13.65625-7.539062 0-13.652344-6.113281-13.652344-13.65625 0-7.539062 6.113282-13.652344 13.652344-13.652344 7.542969 0 13.652344 6.113282 13.652344 13.652344zm0 0" fill="#fff"/><path d="m37.761719 71.679688c0 7.539062-6.113281 13.652343-13.65625 13.652343-7.539063 0-13.652344-6.113281-13.652344-13.652343 0-7.539063 6.113281-13.652344 13.652344-13.652344 7.542969 0 13.65625 6.113281 13.65625 13.652344zm0 0" fill="#d8d8d8"/><g fill="#54596e"><path d="m232.320312 204.800781c0-7.542969-3.058593-13.652343-6.828124-13.652343-3.769532 0-6.824219 6.109374-6.824219 13.652343 0 7.539063 3.054687 13.652344 6.824219 13.652344 3.769531 0 6.828124-6.113281 6.828124-13.652344zm0 0"/><path d="m205.011719 204.800781c0-7.542969-3.054688-13.652343-6.824219-13.652343s-6.828125 6.109374-6.828125 13.652343c0 7.539063 3.058594 13.652344 6.828125 13.652344s6.824219-6.113281 6.824219-13.652344zm0 0"/><path d="m154.011719 157.011719h-41.351563c-16.859375 0-30.527344-13.664063-30.527344-30.523438v-8.585937c0-27.410156 22.222657-49.636719 49.632813-49.636719h41.355469c16.859375 0 30.523437 13.667969 30.523437 30.527344v8.585937c0 27.410156-22.21875 49.632813-49.632812 49.632813zm0 0"/><path d="m268.300781 157.011719h42.71875c16.859375 0 30.527344-13.664063 30.527344-30.527344v-8.582031c0-27.410156-22.222656-49.636719-49.632813-49.636719h-42.71875c-16.863281 0-30.527343 13.667969-30.527343 30.527344v8.585937c0 27.410156 22.21875 49.632813 49.632812 49.632813zm0 0"/><path d="m177.707031 88.746094h68.265625c3.769532 0 6.828125-3.054688 6.828125-6.824219 0-3.773437-3.058593-6.828125-6.828125-6.828125h-68.265625c-3.769531 0-6.828125 3.054688-6.828125 6.828125 0 3.769531 3.058594 6.824219 6.828125 6.824219"/></g><path d="m118.265625 83.917969-13.652344 13.652343c-2.667969 2.667969-2.667969 6.992188 0 9.65625 2.664063 2.664063 6.988281 2.664063 9.652344 0l13.652344-13.652343c2.667969-2.667969 2.667969-6.988281 0-9.65625-2.664063-2.664063-6.984375-2.664063-9.652344 0" fill="#f4a14e"/><path d="m254.796875 83.917969-13.652344 13.652343c-2.664062 2.667969-2.664062 6.992188 0 9.65625 2.667969 2.664063 6.988281 2.664063 9.65625 0l13.652344-13.652343c2.664063-2.667969 2.664063-6.988281 0-9.65625-2.664063-2.664063-6.988281-2.664063-9.65625 0" fill="#f4a14e"/></svg>