<svg height="423pt" viewBox="-48 0 423 423.25845" width="423pt" xmlns="http://www.w3.org/2000/svg"><path d="m313.53125 184.324219c-1-.8125-2.101562-1.570313-3.316406-2.246094-14.308594-7.941406-14.308594-28.519531 0-36.46875 16.726562-9.292969 12.691406-32.855469-3.367188-38.066406-14.574218-4.726563-25.347656-16.960938-25.347656-32.277344v-.335937c0-15.800782-12.804688-28.617188-28.617188-28.617188h-.335937c-15.308594 0-27.550781-10.78125-32.277344-25.347656-5.207031-16.058594-28.769531-20.09375-38.0625-3.367188-7.949219 14.308594-28.523437 14.308594-36.472656 0-10.546875-18.980468-39.453125-11.230468-39.09375 10.480469.265625 16.359375-17.546875 26.652344-31.589844 18.234375-18.613281-11.167969-39.777343 9.996094-28.617187 28.617188v.335937c0 15.3125-10.773438 27.554687-25.34375 32.277344-16.0625 5.210937-20.089844 28.769531-3.363282 38.066406 14.308594 7.949219 14.308594 28.527344 0 36.46875-1.21875.675781-2.3125 1.433594-3.3125 2.246094h-7.457031v164.792969c0 37.171874 30.136719 67.3125 67.308594 67.3125h179.402344c37.175781 0 67.316406-30.140626 67.316406-67.3125v-164.792969z" fill="#ffb8f2"/><path d="m313.53125 184.324219 4.304688-5.296875c-1.296876-1.050782-2.730469-2.039063-4.300782-2.914063h-.003906c-4.886719-2.738281-7.179688-7.378906-7.222656-12.269531.042968-4.890625 2.335937-9.527344 7.222656-12.261719v-.007812c4.765625-2.632813 8.429688-6.351563 10.800781-10.554688 2.375-4.210937 3.480469-8.847656 3.480469-13.394531-.007812-5.691406-1.695312-11.277344-4.894531-16.015625-3.179688-4.734375-7.976563-8.632813-13.960938-10.5625-6.121093-1.976563-11.332031-5.519531-14.945312-9.976563-3.609375-4.46875-5.667969-9.769531-5.683594-15.804687v-.335937c-.007813-19.582032-15.863281-35.4375-35.445313-35.445313h-.335937c-6.035156-.015625-11.332031-2.074219-15.804687-5.683594-4.457032-3.609375-8-8.824219-9.972657-14.945312-1.9375-5.984375-5.835937-10.773438-10.570312-13.964844-4.738281-3.195313-10.320313-4.8828125-16.007813-4.890625-4.546875 0-9.191406 1.101562-13.394531 3.480469-4.199219 2.371093-7.921875 6.035156-10.554687 10.800781-2.742188 4.882812-7.375 7.171875-12.269532 7.21875-4.890625-.046875-9.535156-2.335938-12.265625-7.21875-2.640625-4.757812-6.355469-8.429688-10.554687-10.800781-4.210938-2.378907-8.855469-3.480469-13.394532-3.480469-6.992187.0078125-13.839843 2.550781-19.128906 7.332031-5.292968 4.746094-8.855468 11.984375-8.8125 20.335938v.519531l.007813.253906c-.023438 4.171875-1.65625 7.535156-4.265625 10.058594-2.613282 2.507812-6.195313 3.988281-9.8125 3.980469-2.390625-.007813-4.792969-.605469-7.183594-2.027344h.007812c-4.589843-2.761719-9.554687-4.085937-14.308593-4.078125-7.613281.007812-14.515625 3.253906-19.511719 8.238281-4.988281 4.996094-8.234375 11.898438-8.238281 19.511719-.007813 4.753906 1.3125 9.714844 4.070312 14.308594l5.855469-3.503906h-6.828125v.335937c-.003906 6.035156-2.066406 11.328125-5.679687 15.808594-3.605469 4.453125-8.828126 7.996093-14.9375 9.972656-5.996094 1.9375-10.78125 5.828125-13.964844 10.5625-3.195313 4.746094-4.882813 10.328125-4.890625 16.019531 0 4.539063 1.101562 9.183594 3.480469 13.382813 2.371093 4.210937 6.035156 7.925781 10.792968 10.5625 4.890625 2.742187 7.179688 7.378906 7.226563 12.269531-.046875 4.890625-2.335938 9.527344-7.226563 12.269531-1.570312.875-3.003906 1.859375-4.304687 2.914063l4.3125 5.296875v-6.828125h-7.460938c-1.796875 0-3.554687.734375-4.828125 2-1.269531 1.273437-2 3.03125-2 4.828125v164.792969c0 40.949218 33.191406 74.132812 74.136719 74.140624h179.402344c40.949219-.007812 74.136719-33.191406 74.144531-74.140624v-164.792969c0-1.796875-.730469-3.554688-2.007812-4.828125-1.265626-1.265625-3.023438-2-4.820313-2h-7.453125v6.828125l4.304688-5.296875-4.304688 5.296875v6.828125h.625v157.964844c-.003906 16.726562-6.757812 31.808593-17.71875 42.769531-10.96875 10.957031-26.039062 17.714843-42.769531 17.714843h-179.402344c-16.722656 0-31.800781-6.757812-42.769531-17.714843-10.953125-10.964844-17.710938-26.042969-17.710938-42.769531v-157.964844h.625c1.578125 0 3.078125-.535156 4.304688-1.53125.703125-.570313 1.46875-1.101563 2.324218-1.574219 9.414063-5.214844 14.285157-14.839844 14.238282-24.203125.046875-9.371094-4.824219-18.996094-14.238282-24.203125-2.667968-1.496094-4.390624-3.320313-5.546874-5.347656-1.144532-2.03125-1.710938-4.3125-1.710938-6.667969-.003906-2.941406.910156-5.957031 2.550781-8.375 1.652344-2.425781 3.925781-4.257812 6.863281-5.21875 8.453126-2.738281 15.90625-7.6875 21.328126-14.355469 5.421874-6.652343 8.75-15.136719 8.734374-24.410156v-.335937c0-1.234376-.335937-2.460938-.960937-3.507813-1.550781-2.59375-2.128906-5-2.136719-7.292969-.007812-3.640625 1.582032-7.203125 4.246094-9.851562 2.652344-2.660156 6.207031-4.25 9.847656-4.246094 2.300782.007812 4.699219.59375 7.285156 2.136719h.003907c4.5 2.703125 9.433593 3.976562 14.203125 3.96875 7.273437-.007813 14.132812-2.878907 19.253906-7.773438 5.117188-4.867187 8.488281-11.945312 8.46875-19.921875v-.769531c.03125-4.617187 1.71875-7.800781 4.339844-10.234375 2.617187-2.394531 6.324218-3.792969 9.945312-3.78125 2.359375 0 4.636719.566406 6.671875 1.707031 2.023438 1.160157 3.851563 2.882813 5.335938 5.554688 5.21875 9.417969 14.839843 14.28125 24.210937 14.242187 9.363282.039063 18.992188-4.824218 24.203125-14.242187v-.007813c1.492188-2.664062 3.320313-4.386718 5.34375-5.546875 2.027344-1.140625 4.304688-1.707031 6.671875-1.707031 2.941406-.007812 5.953125.910156 8.371094 2.546875 2.429688 1.65625 4.261719 3.9375 5.222656 6.871094 2.742188 8.453125 7.679688 15.90625 14.355469 21.328125 6.652344 5.414062 15.136719 8.75 24.40625 8.734375h.339844c12.035156.023437 21.769531 9.757812 21.789062 21.792969v.335937c-.011719 9.277344 3.316407 17.757813 8.738281 24.414063 5.421876 6.667968 12.875 11.613281 21.335938 14.355468 2.9375.957032 5.210938 2.789063 6.863281 5.214844 1.640625 2.417969 2.554688 5.4375 2.550781 8.378906 0 2.355469-.566406 4.644532-1.710937 6.667969-1.15625 2.023437-2.878906 3.847656-5.546875 5.34375-9.421875 5.210937-14.285156 14.832031-14.246094 24.203125-.039062 9.371094 4.824219 18.996094 14.246094 24.210938l-.003906-.007813c.855468.476563 1.625 1.003906 2.328125 1.578125 1.21875.992188 2.726562 1.527344 4.304687 1.527344v-6.828125" fill="#54596e"/><path d="m314.15625 337.730469c-10.949219 22.351562-33.921875 37.742187-60.488281 37.742187h-179.402344c-26.566406 0-49.535156-15.390625-60.480469-37.738281v11.382813c0 16.726562 6.757813 31.808593 17.710938 42.769531 10.96875 10.957031 26.046875 17.714843 42.769531 17.714843h179.402344c16.726562 0 31.800781-6.757812 42.769531-17.714843 10.960938-10.964844 17.710938-26.042969 17.71875-42.773438z" fill="#dda5d8"/><path d="m320.984375 308.160156c0 10.609375-2.453125 20.644532-6.828125 29.570313v11.386719c-.003906 16.726562-6.757812 31.808593-17.71875 42.769531-10.96875 10.957031-26.039062 17.714843-42.769531 17.714843h-179.402344c-16.722656 0-31.800781-6.757812-42.769531-17.714843-10.953125-10.964844-17.710938-26.042969-17.710938-42.769531v-11.382813c-4.375-8.925781-6.828125-18.964844-6.828125-29.574219v40.957032c0 37.171874 30.136719 67.3125 67.308594 67.3125h179.402344c37.175781 0 67.316406-30.140626 67.316406-67.3125z" fill="#54596e"/><path d="m41.089844 320.859375c0 15.082031 12.226562 27.304687 27.304687 27.304687 15.082031 0 27.308594-12.222656 27.308594-27.304687" fill="#ffb8f2"/><path d="m34.261719 320.859375c.007812 18.851563 15.28125 34.128906 34.132812 34.128906 18.855469 0 34.128907-15.277343 34.132813-34.128906 0-3.773437-3.054688-6.828125-6.824219-6.828125s-6.828125 3.054688-6.828125 6.828125c-.019531 11.308594-9.171875 20.457031-20.480469 20.480469-11.304687-.023438-20.457031-9.171875-20.480469-20.480469 0-3.773437-3.054687-6.828125-6.824218-6.828125-3.769532 0-6.828125 3.054688-6.828125 6.828125zm0 0" fill="#54596e"/><path d="m232.234375 320.859375c0 15.082031 12.226563 27.304687 27.308594 27.304687 15.078125 0 27.304687-12.222656 27.304687-27.304687" fill="#ffb8f2"/><path d="m225.410156 320.859375c.003906 18.851563 15.277344 34.128906 34.132813 34.128906 18.851562 0 34.128906-15.277343 34.132812-34.128906 0-3.773437-3.054687-6.828125-6.828125-6.828125-3.769531 0-6.824218 3.054688-6.824218 6.828125-.019532 11.308594-9.175782 20.457031-20.480469 20.480469-11.308594-.023438-20.460938-9.171875-20.480469-20.480469 0-3.773437-3.054688-6.828125-6.828125-6.828125-3.769531 0-6.824219 3.054688-6.824219 6.828125zm0 0" fill="#54596e"/><path d="m198.101562 81.925781c0 18.851563-15.28125 34.132813-34.132812 34.132813s-34.132812-15.28125-34.132812-34.132813c0-18.851562 15.28125-34.132812 34.132812-34.132812s34.132812 15.28125 34.132812 34.132812zm0 0" fill="#fff"/><path d="m198.101562 81.925781h6.828126c-.003907-22.625-18.335938-40.957031-40.960938-40.960937-22.625.003906-40.953125 18.335937-40.960938 40.960937.007813 22.621094 18.335938 40.953125 40.960938 40.957031 22.625-.003906 40.957031-18.335937 40.960938-40.957031h-13.652344c-.003906 7.5625-3.046875 14.34375-8 19.308594-4.964844 4.949219-11.746094 7.992187-19.308594 7.996094-7.5625-.003907-14.34375-3.046875-19.308594-7.996094-4.953125-4.964844-7.996094-11.75-7.996094-19.308594 0-7.566406 3.042969-14.347656 7.996094-19.308593 4.964844-4.953126 11.75-7.996094 19.308594-8 7.5625.003906 14.34375 3.046874 19.308594 8 4.953125 4.960937 7.996094 11.746093 8 19.308593zm0 0" fill="#54596e"/><path d="m157.140625 68.273438v27.304687c0 3.769531 3.058594 6.828125 6.828125 6.828125s6.828125-3.058594 6.828125-6.828125v-27.304687c0-3.773438-3.058594-6.828126-6.828125-6.828126s-6.828125 3.054688-6.828125 6.828126" fill="#54596e"/><path d="m136.664062 150.191406c0 18.851563-15.285156 34.132813-34.136718 34.132813-18.847656 0-34.132813-15.28125-34.132813-34.132813 0-18.851562 15.285157-34.132812 34.132813-34.132812 18.851562 0 34.136718 15.28125 34.136718 34.132812zm0 0" fill="#fff"/><path d="m136.664062 150.191406h6.824219c-.003906-22.625-18.335937-40.957031-40.960937-40.960937-22.621094.003906-40.953125 18.335937-40.957032 40.960937.003907 22.625 18.335938 40.957032 40.957032 40.957032 22.625 0 40.957031-18.332032 40.960937-40.957032h-13.652343c-.003907 7.5625-3.046876 14.34375-8 19.308594-4.960938 4.949219-11.746094 7.992188-19.308594 8-7.558594-.007812-14.34375-3.046875-19.304688-8-4.953125-4.964844-7.996094-11.746094-8-19.308594.003906-7.5625 3.046875-14.347656 8-19.308594 4.960938-4.953124 11.746094-7.996093 19.304688-8 7.5625.003907 14.347656 3.046876 19.308594 8 4.953124 4.960938 7.996093 11.746094 8 19.308594zm0 0" fill="#54596e"/><path d="m95.703125 136.539062v27.304688c0 3.769531 3.054687 6.828125 6.824219 6.828125 3.773437 0 6.828125-3.058594 6.828125-6.828125v-27.304688c0-3.773437-3.054688-6.828124-6.828125-6.828124-3.769532 0-6.824219 3.054687-6.824219 6.828124" fill="#54596e"/><path d="m259.542969 150.191406c0 18.851563-15.28125 34.132813-34.132813 34.132813-18.851562 0-34.132812-15.28125-34.132812-34.132813 0-18.851562 15.28125-34.132812 34.132812-34.132812 18.851563 0 34.132813 15.28125 34.132813 34.132812zm0 0" fill="#fff"/><g fill="#54596e"><path d="m259.542969 150.191406h6.828125c-.007813-22.625-18.339844-40.957031-40.960938-40.960937-22.625.003906-40.957031 18.335937-40.960937 40.960937.003906 22.625 18.335937 40.957032 40.960937 40.957032 22.621094 0 40.953125-18.332032 40.960938-40.957032h-13.65625c-.003906 7.5625-3.046875 14.34375-8 19.308594-4.960938 4.949219-11.746094 7.992188-19.304688 8-7.5625-.007812-14.34375-3.046875-19.308594-8-4.953124-4.964844-7.996093-11.746094-8-19.308594.003907-7.5625 3.046876-14.347656 8-19.308594 4.964844-4.953124 11.746094-7.996093 19.308594-8 7.558594.003907 14.34375 3.046876 19.304688 8 4.953125 4.960938 7.996094 11.746094 8 19.308594zm0 0"/><path d="m218.582031 136.539062v27.304688c0 3.769531 3.058594 6.828125 6.828125 6.828125 3.769532 0 6.824219-3.058594 6.824219-6.828125v-27.304688c0-3.773437-3.054687-6.828124-6.824219-6.828124-3.769531 0-6.828125 3.054687-6.828125 6.828124"/><path d="m109.355469 218.457031c0 30.164063 24.449219 54.613281 54.613281 54.613281s54.613281-24.449218 54.613281-54.613281zm0 0"/><path d="m109.355469 218.457031h-6.828125c.007812 33.933594 27.503906 61.4375 61.441406 61.441407 33.9375-.003907 61.433594-27.507813 61.441406-61.441407 0-1.796875-.730468-3.554687-2-4.828125-1.273437-1.269531-3.03125-1.996094-4.828125-1.996094h-109.226562c-1.796875 0-3.554688.726563-4.824219 1.996094-1.273438 1.273438-2.003906 3.03125-2.003906 4.828125h6.828125v6.828125h109.226562v-6.828125h-6.824219c-.003906 13.21875-5.339843 25.121094-14 33.792969-8.667968 8.65625-20.570312 13.988281-33.789062 13.996094-13.21875-.007813-25.121094-5.339844-33.789062-13.996094-8.660157-8.671875-13.992188-20.574219-13.996094-33.792969h-6.828125v6.828125zm0 0"/></g><path d="m136.664062 252.589844 14.179688-24.5625h-28.363281zm0 0" fill="#fff"/><path d="m191.277344 252.589844 14.179687-24.5625h-28.363281zm0 0" fill="#fff"/></svg>