<svg height="423pt" viewBox="-34 0 423 423.24657" width="423pt" xmlns="http://www.w3.org/2000/svg"><path d="m94.832031 416.421875v-95.570313c-44.480469 0-81.324219 38.347657-87.75 82.082032-1.039062 7.082031 4.3125 13.488281 11.46875 13.488281z" fill="#ffd578"/><path d="m94.832031 416.421875h6.824219v-95.570313c0-1.800781-.722656-3.558593-1.992188-4.832031-1.273437-1.269531-3.03125-1.992187-4.832031-1.992187-24.242187 0-46.25 10.457031-62.886719 26.558594-16.660156 16.117187-28.160156 37.917968-31.617187 61.351562-.136719.921875-.203125 1.847656-.203125 2.753906.003906 4.992188 1.988281 9.625 5.277344 13 3.269531 3.394532 7.976562 5.570313 13.152344 5.554688h76.28125c1.824218 0 3.539062-.703125 4.828124-1.992188 1.285157-1.292968 1.996094-3.007812 1.996094-4.832031h-6.828125v-6.824219h-76.28125c-1.390625-.011718-2.476562-.53125-3.367187-1.421875-.871094-.898437-1.40625-2.128906-1.40625-3.484375l.054687-.765625c2.972657-20.292969 13.109375-39.535156 27.597657-53.523437 14.511718-14.011719 33.164062-22.726563 53.402343-22.726563v-6.824219h-6.824219v95.570313h6.824219v-6.824219z" fill="#54596e"/><path d="m207.476562 6.824219h-6.832031c-77.285156 0-139.941406 62.65625-139.941406 139.949219v236.296874c0 18.417969 14.929687 33.351563 33.351563 33.351563h220.011718c18.417969 0 33.351563-14.933594 33.351563-33.351563v-236.296874c0-77.292969-62.65625-139.949219-139.941407-139.949219" fill="#ffd578"/><path d="m207.476562 6.824219v-6.824219h-6.832031c-81.0625 0-146.769531 65.703125-146.773437 146.773438v236.296874c.003906 22.191407 17.988281 40.175782 40.179687 40.175782h220.015625c22.195313 0 40.175782-17.984375 40.179688-40.175782v-236.296874c-.007813-81.070313-65.710938-146.773438-146.773438-146.773438v13.648438c36.777344.007812 70.019532 14.890624 94.125 38.992187 24.101563 24.113281 38.992188 57.347656 38.992188 94.132813v236.296874c0 7.34375-2.960938 13.929688-7.769532 18.753907-4.820312 4.8125-11.40625 7.765625-18.753906 7.773437h-220.011718c-7.351563-.007812-13.9375-2.960937-18.757813-7.773437-4.808594-4.824219-7.769531-11.414063-7.769531-18.753907v-236.296874c0-36.789063 14.886718-70.019532 38.992187-94.132813 24.109375-24.101563 57.347657-38.984375 94.125-38.992187h6.832031z" fill="#54596e"/><path d="m340.59375 362.328125c-6.09375 7.984375-15.707031 13.132813-26.527344 13.132813h-220.011718c-10.820313 0-20.433594-5.152344-26.527344-13.132813v20.742187c0 7.34375 2.960937 13.929688 7.769531 18.753907 4.820313 4.8125 11.40625 7.765625 18.757813 7.773437h220.011718c7.347656-.007812 13.9375-2.960937 18.753906-7.773437 4.8125-4.824219 7.773438-11.414063 7.773438-18.753907z" fill="#ddbc76"/><path d="m347.417969 342.109375c0 7.601563-2.542969 14.609375-6.824219 20.21875v20.742187c0 7.34375-2.960938 13.929688-7.773438 18.753907-4.816406 4.8125-11.40625 7.765625-18.753906 7.773437h-220.011718c-7.351563-.007812-13.9375-2.960937-18.757813-7.773437-4.808594-4.824219-7.769531-11.414063-7.769531-18.753907v-20.742187c-4.28125-5.609375-6.824219-12.617187-6.824219-20.21875v40.960937c0 18.417969 14.929687 33.351563 33.351563 33.351563h220.011718c18.417969 0 33.351563-14.933594 33.351563-33.351563z" fill="#54596e"/><path d="m202.996094 86.464844c-37.492188 0-70.152344 20.164062-87.683594 50.066406 17.53125 29.898438 50.191406 50.0625 87.683594 50.0625 37.492187 0 70.152344-20.164062 87.683594-50.0625-17.53125-29.902344-50.191407-50.066406-87.683594-50.066406zm0 0" fill="#54596e"/><path d="m202.996094 86.464844v-6.824219c-39.984375 0-74.863282 21.511719-93.574219 53.4375-1.242187 2.121094-1.242187 4.78125 0 6.90625 18.710937 31.921875 53.589844 53.433594 93.574219 53.4375 39.984375-.003906 74.863281-21.515625 93.570312-53.4375 1.246094-2.125 1.246094-4.785156 0-6.90625-18.707031-31.925781-53.585937-53.4375-93.570312-53.4375v13.652344c35.003906-.003907 65.4375 18.8125 81.792968 46.6875l5.890626-3.449219-5.890626-3.453125c-16.355468 27.875-46.789062 46.691406-81.792968 46.6875-35.003906.003906-65.4375-18.8125-81.796875-46.6875l-5.886719 3.453125 5.886719 3.449219c16.359375-27.875 46.792969-46.691407 81.796875-46.6875zm0 0" fill="#54596e"/><g fill="#fff"><path d="m204.058594 34.128906-14.179688 32.773438h28.363282zm0 0"/><path d="m251.617188 44.054688-23.476563 26.019531 26.375 8.90625zm0 0"/><path d="m291.257812 67.335938-29.921874 18.242187 22.738281 16.058594zm0 0"/><path d="m111.152344 67.335938 29.917968 18.242187-22.738281 16.058594zm0 0"/><path d="m155.945312 44.054688 23.476563 26.019531-26.375 8.90625zm0 0"/></g><path d="m251.847656 136.53125c0 26.390625-21.394531 47.785156-47.789062 47.785156-26.390625 0-47.785156-21.394531-47.785156-47.785156 0-26.394531 21.394531-47.789062 47.785156-47.789062 26.394531 0 47.789062 21.394531 47.789062 47.789062zm0 0" fill="#55a6ff"/><path d="m217.714844 136.53125c0 7.539062-6.113282 13.652344-13.65625 13.652344-7.539063 0-13.652344-6.113282-13.652344-13.652344 0-7.542969 6.113281-13.65625 13.652344-13.65625 7.542968 0 13.65625 6.113281 13.65625 13.65625zm0 0" fill="#fff"/><path d="m241.605469 252.582031h-40.707031c-2.027344 0-3.664063 1.644531-3.664063 3.667969v66.335938c0 12.472656 8.796875 23.929687 21.183594 25.410156 4.570312.542968 8.824219-.324219 12.605469-2.066406l.34375.21875v7.875c0 10.023437 6.757812 19.285156 16.617187 21.085937 13.007813 2.375 24.34375-7.554687 24.34375-20.128906v-72.4375c0-16.546875-13.414063-29.960938-29.960937-29.960938zm0 0" fill="#9af43b"/><path d="m241.605469 252.582031v-6.824219h-40.707031c-5.796876 0-10.492188 4.695313-10.492188 10.492188v66.335938c.007812 7.847656 2.738281 15.292968 7.480469 21.132812 4.71875 5.828125 11.625 10.09375 19.722656 11.054688 1.199219.140624 2.371094.207031 3.515625.203124 4.628906.003907 8.949219-1.101562 12.738281-2.839843l-2.839843-6.207031-3.683594 5.746093.34375.21875 3.679687-5.746093h-6.824219v7.875c.003907 6.550781 2.183594 12.789062 6.027344 17.789062 3.832032 4.996094 9.46875 8.789062 16.1875 10.011719 1.714844.3125 3.417969.460937 5.089844.460937 15.085938-.003906 27.300781-12.222656 27.304688-27.300781v-72.441406c-.003907-20.320313-16.464844-36.78125-36.785157-36.785157h-.761719v13.652344h.761719c12.773438.023438 23.109375 10.359375 23.132813 23.132813v72.441406c-.011719 7.527344-6.117188 13.636719-13.652344 13.652344-.859375-.003907-1.738281-.078125-2.640625-.246094-3.132813-.574219-5.804687-2.3125-7.820313-4.90625-1.996093-2.585937-3.199218-5.988281-3.191406-9.460937v-7.875c0-2.328126-1.183594-4.492188-3.144531-5.746094l-.34375-.222656c-1.960937-1.253907-4.410156-1.425782-6.523437-.457032-2.257813 1.027344-4.59375 1.601563-7.058594 1.601563-.628906 0-1.261719-.035157-1.902344-.109375-4.28125-.519532-7.96875-2.726563-10.742188-6.109375-2.757812-3.378907-4.425781-7.894531-4.417968-12.519531v-66.335938h-3.160156v3.160156c1.742187-.003906 3.15625-1.417968 3.15625-3.160156h-3.160157v3.160156h40.707031v-6.828125zm0 0" fill="#54596e"/><path d="m224.539062 252.582031v54.613281c0 3.769532 3.058594 6.828126 6.828126 6.828126 3.769531 0 6.824218-3.058594 6.824218-6.828126v-54.613281c0-3.769531-3.054687-6.824219-6.824218-6.824219-3.769532 0-6.828126 3.054688-6.828126 6.824219" fill="#54596e"/><path d="m210.886719 245.757812h-75.09375c-3.769531 0-6.828125 3.054688-6.828125 6.824219s3.058594 6.828125 6.828125 6.828125h75.09375c3.769531 0 6.828125-3.058594 6.828125-6.828125s-3.058594-6.824219-6.828125-6.824219" fill="#54596e"/></svg>