<svg height="423pt" viewBox="-17 0 423 423.24657" width="423pt" xmlns="http://www.w3.org/2000/svg"><path d="m94.828125 416.421875v-95.570313c-44.484375 0-81.328125 38.347657-87.75 82.082032-1.042969 7.082031 4.3125 13.488281 11.46875 13.488281z" fill="#9af43b"/><path d="m94.828125 416.421875h6.828125v-95.570313c0-1.800781-.726562-3.558593-2-4.832031-1.269531-1.269531-3.027344-1.992187-4.828125-1.992187-24.246094 0-46.253906 10.457031-62.886719 26.558594-16.65625 16.117187-28.160156 37.917968-31.617187 61.351562-.136719.921875-.199219 1.847656-.199219 2.753906 0 4.992188 1.980469 9.625 5.273438 13 3.269531 3.394532 7.976562 5.570313 13.148437 5.554688h76.28125c1.828125 0 3.542969-.703125 4.832031-1.992188 1.289063-1.292968 2-3.007812 2-4.832031h-6.832031v-6.824219h-76.28125c-1.386719-.011718-2.476563-.53125-3.367187-1.421875-.871094-.898437-1.40625-2.128906-1.40625-3.484375l.054687-.765625c2.972656-20.292969 13.105469-39.535156 27.597656-53.523437 14.511719-14.011719 33.164063-22.726563 53.402344-22.726563v-6.824219h-6.824219v95.570313h6.824219v-6.824219z" fill="#54596e"/><path d="m207.46875 6.824219h-6.832031c-77.285157 0-139.941407 62.65625-139.941407 139.949219v236.296874c0 18.417969 14.933594 33.351563 33.351563 33.351563h220.015625c18.421875 0 33.355469-14.933594 33.355469-33.351563v-236.296874c0-77.292969-62.65625-139.949219-139.949219-139.949219" fill="#9af43b"/><path d="m207.46875 6.824219v-6.824219h-6.832031c-81.058594 0-146.765625 65.703125-146.773438 146.773438v236.296874c.007813 22.191407 17.988281 40.175782 40.183594 40.175782h220.011719c22.195312 0 40.175781-17.984375 40.183594-40.175782v-236.296874c-.007813-81.070313-65.710938-146.773438-146.773438-146.773438v13.648438c36.777344.007812 70.015625 14.890624 94.125 38.992187 24.101562 24.113281 38.992188 57.347656 38.992188 94.132813v236.296874c0 7.34375-2.953126 13.929688-7.765626 18.753907-4.824218 4.8125-11.410156 7.765625-18.757812 7.773437h-220.015625c-7.347656-.007812-13.933594-2.960937-18.753906-7.773437-4.8125-4.824219-7.765625-11.414063-7.773438-18.753907v-236.296874c.007813-36.789063 14.890625-70.019532 38.992188-94.132813 24.109375-24.101563 57.347656-38.984375 94.128906-38.992187h6.832031v-6.824219" fill="#54596e"/><path d="m67.519531 362.328125v20.742187c.007813 7.34375 2.960938 13.929688 7.773438 18.753907 4.820312 4.8125 11.40625 7.765625 18.753906 7.773437h220.015625c7.347656-.007812 13.933594-2.960937 18.757812-7.773437 4.8125-4.824219 7.765626-11.414063 7.765626-18.753907v-20.738281c-6.09375 7.980469-15.707032 13.128907-26.527344 13.128907h-220.011719c-10.816406 0-20.429687-5.152344-26.527344-13.132813" fill="#8cd545"/><g fill="#54596e"><path d="m347.417969 342.109375c0 7.605469-2.546875 14.613281-6.832031 20.222656v20.738281c0 7.34375-2.953126 13.929688-7.765626 18.753907-4.824218 4.8125-11.410156 7.765625-18.757812 7.773437h-220.015625c-7.347656-.007812-13.933594-2.960937-18.753906-7.773437-4.8125-4.824219-7.765625-11.414063-7.773438-18.753907v-20.742187c-4.28125-5.609375-6.824219-12.617187-6.824219-20.21875v40.960937c0 18.417969 14.933594 33.351563 33.351563 33.351563h220.015625c18.421875 0 33.355469-14.933594 33.355469-33.351563z"/><path d="m272.320312 61.4375c-.011718 7.535156-6.117187 13.636719-13.652343 13.652344-7.535157-.015625-13.640625-6.117188-13.652344-13.652344 0-3.773438-3.058594-6.828125-6.828125-6.828125s-6.828125 3.054687-6.828125 6.828125c.007813 15.082031 12.226563 27.300781 27.308594 27.304688 15.082031-.003907 27.300781-12.222657 27.304687-27.304688 0-3.773438-3.054687-6.828125-6.824218-6.828125-3.769532 0-6.824219 3.054687-6.828126 6.828125zm0 0"/><path d="m163.09375 61.4375c-.011719 7.535156-6.117188 13.636719-13.652344 13.652344-7.535156-.015625-13.640625-6.117188-13.652344-13.652344 0-3.773438-3.058593-6.828125-6.828124-6.828125-3.769532 0-6.828126 3.054687-6.828126 6.828125.007813 15.082031 12.226563 27.300781 27.308594 27.304688 15.082032-.003907 27.300782-12.222657 27.304688-27.304688 0-3.773438-3.054688-6.828125-6.824219-6.828125s-6.824219 3.054687-6.828125 6.828125zm0 0"/><path d="m251.839844 232.101562c0-41.472656-21.394532-75.089843-47.785156-75.089843-26.390626 0-47.785157 33.617187-47.785157 75.089843 0 41.472657 21.394531 75.09375 47.785157 75.09375 26.390624 0 47.785156-33.621093 47.785156-75.09375zm0 0"/><path d="m251.839844 232.101562h6.828125c-.015625-21.910156-5.59375-41.84375-15.0625-56.765624-4.746094-7.449219-10.496094-13.671876-17.171875-18.109376-6.652344-4.4375-14.316406-7.054687-22.378906-7.042968-8.0625-.011719-15.726563 2.605468-22.378907 7.042968-10.007812 6.675782-17.953125 17.285157-23.519531 30.191407-5.550781 12.929687-8.710938 28.25-8.714844 44.683593.015625 21.914063 5.59375 41.847657 15.0625 56.765626 4.746094 7.453124 10.496094 13.671874 17.171875 18.113281 6.652344 4.4375 14.316407 7.050781 22.378907 7.042969 8.0625.007812 15.726562-2.605469 22.378906-7.042969 10.007812-6.675781 17.953125-17.285157 23.519531-30.195313 5.550781-12.925781 8.710937-28.25 8.714844-44.683594h-13.652344c.015625 19.5625-5.105469 37.175782-12.929687 49.433594-3.902344 6.140625-8.449219 10.914063-13.207032 14.074219-4.78125 3.164063-9.691406 4.75-14.824218 4.761719-5.132813-.011719-10.042969-1.601563-14.824219-4.761719-7.144531-4.722656-13.789063-13.15625-18.527344-24.21875-4.753906-11.039063-7.613281-24.617187-7.609375-39.289063-.015625-19.558593 5.105469-37.175781 12.929688-49.433593 3.902343-6.136719 8.445312-10.914063 13.207031-14.074219 4.78125-3.160156 9.691406-4.75 14.824219-4.757812 5.132812.007812 10.042968 1.597656 14.824218 4.757812 7.144532 4.726562 13.789063 13.160156 18.527344 24.21875 4.753906 11.042969 7.613281 24.617188 7.609375 39.289062zm0 0"/></g><path d="m379.78125 120.019531s0 31.601563-37.800781 36.863281c-30.585938 4.265626-70.679688-54.484374-108.671875-52.660156-12.546875.605469-23.652344 6.855469-30.53125 17.359375-6.871094-10.503906-17.984375-16.71875-30.53125-17.359375-35.699219-1.824218-78.082032 56.925782-108.671875 52.660156-37.800781-5.265624-37.800781-36.863281-37.800781-36.863281s-14.171876 68.460938 37.800781 84.257813c51.976562 15.800781 133.988281-25.308594 139.203125-33.308594 5.214844 8 87.226562 49.109375 139.203125 33.308594 51.976562-15.792969 37.800781-84.257813 37.800781-84.257813zm0 0" fill="#8065c4"/><path d="m379.78125 120.019531h-6.828125 2.164063l-2.164063-.039062v.039062h2.164063l-2.164063-.039062c.019531.246093-.25 7.089843-4.246094 13.855469-1.996093 3.402343-4.855469 6.824218-9.1875 9.75-4.339843 2.914062-10.214843 5.378906-18.480469 6.535156-.734374.101562-1.503906.152344-2.304687.15625-5.339844.050781-12.332031-2.59375-20.128906-7.304688-11.722657-6.992187-24.949219-18.105468-38.816407-27.675781-6.953124-4.78125-14.101562-9.191406-21.527343-12.480469-7.414063-3.277344-15.167969-5.460937-23.207031-5.464844-.699219 0-1.414063.015626-2.136719.054688h.0625c-14.617188.667969-27.886719 8.117188-35.914063 20.4375l5.714844 3.742188 5.710938-3.738282c-8.03125-12.332031-21.304688-19.730468-35.894532-20.441406-.640625-.035156-1.304687-.054688-1.992187-.054688-10.324219.035157-20.179688 3.890626-29.703125 9.117188-14.269532 7.894531-28.128906 19.199219-41.0625 28.3125-6.445313 4.554688-12.632813 8.554688-18.277344 11.300781-5.644531 2.773438-10.675781 4.210938-14.730469 4.195313-.800781-.003906-1.582031-.054688-2.339843-.15625l.023437.003906c-8.53125-1.199219-14.511719-3.78125-18.890625-6.824219-6.53125-4.558593-9.71875-10.355469-11.394531-15.210937-.828125-2.414063-1.238281-4.554688-1.441407-6.035156-.097656-.738282-.144531-1.308594-.167968-1.667969l-.015625-.363281-.003907-.003907c0-3.503906-2.644531-6.433593-6.128906-6.789062s-6.671875 1.976562-7.382812 5.40625c-.058594.308593-1.902344 9.230469-1.90625 21.644531.019531 11.371094 1.511718 25.734375 7.828125 39.144531 3.160156 6.695313 7.570312 13.140625 13.605469 18.621094 6.027343 5.480469 13.660156 9.941406 22.972656 12.765625 9.058594 2.746094 18.722656 3.871094 28.582031 3.875 26.113281-.03125 53.75-7.824219 75.703125-16.390625 10.972656-4.296875 20.496094-8.796875 27.695312-12.734375 3.601563-1.976562 6.617188-3.800781 9.023438-5.460938 1.203125-.835937 2.257812-1.625 3.203125-2.441406.949219-.84375 1.789063-1.605468 2.699219-2.957031l-5.71875-3.730469-5.71875 3.730469c.910156 1.351563 1.75 2.113281 2.699218 2.957031 1.765626 1.515625 3.949219 3.015625 6.710938 4.714844 9.585938 5.871094 26.042969 13.800781 45.558594 20.429688 19.5 6.597656 41.933594 11.867187 63.359375 11.882812 9.859375 0 19.519531-1.125 28.578125-3.875 9.3125-2.820312 16.949218-7.285156 22.972656-12.765625 9.066406-8.226563 14.425781-18.574219 17.496094-28.792969 3.074218-10.238281 3.933594-20.4375 3.9375-28.972656-.003906-12.414062-1.847656-21.335938-1.90625-21.644531-.710938-3.429688-3.898438-5.761719-7.382813-5.40625-3.480469.355469-6.128906 3.289062-6.128906 6.789062h6.828125l-6.683594 1.386719.007813.039062c.136719.675782 1.621093 8.476563 1.617187 18.835938.015625 10.132812-1.457031 22.660156-6.515625 33.3125-2.527343 5.339844-5.90625 10.222656-10.441406 14.34375-4.546875 4.117188-10.265625 7.523438-17.769531 9.8125-7.441406 2.261719-15.792969 3.285156-24.609375 3.285156-23.367188.03125-49.84375-7.257812-70.726563-15.453125-10.445312-4.085937-19.519531-8.386719-26.117187-11.996093-3.289063-1.800782-5.96875-3.4375-7.808594-4.710938-.917969-.632812-1.625-1.179688-2.046875-1.542969l-.386719-.363281-.011719-.011719-1.804687 1.601563 2.015625-1.316406-.210938-.285157-1.804687 1.601563 2.015625-1.316406c-1.261719-1.933594-3.414062-3.097657-5.71875-3.097657-2.308594 0-4.460938 1.167969-5.71875 3.097657l2.457031 1.601562-2.277343-1.855469-.179688.25 2.453125 1.601563-2.273437-1.851563.808593.65625-.78125-.691406-.027343.035156.808593.65625-.78125-.6875c.007813.042969-1.371093 1.253907-3.410156 2.566407-7.292969 4.828124-23.355469 12.917968-42.402344 19.550781-19.070312 6.675781-41.320312 11.980469-61.285156 11.960937-8.816406 0-17.167969-1.023437-24.613281-3.285156-7.503906-2.289062-13.222656-5.695312-17.765625-9.8125-6.792969-6.167969-11.03125-14.113281-13.597657-22.621094-2.558593-8.484375-3.367187-17.445312-3.359374-25.039062 0-5.523438.417968-10.320313.828124-13.695313.207032-1.6875.414063-3.019531.566407-3.910156l.175781-.996094.042969-.230469.011719-.039062-6.6875-1.386719h-6.824219c.023437.667969.015625 9.609375 5.574219 19.757813 2.785156 5.054687 7.035156 10.375 13.296874 14.726562 6.253907 4.363282 14.445313 7.707032 24.8125 9.140625l.027344.003907c1.382813.1875 2.777344.277343 4.171875.277343 9.511719-.058593 18.5-4 27.449219-9.207031 13.394531-7.875 26.96875-19.101562 40.226562-28.164062 6.605469-4.53125 13.101563-8.511719 19.222657-11.273438 6.128906-2.773438 11.820312-4.289062 16.871093-4.28125l1.292969.039062c10.507813.570313 19.453125 5.597657 25.167969 14.277344 1.261719 1.929688 3.40625 3.089844 5.714844 3.089844 2.304687 0 4.449218-1.160156 5.710937-3.085938 5.726563-8.695312 14.671875-13.746093 25.144531-14.28125l.066407-.003906 1.355469-.035156c7.332031-.023438 15.457031 2.757812 24.003906 7.433594 12.824218 6.972656 26.226562 17.960937 39.371094 27.457031 6.589843 4.746094 13.136718 9.128906 19.773437 12.433594 6.628906 3.289062 13.421875 5.585937 20.53125 5.597656 1.382813.003906 2.78125-.085937 4.183594-.28125 10.371093-1.4375 18.566406-4.777344 24.816406-9.140625 9.417969-6.546875 14.203125-15.191406 16.511719-22 2.328125-6.839844 2.355468-11.976562 2.363281-12.480469h-6.828125l-6.683594 1.382813zm0 0" fill="#54596e"/><path d="m217.707031 197.96875h20.480469v20.480469h-20.480469zm0 0" fill="#fff"/><path d="m169.921875 197.96875h20.480469v20.480469h-20.480469zm0 0" fill="#fff"/></svg>