<svg height="427pt" viewBox="0 -5 427.74177 427" width="427pt" xmlns="http://www.w3.org/2000/svg"><path d="m268.101562 176.464844.058594-.097656c.738282-1.183594 8.273438-12.957032 17.703125-24.015626 4.691407-5.519531 9.886719-10.84375 14.574219-14.460937 2.328125-1.808594 4.519531-3.171875 6.28125-3.976563 1.765625-.820312 3.023438-1.027343 3.566406-1.019531l.484375.058594.023438.007813c7.976562 2.632812 15.40625 4.574218 22.980469 4.605468 3.277343 0 6.597656-.394531 9.855468-1.394531 4.890625-1.46875 9.519532-4.445313 13.039063-8.519531 3.554687-4.070313 6.105469-9.042969 8.035156-14.820313 1.628906-4.878906 2.5625-9.355469 3.214844-13.15625.488281-2.847656.828125-5.316406 1.148437-7.222656.234375-1.425781.46875-2.535156.652344-3.175781l.167969-.515625.035156-.09375-3.515625-1.761719 1.996094 3.273438c.960937-.558594 1.523437-1.457032 1.523437-1.511719l-3.515625-1.761719 1.992188 3.273438-2.21875-3.640626 1.015625 4.15625 1.203125-.515624-2.21875-3.640626 1.015625 4.15625-.542969-2.214843.25 2.265625.292969-.050782-.542969-2.214843.25 2.265625-.054688-.511719.027344.515625.027344-.003906-.054688-.511719.027344.515625h.050782c.347656-.03125 2.253906.210938 5.289062 1.246094l.015625.003906c6.253906 2.082031 12.8125 3.082031 19.238281 3.085938 8.257813-.035157 16.335938-1.574219 23.359375-5.652344 3.484375-2.050782 6.734375-4.847656 9.132813-8.558594 2.410156-3.683594 3.800781-8.285156 3.777344-12.96875 0-3.117188-.566407-6.253906-1.597657-9.339844-1.789062-5.363281-7.589843-8.261718-12.953125-6.472656-5.363281 1.789062-8.261718 7.589844-6.472656 12.953125.429688 1.289063.542969 2.21875.542969 2.859375-.027344.960938-.171875 1.304688-.5 1.855469-.464844.769531-1.898438 2.089843-4.667969 3.132812-2.71875 1.046875-6.53125 1.726563-10.621094 1.714844-4.242187.003906-8.777344-.699219-12.761718-2.035156l.011718.003906c-4.21875-1.390625-7.855468-2.277344-11.789062-2.308594-2.277344-.003906-4.742188.351563-7.144532 1.375-2.097656.878907-4.046874 2.296875-5.480468 3.890625-2.542969 2.839844-3.601563 5.773438-4.324219 8.28125-1.035156 3.8125-1.394531 7.261719-2.007813 10.953125-.589843 3.671875-1.339843 7.511719-2.699218 11.585938-1.773438 5.3125-3.730469 7.796875-5.207032 8.957031-.765624.601562-1.480468.976562-2.449218 1.28125-.964844.296875-2.210938.492188-3.84375.496094-3.757813.03125-9.492188-1.191406-16.503906-3.558594l.023437.011719c-2.335937-.789063-4.734375-1.128907-7.011719-1.125-4.597656.011719-8.730468 1.296875-12.480468 3.058593-6.550782 3.128907-12.285157 7.828126-17.707032 13.046876-8.074218 7.835937-15.273437 16.988281-20.59375 24.273437-5.304687 7.273437-8.675781 12.664063-8.769531 12.8125-3 4.796875-1.539063 11.113281 3.253906 14.113281 4.792969 2.992188 11.113281 1.539063 14.113281-3.257812zm0 0" fill="#ff927d"/><path d="m286.722656 136.902344 83.515625-99.167969c-22.570312-19.027344-51.683593-30.539063-83.515625-30.539063-29.0625 0-55.804687 9.683594-77.441406 25.835938-8.449219-7.558594-19.566406-12.179688-31.78125-12.179688-26.402344 0-47.792969 21.390626-47.792969 47.78125 0 19.960938 12.246094 37.042969 29.628907 44.195313-1.464844 7.8125-2.320313 15.835937-2.320313 24.074219 0 71.632812 58.074219 129.707031 129.707031 129.707031 71.632813 0 129.707032-58.074219 129.707032-129.707031z" fill="#ffb8f2"/><path d="m286.722656 136.902344 5.222656 4.398437 83.511719-99.171875c2.429688-2.886718 2.0625-7.183594-.820312-9.617187-23.730469-20.011719-54.429688-32.148438-87.914063-32.140625-30.59375-.007813-58.789062 10.207031-81.523437 27.183594l4.082031 5.476562 4.546875-5.097656c-9.613281-8.601563-22.371094-13.910156-36.328125-13.910156-30.167969.007812-54.609375 24.449218-54.617188 54.613281.007813 22.8125 13.996094 42.34375 33.855469 50.507812l2.597657-6.3125-6.710938-1.257812c-1.535156 8.167969-2.4375 16.625-2.4375 25.332031 0 75.410156 61.125 136.53125 136.53125 136.53125 75.410156 0 136.53125-61.121094 136.53125-136.53125 0-1.800781-.730469-3.554688-1.996094-4.828125-1.273437-1.265625-3.03125-1.996094-4.828125-1.996094h-129.707031v6.820313l5.222656 4.398437-5.21875-4.398437v6.824218h129.707032v-6.824218h-6.824219c-.007813 33.953125-13.746094 64.628906-35.992188 86.886718-22.261719 22.253907-52.9375 35.988282-86.890625 35.996094-33.953125-.007812-64.628906-13.742187-86.890625-35.996094-22.246093-22.257812-35.984375-52.933593-35.992187-86.886718 0-7.761719.808594-15.363282 2.203125-22.808594.601562-3.183594-1.113281-6.34375-4.109375-7.578125-14.898438-6.144531-25.40625-20.769531-25.402344-37.878906.007812-11.328125 4.574219-21.527344 12-28.960938 7.4375-7.425781 17.632812-11.996093 28.96875-11.996093 10.480469 0 19.957031 3.945312 27.238281 10.441406 2.421875 2.167968 6.019531 2.328125 8.628907.378906 20.523437-15.316406 45.8125-24.46875 73.355468-24.476562 30.171875.007812 57.707032 10.894531 79.109375 28.933593l4.402344-5.222656-5.21875-4.402344-83.515625 99.175781c-1.714844 2.027344-2.085938 4.871094-.96875 7.273438 1.121094 2.410156 3.539062 3.945312 6.191406 3.945312z" fill="#54596e"/><path d="m20.484375 409.972656-13.65625-61.441406 50.957031-3.414062-16.824218-51.199219 46.410156.949219-19.101563-62.390626h61.4375l-40.957031-61.441406h81.917969l-40.960938 191.148438-63.710937 47.789062z" fill="#f4a14e"/><path d="m20.484375 409.972656 6.660156-1.480468-11.929687-53.679688 43.027344-2.886719c2.121093-.144531 4.023437-1.238281 5.207031-2.992187 1.183593-1.757813 1.488281-3.933594.824219-5.945313l-13.816407-42.046875 36.777344.75c2.191406.046875 4.265625-.960937 5.585937-2.707031 1.324219-1.75 1.722657-4.019531 1.082032-6.113281l-16.402344-53.570313h52.210938c2.527343 0 4.828124-1.378906 6.019531-3.601562 1.191406-2.234375 1.058593-4.910157-.335938-7.011719l-33.886719-50.828125h60.71875l-38.652343 180.398437-59.859375 44.882813h-43.230469v6.832031l6.660156-1.480468-6.660156 1.480468v6.824219h45.511719c1.488281 0 2.90625-.472656 4.089844-1.371094l63.71875-47.785156c1.308593-.984375 2.238281-2.429687 2.578124-4.027344l40.964844-191.148437c.433594-2.03125-.070312-4.109375-1.371094-5.722656-1.304687-1.613282-3.238281-2.53125-5.308593-2.53125h-81.917969c-2.527344 0-4.828125 1.378906-6.019531 3.609374-1.191407 2.222657-1.058594 4.902344.335937 7.003907l33.886719 50.828125h-48.683594c-2.164062 0-4.195312 1.027344-5.488281 2.765625-1.289062 1.742187-1.675781 3.984375-1.035156 6.054687l16.335937 53.375-36.976562-.757812c-2.21875-.046875-4.3125.984375-5.628907 2.769531-1.320312 1.777344-1.695312 4.082031-.996093 6.183594l14.078125 42.84375-42.183594 2.832031c-1.996094.128906-3.808594 1.117188-5.007812 2.71875-1.199219 1.601562-1.632813 3.617188-1.199219 5.574219l13.652343 61.441406c.695313 3.113281 3.46875 5.34375 6.664063 5.34375z" fill="#54596e"/><path d="m177.5 150.558594s-34.136719 116.050781-88.75 170.664062l-81.921875 88.75h275.554687c31.878907 0 55.8125-29.601562 48.644532-60.664062-3.097656-13.4375-8.324219-26.238282-16.996094-34.910156-27.308594-27.308594-13.660156-81.925782-13.660156-81.925782z" fill="#ffb8f2"/><path d="m170.949219 148.628906s-.125.40625-.378907 1.246094c-1.921874 6.300781-11.140624 35.628906-26.171874 69.5625-14.980469 33.933594-35.945313 72.496094-60.476563 96.960938l-.183594.191406-81.925781 88.746094c-1.84375 2-2.328125 4.878906-1.238281 7.371093 1.097656 2.492188 3.539062 4.089844 6.253906 4.089844h275.554687c15.898438.007813 30.148438-6.523437 40.320313-16.796875 10.183594-10.269531 16.425781-24.355469 16.433594-39.570312 0-4.164063-.476563-8.414063-1.453125-12.664063-3.292969-14.113281-8.761719-28.066406-18.824219-38.199219-5.804687-5.804687-9.585937-13.222656-11.921875-21.367187-2.328125-8.132813-3.152344-16.929688-3.144531-25 0-8.085938.8125-15.441407 1.625-20.726563.40625-2.644531.808593-4.769531 1.113281-6.21875.144531-.722656.269531-1.273437.351562-1.632812l.097657-.398438.019531-.097656c.917969-3.65625-1.308594-7.359375-4.964844-8.269531-3.65625-.917969-7.363281 1.308593-8.277344 4.964843-.078124.328126-3.609374 14.40625-3.617187 32.378907 0 8.980469.882813 18.957031 3.671875 28.753906 2.785156 9.765625 7.546875 19.421875 15.390625 27.269531 7.28125 7.207032 12.265625 18.859375 15.171875 31.613282.75 3.242187 1.101562 6.453124 1.101562 9.59375.007813 11.4375-4.695312 22.113281-12.464843 29.953124-7.78125 7.832032-18.492188 12.746094-30.628907 12.753907h-259.960937l71.34375-77.289063-5.015625-4.625 4.828125 4.828125c28.4375-28.519531 50.730469-71.722656 66.296875-107.949219 15.523438-36.226562 24.117188-65.449218 24.171875-65.621093 1.0625-3.613281-1.011719-7.410157-4.628906-8.472657-3.613281-1.066406-7.410157 1.007813-8.46875 4.621094" fill="#54596e"/><path d="m270.054688 212.261719v.003906l24.640624 16.425781z" fill="#dda5d8"/><path d="m304.703125 314.113281c3.183594 28.863281-19.726563 54.890625-49.625 54.890625h-201.152344l-31.507812 34.136719h259.964843c12.136719-.007813 22.84375-4.925781 30.628907-12.757813 7.769531-7.835937 12.472656-18.511718 12.464843-29.953124 0-3.140626-.351562-6.347657-1.101562-9.59375-2.90625-12.753907-7.894531-24.40625-15.171875-31.609376-1.628906-1.628906-3.125-3.339843-4.5-5.113281m-34.648437-101.847656c-1.347657 18.359375.203124 44.699219 16.667968 61.167969 1.5625 1.5625 3.011719 3.261718 4.359375 5.074218-.683593-5.273437-.945312-10.4375-.945312-15.308593.007812-17.96875 3.539062-32.042969 3.617187-32.378907.195313-.777343.519532-1.496093.941406-2.128906z" fill="#dda5d8"/><path d="m294.695312 228.691406c-.421874.632813-.746093 1.351563-.941406 2.128906-.074218.332032-3.609375 14.410157-3.617187 32.378907 0 4.871093.261719 10.035156.945312 15.308593 6.125 8.238282 10.097657 18.820313 12.636719 29.839844.445312 1.929688.773438 3.851563.980469 5.765625 1.375 1.773438 2.871093 3.484375 4.503906 5.113281 7.277344 7.203126 12.265625 18.859376 15.171875 31.613282.75 3.242187 1.101562 6.453125 1.101562 9.59375.007813 11.4375-4.695312 22.113281-12.464843 29.953125-7.785157 7.832031-18.492188 12.746093-30.628907 12.753906h-259.960937l31.507813-34.132813h-9.289063l-37.8125 40.964844h275.554687c31.882813 0 55.816407-29.601562 48.648438-60.660156-3.101562-13.4375-8.328125-26.242188-17-34.914062-27.308594-27.304688-13.65625-81.921876-13.65625-81.921876z" fill="#54596e"/><path d="m192.390625 51.15625c-8-8-20.964844-8-28.960937 0-8.003907 7.996094-8.003907 20.964844 0 28.960938" fill="#ffb8f2"/><path d="m197.21875 46.328125c-5.3125-5.320313-12.34375-8.007813-19.308594-8-6.964844-.007813-13.996094 2.675781-19.308594 8-5.316406 5.3125-8.003906 12.339844-7.996093 19.308594-.007813 6.964843 2.679687 13.988281 8 19.304687 2.664062 2.664063 6.984375 2.664063 9.652343 0 2.664063-2.664062 2.667969-6.984375.003907-9.648437-2.683594-2.691407-3.996094-6.144531-4.003907-9.65625.007813-3.519531 1.320313-6.96875 4-9.652344 2.683594-2.683594 6.132813-3.996094 9.652344-4.003906 3.515625.007812 6.972656 1.320312 9.65625 4.003906 2.667969 2.664063 6.988282 2.664063 9.65625 0 2.664063-2.667969 2.664063-6.988281-.003906-9.65625zm0 0" fill="#54596e"/></svg>