<svg height="437pt" viewBox="0 -12 437.43077 437" width="437pt" xmlns="http://www.w3.org/2000/svg"><path d="m246.894531 23.082031 45.964844 78.722657c4.613281 7.902343 12.4375 13.488281 21.507813 15.359374l90.394531 18.636719c24.550781 5.0625 34.25 34.390625 17.417969 52.667969l-61.984376 67.292969c-6.21875 6.75-9.210937 15.792969-8.214843 24.84375l9.894531 90.246093c2.691406 24.507813-22.699219 42.636719-45.589844 32.550782l-84.277344-37.136719c-8.453124-3.726563-18.125-3.726563-26.582031 0l-84.277343 37.136719c-22.886719 10.085937-48.277344-8.042969-45.589844-32.550782l9.898437-90.246093c.992188-9.050781-1.996093-18.09375-8.214843-24.84375l-61.980469-67.292969c-16.832031-18.277344-7.136719-47.609375 17.414062-52.667969l90.390625-18.636719c9.070313-1.871093 16.894532-7.457031 21.507813-15.359374l45.972656-78.722657c12.476563-21.382812 43.859375-21.382812 56.347656 0zm0 0" fill="#ffd578"/><path d="m246.894531 23.082031-5.894531 3.441407 45.964844 78.726562c5.605468 9.59375 15.082031 16.34375 26.023437 18.597656l90.394531 18.636719c6.484376 1.347656 11.476563 4.691406 14.984376 9.125 3.496093 4.4375 5.417968 9.992187 5.410156 15.566406-.015625 5.835938-2.015625 11.640625-6.625 16.671875l-61.980469 67.289063c-6.589844 7.148437-10.210937 16.453125-10.207031 26.046875 0 1.386718.074218 2.773437.226562 4.167968l9.898438 90.246094c.105468.957032.15625 1.898438.15625 2.824219-.011719 7.070313-2.945313 13.207031-7.667969 17.742187-4.726563 4.519532-11.199219 7.257813-17.96875 7.253907-3.460937-.003907-7.015625-.699219-10.578125-2.265625l.003906.003906-84.277344-37.136719c-5.105468-2.253906-10.578124-3.375-16.042968-3.375s-10.9375 1.121094-16.042969 3.375l-84.277344 37.136719c-3.558593 1.5625-7.109375 2.257812-10.574219 2.261719-6.769531.007812-13.238281-2.730469-17.964843-7.253907-4.726563-4.539062-7.660157-10.675781-7.667969-17.75 0-.917968.050781-1.863281.152344-2.8125l9.898437-90.25c.152344-1.390624.230469-2.785156.230469-4.167968 0-9.59375-3.621094-18.898438-10.210938-26.046875l-61.980468-67.292969c-4.601563-5.019531-6.605469-10.832031-6.625-16.671875-.003906-5.574219 1.914062-11.128906 5.414062-15.566406 3.507813-4.433594 8.496094-7.773438 14.980469-9.121094l90.394531-18.636719c10.945313-2.253906 20.417969-9.003906 26.023438-18.597656l45.972656-78.726562c4.953125-8.464844 13.480469-12.617188 22.277344-12.65625 8.800781.039062 17.328125 4.191406 22.285156 12.65625l5.894531-3.441407 5.894531-3.445312c-7.53125-12.917969-20.9375-19.457031-34.074218-19.421875-13.136719-.035156-26.542969 6.503906-34.070313 19.421875l-45.96875 78.726562c-3.621093 6.203125-9.796875 10.628907-16.992187 12.113281l-90.390625 18.636719c-9.640625 1.972657-17.574219 7.191407-22.957031 14.046875-5.390626 6.859375-8.33203175 15.328125-8.335938 24.011719-.0195312 9.058594 3.285156 18.394531 10.234375 25.921875l61.984375 67.292969c4.277344 4.640625 6.59375 10.632812 6.59375 16.796875 0 .886718-.046875 1.785156-.148438 2.679687l-9.894531 90.242188c-.160156 1.449219-.238281 2.886719-.238281 4.308593-.007812 10.980469 4.683594 20.757813 11.886719 27.621094 7.207031 6.878906 16.964843 11.027344 27.402343 11.035156 5.316407.003907 10.792969-1.089843 16.078126-3.421874l84.277343-37.136719c3.347657-1.476563 6.941407-2.214844 10.539063-2.214844s7.191406.738281 10.535156 2.214844l84.28125 37.136719.003906.003906c5.28125 2.324218 10.757813 3.417968 16.070313 3.417968 10.4375-.007812 20.199219-4.15625 27.402343-11.035156 7.203126-6.859375 11.898438-16.636718 11.886719-27.617187 0-1.421875-.078125-2.863281-.234375-4.3125l-9.898437-90.242188c-.097657-.898437-.148438-1.792969-.148438-2.679687.003907-6.160156 2.320313-12.148438 6.601563-16.796875l61.984375-67.292969c6.945312-7.527344 10.25-16.863281 10.230469-25.921875-.003907-8.679687-2.941407-17.152344-8.335938-24.007813-5.382812-6.859374-13.3125-12.078124-22.957031-14.050781l-90.390625-18.636719c-7.195313-1.484374-13.371094-5.910156-16.992188-12.113281l-45.964844-78.726562zm0 0" fill="#54596e"/><path d="m266.238281 193.960938c0 26.390624-21.394531 47.789062-47.785156 47.789062s-47.785156-21.398438-47.785156-47.789062c0-26.390626 21.394531-47.785157 47.785156-47.785157s47.785156 21.394531 47.785156 47.785157zm0 0" fill="#fff"/><path d="m266.238281 193.960938h6.828125c-.003906-30.164063-24.445312-54.609376-54.613281-54.613282-30.167969.003906-54.609375 24.449219-54.613281 54.613282.003906 30.164062 24.445312 54.609374 54.613281 54.613281 30.164063-.003907 54.609375-24.449219 54.613281-54.613281h-13.652344c-.003906 11.332031-4.574218 21.527343-11.996093 28.960937-7.433594 7.425781-17.628907 11.996094-28.964844 12-11.332031-.003906-21.53125-4.574219-28.964844-12-7.421875-7.429687-11.992187-17.628906-11.996093-28.960937.003906-11.332032 4.574218-21.527344 11.996093-28.964844 7.433594-7.421875 17.632813-11.992188 28.964844-11.996094 11.335937.003906 21.53125 4.574219 28.964844 11.996094 7.421875 7.433594 11.992187 17.632812 11.996093 28.964844zm0 0" fill="#54596e"/><path d="m238.933594 187.136719c0 11.308593-9.167969 20.476562-20.480469 20.476562-11.308594 0-20.480469-9.167969-20.480469-20.476562 0-11.3125 9.171875-20.480469 20.480469-20.480469 11.3125 0 20.480469 9.167969 20.480469 20.480469zm0 0" fill="#54596e"/><path d="m279.894531 187.136719c0-33.933594-27.507812-61.441407-61.441406-61.441407s-61.441406 27.507813-61.441406 61.441407zm0 0" fill="#ffd578"/><path d="m279.894531 187.136719h6.824219c-.003906-37.707031-30.558594-68.265625-68.265625-68.269531-37.707031.003906-68.261719 30.5625-68.265625 68.269531 0 1.820312.710938 3.535156 2 4.824219 1.289062 1.289062 3.003906 2 4.824219 2h122.882812c1.820313 0 3.535157-.710938 4.824219-2 1.292969-1.289063 2-3.003907 2-4.824219h-6.824219v-6.828125h-122.882812v6.828125h6.828125c.003906-15.105469 6.101562-28.714844 15.996094-38.621094 9.902343-9.894531 23.511718-15.992187 38.617187-15.996094 15.101563.003907 28.714844 6.101563 38.617187 15.996094 9.894532 9.90625 15.992188 23.515625 15.996094 38.621094h6.828125v-6.828125zm0 0" fill="#54596e"/><path d="m255.484375 332.242188c-3.632813-5.101563-9.039063-8.8125-15.382813-11.402344-6.359374-2.574219-13.746093-3.996094-21.648437-4-7.328125.003906-14.210937 1.230468-20.246094 3.453125-6.023437 2.238281-11.242187 5.453125-15.09375 9.808593-2.488281 2.832032-2.207031 7.144532.625 9.632813 2.828125 2.492187 7.144531 2.210937 9.632813-.621094 1.867187-2.148437 5.195312-4.40625 9.570312-6.011719 4.367188-1.617187 9.726563-2.609374 15.511719-2.605468 6.238281-.003906 11.984375 1.152344 16.519531 2.996094 4.554688 1.828124 7.800782 4.375 9.347656 6.617187 2.171876 3.082031 6.433594 3.820313 9.511719 1.648437 3.085938-2.171874 3.824219-6.429687 1.652344-9.515624zm0 0" fill="#54596e"/><g fill="#fff35f"><path d="m232.105469 50.601562c0 7.539063-6.113281 13.652344-13.652344 13.652344s-13.652344-6.113281-13.652344-13.652344c0-7.539062 6.113281-13.652343 13.652344-13.652343s13.652344 6.113281 13.652344 13.652343zm0 0"/><path d="m232.105469 98.386719c0 7.542969-6.113281 13.65625-13.652344 13.65625s-13.652344-6.113281-13.652344-13.65625c0-7.539063 6.113281-13.652344 13.652344-13.652344s13.652344 6.113281 13.652344 13.652344zm0 0"/><path d="m334.507812 187.136719c0 7.539062-6.113281 13.652343-13.65625 13.652343-7.539062 0-13.652343-6.113281-13.652343-13.652343 0-7.542969 6.113281-13.65625 13.652343-13.65625 7.542969 0 13.65625 6.113281 13.65625 13.65625zm0 0"/><path d="m382.292969 173.480469c0 7.542969-6.113281 13.65625-13.652344 13.65625-7.542969 0-13.652344-6.113281-13.652344-13.65625 0-7.539063 6.109375-13.652344 13.652344-13.652344 7.539063 0 13.652344 6.113281 13.652344 13.652344zm0 0"/><path d="m129.707031 187.136719c0 7.539062-6.113281 13.652343-13.652343 13.652343-7.542969 0-13.65625-6.113281-13.65625-13.652343 0-7.542969 6.113281-13.65625 13.65625-13.65625 7.539062 0 13.652343 6.113281 13.652343 13.65625zm0 0"/><path d="m81.921875 173.480469c0 7.542969-6.113281 13.65625-13.65625 13.65625-7.539063 0-13.652344-6.113281-13.652344-13.65625 0-7.539063 6.113281-13.652344 13.652344-13.652344 7.542969 0 13.65625 6.113281 13.65625 13.652344zm0 0"/></g><path d="m333.359375 265.175781s0 20.515625-24.539063 23.929688c-19.859374 2.765625-45.886718-35.371094-70.546874-34.183594-8.144532.390625-15.355469 4.449219-19.820313 11.269531-4.460937-6.820312-11.671875-10.851562-19.820313-11.269531-23.175781-1.1875-50.6875 36.949219-70.550781 34.183594-24.535156-3.414063-24.535156-23.929688-24.535156-23.929688s-9.203125 44.445313 24.535156 54.699219c33.746094 10.257812 86.984375-16.429688 90.371094-21.621094 3.386719 5.191406 56.628906 31.878906 90.367187 21.621094 33.742188-10.253906 24.539063-54.699219 24.539063-54.699219zm0 0" fill="#999"/><path d="m333.359375 265.175781h-6.828125 3.804688l-3.804688-.074219v.074219h3.804688l-3.804688-.074219-.046875.648438c-.152344 1.535156-.875 5.308594-3.332031 8.636719-2.503906 3.304687-6.445313 6.652343-15.273438 7.960937l-1.167968.074219c-2.738282.054687-6.945313-1.429687-11.835938-4.398437-7.363281-4.382813-15.949219-11.582032-25.074219-17.886719-4.582031-3.152344-9.335937-6.089844-14.363281-8.320313-5.019531-2.21875-10.371094-3.75-16.03125-3.753906l-1.554688.042969.417969 6.816406-.324219-6.820313c-10.222656.460938-19.59375 5.71875-25.207031 14.351563l5.714844 3.738281 5.710937-3.738281c-5.621093-8.644531-14.996093-13.863281-25.183593-14.347656h.003906l-1.421875-.039063c-7.332031.03125-14.070312 2.726563-20.4375 6.21875-9.535156 5.28125-18.570312 12.667969-26.882812 18.515625-4.132813 2.925781-8.066407 5.453125-11.535157 7.144531-3.472656 1.710938-6.417969 2.5-8.511719 2.480469l-1.222656-.082031.050782.007812c-5.214844-.738281-8.710938-2.28125-11.226563-4.023437-3.734375-2.609375-5.523437-5.875-6.5-8.683594-.476563-1.390625-.714844-2.632812-.828125-3.464843l-.089844-.90625-.011718-.164063-2.386719.070313h2.390625v-.070313l-2.386719.070313h2.386719c0-3.503907-2.644532-6.433594-6.128906-6.789063-3.484376-.355469-6.671876 1.976563-7.382813 5.40625-.058594.308594-1.28125 6.238281-1.289063 14.539063.019532 7.597656.992188 17.242187 5.3125 26.4375 2.164063 4.582031 5.207032 9.039062 9.386719 12.835937 4.171875 3.796875 9.464844 6.875 15.824219 8.804687 6.167969 1.867188 12.671875 2.613282 19.253906 2.617188 17.433594-.03125 35.578125-5.179688 50.019532-10.804688 7.214843-2.824218 13.476562-5.78125 18.253906-8.394531 2.394531-1.3125 4.414062-2.53125 6.074218-3.675781.832032-.578125 1.574219-1.136719 2.28125-1.746094.710938-.632812 1.378907-1.21875 2.191407-2.421875l-5.714844-3.730469-5.71875 3.730469c.8125 1.203125 1.480469 1.785157 2.191406 2.421875 1.3125 1.128906 2.808594 2.144532 4.667969 3.292969 6.441406 3.9375 17.214844 9.121094 30.058594 13.484375 12.828125 4.335938 27.597656 7.828125 41.902344 7.84375 6.582031-.003906 13.085937-.75 19.246093-2.617188h.003907c6.359374-1.925781 11.65625-5.011718 15.828124-8.804687 6.28125-5.707031 9.957032-12.84375 12.039063-19.777344 2.085937-6.953125 2.65625-13.792969 2.660156-19.5-.003906-8.296875-1.226562-14.226562-1.289062-14.535156-.707031-3.429687-3.894531-5.765625-7.378907-5.40625-3.484374.355469-6.132812 3.289063-6.132812 6.789063h6.828125l-6.683594 1.386718v.003906c.070313.335938 1.007813 5.257813 1.003907 11.761719.015624 6.363281-.933594 14.175781-4 20.605469-1.527344 3.226562-3.542969 6.121094-6.222657 8.5625-2.691406 2.433594-6.066406 4.457031-10.621093 5.851562h.003906c-4.554688 1.378907-9.746094 2.027344-15.28125 2.027344-14.691406.03125-31.675782-4.613281-45.042969-9.867187-6.6875-2.613281-12.5-5.371094-16.675781-7.65625-2.082032-1.140625-3.761719-2.167969-4.859375-2.925781l-1.125-.847657-.089844-.078125-.003906-.003906-2.445313 2.390625 2.855469-1.863281-.410156-.53125-2.445313 2.394531 2.855469-1.863281c-1.257813-1.933594-3.410156-3.097656-5.714844-3.097656-2.308593 0-4.460937 1.164062-5.71875 3.09375l3.011719 1.96875-2.613281-2.484376-.398438.515626 3.015625 1.96875-2.617187-2.484376.222656.210938-.210937-.222656-.011719.011718.222656.210938-.210937-.222656c-.117188.128906-1.085938.890625-2.460938 1.746094-4.921875 3.121093-15.210938 8.203124-27.207031 12.304687-12.007813 4.136719-25.875 7.34375-38.128907 7.328125-5.539062.003906-10.730468-.644531-15.28125-2.027344-4.550781-1.390625-7.925781-3.417968-10.617187-5.851562-4.011719-3.640625-6.566406-8.375-8.140625-13.601563-1.574219-5.199219-2.085938-10.796875-2.082031-15.5625 0-3.464843.261719-6.488281.523437-8.601562.128906-1.054688.257813-1.886719.347656-2.433594l.105469-.601563.023438-.128906.003906-.003906-6.6875-1.386719h-6.824219c.023438.667969.015625 6.839844 3.917969 13.984375 1.953125 3.550782 4.960937 7.3125 9.359375 10.367188 4.386719 3.066406 10.089844 5.367187 17.144531 6.339844l.046875.007812c.980469.128906 1.984375.199219 3.007813.199219 6.898437-.058594 13.046875-2.839844 19.03125-6.304688 8.941406-5.265625 17.761719-12.574219 26.257812-18.375 4.226563-2.902343 8.339844-5.410156 12.113281-7.113281 3.777344-1.714844 7.15625-2.574219 9.964844-2.566406l.714844.023437h.003906c6.105469.347657 11.148438 3.195313 14.457032 8.191407 1.261718 1.925781 3.40625 3.089843 5.714843 3.089843 2.304688 0 4.449219-1.164062 5.710938-3.089843 3.3125-5.007813 8.359375-7.863282 14.433593-8.191407l.09375-.003906.710938-.023437c4.164062-.019532 9.082031 1.601562 14.4375 4.539062 8.039062 4.359375 16.691406 11.433594 25.304688 17.664062 4.324218 3.113282 8.664062 6.027344 13.167968 8.277344 4.5 2.222656 9.238282 3.867188 14.398438 3.882813.996094.003906 2.015625-.0625 3.046875-.207031 7.054687-.972657 12.761719-3.273438 17.148437-6.339844 6.617188-4.597656 10.003906-10.710938 11.617188-15.472656 1.628906-4.796876 1.652344-8.367188 1.660156-8.878907h-6.828125l-6.683594 1.386719zm0 0" fill="#54596e"/></svg>