<svg height="436pt" viewBox="-19 0 436 436.90325" width="436pt" xmlns="http://www.w3.org/2000/svg"><path d="m144.941406 334.507812s-17.070312 0-34.136718 0c-26.394532 0-47.785157 21.398438-47.785157 47.785157v23.894531c0 13.195312 10.699219 23.894531 23.894531 23.894531 13.191407 0 23.890626-10.699219 23.890626-23.894531v-17.070312h34.136718z" fill="#f4a14e"/><path d="m144.941406 327.679688s-17.070312 0-34.136718 0c-30.164063.003906-54.609376 24.449218-54.613282 54.613281v23.894531c.003906 16.96875 13.75 30.714844 30.722656 30.714844 16.964844 0 30.707032-13.746094 30.714844-30.714844v-10.242188h27.3125c3.765625 0 6.820313-3.058593 6.820313-6.828124 0-3.765626-3.050781-6.820313-6.820313-6.820313l-34.136718-.003906c-1.796876 0-3.558594.726562-4.828126 2-1.273437 1.269531-2 3.03125-2 4.824219v17.070312c-.015624 9.421875-7.644531 17.046875-17.0625 17.066406-9.421874-.019531-17.050781-7.644531-17.066406-17.066406v-23.894531c0-11.332031 4.574219-21.527344 11.996094-28.964844 7.433594-7.421875 17.628906-11.988281 28.960938-11.996094h34.136718c3.769532 0 6.820313-3.058593 6.820313-6.824219 0-3.769531-3.050781-6.828124-6.820313-6.828124" fill="#54596e"/><path d="m254.167969 334.507812h34.128906c26.394531 0 47.785156 21.398438 47.785156 47.785157v23.894531c0 13.195312-10.699219 23.894531-23.890625 23.894531-13.195312 0-23.894531-10.699219-23.894531-23.894531v-17.070312h-34.128906z" fill="#f4a14e"/><path d="m254.167969 341.332031h34.128906c11.332031.007813 21.535156 4.578125 28.964844 11.996094 7.421875 7.433594 11.992187 17.632813 11.996093 28.964844v23.894531c-.015624 9.421875-7.644531 17.046875-17.066406 17.066406-9.421875-.019531-17.050781-7.644531-17.070312-17.066406v-17.070312c0-1.792969-.726563-3.554688-2-4.824219-1.269532-1.273438-3.023438-2-4.824219-2h-34.128906c-3.769531 0-6.828125 3.058593-6.828125 6.824219 0 3.769531 3.058594 6.828124 6.828125 6.828124h27.300781v10.242188c.007812 16.96875 13.761719 30.714844 30.722656 30.714844 16.96875 0 30.71875-13.746094 30.71875-30.714844v-23.894531c0-30.164063-24.445312-54.609375-54.613281-54.613281-17.070313 0-34.097656 0-34.128906 0-3.769531 0-6.828125 3.058593-6.828125 6.828124 0 3.765626 3.058594 6.824219 6.828125 6.824219" fill="#54596e"/><path d="m315.605469 232.109375c0-82.949219-51.960938-116.054687-116.050781-116.054687-64.09375 0-116.054688 33.105468-116.054688 116.054687 0 82.941406 51.960938 184.320313 116.054688 184.320313 64.089843 0 116.050781-101.378907 116.050781-184.320313" fill="#ff927d"/><path d="m315.605469 232.109375h6.828125c0-21.445313-3.363282-39.945313-9.609375-55.652344-9.332031-23.570312-25.296875-40.679687-45.09375-51.535156-19.804688-10.886719-43.277344-15.695313-68.179688-15.695313-33.167969-.003906-63.949219 8.558594-86.59375 28.648438-11.300781 10.019531-20.449219 22.882812-26.683593 38.582031-6.246094 15.707031-9.601563 34.207031-9.601563 55.652344.03125 42.886719 13.285156 89.851563 34.929687 126.71875 10.847657 18.429687 23.8125 34.351563 38.582032 45.847656 14.738281 11.480469 31.5 18.578125 49.367187 18.574219 17.871094.003906 34.621094-7.09375 49.359375-18.574219 22.140625-17.265625 40.300782-44.410156 53.175782-75.171875 12.835937-30.773437 20.332031-65.226562 20.34375-97.394531h-13.648438c.039062 40.054687-12.695312 85.242187-33.054688 119.800781-10.15625 17.289063-22.199218 31.890625-35.195312 41.988282-13.019531 10.121093-26.800781 15.695312-40.976562 15.703124-14.175782-.007812-27.957032-5.582031-40.984376-15.703124-19.511718-15.128907-36.796874-40.472657-48.953124-69.652344-12.183594-29.160156-19.300782-62.097656-19.289063-92.136719 0-20.03125 3.128906-36.769531 8.632813-50.605469 8.28125-20.734375 21.746093-35.09375 38.996093-44.617187 17.242188-9.496094 38.429688-14.011719 61.597657-14.011719 30.921874.007812 58.171874 8 77.527343 25.210938 9.699219 8.621093 17.554688 19.582031 23.058594 33.417968 5.503906 13.835938 8.640625 30.574219 8.640625 50.605469z" fill="#54596e"/><path d="m308.679688 225.996094c-16.183594 66.808594-58.933594 128.992187-109.125 128.992187-50.199219 0-92.945313-62.175781-109.125-128.988281-.066407 2.003906-.101563 4.035156-.101563 6.109375-.015625 30.039063 7.105469 62.972656 19.289063 92.136719 12.15625 29.179687 29.441406 54.519531 48.953124 69.652344 13.027344 10.117187 26.808594 15.695312 40.984376 15.703124 14.175781-.007812 27.957031-5.585937 40.976562-15.703124 12.996094-10.097657 25.039062-24.703126 35.195312-41.992188 20.359376-34.554688 33.09375-79.746094 33.054688-119.800781h6.824219-6.824219c-.003906-2.070313-.039062-4.105469-.101562-6.109375" fill="#ee8c7b"/><path d="m85.941406 202.925781c-1.589844 8.949219-2.441406 18.65625-2.441406 29.183594 0 82.949219 51.960938 184.320313 116.054688 184.320313s116.054687-101.371094 116.054687-184.320313h-6.828125c.039062 40.054687-12.695312 85.242187-33.054688 119.800781-10.15625 17.289063-22.195312 31.890625-35.191406 41.988282-13.023437 10.121093-26.800781 15.695312-40.980468 15.703124-14.175782-.007812-27.953126-5.582031-40.980469-15.703124-19.515625-15.128907-36.796875-40.472657-48.957031-69.652344-12.183594-29.160156-19.300782-62.097656-19.289063-92.136719 0-2.070313.035156-4.105469.101563-6.105469-1.855469-7.660156-3.363282-15.382812-4.488282-23.078125m227.226563 0c-1.128907 7.695313-2.632813 15.410157-4.488281 23.070313.066406 2.003906.101562 4.039062.101562 6.113281h6.824219c0-10.527344-.851563-20.234375-2.4375-29.183594" fill="#54596e"/><path d="m349.738281 40.960938c0 18.851562-15.28125 34.132812-34.132812 34.132812-18.851563 0-34.132813-15.28125-34.132813-34.132812 0-18.851563 15.28125-34.132813 34.132813-34.132813 18.851562 0 34.132812 15.28125 34.132812 34.132813zm0 0" fill="#fff"/><g fill="#54596e"><path d="m349.738281 40.960938h6.828125c-.003906-22.625-18.335937-40.95703175-40.960937-40.960938-22.628907.00390625-40.957031 18.335938-40.960938 40.960938.003907 22.621093 18.332031 40.953124 40.960938 40.957031 22.625-.003907 40.957031-18.335938 40.960937-40.957031h-13.65625c-.003906 7.5625-3.046875 14.34375-7.996094 19.304687-4.964843 4.953125-11.746093 7.996094-19.308593 8-7.566407-.003906-14.347657-3.046875-19.308594-8-4.953125-4.960937-7.996094-11.746094-8-19.304687.003906-7.566407 3.046875-14.347657 8-19.308594 4.960937-4.953125 11.742187-7.996094 19.308594-8 7.5625.003906 14.34375 3.046875 19.308593 8 4.949219 4.960937 7.992188 11.746094 7.996094 19.308594zm0 0"/><path d="m349.738281 40.960938c0-18.851563-15.28125-34.132813-34.132812-34.132813-18.855469 0-34.132813 15.28125-34.132813 34.132813zm0 0"/><path d="m329.257812 40.960938c0 7.539062-6.113281 13.652343-13.652343 13.652343-7.542969 0-13.652344-6.113281-13.652344-13.652343 0-7.542969 6.109375-13.652344 13.652344-13.652344 7.539062 0 13.652343 6.109375 13.652343 13.652344zm0 0"/><path d="m302.589844 170.300781c37.988281-3.753906 67.617187-35.773437 67.628906-74.726562.003906-18.113281-6.441406-34.789063-17.132812-47.75-2.402344-2.910157-6.703126-3.324219-9.613282-.925781-2.90625 2.398437-3.320312 6.703124-.921875 9.613281 8.761719 10.632812 14.011719 24.203125 14.015625 39.0625.011719 31.863281-24.28125 58.074219-55.320312 61.136719-3.753906.371093-6.492188 3.714843-6.125 7.464843.371094 3.753907 3.714844 6.496094 7.46875 6.125zm0 0"/><path d="m97.820312 156.710938c-31.035156-3.0625-55.328124-29.273438-55.316406-61.136719.003906-14.863281 5.246094-28.429688 14.011719-39.0625 2.402344-2.910157 1.988281-7.214844-.921875-9.609375-2.90625-2.398438-7.210938-1.984375-9.609375.921875-10.703125 12.960937-17.136719 29.636719-17.132813 47.75.011719 38.953125 29.636719 70.972656 67.628907 74.726562 3.75.371094 7.089843-2.375 7.464843-6.125.371094-3.75-2.371093-7.09375-6.125-7.464843zm0 0"/></g><path d="m110.804688 40.960938c0 18.851562-15.28125 34.132812-34.132813 34.132812s-34.132813-15.28125-34.132813-34.132812c0-18.851563 15.28125-34.132813 34.132813-34.132813s34.132813 15.28125 34.132813 34.132813zm0 0" fill="#fff"/><path d="m110.804688 40.960938h6.828124c-.003906-22.625-18.335937-40.95703175-40.960937-40.960938-22.628906.00390625-40.957031 18.335938-40.960937 40.960938.003906 22.621093 18.332031 40.953124 40.960937 40.957031 22.625-.003907 40.957031-18.335938 40.960937-40.957031h-13.65625c0 7.5625-3.046874 14.34375-7.996093 19.304687-4.960938 4.953125-11.746094 7.996094-19.308594 8-7.566406-.003906-14.347656-3.046875-19.308594-8-4.953125-4.960937-7.996093-11.746094-8-19.304687.003907-7.566407 3.046875-14.347657 8-19.308594 4.960938-4.953125 11.742188-7.996094 19.308594-8 7.5625.003906 14.347656 3.046875 19.308594 8 4.949219 4.960937 7.996093 11.746094 7.996093 19.308594zm0 0" fill="#54596e"/><path d="m110.804688 40.960938c0-18.851563-15.28125-34.132813-34.132813-34.132813-18.855469 0-34.132813 15.28125-34.132813 34.132813zm0 0" fill="#54596e"/><path d="m151.765625 266.238281h95.574219c11.3125 0 20.476562-9.167969 20.476562-20.476562 0-11.3125-9.164062-20.480469-20.476562-20.480469h-95.574219c-11.3125 0-20.480469 9.167969-20.480469 20.480469 0 11.308593 9.167969 20.476562 20.480469 20.476562zm0 0" fill="#54596e"/><path d="m90.324219 40.960938c0 7.539062-6.113281 13.652343-13.652344 13.652343-7.542969 0-13.652344-6.113281-13.652344-13.652343 0-7.542969 6.109375-13.652344 13.652344-13.652344 7.539063 0 13.652344 6.109375 13.652344 13.652344zm0 0" fill="#54596e"/><path d="m216.617188 245.761719h-40.960938c-1.882812 0-3.410156 1.527343-3.410156 3.410156v68.269531c0 13.195313 10.699218 23.890625 23.890625 23.890625 3.679687 0 7.128906-.898437 10.242187-2.382812v9.210937c0 11.308594 9.164063 20.480469 20.480469 20.480469 11.3125 0 20.480469-9.171875 20.480469-20.480469v-102.398437zm0 0" fill="#fff35f"/><path d="m216.617188 245.761719v-6.828125h-40.960938c-5.65625 0-10.238281 4.585937-10.238281 10.238281v68.269531c.003906 16.96875 13.753906 30.714844 30.71875 30.71875 4.800781 0 9.273437-1.183594 13.183593-3.054687l-2.941406-6.15625h-6.828125v9.210937c.003907 15.082032 12.21875 27.300782 27.308594 27.304688 15.082031-.003906 27.300781-12.222656 27.304687-27.304688v-102.398437c0-1.800781-.726562-3.558594-1.996093-4.828125-1.273438-1.273438-3.03125-2-4.828125-2h-30.71875v13.652344h23.890625v95.574218c-.011719 7.535156-6.113281 13.636719-13.652344 13.652344-7.539063-.015625-13.640625-6.117188-13.652344-13.652344v-9.210937c0-2.355469-1.195312-4.523438-3.183593-5.777344-1.988282-1.253906-4.464844-1.398437-6.585938-.386719-2.320312 1.105469-4.738281 1.71875-7.296875 1.722656-9.421875-.019531-17.050781-7.644531-17.066406-17.066406v-68.269531h-3.414063v3.414063c1.882813-.003907 3.410156-1.53125 3.414063-3.414063h-3.414063v3.414063h40.960938v-6.824219zm0 0" fill="#54596e"/><path d="m199.550781 245.761719v54.613281c0 3.769531 3.058594 6.824219 6.828125 6.824219 3.769532 0 6.824219-3.054688 6.824219-6.824219v-54.613281c0-3.773438-3.054687-6.828125-6.824219-6.828125-3.769531 0-6.828125 3.054687-6.828125 6.828125" fill="#54596e"/><path d="m328.777344 236.304688s-53.945313-19.875-75.738282-27.902344c8.257813-24.03125 43.71875-35.449219 80.867188-25.496094 38.238281 10.246094 63.699219 39.214844 56.863281 64.710938-6.824219 25.492187-43.363281 37.851562-81.597656 27.605468-12.652344-3.386718-23.855469-8.855468-33-15.539062zm0 0" fill="#f4a14e"/><path d="m328.777344 236.304688 2.363281-6.40625s-53.949219-19.875-75.742187-27.902344l-2.359376 6.40625 6.457032 2.21875c2.445312-7.113282 7.996094-13.117188 16.328125-17.53125 8.300781-4.386719 19.257812-6.964844 31.4375-6.957032 7.914062 0 16.332031 1.074219 24.871093 3.363282 15.976563 4.273437 29.476563 12.054687 38.753907 21.152344 9.320312 9.121093 14.203125 19.351562 14.164062 28.5 0 2.265624-.285156 4.492187-.875 6.707031-2.046875 7.597656-7.445312 13.945312-15.894531 18.675781-8.414062 4.695312-19.757812 7.472656-32.417969 7.464844-7.929687 0-16.371093-1.078125-24.925781-3.367188-11.851562-3.171875-22.304688-8.289062-30.738281-14.457031l-4.027344 5.511719 2.773437 6.238281 52.605469-23.378906c2.539063-1.132813 4.140625-3.679688 4.050781-6.460938-.089843-2.78125-1.851562-5.222656-4.460937-6.183593l-2.363281 6.40625-2.773438-6.238282-52.605468 23.378906c-2.230469.992188-3.757813 3.089844-4.015626 5.511719-.257812 2.425781.792969 4.800781 2.761719 6.238281 9.859375 7.199219 21.804688 13.011719 35.257813 16.617188 9.6875 2.59375 19.296875 3.832031 28.460937 3.832031 14.621094-.007812 28.132813-3.125 39.054688-9.183593 10.878906-6.015626 19.292969-15.273438 22.445312-27.082032.902344-3.375 1.34375-6.808594 1.339844-10.230468-.035156-13.992188-7.113281-27.320313-18.265625-38.257813-11.199219-10.957031-26.683594-19.726563-44.769531-24.582031-9.671875-2.59375-19.265625-3.828125-28.410157-3.828125-14.074218.003906-27.113281 2.90625-37.804687 8.53125-10.65625 5.597656-19.085937 14.140625-22.875 25.167969-1.207031 3.507812.617187 7.34375 4.09375 8.625 21.792969 8.03125 75.742187 27.90625 75.742187 27.90625l2.363282-6.40625-2.773438-6.238282zm0 0" fill="#54596e"/><path d="m70.386719 236.304688s53.945312-19.875 75.738281-27.902344c-8.257812-24.03125-43.71875-35.449219-80.867188-25.496094-38.238281 10.246094-63.699218 39.214844-56.871093 64.710938 6.832031 25.492187 43.371093 37.851562 81.605469 27.605468 12.652343-3.386718 23.855468-8.855468 33-15.539062zm0 0" fill="#f4a14e"/><path d="m70.386719 236.304688 2.359375 6.40625c.027344-.011719 13.484375-4.96875 29.699218-10.941407 16.210938-5.972656 35.144532-12.949219 46.039063-16.960937 3.480469-1.28125 5.300781-5.121094 4.097656-8.625-3.785156-11.03125-12.21875-19.570313-22.875-25.171875-10.691406-5.621094-23.730469-8.523438-37.808593-8.53125-9.144532 0-18.734376 1.234375-28.410157 3.832031-18.082031 4.855469-33.566406 13.625-44.769531 24.582031-11.152344 10.9375-18.230469 24.269531-18.265625 38.261719 0 3.414062.433594 6.851562 1.339844 10.226562 3.152343 11.808594 11.566406 21.0625 22.453125 27.082032 10.917968 6.054687 24.429687 9.171875 39.050781 9.183594 9.164063 0 18.773437-1.242188 28.460937-3.832032 13.453126-3.605468 25.402344-9.421875 35.261719-16.621094 1.972657-1.4375 3.019531-3.8125 2.761719-6.234374-.257812-2.425782-1.785156-4.523438-4.015625-5.511719l-52.605469-23.378907-2.773437 6.234376 2.359375 6.40625-2.359375-6.40625-2.773438 6.238281 52.605469 23.378906 2.773438-6.238281-4.027344-5.511719c-8.433594 6.167969-18.886719 11.28125-30.738282 14.457031-8.554687 2.289063-16.996093 3.367188-24.929687 3.367188-12.664063.007812-24.003906-2.769532-32.417969-7.464844-8.453125-4.730469-13.851562-11.078125-15.898437-18.679688-.59375-2.207031-.875-4.429687-.878907-6.691406-.035156-9.15625 4.847657-19.386718 14.171876-28.507812 9.273437-9.101563 22.777343-16.882813 38.75-21.152344 8.539062-2.292969 16.960937-3.367188 24.875-3.367188 12.183593-.007812 23.140624 2.570313 31.4375 6.957032 8.335937 4.414062 13.886718 10.417968 16.332031 17.53125l6.457031-2.21875-2.359375-6.40625c-21.792969 8.027344-75.742187 27.902344-75.742187 27.902344-2.609376.960937-4.371094 3.402343-4.460938 6.183593s1.507812 5.328125 4.050781 6.460938zm0 0" fill="#54596e"/><path d="m172.246094 157.011719v-37.546875c0-16.964844 12.226562-30.71875 27.304687-30.71875 15.082031 0 27.308594 13.753906 27.308594 30.71875v37.546875" fill="#ff927d"/><path d="m179.070312 157.011719v-37.546875c-.003906-6.835938 2.472657-12.914063 6.273438-17.1875 3.832031-4.277344 8.785156-6.695313 14.207031-6.707032 5.421875.011719 10.378907 2.429688 14.207031 6.707032 3.800782 4.273437 6.277344 10.351562 6.273438 17.1875v37.546875c0 3.773437 3.058594 6.828125 6.828125 6.828125s6.824219-3.054688 6.824219-6.828125v-37.546875c-.003906-10.128906-3.640625-19.410156-9.722656-26.257813-6.050782-6.839843-14.75-11.296875-24.410157-11.285156-9.65625-.011719-18.355469 4.445313-24.410156 11.285156-6.082031 6.847657-9.71875 16.128907-9.722656 26.257813v37.546875c0 3.773437 3.058593 6.828125 6.828125 6.828125 3.769531 0 6.824218-3.054688 6.824218-6.828125zm0 0" fill="#54596e"/></svg>