<svg height="423pt" viewBox="0 -3 423.25333 423" width="423pt" xmlns="http://www.w3.org/2000/svg"><path d="m68.265625 232.234375h-34.132813c-15.078124 0-27.304687-12.226563-27.304687-27.308594s12.226563-27.304687 27.304687-27.304687h34.132813zm0 0" fill="#9af43b"/><path d="m68.265625 232.234375v-6.828125h-34.132813c-11.304687-.023438-20.460937-9.171875-20.480468-20.480469.019531-11.308593 9.175781-20.457031 20.480468-20.480469h27.308594v47.789063h6.824219v-6.828125 6.828125h6.828125v-54.613281c0-1.800782-.730469-3.558594-2-4.828125-1.269531-1.273438-3.03125-2-4.828125-2h-34.132813c-18.851562.003906-34.12890575 15.277343-34.132812 34.132812.00390625 18.855469 15.28125 34.128907 34.132812 34.132813h34.132813c1.824219 0 3.539063-.707032 4.828125-2 1.289062-1.289063 2-3 2-4.824219zm0 0" fill="#54596e"/><path d="m354.988281 177.621094h34.132813c15.078125 0 27.304687 12.222656 27.304687 27.304687s-12.226562 27.308594-27.304687 27.308594h-34.132813zm0 0" fill="#9af43b"/><path d="m354.988281 177.621094v6.824218h34.132813c11.304687.023438 20.457031 9.171876 20.480468 20.484376-.023437 11.308593-9.175781 20.457031-20.480468 20.480468h-27.308594v-47.789062h-6.824219v6.824218-6.824218h-6.828125v54.613281c0 1.820313.710938 3.535156 2 4.824219 1.289063 1.292968 3.003906 2 4.828125 2h34.132813c18.851562-.003906 34.128906-15.277344 34.132812-34.128906-.003906-18.855469-15.28125-34.132813-34.132812-34.132813h-34.132813c-1.796875 0-3.558593.726563-4.828125 1.996094-1.269531 1.273437-2 3.03125-2 4.828125zm0 0" fill="#54596e"/><path d="m293.546875 307.328125h-163.839844c-49.015625 0-88.746093-39.734375-88.746093-88.75v-27.304687c0-49.015626 39.730468-88.746094 88.746093-88.746094h163.839844c49.011719 0 88.746094 39.730468 88.746094 88.746094v27.304687c0 49.015625-39.734375 88.75-88.746094 88.75zm0 0" fill="#9af43b"/><path d="m293.546875 307.328125v-6.828125h-163.839844c-22.644531-.003906-43.078125-9.160156-57.925781-23.996094-14.835938-14.84375-23.992188-35.28125-23.996094-57.925781v-27.304687c.003906-22.644532 9.160156-43.078126 23.996094-57.925782 14.847656-14.835937 35.28125-23.992187 57.925781-23.996094h163.839844c22.640625.007813 43.078125 9.160157 57.925781 23.996094 14.835938 14.847656 23.992188 35.285156 23.992188 57.925782v27.308593c0 22.640625-9.15625 43.078125-23.992188 57.925781-14.847656 14.832032-35.285156 23.988282-57.925781 23.992188v13.652344c52.785156-.003906 95.566406-42.785156 95.574219-95.570313v-27.308593c-.007813-52.785157-42.789063-95.566407-95.574219-95.570313h-163.839844c-52.785156.003906-95.570312 42.785156-95.574219 95.570313v27.308593c.003907 52.785157 42.789063 95.566407 95.574219 95.570313h163.839844zm0 0" fill="#54596e"/><path d="m204.800781 61.566406v40.960938c0 3.769531 3.054688 6.824218 6.824219 6.824218 3.773438 0 6.828125-3.054687 6.828125-6.824218v-40.960938c0-3.769531-3.054687-6.828125-6.828125-6.828125-3.769531 0-6.824219 3.058594-6.824219 6.828125" fill="#54596e"/><path d="m238.933594 34.261719c0 15.078125-12.226563 27.304687-27.308594 27.304687-15.078125 0-27.304688-12.226562-27.304688-27.304687 0-15.082031 12.226563-27.308594 27.304688-27.308594 15.082031 0 27.308594 12.226563 27.308594 27.308594zm0 0" fill="#9af43b"/><path d="m238.933594 34.261719h6.828125c-.007813-18.855469-15.28125-34.132813-34.136719-34.136719-18.851562.003906-34.125 15.28125-34.132812 34.136719.007812 18.851562 15.28125 34.125 34.132812 34.128906 18.855469-.003906 34.128906-15.277344 34.136719-34.128906h-13.65625c-.019531 11.308593-9.171875 20.457031-20.480469 20.476562-11.304688-.019531-20.457031-9.167969-20.476562-20.476562.019531-11.3125 9.171874-20.460938 20.476562-20.484375 11.308594.023437 20.460938 9.171875 20.480469 20.484375zm0 0" fill="#54596e"/><path d="m307.199219 198.101562c0 26.390626-21.394531 47.785157-47.785157 47.785157-26.390624 0-47.789062-21.394531-47.789062-47.785157 0-26.394531 21.398438-47.789062 47.789062-47.789062 26.390626 0 47.785157 21.394531 47.785157 47.789062zm0 0" fill="#fff"/><path d="m307.199219 198.101562h6.828125c-.003906-30.167968-24.445313-54.613281-54.613282-54.613281-30.167968 0-54.609374 24.445313-54.613281 54.613281.003907 30.160157 24.445313 54.605469 54.613281 54.609376 30.164063-.003907 54.609376-24.449219 54.613282-54.609376h-13.652344c-.003906 11.332032-4.574219 21.527344-11.996094 28.960938-7.4375 7.421875-17.632812 11.992188-28.964844 11.996094-11.335937-.003906-21.53125-4.574219-28.964843-11.996094-7.421875-7.433594-11.992188-17.628906-11.996094-28.960938.003906-11.335937 4.574219-21.53125 11.996094-28.964843 7.433593-7.425781 17.628906-11.992188 28.964843-12 11.332032.007812 21.527344 4.578125 28.964844 12 7.421875 7.433593 11.992188 17.628906 11.996094 28.964843zm0 0" fill="#54596e"/><path d="m211.625 198.101562c0 26.390626-21.394531 47.785157-47.785156 47.785157s-47.785156-21.394531-47.785156-47.785157c0-26.394531 21.394531-47.789062 47.785156-47.789062s47.785156 21.394531 47.785156 47.789062zm0 0" fill="#fff"/><g fill="#54596e"><path d="m211.625 198.101562h6.828125c-.003906-30.167968-24.445313-54.613281-54.613281-54.613281-30.167969 0-54.609375 24.445313-54.613282 54.613281.003907 30.160157 24.445313 54.605469 54.613282 54.609376 30.164062-.003907 54.609375-24.449219 54.613281-54.609376h-13.652344c-.003906 11.332032-4.574219 21.527344-11.996093 28.960938-7.433594 7.421875-17.628907 11.992188-28.964844 11.996094-11.332032-.003906-21.53125-4.574219-28.964844-11.996094-7.421875-7.433594-11.992188-17.628906-11.996094-28.960938.003906-11.335937 4.574219-21.53125 11.996094-28.964843 7.433594-7.425781 17.632812-11.992188 28.964844-12 11.335937.007812 21.53125 4.578125 28.964844 12 7.421874 7.433593 11.992187 17.628906 11.996093 28.964843zm0 0"/><path d="m252.585938 177.621094v40.957031c0 3.773437 3.058593 6.828125 6.828124 6.828125 3.769532 0 6.824219-3.054688 6.824219-6.828125v-40.957031c0-3.773438-3.054687-6.828125-6.824219-6.828125-3.769531 0-6.828124 3.058593-6.828124 6.828125"/><path d="m157.011719 177.621094v40.957031c0 3.773437 3.058593 6.828125 6.828125 6.828125 3.769531 0 6.828125-3.054688 6.828125-6.828125v-40.957031c0-3.773438-3.058594-6.828125-6.828125-6.828125-3.769532 0-6.828125 3.058593-6.828125 6.828125"/><path d="m182.074219 269.796875c5.882812 10.1875 16.933593 17.046875 29.550781 17.046875 12.621094 0 23.667969-6.859375 29.554688-17.046875 1.890624-3.261719.777343-7.4375-2.488282-9.328125-3.261718-1.886719-7.4375-.773438-9.324218 2.488281-3.5625 6.125-10.152344 10.238281-17.742188 10.234375-7.585938.003906-14.175781-4.109375-17.738281-10.238281-1.886719-3.261719-6.066407-4.375-9.328125-2.484375-3.261719 1.890625-4.375 6.066406-2.484375 9.328125zm0 0"/></g><path d="m163.839844 307.328125h95.574218v34.132813h-95.574218zm0 0" fill="#999"/><path d="m259.414062 341.460938v-6.828126h-88.746093v-20.484374h81.917969v27.3125h6.828124v-6.828126 6.828126h6.824219v-34.132813c0-1.800781-.726562-3.558594-2-4.828125-1.269531-1.269531-3.027343-2-4.824219-2h-95.574218c-1.796875 0-3.554688.726562-4.828125 2-1.269531 1.273438-2 3.03125-2 4.828125v34.132813c0 1.820312.710937 3.535156 2 4.824218 1.292969 1.292969 3.003906 2 4.828125 2h95.574218c1.820313 0 3.535157-.707031 4.824219-1.996094 1.292969-1.292968 2-3.003906 2-4.828124zm0 0" fill="#54596e"/><path d="m163.839844 341.460938h95.574218v34.132812h-95.574218zm0 0" fill="#9af43b"/><path d="m259.414062 375.59375v-6.828125h-88.746093v-20.480469h81.917969v27.308594h6.828124v-6.828125 6.828125h6.824219v-34.132812c0-1.800782-.726562-3.558594-2-4.828126-1.269531-1.269531-3.027343-2-4.824219-2h-95.574218c-1.796875 0-3.554688.726563-4.828125 2-1.269531 1.273438-2 3.03125-2 4.828126v34.132812c0 1.824219.710937 3.535156 2 4.824219 1.292969 1.292969 3.003906 2.003906 4.828125 2.003906h95.574218c1.820313 0 3.535157-.710937 4.824219-2 1.292969-1.289063 2-3.003906 2-4.828125zm0 0" fill="#54596e"/><path d="m163.839844 375.59375h95.574218v34.132812h-95.574218zm0 0" fill="#999"/><path d="m259.414062 409.726562v-6.828124h-88.746093v-20.480469h81.917969v27.308593h6.828124v-6.828124 6.828124h6.824219v-34.132812c0-1.800781-.726562-3.558594-2-4.828125-1.269531-1.269531-3.027343-2-4.824219-2h-95.574218c-1.796875 0-3.554688.726563-4.828125 2-1.269531 1.273437-2 3.03125-2 4.828125v34.132812c0 1.824219.710937 3.535157 2 4.828126 1.292969 1.289062 3.003906 2 4.828125 2h95.574218c1.820313 0 3.535157-.710938 4.824219-2 1.292969-1.289063 2-3.003907 2-4.828126zm0 0" fill="#54596e"/></svg>