<svg height="423pt" viewBox="-20 0 423 423.27043" width="423pt" xmlns="http://www.w3.org/2000/svg"><path d="m259.546875 88.765625c0 37.699219-30.5625 68.265625-68.265625 68.265625s-68.265625-30.566406-68.265625-68.265625c0-37.703125 30.5625-68.269531 68.265625-68.269531s68.265625 30.566406 68.265625 68.269531zm0 0" fill="#fff"/><path d="m259.546875 88.765625h6.828125c-.003906-41.480469-33.617188-75.089844-75.09375-75.09375-41.476562.003906-75.089844 33.613281-75.09375 75.09375.003906 41.472656 33.617188 75.085937 75.09375 75.089844 41.476562-.003907 75.089844-33.617188 75.09375-75.089844h-13.652344c-.003906 16.984375-6.867187 32.300781-17.996094 43.441406-11.140624 11.128907-26.457031 17.992188-43.445312 17.996094-16.988281-.003906-32.304688-6.867187-43.445312-17.996094-11.128907-11.140625-17.992188-26.457031-17.992188-43.441406 0-16.988281 6.863281-32.308594 17.992188-43.445313 11.140624-11.128906 26.457031-17.992187 43.445312-18 16.988281.007813 32.304688 6.867188 43.445312 18 11.128907 11.136719 17.992188 26.457032 17.996094 43.445313zm0 0" fill="#54596e"/><path d="m214.6875 182.871094c0 12.121094-9.824219 21.945312-21.941406 21.945312-12.121094 0-21.941406-9.824218-21.941406-21.945312 0-12.117188 17.550781-39.496094 21.941406-39.496094 4.386718.003906 21.941406 27.378906 21.941406 39.496094zm0 0" fill="#55a6ff"/><path d="m232.242188 95.589844c0 22.621094-18.339844 40.960937-40.960938 40.960937s-40.960938-18.339843-40.960938-40.960937 18.339844-40.960938 40.960938-40.960938 40.960938 18.339844 40.960938 40.960938zm0 0" fill="#55a6ff"/><path d="m211.761719 95.589844c0 11.3125-9.167969 20.480468-20.480469 20.480468-11.308594 0-20.480469-9.167968-20.480469-20.480468 0-11.308594 9.171875-20.480469 20.480469-20.480469 11.3125 0 20.480469 9.171875 20.480469 20.480469zm0 0" fill="#54596e"/><path d="m259.546875 92.175781c0-37.703125-30.5625-68.265625-68.265625-68.265625s-68.265625 30.5625-68.265625 68.265625zm0 0" fill="#54596e"/><path d="m293.480469 94.347656c.105469-1.859375.203125-3.71875.203125-5.582031 0-28.300781-11.878906-55.609375-32.589844-74.914063-5.511719-5.148437-14.152344-4.828124-19.296875.671876-5.144531 5.519531-4.839844 14.160156.675781 19.300781 15.414063 14.367187 23.902344 33.878906 23.902344 54.941406 0 14.398437-4.082031 28.386719-11.808594 40.445313-4.066406 6.351562-2.21875 14.792968 4.132813 18.867187 2.28125 1.457031 4.828125 2.152344 7.351562 2.152344 4.5 0 8.902344-2.21875 11.507813-6.285157 4.464844-6.96875 7.976562-14.417968 10.613281-22.164062 37.34375 16.910156 60.125 42.84375 60.125 69.382812 0 48.105469-71.90625 88.746094-157.015625 88.746094s-157.011719-40.640625-157.011719-88.746094c0-26.5625 22.773438-52.46875 60.125-69.375 2.640625 7.75 6.160157 15.207032 10.628907 22.175782 2.605468 4.066406 7.007812 6.285156 11.503906 6.285156 2.523437 0 5.074218-.691406 7.355468-2.160156 6.351563-4.066406 8.195313-12.511719 4.125-18.859375-7.730468-12.066407-11.820312-26.0625-11.820312-40.464844 0-22.386719 9.886719-43.441406 27.125-57.777344 5.796875-4.816406 6.589844-13.433593 1.769531-19.226562-4.828125-5.8125-13.441406-6.597657-19.230469-1.773438-23.492187 19.542969-36.96875 48.25-36.96875 78.777344 0 1.863281.097657 3.71875.195313 5.570313-51.535156 21.371093-82.117187 57.171874-82.117187 96.828124 0 65.074219 80.964843 116.054688 184.320312 116.054688 103.359375 0 184.320312-50.980469 184.320312-116.054688 0-39.625-30.59375-75.445312-82.121093-96.816406zm0 0" fill="#adf2a2"/><path d="m293.480469 94.347656 6.816406.378906c.105469-1.875.210937-3.859374.210937-5.960937-.007812-30.214844-12.652343-59.292969-34.757812-79.910156-3.917969-3.664063-8.976562-5.507813-13.953125-5.5-5.457031-.007813-10.96875 2.195312-14.988281 6.507812-3.667969 3.933594-5.511719 8.984375-5.503906 13.96875-.007813 5.457031 2.203124 10.964844 6.511718 14.980469 14.058594 13.128906 21.714844 30.730469 21.730469 49.953125 0 13.105469-3.707031 25.800781-10.730469 36.761719-2.179687 3.398437-3.238281 7.257812-3.234375 11.035156-.011719 6.722656 3.34375 13.347656 9.425781 17.257812 3.414063 2.1875 7.273438 3.238282 11.042969 3.234376 6.722657.011718 13.351563-3.335938 17.257813-9.425782 4.777344-7.460937 8.523437-15.417968 11.328125-23.644531l-6.460938-2.203125-2.816406 6.21875c17.957031 8.125 32.191406 18.359375 41.730469 29.34375 9.5625 11.015625 14.378906 22.554688 14.378906 33.820312-.007812 10.289063-3.800781 20.351563-11.164062 30.019532-11.003907 14.476562-30.136719 27.632812-54.394532 36.960937-24.246094 9.351563-53.527344 14.945313-84.625 14.941407-41.464844.019531-79.710937-9.964844-107.066406-25.449219-13.683594-7.726563-24.609375-16.808594-31.957031-26.453125-7.359375-9.667969-11.15625-19.730469-11.164063-30.019532 0-11.277343 4.816406-22.816406 14.378906-33.828124 9.539063-10.976563 23.769532-21.207032 41.734376-29.328126l-2.8125-6.21875-6.460938 2.199219c2.804688 8.238281 6.558594 16.199219 11.339844 23.660157 3.90625 6.089843 10.53125 9.4375 17.253906 9.425781 3.769531.003906 7.636719-1.046875 11.046875-3.242188 6.082031-3.898437 9.433594-10.527343 9.421875-17.246093.003906-3.78125-1.058594-7.644532-3.246094-11.046876-7.023437-10.960937-10.734375-23.660156-10.734375-36.773437.007813-20.375 8.972657-39.472656 24.660157-52.527344 4.859374-4.039062 7.394531-9.90625 7.386718-15.757812.003906-4.597657-1.5625-9.28125-4.734375-13.085938-4.03125-4.855469-9.898437-7.4062498-15.753906-7.394531-4.601563-.0078125-9.292969 1.566406-13.101563 4.753906l.015626-.011718c-25.046876 20.820312-39.445313 51.480468-39.4375 84.023437 0 2.097656.105468 4.078125.207031 5.9375l6.816406-.367187-2.613281-6.304688c-26.566406 11.019531-48.011719 25.84375-62.972656 43.441406-14.953126 17.5625-23.371094 38.074219-23.355469 59.691406-.011719 17.695313 5.546875 34.464844 15.394531 49.347657 14.792969 22.351562 39.050781 40.632812 69.355469 53.433593 30.324219 12.789063 66.792969 20.09375 106.394531 20.097657 52.800781-.019531 100.035156-12.964844 134.554688-34.671875 17.25-10.867188 31.339843-23.957032 41.195312-38.859375 9.847656-14.882813 15.402344-31.648438 15.394531-49.347657.015625-21.601562-8.40625-42.109374-23.363281-59.675781-14.964844-17.597656-36.410156-32.425781-62.96875-43.449219l-2.613281 6.308594 6.816406.378906-6.816406-.378906-2.613281 6.304688c24.964843 10.347656 44.582031 24.113281 57.796874 39.675781 13.222657 15.59375 20.097657 32.8125 20.109376 50.832031-.007813 14.839844-4.570313 28.847656-13.132813 41.824219-12.820313 19.441406-34.832031 36.390625-63.273437 48.378906-28.417969 11.996094-63.171876 19.027344-101.085938 19.027344-50.554688.015625-95.480469-12.527344-127.28125-32.578125-15.910156-10.011719-28.519531-21.871094-37.078125-34.828125-8.558594-12.976563-13.125-26.984375-13.132813-41.824219.015626-18.039062 6.886719-35.257812 20.109376-50.851562 13.210937-15.558594 32.824218-29.320313 57.796874-39.667969 2.664063-1.105469 4.355469-3.792969 4.199219-6.671875-.097656-1.84375-.1875-3.578125-.1875-5.203125.007813-28.511719 12.566407-55.265625 34.511719-73.527344l.011719-.011719c1.289062-1.070312 2.785156-1.570312 4.339843-1.578124 1.976563.011718 3.886719.824218 5.257813 2.472656 1.074219 1.296875 1.574219 2.800781 1.578125 4.359375-.007812 1.984375-.824219 3.898437-2.460938 5.257812-18.785156 15.617188-29.589843 38.621094-29.582031 63.027344-.003906 15.695313 4.457031 30.980469 12.898438 44.148437.738281 1.15625 1.078125 2.402344 1.082031 3.667969-.011719 2.269531-1.101562 4.449219-3.144531 5.757813-1.164063.746094-2.394531 1.078125-3.667969 1.082031-2.269531-.007813-4.453125-1.101563-5.761719-3.144531-4.152343-6.476563-7.4375-13.429688-9.910156-20.691406-.621094-1.824219-1.984375-3.300782-3.75-4.066407-1.765625-.761719-3.773437-.746093-5.527344.046875-19.390625 8.78125-35.21875 19.960938-46.40625 32.804688-11.164062 12.8125-17.734375 27.507812-17.734375 42.792968-.007812 13.761719 5.183594 26.820313 13.964844 38.300782 13.207031 17.25 34.382812 31.386718 60.335938 41.417968 25.972656 10.007813 56.804687 15.847657 89.539062 15.851563 43.648438-.019531 83.910156-10.355469 113.78125-27.214844 14.933594-8.445312 27.300781-18.546875 36.09375-30.050781 8.78125-11.484375 13.972656-24.542969 13.964844-38.304688 0-15.273437-6.570313-29.96875-17.734375-42.78125-11.1875-12.847656-27.015625-24.035156-46.402344-32.820312-1.753906-.792969-3.761719-.808594-5.527344-.042969-1.769531.765625-3.128906 2.238281-3.75 4.0625-2.472656 7.261719-5.753906 14.207031-9.898437 20.683594-1.308594 2.039063-3.488282 3.128906-5.761719 3.140625-1.273437-.003906-2.511719-.339844-3.671875-1.074219-2.042969-1.316406-3.132812-3.5-3.144531-5.769531.003906-1.261719.339843-2.507812 1.082031-3.667969 8.429688-13.15625 12.890625-28.4375 12.886719-44.125.019531-22.902343-9.296875-44.328125-26.070313-59.933593-1.457031-1.367188-2.164062-3.152344-2.171875-5 .007813-1.6875.59375-3.316407 1.835938-4.652344 1.355469-1.453125 3.144531-2.164063 5.003906-2.171875 1.683594.007812 3.304687.59375 4.636719 1.832031 19.320312 18.003906 30.425781 43.535156 30.421875 69.925781 0 1.632813-.089844 3.363281-.191407 5.203125-.160156 2.902344 1.515626 5.570313 4.199219 6.683594zm0 0" fill="#54596e"/><path d="m285.554688 279.910156h-47.03125c.320312-2.234375.542968-4.503906.542968-6.828125 0-26.390625-21.394531-47.785156-47.785156-47.785156-26.394531 0-47.789062 21.394531-47.789062 47.785156 0 2.324219.226562 4.59375.542968 6.828125h-47.027344c-42.1875 0-76.390624 34.203125-76.390624 76.394532v22.078124c0 21.023438 17.039062 38.0625 38.0625 38.0625h265.207031c21.023437 0 38.0625-17.039062 38.0625-38.0625v-22.078124c0-42.191407-34.203125-76.394532-76.394531-76.394532zm0 0" fill="#adf2a2"/><g fill="#54596e"><path d="m285.554688 279.910156v-6.828125h-47.03125v6.828125l6.757812.964844c.347656-2.433594.613281-5.03125.613281-7.792969-.003906-30.164062-24.445312-54.609375-54.613281-54.613281-30.167969.003906-54.609375 24.449219-54.613281 54.613281 0 2.761719.265625 5.359375.613281 7.792969l6.757812-.964844v-6.828125h-47.03125c-45.960937.003907-83.214843 37.257813-83.21875 83.222657v22.078124c.003907 24.792969 20.09375 44.882813 44.890626 44.886719h265.207031c24.796875-.003906 44.886719-20.089843 44.890625-44.886719v-22.078124c-.003906-45.964844-37.257813-83.21875-83.222656-83.222657v13.652344c19.234374.007813 36.582031 7.777344 49.191406 20.375 12.601562 12.613281 20.375 29.960937 20.378906 49.191406v22.082031c-.003906 8.644532-3.488281 16.410157-9.148438 22.085938-5.675781 5.660156-13.441406 9.140625-22.089843 9.148438h-265.207031c-8.648438-.007813-16.414063-3.488282-22.089844-9.148438-5.660156-5.675781-9.144532-13.441406-9.144532-22.085938v-22.082031c0-19.230469 7.773438-36.582031 20.375-49.191406 12.609376-12.597656 29.957032-20.371094 49.191407-20.375h47.03125c1.972656 0 3.863281-.859375 5.15625-2.351563 1.292969-1.496093 1.878906-3.484374 1.601562-5.441406-.292969-2.035156-.476562-3.976562-.476562-5.859375.003906-11.332031 4.574219-21.53125 11.996093-28.964843 7.433594-7.421876 17.632813-11.992188 28.964844-11.996094 11.335938.003906 21.53125 4.574218 28.964844 11.996094 7.421875 7.433593 11.992188 17.632812 11.996094 28.964843 0 1.882813-.183594 3.824219-.476563 5.859375-.277343 1.957032.308594 3.945313 1.601563 5.441406 1.296875 1.492188 3.183594 2.351563 5.15625 2.351563h47.03125v-6.824219zm0 0"/><path d="m294.085938 389.136719c10.085937.023437 16.367187-10.742188 11.652343-19.667969-21.707031-41.085938-64.816406-69.078125-114.457031-69.078125-49.433594 0-92.394531 27.761719-114.1875 68.570313-4.75 8.902343 1.492188 19.691406 11.570312 19.714843l83.449219-8.554687c12.75-1.304688 25.597657-1.277344 38.339844.082031zm0 0"/><path d="m294.085938 389.136719v6.824219l.542968-.019532-.511718-6.597656v6.617188l.511718-.019532-.511718-6.597656v6.617188c5.757812.019531 10.9375-2.4375 14.453124-6.164063 3.535157-3.722656 5.585938-8.699219 5.589844-13.980469.003906-3.191406-.769531-6.488281-2.386718-9.542968-22.832032-43.234376-68.234376-72.707032-120.488282-72.710938-52.039062.003906-97.285156 29.234375-120.210937 72.179688-1.640625 3.066406-2.433594 6.390624-2.425781 9.609374.007812 5.277344 2.050781 10.246094 5.574218 13.964844 3.507813 3.726563 8.675782 6.183594 14.421875 6.183594l.71875-.035156 83.449219-8.554688c6.011719-.613281 12.046875-.925781 18.078125-.925781 6.289063.003906 12.574219.335937 18.835937 1.003906l83.632813 8.933594.726563.039063v-6.824219l.722656-6.789063-83.628906-8.933594c-6.746094-.722656-13.515626-1.082031-20.289063-1.082031-6.5 0-13 .335938-19.472656.996094l-83.449219 8.554687.695312 6.789063.023438-6.824219c-1.976562-.027344-3.40625-.746094-4.5625-1.933594-1.140625-1.191406-1.832031-2.878906-1.824219-4.5625 0-1.035156.234375-2.082031.816407-3.175781 20.664062-38.667969 61.335937-64.964843 108.164062-64.960937 47.023438-.003906 87.839844 26.511718 108.421875 65.441406.570313 1.085938.800781 2.132812.804687 3.160156.007813 1.691406-.6875 3.378906-1.828124 4.574219-1.164063 1.183594-2.589844 1.902344-4.5625 1.917969l-.542969.023437.511719 6.597657v-6.617188l-.511719.019531.511719 6.597657v-6.617188 6.824219l.726562-6.789063zm0 0"/></g><path d="m245.894531 365.242188c0-13.195313-24.449219-23.890626-54.613281-23.890626s-54.613281 10.695313-54.613281 23.890626c0 3.3125 1.542969 6.464843 4.324219 9.332031l39.785156-4.679688c6.980468-.820312 14.03125-.820312 21.011718 0l39.78125 4.679688c2.78125-2.867188 4.324219-6.019531 4.324219-9.332031zm0 0" fill="#ffb8f2"/><path d="m177.628906 266.257812c0 3.769532-3.058594 6.824219-6.828125 6.824219s-6.824219-3.054687-6.824219-6.824219c0-3.769531 3.054688-6.828124 6.824219-6.828124s6.828125 3.058593 6.828125 6.828124zm0 0" fill="#54596e"/><path d="m211.761719 266.257812c0 3.769532-3.054688 6.824219-6.828125 6.824219-3.769532 0-6.824219-3.054687-6.824219-6.824219 0-3.769531 3.054687-6.828124 6.824219-6.828124 3.773437 0 6.828125 3.058593 6.828125 6.828124zm0 0" fill="#54596e"/></svg>