<svg height="436pt" viewBox="0 -34 436.90667 436" width="436pt" xmlns="http://www.w3.org/2000/svg"><path d="m266.726562 362.273438h-96.550781c-63.824219 0-115.5625-51.738282-115.5625-115.570313v-123.851563c0-63.832031 51.738281-115.570312 115.5625-115.570312h96.550781c63.824219 0 115.5625 51.738281 115.5625 115.570312v123.851563c0 63.832031-51.738281 115.570313-115.5625 115.570313" fill="#9af43b"/><path d="m266.726562 362.273438v-6.828126h-96.550781c-30.046875-.007812-57.1875-12.160156-76.886719-31.851562-19.6875-19.703125-31.847656-46.839844-31.847656-76.890625v-123.851563c0-30.050781 12.160156-57.195312 31.847656-76.894531 19.699219-19.6875 46.839844-31.84375 76.886719-31.847656h96.550781c30.046876.003906 57.191407 12.160156 76.894532 31.847656 19.6875 19.699219 31.84375 46.839844 31.847656 76.894531v123.851563c-.003906 30.050781-12.160156 57.1875-31.847656 76.890625-19.703125 19.691406-46.847656 31.84375-76.894532 31.851562v13.648438c67.601563 0 122.390626-54.789062 122.390626-122.390625v-123.851563c0-67.601562-54.789063-122.390624-122.390626-122.398437h-96.550781c-67.59375.007813-122.382812 54.792969-122.390625 122.398437v123.851563c.007813 67.601563 54.796875 122.390625 122.390625 122.390625h96.550781z" fill="#54596e"/><path d="m375.46875 244.953125c-16.054688 44.527344-58.679688 76.355469-108.742188 76.355469h-96.550781c-50.050781 0-92.675781-31.820313-108.734375-76.335938v1.730469c0 30.050781 12.160156 57.191406 31.847656 76.894531 19.699219 19.6875 46.839844 31.84375 76.886719 31.847656h96.550781c30.046876-.003906 57.191407-12.160156 76.894532-31.847656 19.6875-19.703125 31.84375-46.839844 31.847656-76.894531z" fill="#8cd545"/><path d="m382.289062 205.746094c0 13.761718-2.40625 26.964844-6.820312 39.207031v1.75c-.003906 30.050781-12.160156 57.1875-31.847656 76.890625-19.703125 19.691406-46.847656 31.84375-76.894532 31.851562h-96.550781c-30.046875-.007812-57.1875-12.160156-76.886719-31.851562-19.6875-19.703125-31.847656-46.839844-31.847656-76.890625v-1.734375c-4.421875-12.246094-6.828125-25.453125-6.828125-39.222656v40.957031c0 63.828125 51.738281 115.570313 115.5625 115.570313h96.550781c63.824219 0 115.5625-51.738282 115.5625-115.570313z" fill="#54596e"/><path d="m266.238281 198.429688c0 26.390624-21.394531 47.785156-47.785156 47.785156s-47.785156-21.394532-47.785156-47.785156c0-26.390626 21.394531-47.785157 47.785156-47.785157s47.785156 21.394531 47.785156 47.785157zm0 0" fill="#54596e"/><path d="m266.238281 198.429688h6.828125c-.003906-30.164063-24.445312-54.609376-54.613281-54.613282-30.167969.003906-54.609375 24.449219-54.613281 54.613282.003906 30.164062 24.445312 54.609374 54.613281 54.613281 30.164063-.003907 54.609375-24.449219 54.613281-54.613281h-13.652344c-.003906 11.332031-4.574218 21.527343-11.996093 28.960937-7.433594 7.425781-17.628907 11.996094-28.964844 12-11.332031-.003906-21.53125-4.574219-28.964844-12-7.421875-7.429687-11.992187-17.628906-11.996093-28.960937.003906-11.332032 4.574218-21.527344 11.996093-28.964844 7.433594-7.421875 17.632813-11.992188 28.964844-11.996094 11.332031.003906 21.53125 4.574219 28.964844 11.996094 7.421875 7.433594 11.992187 17.632812 11.996093 28.964844zm0 0" fill="#54596e"/><path d="m232.105469 184.777344-13.652344 13.652344-13.652344-13.652344v-27.308594l3.339844-1.667969c6.492187-3.246093 14.132813-3.246093 20.625 0l3.339844 1.667969zm0 0" fill="#fff"/><path d="m204.800781 228.460938 13.652344-13.652344 13.652344 13.652344v13.652343l-3.339844 1.667969c-6.492187 3.246094-14.132813 3.246094-20.625 0l-3.339844-1.667969zm0 0" fill="#fff"/><path d="m382.292969 212.082031v-54.613281h47.785156v6.828125c0 26.390625-21.390625 47.785156-47.785156 47.785156zm0 0" fill="#9af43b"/><path d="m382.292969 212.082031h6.828125v-47.789062h34.132812v.003906c-.003906 11.332031-4.574218 21.527344-11.996094 28.960937-7.433593 7.425782-17.628906 11.992188-28.964843 12v6.824219h6.828125-6.828125v6.828125c30.164062-.003906 54.609375-24.449218 54.613281-54.613281v-6.828125c0-1.796875-.726562-3.554688-2-4.828125-1.269531-1.269531-3.027344-1.996094-4.828125-1.996094h-47.785156c-1.796875 0-3.554688.726563-4.828125 1.996094-1.269532 1.273437-2 3.03125-2 4.828125v54.613281c0 1.824219.710937 3.539063 2.003906 4.828125 1.289062 1.289063 3 2 4.824219 2zm0 0" fill="#54596e"/><path d="m54.613281 212.082031v-54.613281h-47.785156v6.828125c0 26.390625 21.390625 47.785156 47.785156 47.785156zm0 0" fill="#9af43b"/><path d="m54.613281 212.082031h6.828125v-54.613281c0-1.796875-.730468-3.554688-2-4.828125-1.273437-1.269531-3.03125-1.996094-4.828125-1.996094h-47.785156c-1.796875 0-3.558594.726563-4.828125 1.996094-1.273438 1.273437-2 3.03125-2 4.828125v6.828125c.00390625 30.164063 24.445312 54.609375 54.613281 54.613281 1.824219 0 3.535157-.710937 4.828125-2 1.289063-1.289062 2-3.003906 2-4.828125h-6.828125v-6.824219c-11.332031-.007812-21.53125-4.578124-28.964843-12-7.421876-7.429687-11.992188-17.628906-11.996094-28.960937v-.003906h34.132812v47.789062h6.828125v-6.824219zm0 0" fill="#54596e"/><path d="m150.1875 89.203125c-17.679688 0-33.074219 9.625-41.339844 23.894531 8.265625 14.269532 23.65625 23.890625 41.339844 23.890625 17.679688 0 33.074219-9.621093 41.339844-23.890625-8.265625-14.269531-23.660156-23.894531-41.339844-23.894531zm0 0" fill="#fff"/><path d="m150.1875 89.203125v-6.828125c-20.207031.003906-37.828125 11.011719-47.25 27.296875-1.222656 2.109375-1.21875 4.734375 0 6.847656 9.421875 16.285157 27.042969 27.292969 47.25 27.296875 20.203125-.003906 37.824219-11.011718 47.246094-27.296875 1.222656-2.113281 1.222656-4.734375 0-6.847656-9.417969-16.285156-27.042969-27.296875-47.246094-27.296875v13.652344c15.15625 0 28.316406 8.234375 35.429688 20.492187l5.910156-3.421875-5.910156-3.425781c-7.113282 12.257813-20.277344 20.492187-35.429688 20.492187-15.15625 0-28.320312-8.234374-35.433594-20.492187l-5.90625 3.425781 5.90625 3.421875c7.113282-12.257812 20.277344-20.492187 35.433594-20.492187zm0 0" fill="#54596e"/><path d="m286.71875 89.203125c17.679688 0 33.074219 9.625 41.34375 23.894531-8.269531 14.269532-23.660156 23.890625-41.34375 23.890625-17.679688 0-33.070312-9.621093-41.339844-23.890625 8.269532-14.269531 23.660156-23.894531 41.339844-23.894531zm0 0" fill="#fff"/><path d="m286.71875 89.203125v6.824219c15.15625 0 28.320312 8.234375 35.433594 20.492187l5.90625-3.421875-5.90625-3.425781c-7.113282 12.257813-20.277344 20.492187-35.433594 20.492187-15.152344 0-28.320312-8.234374-35.433594-20.492187l-5.90625 3.425781 5.90625 3.421875c7.113282-12.257812 20.28125-20.492187 35.433594-20.492187v-13.652344c-20.203125.003906-37.828125 11.011719-47.246094 27.296875-1.222656 2.109375-1.222656 4.734375 0 6.847656 9.417969 16.285157 27.042969 27.292969 47.246094 27.296875 20.207031-.003906 37.828125-11.011718 47.25-27.296875 1.21875-2.113281 1.222656-4.734375 0-6.847656-9.421875-16.285156-27.042969-27.296875-47.25-27.296875zm0 0" fill="#54596e"/><path d="m169.695312 34.589844c-12.628906 0-23.628906 6.871094-29.535156 17.066406 5.90625 10.195312 16.90625 17.066406 29.535156 17.066406 12.625 0 23.625-6.871094 29.527344-17.066406-5.902344-10.195312-16.902344-17.066406-29.527344-17.066406zm0 0" fill="#fff"/><path d="m169.695312 34.589844v-6.828125c-15.152343.003906-28.378906 8.261719-35.441406 20.472656-1.222656 2.109375-1.222656 4.730469 0 6.84375 7.058594 12.207031 20.289063 20.46875 35.441406 20.46875 15.148438 0 28.378907-8.261719 35.433594-20.472656 1.222656-2.109375 1.222656-4.726563 0-6.835938-7.054687-12.214843-20.285156-20.472656-35.433594-20.476562v13.652343c10.101563 0 18.871094 5.484376 23.617188 13.660157l5.910156-3.417969-5.910156-3.417969c-4.746094 8.171875-13.515625 13.660157-23.617188 13.660157-10.101562 0-18.875-5.488282-23.628906-13.664063l-5.90625 3.421875 5.90625 3.421875c4.753906-8.179687 13.527344-13.664063 23.628906-13.664063zm0 0" fill="#54596e"/><path d="m267.210938 34.589844c12.628906 0 23.628906 6.871094 29.535156 17.066406-5.90625 10.195312-16.90625 17.066406-29.535156 17.066406-12.625 0-23.625-6.871094-29.523438-17.066406 5.898438-10.195312 16.898438-17.066406 29.523438-17.066406zm0 0" fill="#fff"/><g fill="#54596e"><path d="m267.210938 34.589844v6.824218c10.105468 0 18.875 5.484376 23.628906 13.664063l5.90625-3.421875-5.90625-3.421875c-4.753906 8.175781-13.523438 13.664063-23.628906 13.664063-10.101563 0-18.871094-5.488282-23.617188-13.660157l-5.90625 3.417969 5.90625 3.417969c4.746094-8.175781 13.515625-13.660157 23.617188-13.660157v-13.652343c-15.148438.003906-28.378907 8.261719-35.433594 20.476562-1.222656 2.109375-1.222656 4.726563 0 6.835938 7.054687 12.210937 20.285156 20.472656 35.433594 20.472656 15.152343 0 28.378906-8.261719 35.441406-20.46875 1.222656-2.109375 1.222656-4.734375 0-6.84375-7.0625-12.210937-20.289063-20.46875-35.441406-20.472656zm0 0"/><path d="m300.375 116.511719c0 7.539062-6.113281 13.652343-13.65625 13.652343-7.539062 0-13.652344-6.113281-13.652344-13.652343 0-7.542969 6.113282-13.65625 13.652344-13.65625 7.542969 0 13.65625 6.113281 13.65625 13.65625zm0 0"/><path d="m273.066406 55.070312c0 3.769532-3.054687 6.828126-6.828125 6.828126-3.769531 0-6.824219-3.058594-6.824219-6.828126 0-3.769531 3.054688-6.828124 6.824219-6.828124 3.773438 0 6.828125 3.058593 6.828125 6.828124zm0 0"/><path d="m177.492188 55.070312c0 3.769532-3.054688 6.828126-6.824219 6.828126-3.773438 0-6.828125-3.058594-6.828125-6.828126 0-3.769531 3.054687-6.828124 6.828125-6.828124 3.769531 0 6.824219 3.058593 6.824219 6.828124zm0 0"/><path d="m163.839844 116.511719c0 7.539062-6.113282 13.652343-13.652344 13.652343-7.542969 0-13.652344-6.113281-13.652344-13.652343 0-7.542969 6.109375-13.65625 13.652344-13.65625 7.539062 0 13.652344 6.113281 13.652344 13.65625zm0 0"/></g></svg>