<svg height="436pt" viewBox="0 -11 436.91179 436" width="436pt" xmlns="http://www.w3.org/2000/svg"><path d="m310.019531 346.785156h-183.136719c-9.75 0-17.65625-7.90625-17.65625-17.65625v-200.800781c0-49.007813 39.730469-88.742187 88.746094-88.742187h40.957032c49.015624 0 88.753906 39.734374 88.753906 88.742187v200.800781c0 9.75-7.914063 17.65625-17.664063 17.65625" fill="#a1b7ff"/><path d="m310.019531 346.785156v-6.832031h-183.136719c-5.976562-.011719-10.824218-4.851563-10.835937-10.824219v-200.800781c.007813-22.640625 9.164063-43.078125 24-57.925781 14.847656-14.835938 35.28125-23.984375 57.925781-23.992188h40.957032c22.644531.007813 43.078124 9.15625 57.929687 23.992188 14.832031 14.847656 23.992187 35.285156 23.996094 57.925781v200.800781c-.015625 5.972656-4.851563 10.8125-10.835938 10.824219v13.65625c13.527344-.007813 24.484375-10.957031 24.484375-24.480469v-200.800781c0-52.78125-42.785156-95.566406-95.574218-95.570313h-40.957032c-52.789062.003907-95.574218 42.789063-95.574218 95.570313v200.800781c0 13.527344 10.957031 24.476563 24.484374 24.484375h183.136719z" fill="#54596e"/><path d="m116.046875 295.28125v33.847656c.015625 5.976563 4.859375 10.816406 10.835937 10.828125h183.136719c5.980469-.011719 10.820313-4.851562 10.832031-10.828125v-33.84375c-2.988281 2.328125-6.75 3.714844-10.832031 3.714844h-183.136719c-4.082031 0-7.84375-1.386719-10.835937-3.71875" fill="#92a4e2"/><path d="m327.683594 281.339844c0 5.667968-2.675782 10.710937-6.828125 13.945312v33.84375c-.015625 5.976563-4.851563 10.816406-10.835938 10.828125h-183.136719c-5.976562-.011719-10.824218-4.851562-10.835937-10.828125v-33.847656c-4.148437-3.230469-6.820313-8.277344-6.820313-13.941406v47.78125c0 9.757812 7.90625 17.664062 17.65625 17.664062h183.136719c9.75 0 17.664063-7.90625 17.664063-17.664062z" fill="#54596e"/><path d="m211.625 128.328125c0 11.3125-9.167969 20.480469-20.480469 20.480469-11.308593 0-20.480469-9.167969-20.480469-20.480469 0-11.308594 9.171876-20.476563 20.480469-20.476563 11.3125 0 20.480469 9.167969 20.480469 20.476563zm0 0" fill="#54596e"/><path d="m197.972656 128.328125c0 3.773437-3.058594 6.828125-6.828125 6.828125s-6.828125-3.054688-6.828125-6.828125c0-3.769531 3.058594-6.824219 6.828125-6.824219s6.828125 3.054688 6.828125 6.824219zm0 0" fill="#ff927d"/><path d="m266.238281 128.328125c0 11.3125-9.167969 20.480469-20.480469 20.480469-11.308593 0-20.480468-9.167969-20.480468-20.480469 0-11.308594 9.171875-20.476563 20.480468-20.476563 11.3125 0 20.480469 9.167969 20.480469 20.476563zm0 0" fill="#54596e"/><path d="m252.585938 128.328125c0 3.773437-3.058594 6.828125-6.828126 6.828125-3.769531 0-6.828124-3.054688-6.828124-6.828125 0-3.769531 3.058593-6.824219 6.828124-6.824219 3.769532 0 6.828126 3.054688 6.828126 6.824219zm0 0" fill="#ff927d"/><path d="m118.085938 250.34375-36.164063-13.566406v157.792968c0 7.542969-6.113281 13.65625-13.65625 13.65625h-47.785156c-7.539063 0-13.652344-6.113281-13.652344-13.65625 0-7.539062 6.113281-13.652343 13.652344-13.652343h34.132812v-163.839844c0-4.480469 2.191407-8.671875 5.871094-11.21875 3.6875-2.554687 8.382813-3.132813 12.574219-1.566406l54.613281 20.480469" fill="#55a6ff"/><path d="m120.480469 243.953125-36.164063-13.566406c-2.097656-.789063-4.449218-.492188-6.289062.78125-1.835938 1.273437-2.9375 3.375-2.9375 5.609375v157.792968c-.003906 3.765626-3.058594 6.820313-6.824219 6.828126h-47.789063c-3.765624-.007813-6.816406-3.0625-6.824218-6.828126.007812-3.765624 3.058594-6.820312 6.824218-6.828124h34.136719c1.820313 0 3.535157-.707032 4.824219-1.996094 1.289062-1.292969 2-3.003906 2-4.828125v-163.839844c0-2.246094 1.101562-4.339844 2.933594-5.605469 1.171875-.8125 2.527344-1.222656 3.898437-1.226562.816407.003906 1.613281.140625 2.378907.433594l54.628906 20.484374c3.527344 1.320313 7.464844-.464843 8.789062-3.996093 1.324219-3.527344-.464844-7.464844-3.996094-8.789063l-54.613281-20.480468c-2.328125-.878907-4.777343-1.304688-7.1875-1.304688-4.117187 0-8.195312 1.246094-11.671875 3.652344-5.523437 3.824218-8.8125 10.117187-8.8125 16.832031v157.011719h-27.304687c-11.3125.003906-20.47656275 9.167968-20.480469 20.480468.00390625 11.316407 9.167969 20.476563 20.480469 20.480469h47.785156c11.316406-.003906 20.476563-9.164062 20.480469-20.480469v-147.941406l26.945312 10.105469c3.527344 1.324219 7.464844-.460937 8.789063-3.992187 1.320312-3.53125-.46875-7.464844-4-8.789063zm0 0" fill="#54596e"/><path d="m318.824219 250.34375 36.167969-13.566406v157.792968c0 7.542969 6.113281 13.65625 13.652343 13.65625h47.789063c7.539062 0 13.652344-6.113281 13.652344-13.65625 0-7.539062-6.113282-13.652343-13.652344-13.652343h-34.136719v-163.839844c0-4.480469-2.191406-8.671875-5.871094-11.21875-3.6875-2.554687-8.378906-3.132813-12.574219-1.566406l-54.613281 20.480469" fill="#55a6ff"/><path d="m321.222656 256.734375 26.941406-10.105469v147.941406c.007813 11.316407 9.167969 20.476563 20.480469 20.480469h47.789063c11.3125-.003906 20.472656-9.164062 20.476562-20.480469-.003906-11.3125-9.164062-20.476562-20.476562-20.480468h-27.308594v-157.011719c0-6.714844-3.289062-13.007813-8.816406-16.835937-3.46875-2.402344-7.550782-3.648438-11.667969-3.648438-2.414063 0-4.855469.425781-7.199219 1.3125l.011719-.007812-54.613281 20.480468c-3.53125 1.324219-5.316406 5.257813-3.996094 8.789063 1.324219 3.53125 5.261719 5.320312 8.792969 3.996093l54.613281-20.480468.015625-.007813c.761719-.285156 1.558594-.425781 2.375-.429687 1.371094.003906 2.726563.414062 3.898437 1.222656 1.835938 1.269531 2.933594 3.363281 2.933594 5.609375v163.839844c0 1.824219.710938 3.535156 2 4.828125 1.292969 1.289062 3.003906 1.996094 4.828125 1.996094h34.132813c3.765625.007812 6.820312 3.0625 6.828125 6.828124-.007813 3.765626-3.0625 6.820313-6.828125 6.828126h-47.785156c-3.769532-.007813-6.820313-3.0625-6.828126-6.828126v-157.792968c0-2.238282-1.097656-4.335938-2.9375-5.609375-1.839843-1.273438-4.191406-1.570313-6.289062-.78125l-36.164062 13.566406c-3.53125 1.320313-5.320313 5.257813-3.996094 8.789063 1.320312 3.53125 5.257812 5.320312 8.789062 3.992187zm0 0" fill="#54596e"/><path d="m78.632812 7.285156 48.636719 81.066406c15.96875-3.992187 28.433594-16.460937 32.429688-32.425781zm0 0" fill="#fff"/><path d="m78.632812 7.285156-5.855468 3.511719 48.640625 81.070313c1.546875 2.578124 4.589843 3.835937 7.507812 3.109374 18.414063-4.605468 32.789063-18.980468 37.394531-37.394531.726563-2.921875-.53125-5.960937-3.113281-7.507812l-81.066406-48.640625c-2.6875-1.613282-6.121094-1.1875-8.335937 1.027344-2.21875 2.214843-2.640626 5.652343-1.027344 8.339843l5.855468-3.515625-3.515624 5.855469 81.070312 48.640625 3.511719-5.855469-6.625-1.65625c-3.378907 13.523438-13.941407 24.078125-27.460938 27.460938l1.65625 6.621093 5.855469-3.511718-48.640625-81.066406-5.851563 3.511718-3.515624 5.855469zm0 0" fill="#54596e"/><path d="m364.496094 7.285156-48.636719 81.066406c-15.96875-3.992187-28.433594-16.460937-32.429687-32.425781zm0 0" fill="#fff"/><g fill="#54596e"><path d="m364.496094 7.285156-5.851563-3.511718-48.640625 81.066406 5.855469 3.511718 1.652344-6.621093c-13.519531-3.378907-24.074219-13.941407-27.457031-27.460938l-6.625 1.65625 3.515624 5.855469 81.066407-48.640625-3.515625-5.855469-5.851563-3.511718 5.851563 3.511718-3.511719-5.855468-81.066406 48.640624c-2.582031 1.546876-3.839844 4.589844-3.109375 7.511719 4.605468 18.410157 18.980468 32.789063 37.390625 37.390625 2.921875.730469 5.964843-.53125 7.511719-3.109375l48.640624-81.066406c1.609376-2.6875 1.1875-6.125-1.027343-8.339844-2.21875-2.214843-5.652344-2.640625-8.339844-1.027343zm0 0"/><path d="m261.652344 231.703125c-9.914063-2.125-76.484375-2.125-86.398438 0-15.363281 3.296875-27.742187 15.746094-30.960937 31.121094-5.5625 26.492187 14.503906 49.824219 40.023437 49.824219 7.042969 0 13.667969-1.777344 19.449219-4.910157 9.074219-4.910156 20.300781-4.910156 29.375 0 5.777344 3.132813 12.40625 4.910157 19.445313 4.910157 25.519531 0 45.585937-23.332032 40.027343-49.824219-3.21875-15.375-15.601562-27.824219-30.960937-31.121094zm0 0"/><path d="m261.652344 231.703125 1.433594-6.671875c-1.941407-.40625-4.148438-.613281-7.097657-.835938-8.714843-.617187-23.082031-.910156-37.535156-.910156-9.628906 0-19.246094.128906-27.148437.398438-3.953126.136718-7.472657.304687-10.390626.511718-2.949218.222657-5.15625.433594-7.09375.835938-18.070312 3.921875-32.378906 18.308594-36.210937 36.394531-.726563 3.460938-1.078125 6.902344-1.078125 10.269531.003906 26.390626 21.390625 47.777344 47.785156 47.78125 8.195313.003907 15.953125-2.074218 22.699219-5.734374 3.496094-1.890626 7.457031-2.859376 11.4375-2.859376 3.976563 0 7.941406.96875 11.433594 2.859376 6.746093 3.660156 14.507812 5.738281 22.699219 5.734374 26.394531-.003906 47.777343-21.386718 47.785156-47.777343 0-3.371094-.351563-6.8125-1.078125-10.277344-3.832031-18.082031-18.136719-32.46875-36.207031-36.390625l-1.433594 6.671875-1.433594 6.675781c12.648438 2.667969 23.101562 13.179688 25.710938 25.84375.535156 2.554688.785156 5.050782.785156 7.476563 0 9.445312-3.808594 17.933593-9.996094 24.128906-6.195312 6.1875-14.6875 9.992187-24.132812 9.996094-5.890626-.003907-11.382813-1.480469-16.195313-4.085938-5.578125-3.019531-11.769531-4.507812-17.9375-4.507812-6.175781 0-12.359375 1.488281-17.9375 4.507812-4.816406 2.605469-10.308594 4.082031-16.199219 4.085938-9.445312-.003907-17.933594-3.808594-24.132812-9.996094-6.1875-6.199219-9.992188-14.6875-9.996094-24.132813 0-2.421874.25-4.917968.785156-7.46875 2.609375-12.667968 13.0625-23.175781 25.710938-25.847656.535156-.128906 2.582031-.386718 5.207031-.566406 8.015625-.574219 22.332031-.878906 36.5625-.878906 9.496094 0 18.996094.132812 26.675781.394531 3.839844.128906 7.222656.296875 9.882813.484375 2.625.175781 4.667969.433594 5.207031.5625zm0 0"/></g><path d="m184.316406 264.863281c-7.539062 0-13.652344-6.113281-13.652344-13.652343v-13.652344h27.308594v13.652344c0 7.539062-6.113281 13.652343-13.65625 13.652343zm0 0" fill="#fff"/><path d="m245.757812 264.863281c-7.539062 0-13.652343-6.113281-13.652343-13.652343v-13.652344h27.304687v13.652344c0 7.539062-6.113281 13.652343-13.652344 13.652343zm0 0" fill="#fff"/></svg>