<svg height="436pt" viewBox="0 -3 436.91179 436" width="436pt" xmlns="http://www.w3.org/2000/svg"><path d="m157.011719 423.703125h-34.128907l-6.832031-75.089844h47.789063z" fill="#f4a14e"/><path d="m157.011719 423.703125v-6.824219h-27.894531l-5.59375-61.441406h32.839843l-6.148437 67.652344 6.796875.613281v-6.824219 6.824219l6.800781.617187 6.824219-75.089843c.175781-1.921875-.460938-3.800781-1.757813-5.222657-1.296875-1.421874-3.117187-2.21875-5.039062-2.21875h-47.789063c-1.925781 0-3.738281.796876-5.039062 2.21875-1.296875 1.421876-1.933594 3.300782-1.757813 5.222657l6.832032 75.089843c.316406 3.511719 3.269531 6.207032 6.796874 6.207032h34.128907c3.523437 0 6.484375-2.695313 6.800781-6.207032z" fill="#54596e"/><path d="m259.414062 423.703125h-34.132812l-6.828125-75.089844h47.789063z" fill="#f4a14e"/><path d="m259.414062 423.703125v-6.824219h-27.902343l-5.585938-61.441406h32.839844l-6.148437 67.652344 6.796874.613281v-6.824219 6.824219l6.796876.617187 6.828124-75.089843c.175782-1.921875-.460937-3.800781-1.757812-5.222657-1.300781-1.421874-3.117188-2.21875-5.042969-2.21875h-47.785156c-1.925781 0-3.746094.796876-5.042969 2.21875-1.296875 1.421876-1.933594 3.300782-1.757812 5.222657l6.824218 75.089843c.316407 3.511719 3.277344 6.207032 6.800782 6.207032h34.136718c3.523438 0 6.476563-2.695313 6.796876-6.207032z" fill="#54596e"/><path d="m300.371094 334.957031 129.707031-34.132812v-13.652344h-129.707031z" fill="#f4a14e"/><path d="m300.371094 334.957031 1.738281 6.605469 129.710937-34.136719c2.992188-.785156 5.089844-3.507812 5.089844-6.597656v-13.65625c0-1.792969-.726562-3.550781-2-4.824219-1.269531-1.269531-3.027344-2-4.828125-2h-129.707031c-1.796875 0-3.554688.730469-4.828125 2-1.269531 1.273438-2 3.03125-2 4.824219v47.785156c0 2.125.980469 4.113281 2.664063 5.410157 1.675781 1.289062 3.851562 1.734374 5.902343 1.195312l-1.742187-6.605469h6.832031v-40.960937h116.050781v1.566406l-124.613281 32.796875 1.730469 6.597656h6.832031z" fill="#54596e"/><path d="m337.734375 149.191406 3.597656-47.320312c0-52.238282-42.351562-94.59375-94.59375-94.59375h-97.535156c-52.234375 0-94.59375 42.351562-94.59375 94.59375l3.609375 47.378906c.4375 5.695312.753906 11.398438 1.054688 17.101562l-52.449219 4.769532v27.304687l53.453125 11.6875c-.0625 7.964844-.21875 15.921875-.53125 23.882813l-5.132813 128.273437c94.722657 18.042969 192 18.042969 286.71875 0l-5.128906-128.304687c-1.128906-28.265625-.625-56.570313 1.53125-84.773438" fill="#f4a14e"/><path d="m337.734375 149.191406 6.808594.519532 3.59375-47.320313.019531-.519531c0-56.015625-45.402344-101.414063-101.417969-101.414063h-97.535156c-56.011719 0-101.410156 45.398438-101.417969 101.414063l.019532.519531 3.609374 47.375c.425782 5.601563.742188 11.257813 1.039063 16.945313l6.820313-.359376-.617188-6.796874-52.449219 4.765624c-3.507812.320313-6.207031 3.277344-6.207031 6.800782v27.304687c0 3.214844 2.226562 5.980469 5.367188 6.667969l53.449218 11.6875 1.457032-6.667969-6.828126-.050781c-.058593 7.910156-.210937 15.800781-.519531 23.664062l-5.132812 128.269532c-.140625 3.371094 2.222656 6.34375 5.539062 6.972656 47.789063 9.109375 96.214844 13.65625 144.644531 13.65625 48.425782 0 96.855469-4.546875 144.632813-13.65625 3.324219-.628906 5.679687-3.601562 5.546875-6.972656l-5.136719-128.308594c-.382812-9.640625-.578125-19.296875-.578125-28.9375 0-18.367188.699219-36.726562 2.101563-55.039062l-6.808594-.519532-6.808594-.523437c-1.421875 18.664062-2.132812 37.371093-2.132812 56.082031 0 9.828125.191406 19.65625.585937 29.476562l5.132813 128.308594 6.820312-.269531-1.277343-6.707031c-46.941407 8.941406-94.507813 13.40625-142.082032 13.40625-47.574218 0-95.148437-4.464844-142.085937-13.40625l-1.277344 6.707031 6.824219.269531 5.132812-128.269531c.316406-8.050781.472656-16.09375.535156-24.105469.023438-3.238281-2.207031-6.027344-5.375-6.71875l-48.070312-10.515625v-15.574219l46.230469-4.203124c3.652343-.328126 6.398437-3.496094 6.203125-7.152344-.296875-5.722656-.621094-11.480469-1.0625-17.261719l-3.605469-47.375-6.8125.515625h6.832031c0-24.257812 9.808594-46.160156 25.703125-62.066406 15.90625-15.894532 37.808594-25.699219 62.058594-25.703125h97.535156c24.257813.007812 46.152344 9.808593 62.058594 25.703125 15.894531 15.90625 25.703125 37.808594 25.710937 62.066406h6.824219l-6.804687-.515625-3.605469 47.308594z" fill="#54596e"/><path d="m60.128906 173.125c-.078125.007812-.160156.019531-.242187.023438l-46.230469 4.203124v15.574219l45.421875 9.9375.667969-16.65625c.167968-4.359375.292968-8.71875.382812-13.082031" fill="#e49a51"/><path d="m59.003906 162.050781c.082032 1.433594.1875 2.867188.269532 4.300781l-52.449219 4.769532v27.304687l51.976562 11.367188.277344-6.929688-45.421875-9.9375v-15.574219l46.230469-4.203124c.082031-.003907.160156-.015626.242187-.023438.070313-3.601562.117188-7.203125.148438-10.800781z" fill="#54596e"/><path d="m332.652344 316.0625c-44.535156 7.953125-89.609375 11.929688-134.679688 11.929688-45.066406 0-90.136718-3.976563-134.679687-11.929688l-1.621094 40.578125c45.0625 8.21875 90.679687 12.328125 136.300781 12.328125 45.625 0 91.242188-4.109375 136.304688-12.332031z" fill="#e49a51"/><path d="m339.429688 314.820312c-2.257813.421876-4.515626.835938-6.777344 1.242188l1.625 40.578125c-45.058594 8.21875-90.679688 12.328125-136.300782 12.328125-45.625 0-91.242187-4.105469-136.304687-12.328125l1.625-40.578125c-2.265625-.402344-4.523437-.816406-6.785156-1.242188l-1.898438 47.449219c47.359375 9.019531 95.363281 13.535157 143.363281 13.535157s96-4.515626 143.355469-13.535157z" fill="#54596e"/><path d="m307.199219 212.078125 75.09375-13.652344v-27.304687l-75.09375-6.828125" fill="#f4a14e"/><g fill="#54596e"><path d="m308.421875 218.792969 75.089844-13.652344c3.246093-.589844 5.609375-3.417969 5.609375-6.714844v-27.304687c0-3.523438-2.699219-6.484375-6.210938-6.800782l-75.09375-6.828124c-3.753906-.339844-7.074218 2.425781-7.414062 6.183593-.34375 3.753907 2.425781 7.074219 6.179687 7.417969l68.882813 6.261719v15.375l-69.484375 12.632812c-3.710938.675781-6.171875 4.230469-5.496094 7.9375.671875 3.707031 4.226563 6.171875 7.9375 5.492188zm0 0"/><path d="m122.878906 133.574219c0 5.652343-4.582031 10.238281-10.238281 10.238281s-10.242187-4.585938-10.242187-10.238281c0-5.65625 4.585937-10.242188 10.242187-10.242188s10.238281 4.585938 10.238281 10.242188zm0 0"/><path d="m259.414062 133.574219c0 5.652343-4.585937 10.238281-10.242187 10.238281-5.652344 0-10.238281-4.585938-10.238281-10.238281 0-5.65625 4.585937-10.242188 10.238281-10.242188 5.65625 0 10.242187 4.585938 10.242187 10.242188zm0 0"/></g><path d="m208.214844 239.386719c-5.652344 0-10.242188-4.585938-10.242188-10.242188v-13.652343c0-5.652344 4.589844-10.238282 10.242188-10.238282s10.238281 4.585938 10.238281 10.238282v13.652343c0 5.65625-4.585937 10.242188-10.238281 10.242188zm0 0" fill="#fff"/><path d="m139.945312 239.386719c-5.652343 0-10.238281-4.585938-10.238281-10.242188v-13.652343c0-5.652344 4.585938-10.238282 10.238281-10.238282 5.652344 0 10.242188 4.585938 10.242188 10.238282v13.652343c0 5.65625-4.585938 10.242188-10.242188 10.242188zm0 0" fill="#fff"/><path d="m112.640625 179.652344c0 17.90625 14.519531 32.425781 32.425781 32.425781s32.425782-14.519531 32.425782-32.425781" fill="#f4a14e"/><path d="m105.8125 179.652344c.007812 21.679687 17.574219 39.25 39.253906 39.25 21.679688 0 39.25-17.570313 39.253906-39.25 0-3.773438-3.058593-6.828125-6.828124-6.828125-3.769532 0-6.824219 3.054687-6.824219 6.828125-.003907 7.089844-2.855469 13.445312-7.5 18.101562-4.65625 4.644532-11.011719 7.492188-18.101563 7.5-7.089844-.007812-13.445312-2.855468-18.101562-7.5-4.644532-4.65625-7.496094-11.011718-7.5-18.101562 0-3.773438-3.054688-6.828125-6.824219-6.828125s-6.828125 3.058593-6.828125 6.828125zm0 0" fill="#54596e"/><path d="m177.492188 179.652344c0 17.90625 14.519531 32.425781 32.429687 32.425781 17.90625 0 32.425781-14.519531 32.425781-32.425781" fill="#f4a14e"/><path d="m170.667969 179.652344c.003906 21.679687 17.570312 39.25 39.253906 39.25 21.679687 0 39.246094-17.570313 39.25-39.25 0-3.773438-3.054687-6.828125-6.824219-6.828125-3.769531 0-6.828125 3.054687-6.828125 6.828125-.003906 7.089844-2.855469 13.445312-7.5 18.101562-4.652343 4.644532-11.011719 7.492188-18.097656 7.5-7.089844-.007812-13.449219-2.855468-18.101563-7.5-4.644531-4.65625-7.496093-11.011718-7.5-18.101562 0-3.773438-3.058593-6.828125-6.828124-6.828125-3.769532 0-6.824219 3.058593-6.824219 6.828125zm0 0" fill="#54596e"/><path d="m197.972656 164.292969c0 11.308593-9.167968 20.480469-20.480468 20.480469-11.308594 0-20.480469-9.171876-20.480469-20.480469 0-11.3125 9.171875-20.480469 20.480469-20.480469 11.3125 0 20.480468 9.167969 20.480468 20.480469zm0 0" fill="#ffb8f2"/></svg>