<svg height="430pt" viewBox="-44 0 430 430.07488" width="430pt" xmlns="http://www.w3.org/2000/svg"><path d="m150.222656 102.398438h40.960938v116.054687h-40.960938zm0 0" fill="#fff35f"/><path d="m191.183594 218.453125v-6.828125h-34.132813v-102.398438h27.304688v109.226563h6.828125v-6.824219 6.824219h6.824218v-116.054687c0-1.796876-.726562-3.554688-1.996093-4.828126-1.273438-1.269531-3.03125-1.996093-4.828125-1.996093h-40.960938c-1.796875 0-3.554687.726562-4.828125 1.996093-1.269531 1.273438-2 3.03125-2 4.828126v116.054687c0 1.824219.710938 3.535156 2 4.828125 1.292969 1.289062 3.003907 1.996094 4.828125 1.996094h40.960938c1.820312 0 3.535156-.707032 4.824218-1.996094 1.292969-1.292969 2-3.003906 2-4.828125zm0 0" fill="#54596e"/><path d="m293.582031 252.585938h-34.132812v-116.050782h40.960937zm0 0" fill="#fff35f"/><path d="m293.582031 252.585938v-6.824219h-27.304687v-102.402344h26.890625l-6.398438 108.828125 6.8125.398438v-6.824219 6.824219l6.816407.398437 6.824218-116.050781c.109375-1.875-.558594-3.722656-1.847656-5.085938-1.285156-1.363281-3.09375-2.140625-4.964844-2.140625h-40.960937c-1.796875 0-3.558594.726563-4.828125 2-1.273438 1.269531-2 3.027344-2 4.828125v116.050782c0 1.824218.710937 3.535156 2 4.828124 1.292968 1.289063 3.003906 1.996094 4.828125 1.996094h34.132812c3.625 0 6.601563-2.804687 6.816407-6.425781zm0 0" fill="#54596e"/><path d="m81.957031 252.585938h-34.132812l-6.828125-116.050782h40.960937zm0 0" fill="#fff35f"/><path d="m81.957031 252.585938v-6.824219h-27.699219l-6.023437-102.402344h26.894531v109.230469h6.828125v-6.828125 6.824219h6.824219v-116.050782c0-1.800781-.726562-3.558594-1.996094-4.828125-1.273437-1.273437-3.03125-2-4.828125-2h-40.960937c-1.875 0-3.679688.777344-4.964844 2.140625-1.289062 1.367188-1.960938 3.210938-1.851562 5.085938l6.828124 116.050781c.210938 3.621094 3.191407 6.425781 6.816407 6.425781h34.132812c1.820313 0 3.535157-.707031 4.824219-1.996094 1.292969-1.292968 2-3.003906 2-4.828124zm0 0" fill="#54596e"/><path d="m333.507812 252.585938c-9.0625-30.71875-78.46875-54.613282-162.804687-54.613282s-153.75 23.894532-162.804687 54.613282h-1.035157v112.917968c0 31.894532 25.855469 57.75 57.746094 57.75h212.1875c31.890625 0 57.742187-25.851562 57.742187-57.75v-112.917968z" fill="#fff35f"/><path d="m333.507812 252.585938 6.546876-1.929688c-2.917969-9.761719-10.128907-18-19.957032-25.101562-14.808594-10.640626-36.035156-19.066407-61.664062-25.054688-25.617188-5.953125-55.621094-9.351562-87.730469-9.351562-42.816406.007812-81.867187 6.027343-111.820313 16.144531-14.980468 5.074219-27.699218 11.148437-37.574218 18.261719-9.832032 7.101562-17.039063 15.335937-19.960938 25.101562l6.550782 1.929688v-6.828126h-1.03125c-1.800782 0-3.554688.730469-4.832032 2-1.265625 1.273438-1.9960935 3.03125-1.9960935 4.828126v112.917968c.0039063 35.664063 28.9023435 64.570313 64.5703125 64.570313h212.191406c35.664063 0 64.5625-28.90625 64.570313-64.570313v-112.917968c0-1.796876-.730469-3.554688-2-4.828126-1.273438-1.269531-3.03125-2-4.828125-2h-1.03125v6.828126l6.542969-1.929688-6.546876 1.929688v6.824218h1.03125v-6.824218h-6.828124v112.917968c0 14.085938-5.683594 26.769532-14.910157 36.011719-9.234375 9.21875-21.925781 14.910156-36.003906 14.910156h-212.1875c-14.085937 0-26.773437-5.691406-36.003906-14.910156-9.226563-9.242187-14.914063-21.925781-14.917969-36.011719v-112.917968h-6.824219v6.824218h1.035157c3.023437 0 5.683593-1.988281 6.546874-4.894531 1.609376-5.59375 6.46875-11.871094 14.839844-17.882813 12.492188-9.039062 32.339844-17.171874 56.78125-22.832031 24.445313-5.6875 53.496094-9.007812 84.636719-9 41.507813-.015625 79.339844 5.910157 107.445313 15.425781 14.042968 4.742188 25.636718 10.394532 33.964843 16.40625 8.371094 6.011719 13.234375 12.285157 14.847657 17.882813.855468 2.90625 3.515624 4.894531 6.546874 4.894531z" fill="#54596e"/><path d="m102.4375 95.574219c0 22.621093-18.339844 40.960937-40.960938 40.960937-22.621093 0-40.960937-18.339844-40.960937-40.960937 0-22.621094 18.339844-40.960938 40.960937-40.960938 22.621094 0 40.960938 18.339844 40.960938 40.960938zm0 0" fill="#fff35f"/><path d="m102.4375 95.574219h6.824219c-.003907-26.394531-21.390625-47.785157-47.785157-47.789063-26.394531.003906-47.78125 21.394532-47.789062 47.789063.003906 26.394531 21.394531 47.78125 47.789062 47.785156 26.394532-.003906 47.78125-21.390625 47.785157-47.785156h-13.652344c-.003906 9.445312-3.8125 17.9375-9.996094 24.136719-6.199219 6.1875-14.691406 9.992187-24.136719 9.996093-9.445312-.003906-17.9375-3.808593-24.136718-9.996093-6.1875-6.199219-9.992188-14.691407-9.996094-24.136719.003906-9.449219 3.808594-17.941407 9.996094-24.136719 6.199218-6.1875 14.6875-9.992188 24.136718-10 9.445313.007812 17.9375 3.808594 24.136719 10 6.1875 6.195312 9.992188 14.6875 9.996094 24.136719zm0 0" fill="#54596e"/><path d="m218.488281 54.613281c0 26.390625-21.394531 47.785157-47.785156 47.785157s-47.789063-21.394532-47.789063-47.785157 21.398438-47.785156 47.789063-47.785156 47.785156 21.394531 47.785156 47.785156zm0 0" fill="#fff35f"/><path d="m218.488281 54.613281h6.828125c-.003906-30.164062-24.445312-54.60937475-54.613281-54.613281-30.167969.00390625-54.609375 24.449219-54.613281 54.613281.003906 30.164063 24.445312 54.609375 54.613281 54.613281 30.164063-.003906 54.609375-24.449218 54.613281-54.613281h-13.652344c-.003906 11.332031-4.574218 21.527344-11.996093 28.960938-7.4375 7.425781-17.632813 11.992187-28.964844 12-11.335937-.007813-21.53125-4.578125-28.964844-12-7.421875-7.429688-11.992187-17.628907-11.996093-28.960938.003906-11.332031 4.574218-21.53125 11.996093-28.964843 7.433594-7.421876 17.628907-11.992188 28.964844-11.996094 11.332031.003906 21.527344 4.574218 28.964844 11.996094 7.421875 7.433593 11.992187 17.632812 11.996093 28.964843zm0 0" fill="#54596e"/><path d="m320.890625 95.574219c0 22.621093-18.339844 40.960937-40.960937 40.960937-22.621094 0-40.960938-18.339844-40.960938-40.960937 0-22.621094 18.339844-40.960938 40.960938-40.960938 22.621093 0 40.960937 18.339844 40.960937 40.960938zm0 0" fill="#fff35f"/><path d="m320.890625 95.574219h6.824219c-.003906-26.394531-21.390625-47.785157-47.785156-47.789063-26.394532.003906-47.78125 21.394532-47.789063 47.789063.007813 26.394531 21.394531 47.78125 47.789063 47.785156 26.394531-.003906 47.78125-21.390625 47.785156-47.785156h-13.652344c-.003906 9.445312-3.8125 17.9375-9.996094 24.136719-6.199218 6.1875-14.691406 9.992187-24.136718 9.996093-9.445313-.003906-17.9375-3.808593-24.136719-9.996093-6.1875-6.199219-9.992188-14.691407-9.996094-24.136719.003906-9.449219 3.808594-17.941407 9.996094-24.136719 6.199219-6.1875 14.6875-9.992188 24.136719-10 9.445312.007812 17.9375 3.808594 24.136718 10 6.1875 6.195312 9.992188 14.6875 9.996094 24.136719zm0 0" fill="#54596e"/><path d="m198.007812 54.613281c0 15.082031-12.222656 27.308594-27.304687 27.308594s-27.308594-12.226563-27.308594-27.308594 12.226563-27.304687 27.308594-27.304687 27.304687 12.222656 27.304687 27.304687zm0 0" fill="#fff"/><path d="m300.410156 95.574219c0 11.308593-9.171875 20.480469-20.480468 20.480469-11.3125 0-20.480469-9.171876-20.480469-20.480469 0-11.3125 9.167969-20.480469 20.480469-20.480469 11.308593 0 20.480468 9.167969 20.480468 20.480469zm0 0" fill="#fff"/><path d="m64.890625 279.894531h-51.203125v85.609375c0 3.414063.335938 6.742188.972656 9.960938h50.230469v-2.941406c-4.128906-2.917969-6.828125-7.730469-6.828125-13.175782v-63.34375c0-5.441406 2.699219-10.25 6.828125-13.167968z" fill="#ddd462"/><path d="m81.957031 95.574219c0 11.308593-9.171875 20.480469-20.480469 20.480469-11.3125 0-20.480468-9.171876-20.480468-20.480469 0-11.3125 9.167968-20.480469 20.480468-20.480469 11.308594 0 20.480469 9.167969 20.480469 20.480469zm0 0" fill="#fff"/><path d="m68.300781 92.160156c0 5.65625-4.582031 10.238282-10.238281 10.238282s-10.238281-4.582032-10.238281-10.238282 4.582031-10.238281 10.238281-10.238281 10.238281 4.582031 10.238281 10.238281zm0 0" fill="#54596e"/><path d="m327.710938 279.894531h-63.144532v2.941407c4.132813 2.917968 6.828125 7.730468 6.828125 13.171874v63.34375c0 5.441407-2.695312 10.253907-6.828125 13.171876v2.945312h62.175782c.636718-3.21875.96875-6.550781.96875-9.964844z" fill="#ddd462"/><path d="m177.527344 44.375c0 5.652344-4.582032 10.238281-10.238282 10.238281s-10.238281-4.585937-10.238281-10.238281c0-5.65625 4.582031-10.242188 10.238281-10.242188s10.238282 4.585938 10.238282 10.242188zm0 0" fill="#54596e"/><path d="m286.753906 92.160156c0 5.65625-4.582031 10.238282-10.238281 10.238282s-10.238281-4.582032-10.238281-10.238282 4.582031-10.238281 10.238281-10.238281 10.238281 4.582031 10.238281 10.238281zm0 0" fill="#54596e"/><path d="m277.464844 375.464844h-213.535156c-8.894532 0-16.109376-7.210938-16.109376-16.113282v-63.34375c0-8.898437 7.214844-16.109374 16.109376-16.109374h213.535156c8.902344 0 16.117187 7.210937 16.117187 16.109374v63.34375c0 8.902344-7.214843 16.113282-16.117187 16.113282" fill="#54596e"/><path d="m157.050781 245.761719c0-7.542969-3.058593-13.65625-6.828125-13.65625-3.769531 0-6.828125 6.113281-6.828125 13.65625 0 7.539062 3.058594 13.652343 6.828125 13.652343 3.769532 0 6.828125-6.113281 6.828125-13.652343zm0 0" fill="#54596e"/><path d="m204.835938 245.761719c0-7.542969-3.054688-13.65625-6.828126-13.65625-3.769531 0-6.824218 6.113281-6.824218 13.65625 0 7.539062 3.054687 13.652343 6.824218 13.652343 3.773438 0 6.828126-6.113281 6.828126-13.652343zm0 0" fill="#54596e"/><g fill="#fff"><path d="m112.675781 331.09375-17.734375 30.71875h35.464844zm0 0"/><path d="m78.542969 331.09375-17.734375 30.71875h35.464844zm0 0"/><path d="m146.808594 331.09375-17.734375 30.71875h35.46875zm0 0"/><path d="m194.597656 331.09375-17.734375 30.71875h35.464844zm0 0"/><path d="m228.730469 331.09375-17.734375 30.71875h35.464844zm0 0"/><path d="m262.863281 331.09375-17.734375 30.71875h35.464844zm0 0"/></g><path d="m13.6875 365.503906v9.964844h.972656c-.636718-3.21875-.972656-6.550781-.972656-9.964844" fill="#54596e"/><path d="m327.710938 279.894531v85.609375c0 3.414063-.332032 6.742188-.96875 9.960938h.96875z" fill="#54596e"/></svg>