<svg height="409pt" viewBox="0 -47 409.59659 409" width="409pt" xmlns="http://www.w3.org/2000/svg"><path d="m402.777344 157.308594c0-82.941406-67.238282-150.175782-150.191406-150.175782-82.941407 0-150.191407 67.234376-150.191407 150.175782 0 82.953125 67.25 150.191406 150.191407 150.191406 82.953124 0 150.191406-67.238281 150.191406-150.191406" fill="#fff35f"/><path d="m402.777344 157.308594h6.820312c0-86.71875-70.296875-156.996094-157.011718-157.011719-86.714844.015625-157.011719 70.292969-157.011719 157.011719s70.296875 157.007812 157.011719 157.007812c86.714843 0 157.011718-70.292968 157.011718-157.007812h-13.652344c0 39.613281-16.035156 75.414062-41.984374 101.371094-25.964844 25.953124-61.761719 41.988281-101.375 42.003906-39.613282-.015625-75.410157-16.050782-101.375-42-25.949219-25.960938-41.984376-61.761719-41.984376-101.375 0-39.601563 16.035157-75.398438 41.984376-101.371094 25.964843-25.953125 61.761718-41.976562 101.375-41.988281 39.613281.011719 75.410156 16.035156 101.375 41.988281 25.949218 25.972656 41.984374 61.757812 41.984374 101.371094z" fill="#54596e"/><path d="m109.253906 154.4375c-.015625.953125-.027344 1.910156-.027344 2.871094 0 39.613281 16.035157 75.414062 41.984376 101.371094 25.964843 25.953124 61.761718 41.988281 101.375 42.003906 39.613281-.015625 75.410156-16.050782 101.375-42 25.949218-25.960938 41.984374-61.761719 41.984374-101.375h6.832032-6.832032c0-.960938-.011718-1.917969-.03125-2.871094-19.085937 61.003906-76.023437 105.277344-143.328124 105.277344-67.308594 0-124.242188-44.273438-143.332032-105.277344" fill="#eee361"/><path d="m104.316406 133.421875c-1.253906 7.785156-1.921875 15.765625-1.921875 23.886719 0 56.992187 31.738281 106.570312 78.503907 132.015625 21.3125 11.589843 45.726562 18.175781 71.6875 18.175781 82.953124 0 150.191406-67.238281 150.191406-150.191406h-6.832032c0 39.613281-16.035156 75.414062-41.984374 101.371094-25.964844 25.953124-61.761719 41.988281-101.375 42.003906-39.613282-.015625-75.410157-16.050782-101.375-42-25.949219-25.960938-41.984376-61.761719-41.984376-101.375 0-.960938.011719-1.917969.027344-2.871094-2.128906-6.808594-3.789062-13.828125-4.9375-21.015625m296.539063 0c-1.148438 7.1875-2.808594 14.207031-4.9375 21.015625.019531.953125.027343 1.910156.027343 2.871094h6.832032c0-8.121094-.667969-16.101563-1.921875-23.886719" fill="#54596e"/><path d="m277.453125 103.703125c-7.085937-2.578125-14.921875 1.078125-17.5 8.164063-2.574219 7.085937 1.078125 14.921874 8.164063 17.496093 7.085937 2.578125 14.921874-1.078125 17.496093-8.164062 2.578125-7.085938-1.074219-14.921875-8.160156-17.496094zm0 0" fill="#54596e"/><path d="m373.253906 103.933594c-7.085937-2.578125-14.921875 1.074218-17.5 8.160156s1.074219 14.921875 8.160156 17.5c7.085938 2.578125 14.921876-1.074219 17.5-8.160156 2.578126-7.085938-1.074218-14.917969-8.160156-17.5zm0 0" fill="#54596e"/><path d="m284.375 309.628906c35.46875-40.746094 56.960938-94.058594 56.957031-152.3125.003907-58.269531-21.492187-111.585937-56.972656-152.332031-2.476563-2.847656-6.789063-3.144531-9.632813-.667969-2.84375 2.476563-3.140624 6.789063-.664062 9.636719 33.40625 38.382813 53.613281 88.480469 53.617188 143.363281-.003907 54.871094-20.207032 104.960938-53.605469 143.347656-2.476563 2.84375-2.179688 7.15625.664062 9.632813s7.160157 2.179687 9.632813-.664063v-.003906zm0 0" fill="#54596e"/><path d="m192.527344 296.582031c29.132812-38.777343 46.410156-87.042969 46.40625-139.269531.003906-52.226562-17.273438-100.484375-46.402344-139.257812-2.261719-3.019532-6.542969-3.625-9.558594-1.363282-3.011718 2.265625-3.621094 6.542969-1.359375 9.5625 27.425781 36.515625 43.664063 81.855469 43.667969 131.058594-.003906 49.199219-16.246094 94.546875-43.671875 131.0625-2.269531 3.015625-1.660156 7.292969 1.355469 9.5625 3.011718 2.265625 7.292968 1.660156 9.558594-1.351562zm0 0" fill="#54596e"/><g fill="#55a6ff"><path d="m20.480469 157.316406h54.613281c3.769531 0 6.828125-3.058594 6.828125-6.828125 0-3.773437-3.058594-6.828125-6.828125-6.828125h-54.613281c-3.769531 0-6.828125 3.054688-6.828125 6.828125 0 3.769531 3.058594 6.828125 6.828125 6.828125"/><path d="m61.441406 41.261719h54.613282c3.769531 0 6.824218-3.058594 6.824218-6.828125 0-3.773438-3.054687-6.824219-6.824218-6.824219h-54.613282c-3.769531 0-6.828125 3.050781-6.828125 6.824219 0 3.769531 3.058594 6.828125 6.828125 6.828125"/><path d="m88.746094 109.527344h47.789062c3.769532 0 6.824219-3.054688 6.824219-6.824219 0-3.773437-3.054687-6.828125-6.824219-6.828125h-47.789062c-3.769532 0-6.824219 3.054688-6.824219 6.828125 0 3.769531 3.054687 6.824219 6.824219 6.824219"/><path d="m68.265625 293.847656h61.441406c3.769531 0 6.828125-3.054687 6.828125-6.824218 0-3.773438-3.058594-6.828126-6.828125-6.828126h-61.441406c-3.769531 0-6.824219 3.054688-6.824219 6.828126 0 3.769531 3.054688 6.824218 6.824219 6.824218"/><path d="m6.828125 293.847656h34.132813c3.769531 0 6.824218-3.054687 6.824218-6.824218 0-3.773438-3.054687-6.828126-6.824218-6.828126h-34.132813c-3.773437 0-6.828125 3.054688-6.828125 6.828126 0 3.769531 3.054688 6.824218 6.828125 6.824218"/><path d="m54.613281 218.753906h116.054688c3.769531 0 6.824219-3.054687 6.824219-6.824218 0-3.773438-3.054688-6.828126-6.824219-6.828126h-116.054688c-3.769531 0-6.828125 3.054688-6.828125 6.828126 0 3.769531 3.058594 6.824218 6.828125 6.824218"/></g><path d="m348.160156 191.449219c0-12.066407-12.226562-21.847657-27.308594-21.847657-15.078124 0-27.304687 9.78125-27.304687 21.847657 0 12.066406 12.226563 21.847656 27.304687 21.847656 15.082032 0 27.308594-9.78125 27.308594-21.847656zm0 0" fill="#54596e"/><path d="m327.679688 191.449219c0-3.769531-6.113282-6.828125-13.652344-6.828125-7.542969 0-13.652344 3.058594-13.652344 6.828125s6.109375 6.824219 13.652344 6.824219c7.539062 0 13.652344-3.054688 13.652344-6.824219zm0 0" fill="#ff927d"/></svg>