<svg height="430pt" viewBox="0 -34 430.07716 430" width="430pt" xmlns="http://www.w3.org/2000/svg"><path d="m423.261719 95.605469h-283.617188c-70.324219 0-130.226562 54.695312-132.722656 124.980469-2.625 73.796874 56.40625 134.4375 129.617187 134.4375 71.628907 0 129.710938-58.066407 129.710938-129.710938 0-.863281-.011719-1.824219-.039062-2.886719-.328126-20.890625 16.441406-38.066406 37.328124-38.066406h71.9375z" fill="#ffd578"/><path d="m423.261719 95.605469v-6.816407h-283.617188c-36.949219 0-71.144531 14.359376-96.460937 37.960938-25.296875 23.585938-41.777344 56.546875-43.0937502 93.59375-.0507813 1.664062-.0898438 3.3125-.0898438 4.972656.0117188 75.40625 61.132812 136.527344 136.539062 136.527344 75.410157 0 136.53125-61.121094 136.53125-136.527344 0-.890625 0-1.914062-.027343-3.019531v-.492187c0-8.457032 3.394531-16.085938 8.910156-21.636719 5.539063-5.566407 13.121094-8.976563 21.585937-8.992188h71.933594c2.496094 0 4.816406-1.378906 6.007813-3.585937l47.789062-88.753906c1.125-2.101563 1.074219-4.675782-.152343-6.730469-1.230469-2.050781-3.460938-3.320313-5.855469-3.320313v6.820313l-6.023438-3.230469-45.84375 85.152344h-67.855469c-12.203124 0-23.296874 4.996094-31.253906 13.007812-7.976562 7.996094-12.90625 19.097656-12.90625 31.269532l.011719.734374c.015625 1.027344.027344 1.953126.027344 2.777344 0 33.953125-13.742188 64.632813-35.984375 86.886719-22.273438 22.25-52.949219 35.988281-86.894532 36.003906-33.957031-.015625-64.632812-13.753906-86.890624-36.003906-22.242188-22.253906-35.984376-52.941406-35.984376-86.886719 0-1.484375.023438-2.980468.078126-4.488281 1.1875-33.246094 15.90625-62.769531 38.761718-84.101563 22.851563-21.308593 53.753906-34.289062 87.140625-34.289062h283.617188v-6.832031l-6.019531-3.230469z" fill="#54596e"/><path d="m238.933594 225.316406c0-56.546875-45.847656-102.394531-102.390625-102.394531-56.558594 0-102.40625 45.847656-102.40625 102.394531 0 56.558594 45.847656 102.40625 102.40625 102.40625 56.542969 0 102.390625-45.847656 102.390625-102.40625" fill="#fff35f"/><g fill="#54596e"><path d="m245.765625 225.316406c0-9.9375-1.328125-19.597656-3.828125-28.773437-1-3.636719-4.75-5.78125-8.390625-4.792969-3.636719.988281-5.78125 4.742188-4.789063 8.378906 2.191407 8.023438 3.355469 16.464844 3.355469 25.1875 0 3.777344 3.058594 6.832032 6.820313 6.832032 3.777344 0 6.832031-3.054688 6.832031-6.832032m-9.417969 44.4375c3.894532-8.746094 6.683594-18.085937 8.164063-27.871094.570312-3.726562-1.988281-7.203124-5.714844-7.773437-3.730469-.566406-7.214844 1.992187-7.785156 5.71875-1.292969 8.558594-3.726563 16.722656-7.132813 24.363281-1.535156 3.449219.011719 7.476563 3.445313 9.011719 3.445312 1.535156 7.476562-.011719 9.023437-3.449219m-36.441406 44.546875c7.910156-5.652343 15.046875-12.320312 21.191406-19.839843 2.382813-2.929688 1.953125-7.222657-.960937-9.609376-2.914063-2.394531-7.214844-1.960937-9.609375.964844-5.375 6.578125-11.625 12.421875-18.554688 17.367188-3.070312 2.175781-3.777344 6.449218-1.585937 9.519531 2.179687 3.066406 6.453125 3.773437 9.519531 1.597656m-54.023438 19.847657c9.875-.835938 19.378907-2.992188 28.34375-6.285157 3.535157-1.296875 5.347657-5.226562 4.054688-8.761719-1.304688-3.535156-5.222656-5.351562-8.773438-4.058593-7.820312 2.878906-16.136718 4.769531-24.777343 5.503906-3.765625.320313-6.554688 3.613281-6.238281 7.378906.316406 3.75 3.628906 6.539063 7.390624 6.222657m-56.609374-10.328126c8.632812 4.140626 17.898437 7.195313 27.621093 8.957032 3.714844.675781 7.265625-1.785156 7.933594-5.488282.671875-3.714843-1.785156-7.261718-5.5-7.945312-8.492187-1.546875-16.59375-4.207031-24.144531-7.835938-3.398438-1.632812-7.480469-.203124-9.101563 3.195313-1.636719 3.398437-.21875 7.464844 3.191407 9.117187m-43.488282-37.703124c5.425782 8.089843 11.902344 15.402343 19.230469 21.753906 2.851563 2.460937 7.160156 2.15625 9.632813-.683594 2.457031-2.851562 2.15625-7.160156-.683594-9.636719-6.425782-5.5625-12.09375-11.964843-16.835938-19.035156-2.101562-3.128906-6.347656-3.964844-9.480468-1.863281-3.132813 2.089844-3.96875 6.335937-1.863282 9.464844m-18.304687-54.566407c.558593 9.902344 2.445312 19.46875 5.476562 28.507813 1.191407 3.578125 5.070313 5.503906 8.644531 4.296875 3.570313-1.191407 5.5-5.058594 4.296876-8.632813-2.648438-7.894531-4.296876-16.261718-4.78125-24.945312-.214844-3.761719-3.433594-6.644532-7.199219-6.425782-3.761719.203126-6.640625 3.4375-6.4375 7.199219m11.953125-56.292969c-4.398438 8.519532-7.71875 17.710938-9.761719 27.355469-.769531 3.6875 1.585937 7.316407 5.277344 8.085938 3.675781.785156 7.300781-1.570313 8.085937-5.261719 1.785156-8.4375 4.675782-16.460938 8.53125-23.917969 1.734375-3.347656.417969-7.464843-2.929687-9.203125-3.359375-1.71875-7.480469-.40625-9.203125 2.941406m38.914062-42.398437c-8.238281 5.199219-15.730468 11.472656-22.285156 18.609375-2.546875 2.777344-2.367188 7.082031.40625 9.644531 2.777344 2.546875 7.097656 2.355469 9.648438-.417969 5.742187-6.25 12.308593-11.738281 19.519531-16.277343 3.179687-2.015625 4.144531-6.234375 2.128906-9.429688-2.015625-3.179687-6.222656-4.144531-9.417969-2.128906m55.074219-16.71875c-9.9375.265625-19.542969 1.878906-28.65625 4.640625-3.613281 1.101562-5.640625 4.902344-4.550781 8.515625s4.902344 5.652344 8.515625 4.550781c7.960937-2.417968 16.363281-3.824218 25.074219-4.070312 3.765624-.101563 6.730468-3.242188 6.628906-7.003906-.101563-3.78125-3.246094-6.746094-7.011719-6.632813m55.925781 13.550781c-8.402344-4.652344-17.480468-8.226562-27.0625-10.546875-3.664062-.886719-7.351562 1.371094-8.238281 5.035157-.890625 3.660156 1.367187 7.347656 5.03125 8.234374 8.363281 2.03125 16.3125 5.148438 23.664063 9.214844 3.292968 1.824219 7.453124.632813 9.277343-2.671875 1.828125-3.292969.625-7.453125-2.671875-9.265625m41.269532 40.105469c-4.96875-8.390625-11.011719-16.0625-17.960938-22.8125-2.699219-2.628906-7.023438-2.566406-9.65625.132813-2.625 2.703124-2.558594 7.023437.140625 9.660156 6.082031 5.910156 11.378906 12.628906 15.730469 19.964844 1.910156 3.246093 6.09375 4.308593 9.351562 2.394531 3.246094-1.910157 4.3125-6.109375 2.398438-9.351563v.011719"/><path d="m96.421875 271.339844c8.976563 9.757812 23.648437 15.359375 40.113281 15.414062 16.304688-.050781 30.84375-5.550781 39.851563-15.125 2.5625-2.761718 2.402343-7.082031-.359375-9.644531-2.761719-2.566406-7.082032-2.40625-9.644532.359375-5.433593 5.96875-16.710937 10.816406-29.84375 10.761719-13.269531.058593-24.636718-4.898438-30.007812-10.941407-2.535156-2.792968-6.851562-3-9.644531-.464843-2.789063 2.535156-2.996094 6.851562-.464844 9.644531zm0 0"/><path d="m88.75 198.011719c0 7.539062-6.109375 13.652343-13.652344 13.652343-7.539062 0-13.652344-6.113281-13.652344-13.652343 0-7.539063 6.113282-13.652344 13.652344-13.652344 7.542969 0 13.652344 6.113281 13.652344 13.652344zm0 0"/><path d="m211.632812 198.011719c0 7.539062-6.113281 13.652343-13.65625 13.652343-7.539062 0-13.652343-6.113281-13.652343-13.652343 0-7.539063 6.113281-13.652344 13.652343-13.652344 7.542969 0 13.65625 6.113281 13.65625 13.652344zm0 0"/></g><path d="m211.632812 238.972656c0 7.539063-6.113281 13.652344-13.65625 13.652344-7.539062 0-13.652343-6.113281-13.652343-13.652344 0-7.542968 6.113281-13.652344 13.652343-13.652344 7.542969 0 13.65625 6.109376 13.65625 13.652344zm0 0" fill="#f4a14e"/><path d="m88.75 238.972656c0 7.539063-6.109375 13.652344-13.652344 13.652344-7.539062 0-13.652344-6.113281-13.652344-13.652344 0-7.542968 6.113282-13.652344 13.652344-13.652344 7.542969 0 13.652344 6.109376 13.652344 13.652344zm0 0" fill="#f4a14e"/><path d="m300.378906 6.867188v54.613281c0 3.769531 3.054688 6.824219 6.828125 6.824219 3.769531 0 6.824219-3.054688 6.824219-6.824219v-54.613281c0-3.773438-3.054688-6.8281255-6.824219-6.8281255-3.773437 0-6.828125 3.0546875-6.828125 6.8281255" fill="#9af43b"/><path d="m277.898438 63.476562-27.308594-27.308593c-2.664063-2.664063-6.988282-2.664063-9.652344 0-2.667969 2.667969-2.667969 6.992187 0 9.65625l27.304688 27.308593c2.667968 2.664063 6.992187 2.664063 9.65625 0 2.664062-2.667968 2.664062-6.992187 0-9.65625" fill="#9af43b"/><path d="m346.164062 73.132812 27.308594-27.308593c2.664063-2.664063 2.664063-6.988281 0-9.65625-2.667968-2.664063-6.988281-2.664063-9.65625 0l-27.304687 27.308593c-2.667969 2.664063-2.667969 6.988282 0 9.65625 2.664062 2.664063 6.988281 2.664063 9.652343 0" fill="#9af43b"/><path d="m259.417969 225.5c-4.722657 14.128906-11.796875 27.171875-20.765625 38.667969-.71875 1.886719-1.488282 3.75-2.304688 5.585937-1.105468 2.453125-3.472656 3.941406-5.992187 4.035156-2.707031 2.851563-5.546875 5.582032-8.503907 8.171876-.617187.929687-1.246093 1.84375-1.894531 2.746093.0625.046875.121094.097657.179688.140625 2.914062 2.382813 3.347656 6.679688.960937 9.613282-6.144531 7.515624-13.285156 14.183593-21.191406 19.835937-1.199219.851563-2.585938 1.261719-3.957031 1.261719-2.132813 0-4.234375-.992188-5.5625-2.859375-.046875-.0625-.089844-.128907-.132813-.191407-3.855468 2.382813-7.882812 4.515626-12.058594 6.378907.03125.066406.058594.140625.085938.210937 1.292969 3.535156-.523438 7.46875-4.058594 8.761719-8.960937 3.292969-18.46875 5.449219-28.34375 6.285156-.195312.019531-.390625.023438-.582031.023438-3.515625 0-6.503906-2.6875-6.808594-6.246094-.007812-.074219-.007812-.148437-.015625-.222656-.644531.015625-1.289062.019531-1.9375.019531-3.949218 0-7.839844-.222656-11.671875-.660156-.011719.078125-.023437.15625-.039062.226562-.597657 3.296875-3.464844 5.601563-6.707031 5.601563-.402344 0-.816407-.035157-1.226563-.109375-9.722656-1.761719-18.988281-4.816406-27.621094-8.960938-3.410156-1.648437-4.828125-5.714844-3.195312-9.117187.035156-.066407.066406-.132813.101562-.199219-3.972656-2.246094-7.773437-4.746094-11.390625-7.488281-.046875.058593-.09375.113281-.140625.171875-1.351562 1.554687-3.253906 2.347656-5.164062 2.347656-1.585938 0-3.175781-.546875-4.46875-1.660156-7.328125-6.351563-13.804688-13.664063-19.230469-21.753906-1.820312-2.707032-1.441406-6.246094.71875-8.507813-14.78125-14.320313-26.164062-32.125-32.835938-52.097656.050782 33.867187 13.78125 64.480469 35.984376 86.691406 22.257812 22.25 52.933593 35.988281 86.890624 36.003906 33.945313-.015625 64.621094-13.753906 86.894532-36.003906 22.203125-22.214844 35.933594-52.816406 35.984375-86.703125" fill="#e6c377"/><path d="m264.476562 204.84375c-1.128906 7.089844-2.835937 13.996094-5.058593 20.660156-.050781 33.882813-13.78125 64.484375-35.984375 86.703125-22.273438 22.246094-52.949219 35.988281-86.894532 36-33.957031-.011719-64.632812-13.753906-86.890624-36-22.203126-22.214843-35.933594-52.828125-35.984376-86.695312-2.226562-6.660157-3.929687-13.570313-5.058593-20.664063-1.066407 6.679688-1.773438 13.484375-1.773438 20.46875 0 71.644532 58.0625 129.710938 129.707031 129.710938 71.628907 0 129.707032-58.066406 129.707032-129.710938.003906-6.984375-.707032-13.792968-1.769532-20.472656" fill="#54596e"/><path d="m74.796875 298.417969c1.992187 2.464843 2.039063 6.0625-.007813 8.597656 3.617188 2.738281 7.421876 5.238281 11.390626 7.488281 1.203124-2.320312 3.578124-3.671875 6.050781-3.671875.992187 0 2 .21875 2.953125.675781 7.554687 3.628907 15.652344 6.289063 24.144531 7.835938 3.640625.667969 6.074219 4.085938 5.539063 7.71875 3.832031.4375 7.726562.660156 11.675781.660156.648437 0 1.289062-.007812 1.9375-.019531-.191407-3.671875 2.558593-6.84375 6.25-7.15625 8.644531-.734375 16.960937-2.625 24.78125-5.503906.777343-.28125 1.570312-.414063 2.351562-.414063 2.714844 0 5.265625 1.621094 6.335938 4.257813 4.175781-1.859375 8.203125-3.992188 12.058593-6.375-2.03125-3.050781-1.289062-7.191407 1.714844-9.328125 2-1.429688 3.941406-2.929688 5.824219-4.503906-18.230469 9.820312-39.082031 15.390624-61.253906 15.390624-22.375 0-43.398438-5.671874-61.746094-15.652343m147.054687-16.453125c-.867187.761718-1.746093 1.511718-2.632812 2.25.253906.144531.5.3125.742188.496094.644531-.902344 1.273437-1.820313 1.890624-2.746094" fill="#e6dc61"/><path d="m171.863281 314.628906c-.78125 0-1.578125.132813-2.355469.414063-7.820312 2.878906-16.136718 4.769531-24.777343 5.503906-3.691407.3125-6.445313 3.484375-6.253907 7.15625.003907.070313.007813.144531.015626.222656.300781 3.554688 3.289062 6.246094 6.808593 6.246094.191407 0 .386719-.007813.582031-.023437 9.875-.835938 19.382813-2.996094 28.34375-6.289063 3.535157-1.292969 5.347657-5.222656 4.058594-8.757813-.027344-.070312-.054687-.144531-.085937-.214843-1.074219-2.636719-3.621094-4.257813-6.335938-4.257813m-79.636719-3.796875c-2.46875 0-4.84375 1.347657-6.046874 3.667969-.035157.066406-.066407.132812-.101563.199219-1.632813 3.402343-.214844 7.46875 3.195313 9.117187 8.632812 4.144532 17.898437 7.199219 27.621093 8.960938.410157.074218.824219.109375 1.226563.109375 3.238281 0 6.113281-2.308594 6.707031-5.601563.015625-.070312.027344-.148437.035156-.226562.535157-3.628906-1.898437-7.050782-5.535156-7.71875-8.492187-1.546875-16.59375-4.207032-24.148437-7.832032-.953126-.460937-1.960938-.675781-2.953126-.675781m126.992188-26.617187c-6.617188 5.503906-13.789062 10.355468-21.421875 14.46875-1.882813 1.574218-3.824219 3.074218-5.824219 4.5-3.003906 2.136718-3.746094 6.28125-1.714844 9.332031.042969.0625.085938.125.132813.1875 1.324219 1.867187 3.425781 2.859375 5.5625 2.859375 1.371094 0 2.753906-.410156 3.957031-1.261719 7.910156-5.652343 15.042969-12.320312 21.191406-19.835937 2.382813-2.929688 1.953126-7.226563-.960937-9.609375-.058594-.046875-.117187-.09375-.179687-.140625-.242188-.1875-.488282-.351563-.742188-.5m-172.714844-6.601563c-2.160156 2.257813-2.539062 5.796875-.722656 8.503907 5.425781 8.089843 11.902344 15.402343 19.230469 21.753906 1.292969 1.113281 2.886719 1.660156 4.472656 1.660156 1.910156 0 3.808594-.792969 5.160156-2.34375.050781-.058594.09375-.113281.140625-.171875 2.050782-2.535156 2-6.132813.007813-8.597656-10.363281-5.640625-19.878907-12.660157-28.289063-20.804688m192.148438-13.445312c-2.609375 3.34375-5.375 6.554687-8.296875 9.625 2.519531-.097657 4.890625-1.582031 5.992187-4.035157.816406-1.839843 1.585938-3.703124 2.304688-5.589843" fill="#54596e"/><path d="m334.511719 116.09375h-54.613281l-6.828126-20.480469h68.269532zm0 0" fill="#ffd578"/><path d="m334.511719 116.09375v-6.828125h-49.691407l-2.277343-6.832031h49.324219l-3.832032 11.496094 6.476563 2.164062v-6.828125 6.828125l6.476562 2.15625 6.828125-20.480469c.691406-2.082031.34375-4.371093-.941406-6.152343-1.28125-1.777344-3.34375-2.832032-5.535156-2.832032h-68.269532c-2.191406 0-4.253906 1.054688-5.535156 2.832032-1.28125 1.777343-1.632812 4.070312-.941406 6.152343l6.828125 20.480469c.929687 2.796875 3.527344 4.667969 6.476563 4.667969h54.613281c2.949219 0 5.546875-1.875 6.476562-4.667969zm0 0" fill="#54596e"/></svg>